<svg xmlns="http://www.w3.org/2000/svg" width="138.691" height="60.484" viewBox="0 0 138.691 60.484">
  <g id="_004-car" data-name="004-car" transform="translate(0 -144.4)">
    <g id="Group_2066" data-name="Group 2066" transform="translate(0 144.4)">
      <g id="Group_2065" data-name="Group 2065">
        <g id="Group_2064" data-name="Group 2064">
          <path id="Path_2171" data-name="Path 2171" d="M97.967,299.7a3.767,3.767,0,1,0,3.767,3.767A3.812,3.812,0,0,0,97.967,299.7Z" transform="translate(-68.673 -257.616)" fill="#2de9c3"/>
          <path id="Path_2172" data-name="Path 2172" d="M129.342,157.651l-26.448-10.6A36.847,36.847,0,0,0,89.1,144.4H72.9a37.21,37.21,0,0,0-16.774,4.011L32.166,160.578l-17.181,2.493a17.425,17.425,0,0,0-10.731,5.88A17.785,17.785,0,0,0,0,180.468V190.6a2.845,2.845,0,0,0,2.845,2.845H15.013a14.617,14.617,0,0,0,28.535,0H94.412a14.6,14.6,0,0,0,28.508,0h12.926a2.845,2.845,0,0,0,2.845-2.845V171.58A14.8,14.8,0,0,0,129.342,157.651ZM100.78,152.34l20.405,8.184H105.793l-6.775-8.834C99.615,151.879,100.211,152.1,100.78,152.34Zm-25.2-2.249H89.127c.515,0,1.03,0,1.545.027l7.994,10.406H75.605V150.091ZM58.7,153.478a31.864,31.864,0,0,1,11.192-3.252V160.5H44.875ZM15.365,168.816a10.242,10.242,0,0,1-8.861,7.29A11.939,11.939,0,0,1,15.365,168.816Zm13.929,30.378a8.943,8.943,0,1,1,8.943-8.943A8.951,8.951,0,0,1,29.294,199.193Zm79.4,0a8.943,8.943,0,1,1,8.943-8.943A8.951,8.951,0,0,1,108.693,199.193Zm24.389-11.436h-9.972a14.63,14.63,0,0,0-28.833,0H43.683a14.63,14.63,0,0,0-28.833,0H5.637v-5.935a15.969,15.969,0,0,0,15.663-13.9l11.923-1.734h89.1v3.685a9.431,9.431,0,0,0,9.4,9.43h1.3l.054,8.455Zm0-14.145h-1.3a3.747,3.747,0,0,1-3.74-3.74v-3.685h3.333a9.314,9.314,0,0,1,1.707,5.393v2.032Z" transform="translate(0 -144.4)" fill="#2de9c3"/>
          <path id="Path_2173" data-name="Path 2173" d="M390.967,299.7a3.767,3.767,0,1,0,3.767,3.767A3.759,3.759,0,0,0,390.967,299.7Z" transform="translate(-282.274 -257.616)" fill="#2de9c3"/>
        </g>
      </g>
    </g>
    <g id="Group_2068" data-name="Group 2068" transform="translate(56.988 174.127)">
      <g id="Group_2067" data-name="Group 2067">
        <path id="Path_2174" data-name="Path 2174" d="M231.952,254.1H213.145a2.845,2.845,0,1,0,0,5.691h18.806a2.845,2.845,0,1,0,0-5.691Z" transform="translate(-210.3 -254.1)" fill="#2de9c3"/>
      </g>
    </g>
    <g id="SVGCleanerId_0" transform="translate(25.527 186.484)">
      <g id="Group_2069" data-name="Group 2069">
        <path id="Path_2175" data-name="Path 2175" d="M97.967,299.7a3.767,3.767,0,1,0,3.767,3.767A3.812,3.812,0,0,0,97.967,299.7Z" transform="translate(-94.2 -299.7)" fill="#2de9c3"/>
      </g>
    </g>
    <g id="SVGCleanerId_1" transform="translate(104.926 186.484)">
      <g id="Group_2070" data-name="Group 2070">
        <path id="Path_2176" data-name="Path 2176" d="M390.967,299.7a3.767,3.767,0,1,0,3.767,3.767A3.759,3.759,0,0,0,390.967,299.7Z" transform="translate(-387.2 -299.7)" fill="#2de9c3"/>
      </g>
    </g>
    <g id="Group_2072" data-name="Group 2072" transform="translate(25.527 186.484)">
      <g id="Group_2071" data-name="Group 2071">
        <path id="Path_2177" data-name="Path 2177" d="M97.967,299.7a3.767,3.767,0,1,0,3.767,3.767A3.812,3.812,0,0,0,97.967,299.7Z" transform="translate(-94.2 -299.7)" fill="#2de9c3"/>
      </g>
    </g>
    <g id="Group_2074" data-name="Group 2074" transform="translate(104.926 186.484)">
      <g id="Group_2073" data-name="Group 2073">
        <path id="Path_2178" data-name="Path 2178" d="M390.967,299.7a3.767,3.767,0,1,0,3.767,3.767A3.759,3.759,0,0,0,390.967,299.7Z" transform="translate(-387.2 -299.7)" fill="#2de9c3"/>
      </g>
    </g>
  </g>
</svg>
