<svg xmlns="http://www.w3.org/2000/svg" width="93.227" height="96.697" viewBox="0 0 93.227 96.697">
  <g id="_001-anonymous" data-name="001-anonymous" transform="translate(-3.6)">
    <path id="Path_2160" data-name="Path 2160" d="M96.03,11.161a2.9,2.9,0,0,0-1.97-.844h-.047a7.422,7.422,0,0,1-5.252-2.2,7.558,7.558,0,0,1-2.2-5.346A2.625,2.625,0,0,0,85.713.8,2.959,2.959,0,0,0,83.7,0H16.731a2.625,2.625,0,0,0-1.97.844,2.9,2.9,0,0,0-.844,1.97,7.64,7.64,0,0,1-2.2,5.346,7.422,7.422,0,0,1-5.252,2.2H6.414a2.625,2.625,0,0,0-1.97.844A2.919,2.919,0,0,0,3.6,13.224a105.2,105.2,0,0,0,7.644,39.2c7.5,18.242,20.118,33.014,37.469,43.847a2.879,2.879,0,0,0,3,0C69.065,85.442,81.68,70.717,89.183,52.428a105.2,105.2,0,0,0,7.644-39.2A2.829,2.829,0,0,0,96.03,11.161ZM50.214,90.46c-34-22.041-40.423-55.242-40.939-74.8A13,13,0,0,0,15.7,12.146a12.815,12.815,0,0,0,3.564-6.518H81.211a13.005,13.005,0,0,0,3.564,6.518A12.808,12.808,0,0,0,91.2,15.663C90.637,35.218,84.212,68.42,50.214,90.46Z" transform="translate(0)" fill="#9a83ff"/>
    <path id="Path_2161" data-name="Path 2161" d="M98.049,98.909a2.782,2.782,0,0,0-3.8,1.125l-2.439,4.455H84.121l-2.767-4.549a2.794,2.794,0,0,0-2.392-1.36H67.521a2.794,2.794,0,0,0-2.392,1.36l-2.767,4.549H54.671l-2.439-4.455a2.8,2.8,0,1,0-4.924,2.673l3.236,5.909a2.877,2.877,0,0,0,2.485,1.454H63.957a2.794,2.794,0,0,0,2.392-1.36l2.767-4.549h8.253l2.767,4.549a2.794,2.794,0,0,0,2.392,1.36H93.453a2.877,2.877,0,0,0,2.485-1.454l3.236-5.909A2.794,2.794,0,0,0,98.049,98.909Z" transform="translate(-23.028 -52.342)" fill="#9a83ff"/>
    <path id="Path_2162" data-name="Path 2162" d="M96.84,151.7l5.44-18.9H91.4Z" transform="translate(-46.626 -70.524)" fill="#9a83ff"/>
    <path id="Path_2163" data-name="Path 2163" d="M47.738,39.68a11.306,11.306,0,0,1,9.8,5.674,2.815,2.815,0,1,0,4.877-2.814,16.982,16.982,0,0,0-29.356,0,2.788,2.788,0,0,0,1.032,3.845,3.006,3.006,0,0,0,1.407.375,2.814,2.814,0,0,0,2.439-1.407A11.306,11.306,0,0,1,47.738,39.68Z" transform="translate(-15.438 -18.108)" fill="#9a83ff"/>
    <path id="Path_2164" data-name="Path 2164" d="M55.276,55.1a1.876,1.876,0,1,0,0,3.752h7.456a1.876,1.876,0,0,0,0-3.752Z" transform="translate(-26.446 -29.261)" fill="#9a83ff"/>
    <path id="Path_2165" data-name="Path 2165" d="M124.138,34a16.976,16.976,0,0,0-14.678,8.488,2.788,2.788,0,0,0,1.032,3.845,3.006,3.006,0,0,0,1.407.375,2.814,2.814,0,0,0,2.439-1.407,11.3,11.3,0,0,1,19.6,0,2.815,2.815,0,1,0,4.877-2.814A17.033,17.033,0,0,0,124.138,34Z" transform="translate(-56.01 -18.056)" fill="#9a83ff"/>
    <path id="Path_2166" data-name="Path 2166" d="M139.032,58.852a1.876,1.876,0,0,0,0-3.752h-7.456a1.876,1.876,0,0,0,0,3.752Z" transform="translate(-66.966 -29.261)" fill="#9a83ff"/>
    <path id="Path_2167" data-name="Path 2167" d="M100.491,121.452a1.876,1.876,0,0,0,0-3.752H94.676a1.876,1.876,0,0,0,0,3.752Z" transform="translate(-47.37 -62.505)" fill="#9a83ff"/>
  </g>
</svg>
