<svg xmlns="http://www.w3.org/2000/svg" width="84.691" height="97.697" viewBox="0 0 84.691 97.697">
  <g id="car" transform="translate(-32 0.001)">
    <g id="Group_2059" data-name="Group 2059" transform="translate(32 -0.001)">
      <g id="Group_2058" data-name="Group 2058" transform="translate(0 0)">
        <path id="Path_2168" data-name="Path 2168" d="M114.289,39.282,82.172,7.164A24.3,24.3,0,0,0,64.891,0H40.141A8.139,8.139,0,0,0,32,8.141V96.068A1.633,1.633,0,0,0,33.628,97.7H81.561a11.428,11.428,0,0,0,10.014-5.943A48.016,48.016,0,0,1,110.748,72.58a11.4,11.4,0,0,0,5.943-10.014V45.022A8.208,8.208,0,0,0,114.289,39.282Zm-.875,23.3a8.155,8.155,0,0,1-4.234,7.144A51,51,0,0,0,88.725,90.186a8.115,8.115,0,0,1-7.144,4.234H35.257V8.141a4.873,4.873,0,0,1,4.885-4.885h24.75a20.948,20.948,0,0,1,14.96,6.208L111.99,41.582a4.881,4.881,0,0,1,1.425,3.46Z" transform="translate(-32 0.001)" fill="#ff6d6d"/>
      </g>
    </g>
    <g id="Group_2061" data-name="Group 2061" transform="translate(38.513 6.513)">
      <g id="Group_2060" data-name="Group 2060" transform="translate(0)">
        <path id="Path_2169" data-name="Path 2169" d="M131.92,66.662,102.489,37.251A17.834,17.834,0,0,0,89.829,32H68.885A4.873,4.873,0,0,0,64,36.885V67.822a1.633,1.633,0,0,0,1.628,1.628H130.76a1.62,1.62,0,0,0,1.506-1A1.7,1.7,0,0,0,131.92,66.662Zm-25.584-.468H67.257V36.885a1.633,1.633,0,0,1,1.628-1.628H89.829a14.482,14.482,0,0,1,10.36,4.295l6.147,6.147Zm3.257,0V48.955l17.239,17.239Z" transform="translate(-64 -32)" fill="#ff6d6d"/>
      </g>
    </g>
    <g id="Group_2063" data-name="Group 2063" transform="translate(87.362 48.848)">
      <g id="Group_2062" data-name="Group 2062" transform="translate(0)">
        <path id="Path_2170" data-name="Path 2170" d="M318.655,240h-9.77a4.885,4.885,0,1,0,0,9.77h9.77a4.885,4.885,0,0,0,0-9.77Zm0,6.513h-9.77a1.628,1.628,0,1,1,0-3.257h9.77a1.628,1.628,0,0,1,0,3.257Z" transform="translate(-304 -240)" fill="#ff6d6d"/>
      </g>
    </g>
  </g>
</svg>
