<svg xmlns="http://www.w3.org/2000/svg" width="70.598" height="97.697" viewBox="0 0 70.598 97.697">
  <g id="_005-clothes" data-name="005-clothes" transform="translate(-58.899)">
    <path id="Path_2179" data-name="Path 2179" d="M87.354,50.824H76.813V3.445h6.5a11.021,11.021,0,0,0,21.772,0h6.5V29.833a1.722,1.722,0,0,0,3.445,0V25.194l3.7,1.86a1.855,1.855,0,0,0,.781.184,1.663,1.663,0,0,0,1.4-.735l8.268-11.713a1.715,1.715,0,0,0-.3-2.32L114.408.413a1.72,1.72,0,0,0-1.1-.413H75.09a1.721,1.721,0,0,0-1.1.413L59.519,12.471a1.715,1.715,0,0,0-.3,2.32L67.488,26.5a1.688,1.688,0,0,0,2.159.551l3.7-1.86V52.569a1.735,1.735,0,0,0,1.722,1.722H87.331a1.734,1.734,0,0,0,.023-3.468Zm31.624-27.536-3.927-1.952V5.4l10.427,8.681ZM94.221,9.3a7.583,7.583,0,0,1-7.372-5.856h14.767A7.629,7.629,0,0,1,94.221,9.3ZM69.441,23.288l-6.5-9.209L73.368,5.4V21.312Z" transform="translate(0 0)" fill="#a3b9ff"/>
    <path id="Path_2180" data-name="Path 2180" d="M235.755,146.1H201.122a1.735,1.735,0,0,0-1.722,1.722v60.7a1.735,1.735,0,0,0,1.722,1.722H214.4a1.718,1.718,0,0,0,1.722-1.631l2.343-41.959,2.343,41.959a1.717,1.717,0,0,0,1.722,1.631H235.8a1.735,1.735,0,0,0,1.722-1.722v-60.7A1.79,1.79,0,0,0,235.755,146.1Zm-1.722,7.28h-5.42v-3.858h5.42Zm-22.323,0v-3.858h13.435v3.858Zm-3.445-3.835V153.4h-5.42v-3.858Zm15.847,57.231-2.343-42.12a1.718,1.718,0,0,0-1.722-1.631h-3.238a1.718,1.718,0,0,0-1.722,1.631l-2.343,42.12h-9.921V156.825H234.01v49.951Z" transform="translate(-108.234 -112.547)" fill="#a3b9ff"/>
  </g>
</svg>
