<svg xmlns="http://www.w3.org/2000/svg" width="96.741" height="96.697" viewBox="0 0 96.741 96.697">
  <g id="_006-guitar" data-name="006-guitar" transform="translate(0.131)">
    <path id="Path_2158" data-name="Path 2158" d="M92.605,26.861l4-4-3.589-3.589,3.551-3.551L80.912.038,77.361,3.589,73.753,0l-4,4,3.589,3.589-3.627,3.627L66.122,7.632l-4,4,3.589,3.589-3.551,3.551,1.455,1.455L51.52,32.321a18.724,18.724,0,0,0-7.65-1.417c-5.1.208-9.823,2.663-14.035,7.348l-.4.548c-.019.038-2.437,4.345-7.008,5.025C10.283,45.657,2.444,51.947.309,61.543c-2.833,12.864,8.916,24.8,9.407,25.294.453.453,9.993,9.861,21.194,9.861a19.151,19.151,0,0,0,4.1-.434c9.6-2.116,15.886-9.974,17.719-22.12.68-4.571,4.987-6.989,5.025-7.008l.567-.4C63,62.526,65.479,57.822,65.668,52.7a18.362,18.362,0,0,0-1.417-7.65l12.09-12.09L77.8,34.417l3.551-3.551,3.589,3.589,4-4-3.589-3.589,3.627-3.627ZM88.563,15.7,77.833,26.446l-7.669-7.669L80.894,8.047ZM54.769,62.356c-1.417.85-6.63,4.42-7.613,10.956-1.02,6.838-4.175,15.4-13.336,17.435-9.823,2.172-19.967-7.8-20.08-7.9-.094-.094-10.068-10.2-7.9-20.061,2.021-9.162,10.6-12.316,17.435-13.336,6.536-.982,10.087-6.177,10.956-7.613,3.967-4.307,8.255-5.988,12.788-5.025L35.407,48.434a10.2,10.2,0,0,0-4.647,2.682A10.412,10.412,0,0,0,45.494,65.831a10.293,10.293,0,0,0,2.682-4.647L59.794,49.567Q61.239,56.4,54.769,62.356Zm-20-.51a4.748,4.748,0,1,1,6.725,0A4.743,4.743,0,0,1,34.764,61.846ZM72.374,29l-24.916,24.9a10.029,10.029,0,0,0-1.983-2.758,10.625,10.625,0,0,0-2.758-1.983l24.9-24.9Z" transform="translate(0)" fill="#ff6d6d"/>
    <path id="Path_2159" data-name="Path 2159" d="M81.7,359l4-4,10.2,10.2-4,4Z" transform="translate(-66.373 -287.941)" fill="#ff6d6d"/>
  </g>
</svg>
