<svg xmlns="http://www.w3.org/2000/svg" width="93.806" height="96" viewBox="0 0 93.806 96">
  <g id="calendar" transform="translate(-6)">
    <path id="Path_2155" data-name="Path 2155" d="M205.4,292.642a2.852,2.852,0,0,0,4.013,0l10.125-10.125a2.837,2.837,0,1,0-4.013-4.012l-8.119,8.119-3.694-3.694a2.837,2.837,0,1,0-4.012,4.012Z" transform="translate(-156.711 -225.611)" fill="#e8cd1e"/>
    <path id="Path_2156" data-name="Path 2156" d="M158.6,244.8a22.5,22.5,0,1,0-22.5-22.5A22.518,22.518,0,0,0,158.6,244.8Zm0-39.319a16.837,16.837,0,1,1-16.838,16.837A16.86,16.86,0,0,1,158.6,205.481Z" transform="translate(-105.706 -162.337)" fill="#e8cd1e"/>
    <path id="Path_2157" data-name="Path 2157" d="M90.619,6.038H85.444V2.831a2.822,2.822,0,1,0-5.644,0V6.038H74.231V2.831a2.831,2.831,0,1,0-5.662,0V6.038H37.256V2.831a2.831,2.831,0,0,0-5.663,0V6.038H26.025V2.831a2.831,2.831,0,1,0-5.663,0V6.038H15.169A9.17,9.17,0,0,0,6,15.206V86.831A9.17,9.17,0,0,0,15.169,96H90.637a9.17,9.17,0,0,0,9.169-9.169V15.206A9.2,9.2,0,0,0,90.619,6.038Zm3.506,80.794a3.513,3.513,0,0,1-3.506,3.506H15.169a3.513,3.513,0,0,1-3.506-3.506V29.606H94.125ZM11.663,15.206A3.513,3.513,0,0,1,15.169,11.7h5.175v3.206a2.831,2.831,0,0,0,5.663,0V11.7h5.569v3.206a2.831,2.831,0,0,0,5.663,0V11.7H68.531v3.206a2.831,2.831,0,1,0,5.662,0V11.7h5.569v3.206a2.831,2.831,0,1,0,5.662,0V11.7H90.6a3.513,3.513,0,0,1,3.506,3.506v8.738H11.663Z" transform="translate(0)" fill="#e8cd1e"/>
  </g>
</svg>
