<svg xmlns="http://www.w3.org/2000/svg" width="40" height="39.986" viewBox="0 0 40 39.986"><defs><style>.a{fill:#fff;}</style></defs><path class="a" d="M34.145,5.9A20,20,0,0,0,1.186,26.836a.814.814,0,0,0,1.532-.552,18.373,18.373,0,1,1,30.6,6.413l-.117.124c-.069.073-.137.147-.209.219a18.4,18.4,0,0,1-25.985,0c-.038-.038-.075-.077-.112-.116,0-.075,0-.149,0-.222q0-.246.009-.49c0-.054.006-.108.009-.163.005-.108.01-.216.018-.324,0-.064.012-.128.017-.192.009-.1.017-.194.027-.29.007-.068.017-.136.026-.2.012-.092.023-.183.036-.275.01-.069.023-.138.034-.207.015-.089.029-.178.045-.266.013-.07.028-.139.042-.209.018-.087.035-.174.054-.26.016-.07.033-.139.05-.209.02-.085.041-.17.063-.254s.038-.139.057-.208.046-.166.071-.249.043-.138.065-.207.052-.163.08-.244.048-.136.072-.2.058-.161.088-.24.053-.134.079-.2.063-.158.1-.236.057-.132.087-.2.069-.155.1-.231.062-.13.093-.195.075-.152.113-.227.066-.127.1-.19.08-.15.122-.224.07-.125.106-.186.086-.146.13-.219.074-.122.112-.182.091-.143.138-.214.078-.119.118-.178.1-.14.146-.21.082-.116.124-.173.1-.137.154-.205.086-.112.13-.168.108-.134.163-.2.089-.109.135-.162.114-.131.171-.2.093-.1.14-.156.119-.127.179-.19.1-.1.145-.151.125-.124.188-.186.1-.1.149-.144.131-.121.2-.181c.05-.046.1-.092.151-.137.068-.06.138-.118.208-.177.051-.043.1-.087.153-.129.072-.059.146-.116.219-.174.051-.04.1-.081.154-.12.077-.059.157-.115.236-.172.05-.036.1-.073.149-.108.087-.061.176-.12.265-.18l.131-.088c.116-.075.234-.148.352-.22l.055-.034q.206-.123.417-.24c.048-.026.1-.051.146-.077.093-.05.187-.1.282-.148.061-.031.123-.059.185-.089.078-.038.155-.076.234-.112a7.923,7.923,0,0,0,10.974,0,13.257,13.257,0,0,1,6.518,6.634.814.814,0,1,0,1.49-.656,14.676,14.676,0,0,0-6.922-7.259A7.942,7.942,0,0,0,20,7.1a.814.814,0,0,0,0,1.628A6.315,6.315,0,0,1,24.693,19.28h0a6.3,6.3,0,0,1-9.384,0h0a6.309,6.309,0,0,1,.245-8.723A.814.814,0,0,0,14.408,9.4a7.935,7.935,0,0,0-.983,10.113l-.024.012c-.063.032-.126.065-.188.1-.1.05-.193.1-.288.152-.067.037-.133.075-.2.113-.089.05-.178.1-.266.152-.068.04-.135.082-.2.124-.084.052-.168.1-.251.157-.068.044-.134.088-.2.133s-.161.107-.24.163-.132.094-.2.141-.154.112-.231.169l-.194.149q-.112.087-.222.176l-.189.155q-.108.09-.214.183t-.183.161q-.1.094-.207.19c-.059.055-.118.111-.177.167s-.134.132-.2.2-.113.114-.169.171-.13.138-.195.207-.108.116-.161.175-.127.145-.19.218-.1.117-.151.176c-.064.076-.126.154-.188.232-.046.058-.093.115-.139.173-.065.084-.129.17-.192.255-.04.054-.081.107-.12.161-.08.111-.158.224-.235.338-.02.03-.042.059-.062.089q-.144.215-.28.435c-.031.051-.061.1-.091.153-.059.1-.118.195-.174.294-.035.062-.069.125-.1.187-.05.09-.1.179-.147.269-.035.067-.069.135-.1.2-.044.087-.089.175-.131.263-.034.07-.066.141-.1.212-.04.087-.08.174-.119.262-.032.073-.062.146-.093.219s-.073.176-.108.264-.058.149-.086.224-.066.178-.1.267-.053.152-.079.228-.06.18-.088.27-.048.154-.071.231-.053.183-.079.275-.042.155-.063.234-.047.186-.069.28c-.019.078-.037.156-.054.235-.021.095-.04.19-.059.286-.016.078-.031.156-.046.235-.018.1-.034.2-.05.293-.012.077-.026.155-.037.232-.015.1-.027.2-.04.3-.009.075-.02.151-.028.226-.012.107-.021.214-.03.321-.006.072-.014.143-.019.215-.009.12-.014.24-.02.361,0,.06-.007.119-.009.179q-.01.271-.01.544c0,.2.007.382.015.588a.832.832,0,0,0,.018.139l0,.011a.8.8,0,0,0,.041.128l0,.012a.81.81,0,0,0,.062.116l.009.014a.828.828,0,0,0,.081.1l.006.007.107.114c.081.087.162.173.247.258a20.025,20.025,0,0,0,28.288,0c.085-.085.166-.171.247-.258l.107-.114A20,20,0,0,0,34.145,5.9Z" transform="translate(0 -0.054)"/></svg>