<svg xmlns="http://www.w3.org/2000/svg" xmlns:xlink="http://www.w3.org/1999/xlink" width="438.736" height="137.5" viewBox="0 0 438.736 137.5"><defs><style>.a{fill:#fff;}.b{fill:#ff3a3a;}.c{filter:url(#w);}.d{filter:url(#u);}.e{filter:url(#s);}.f{filter:url(#q);}.g{filter:url(#o);}.h{filter:url(#m);}.i{filter:url(#k);}.j{filter:url(#i);}.k{filter:url(#g);}.l{filter:url(#e);}.m{filter:url(#c);}.n{filter:url(#a);}</style><filter id="a" x="216.006" y="3.196" width="72.69" height="109.001" filterUnits="userSpaceOnUse"><feOffset dy="3" input="SourceAlpha"/><feGaussianBlur stdDeviation="3" result="b"/><feFlood flood-opacity="0.349"/><feComposite operator="in" in2="b"/><feComposite in="SourceGraphic"/></filter><filter id="c" x="77.595" y="3.285" width="75.708" height="118.59" filterUnits="userSpaceOnUse"><feOffset dy="3" input="SourceAlpha"/><feGaussianBlur stdDeviation="3" result="d"/><feFlood flood-opacity="0.349"/><feComposite operator="in" in2="d"/><feComposite in="SourceGraphic"/></filter><filter id="e" x="139.805" y="0" width="86.299" height="114.151" filterUnits="userSpaceOnUse"><feOffset dy="3" input="SourceAlpha"/><feGaussianBlur stdDeviation="3" result="f"/><feFlood flood-opacity="0.349"/><feComposite operator="in" in2="f"/><feComposite in="SourceGraphic"/></filter><filter id="g" x="280.905" y="3.285" width="87.96" height="118.501" filterUnits="userSpaceOnUse"><feOffset dy="3" input="SourceAlpha"/><feGaussianBlur stdDeviation="3" result="h"/><feFlood flood-opacity="0.349"/><feComposite operator="in" in2="h"/><feComposite in="SourceGraphic"/></filter><filter id="i" x="352.907" y="3.285" width="85.829" height="125.603" filterUnits="userSpaceOnUse"><feOffset dy="3" input="SourceAlpha"/><feGaussianBlur stdDeviation="3" result="j"/><feFlood flood-opacity="0.349"/><feComposite operator="in" in2="j"/><feComposite in="SourceGraphic"/></filter><filter id="k" x="0" y="0" width="92.399" height="137.5" filterUnits="userSpaceOnUse"><feOffset dy="3" input="SourceAlpha"/><feGaussianBlur stdDeviation="3" result="l"/><feFlood flood-opacity="0.349"/><feComposite operator="in" in2="l"/><feComposite in="SourceGraphic"/></filter><filter id="m" x="217.249" y="0.888" width="69.493" height="106.959" filterUnits="userSpaceOnUse"><feOffset dy="3" input="SourceAlpha"/><feGaussianBlur stdDeviation="3" result="n"/><feFlood flood-opacity="0.349"/><feComposite operator="in" in2="n"/><feComposite in="SourceGraphic"/></filter><filter id="o" x="78.483" y="1.065" width="73.133" height="116.548" filterUnits="userSpaceOnUse"><feOffset dy="3" input="SourceAlpha"/><feGaussianBlur stdDeviation="3" result="p"/><feFlood flood-opacity="0.349"/><feComposite operator="in" in2="p"/><feComposite in="SourceGraphic"/></filter><filter id="q" x="141.252" y="0.888" width="82.988" height="109.001" filterUnits="userSpaceOnUse"><feOffset dy="3" input="SourceAlpha"/><feGaussianBlur stdDeviation="3" result="r"/><feFlood flood-opacity="0.349"/><feComposite operator="in" in2="r"/><feComposite in="SourceGraphic"/></filter><filter id="s" x="281.349" y="0.977" width="85.563" height="116.548" filterUnits="userSpaceOnUse"><feOffset dy="3" input="SourceAlpha"/><feGaussianBlur stdDeviation="3" result="t"/><feFlood flood-opacity="0.349"/><feComposite operator="in" in2="t"/><feComposite in="SourceGraphic"/></filter><filter id="u" x="353.262" y="0.977" width="83.942" height="123.65" filterUnits="userSpaceOnUse"><feOffset dy="3" input="SourceAlpha"/><feGaussianBlur stdDeviation="3" result="v"/><feFlood flood-opacity="0.349"/><feComposite operator="in" in2="v"/><feComposite in="SourceGraphic"/></filter><filter id="w" x="1.154" y="0.888" width="89.736" height="132.084" filterUnits="userSpaceOnUse"><feOffset dy="3" input="SourceAlpha"/><feGaussianBlur stdDeviation="3" result="x"/><feFlood flood-opacity="0.349"/><feComposite operator="in" in2="x"/><feComposite in="SourceGraphic"/></filter></defs><g transform="translate(9 6)"><g class="n" transform="matrix(1, 0, 0, 1, -9, -6)"><path class="a" d="M284.495,94.424c-9.588-.444-14.205-.621-23.7-.888H259.9l-.533-3.285-.533-69.338h-15l-.533-3.285L250.136,3.6h41.017l.266.621c2.4,6.215,3.551,7.458,6.037,13.85l.533,3.285h-1.332c-5.5-.089-8.434-.089-13.672-.178L285.56,94.6Z" transform="translate(-18.29 5.6)"/></g><g class="m" transform="matrix(1, 0, 0, 1, -9, -6)"><path class="a" d="M98.764,3.7h43.5l.089.8c.977,6.481,1.509,9.677,2.575,16.158l.178,1.065h-1.065c-9.233.178-14.027.266-22.994.444l-1.687,18.467L115.9,42.32l3.818-.178h0c6.392-.355,10.565-3.818,17.4-4.084l.533,3.2L136.319,59.1l-.8.089c-7.191.444-10.92.71-17.934,1.243L115.81,79.875c8.967-.888,14.471-4.705,23.882-5.5l.533,3.285s-3.729,12.962-5.682,19.887l-.178.621-.621.089c-17.934,1.864-26.723,3.019-44.657,5.86l-1.154.178L87.4,101Z" transform="translate(-0.8 5.58)"/></g><g class="l" transform="matrix(1, 0, 0, 1, -9, -6)"><path class="a" d="M157.5,92.954h0c5.948-15.892,13.495-31.162,19.8-47.5h0l.621-1.6-.888.888-.444-1.421c-4.794-15.448-7.369-23.793-11.986-38.886L163.711,0l23.882,3.285.178.71c2.486,10.743,3.906,16.6,6.215,26.634,3.107-9.855,4.883-15.714,8.079-25.924l.444-1.421L225.237,0l.533,3.285s-11.986,31.429-15.892,41.639c5.948,18.289,8.967,25.658,15.27,44.835l.533,3.285h-1.243c-9.5.089-14.116.178-23.527.533h-.71l-.178-.71c-2.93-11.9-4.528-18.378-7.1-29.032-3.285,10.92-5.238,17.579-8.967,29.919l-.178.621h-.621c-9.411.533-14.116.888-23.616,1.687l-1.421.089Z" transform="translate(-8.67 6)"/></g><g class="k" transform="matrix(1, 0, 0, 1, -9, -6)"><path class="b" d="M384.762,103.934c-9.766-1.509-14.56-2.22-24.326-3.462l-.533-.089-.178-.444c-5.682-13.761-8.434-20.153-13.584-32.228l-1.42-.089,2.4,31.251-1.065-.089c-9.411-1.065-13.939-1.509-23.35-2.308l-.8-.089-.533-3.285L316.4,3.7h41.816c5.327,0,9.233,1.154,11.985,3.374a13.237,13.237,0,0,1,4.705,9.322l4.705,44.48a7.641,7.641,0,0,1-2.22,6.481c-1.421,1.6-3.64,2.4-6.481,2.4h-.089c5.5,11.986,8.7,17.046,15,31.162l.533,3.285ZM343.39,50.488c3.906.178,6.037.355,10.21.621h.178a1.147,1.147,0,0,0,.71-.178.808.808,0,0,0,.089-.71L352.09,22.078c-.089-.621-.266-1.065-1.421-1.065-3.906-.089-6.037-.089-9.677-.178l2.22,28.321-3.64,1.065,3.818.266Z" transform="translate(-26.49 5.58)"/></g><g class="j" transform="matrix(1, 0, 0, 1, -9, -6)"><path class="b" d="M433.9,111.126c-9.5-1.953-14.205-2.841-23.616-4.439l-.71-.089-.533-3.285L397.5,3.7h43.325c4.528,0,8.079,1.243,10.743,3.64a16.429,16.429,0,0,1,4.972,9.855l8.434,53.18a25.858,25.858,0,0,1,.266,6.3,7.766,7.766,0,0,1-2.131,4.972A9.594,9.594,0,0,1,457.96,84.4a17.72,17.72,0,0,1-3.285.355h0a34.307,34.307,0,0,1-4.883-.444c-7.546-1.243-11.453-1.864-18.644-2.93l4,29.919Zm-5.416-49.451c4.084.444,6.3.71,10.654,1.243h.888a6.64,6.64,0,0,0-.089-.977l-5.327-37.555a1.218,1.218,0,0,0-1.42-1.243c-4.439-.178-6.659-.266-11.009-.355l-4.35-.444,5.86,3.285Z" transform="translate(-35.59 5.58)"/></g><g class="i" transform="matrix(1, 0, 0, 1, -9, -6)"><path class="a" d="M19.088,3.285H41.106l.089.8c1.687,12.785,2.663,20.42,4,30.008l.089.355-.089.089.888,6.57V35.868L50.517,3.285,73.866,0,74.4,3.285,61.97,106.449l-.621.089c-9.855,1.776-14.649,2.663-24.415,4.705l-.977.178-.089-.977C33.737,94.641,32.583,85.852,30.807,72L24.77,113.818l-.621.178c-8.967,1.953-13.317,3.019-22.2,5.149L.621,119.5,0,116.215Z" transform="translate(9 6)"/></g><g class="h" transform="matrix(1, 0, 0, 1, -9, -6)"><path class="a" d="M290.067,1c2.4,6.215,3.64,9.411,6.126,15.8-5.86-.089-8.789-.089-14.649-.178q1.2,35.291,2.575,73.334c-9.5-.444-14.205-.621-23.7-.888-.355-25.125-.8-49.363-1.154-72.623H244.7c2.22-6.215,3.374-9.322,5.593-15.448Z" transform="translate(-18.45 5.89)"/></g><g class="g" transform="matrix(1, 0, 0, 1, -9, -6)"><path class="a" d="M116.277,55.978c7.458-.533,11.275-.8,18.733-1.243.444-6.481.71-9.677,1.243-15.981l-18.467.888h0l-6.57.355,6.836-3.462c.621-6.925.977-11.186,1.687-18.733,9.5-.178,14.294-.355,23.793-.444-1.065-6.481-1.6-9.766-2.575-16.158h-41.9Q93.993,47.943,88.4,99.748c17.934-2.841,26.9-4,44.746-5.86,1.953-6.925,3.019-10.654,4.794-16.869.178-.533.355-1.154.533-1.776-9.677.8-14.471,1.243-24.149,2.22C115.123,68.674,115.567,64.412,116.277,55.978Z" transform="translate(-0.92 5.87)"/></g><g class="f" transform="matrix(1, 0, 0, 1, -9, -6)"><path class="a" d="M224.088,1H202.869c-3.64,11.719-5.5,17.668-9.322,29.831C190.706,18.756,189.286,12.808,186.533,1h-21.4c4.705,15.626,7.28,23.793,11.986,38.886l3.019-2.841-2.22,5.327h0C171.707,58.442,165.492,74.955,159.1,92c9.5-.8,14.205-1.154,23.616-1.687,4.084-13.584,6.037-20.153,9.944-33.116,3.107,12.785,4.705,19.266,7.9,32.317,9.411-.355,14.116-.444,23.527-.533-6.392-19.354-9.5-28.765-15.537-47.232C214.855,25.06,217.962,16.981,224.088,1Z" transform="translate(-8.85 5.89)"/></g><g class="e" transform="matrix(1, 0, 0, 1, -9, -6)"><path class="b" d="M368.926,65.289c3.374.355,5.86-.355,7.369-2.042a7.122,7.122,0,0,0,1.953-5.771c-1.953-18.2-2.841-27.078-4.705-44.48A12.434,12.434,0,0,0,369.1,4.3c-2.575-2.131-6.3-3.2-11.364-3.2H316.9c1.687,28.943,3.551,59.217,5.416,91,9.322.8,14.028,1.243,23.35,2.308-.977-12.7-1.509-18.91-2.4-31.251,1.154.089,1.776.178,3.019.266,5.416,12.7,8.168,19.266,13.85,32.76,9.766,1.243,14.56,1.953,24.326,3.462C378.07,85.354,374.963,78.518,368.926,65.289Zm-15.892-16.78c-4.439-.266-6.57-.444-11.009-.621V47.8l-8.345-.444,8.079-2.308c-.888-10.92-1.332-17.135-2.22-28.588,4.262.089,6.392.089,10.654.178A2.067,2.067,0,0,1,352.5,18.59c.977,11.1,1.509,16.691,2.486,28.144C355.165,47.977,354.543,48.6,353.034,48.509Z" transform="translate(-26.55 5.88)"/></g><g class="d" transform="matrix(1, 0, 0, 1, -9, -6)"><path class="b" d="M463.51,67.065q-4.262-27.3-8.434-53.18a15.665,15.665,0,0,0-4.705-9.322Q446.641,1.1,440.249,1.1H397.9c3.818,31.961,7.724,65.7,11.986,101.211C419.3,104,424,104.886,433.5,106.75c-1.6-12.074-2.4-18.111-4-29.919,7.9,1.154,11.9,1.776,19.887,3.107a21.024,21.024,0,0,0,7.813.089,8.04,8.04,0,0,0,4.617-2.486,7.512,7.512,0,0,0,1.864-4.528A19.523,19.523,0,0,0,463.51,67.065Zm-23.35-7.1c-.178.355-.8.444-1.776.355-4.528-.533-6.836-.8-11.364-1.332-2.042-15-3.107-23.083-4.883-36.223l-9.145-5.149,8.523.8c4.439.178,6.659.266,11.009.355a2.106,2.106,0,0,1,2.22,2.042c2.131,14.738,3.2,22.2,5.416,37.466C440.426,59.074,440.426,59.607,440.16,59.962Z" transform="translate(-35.64 5.88)"/></g><g class="c" transform="matrix(1, 0, 0, 1, -9, -6)"><path class="a" d="M50.929,1c-1.776,12.785-2.841,20.509-4.35,31.7v19L43.826,31.1l.089-.089c-1.42-10.032-2.4-17.668-4-30.008H19.411C13.729,36.868,7.692,74.778,1.3,115.084c8.878-2.22,13.317-3.2,22.2-5.149,2.841-19.532,4.262-29.12,6.925-47.764,2.308,18.111,3.462,27.078,5.948,45.1,9.766-2.042,14.649-2.93,24.415-4.705Q67.176,49.031,73.036,1Z" transform="translate(8.85 5.89)"/></g></g></svg>