<svg id="chrome" xmlns="http://www.w3.org/2000/svg" width="21.778" height="21.778" viewBox="0 0 21.778 21.778">
  <path id="Path_156" data-name="Path 156" d="M72.269,6.806H62.179a4.083,4.083,0,0,0-3.566,6.079L53.568,4.229a10.882,10.882,0,0,1,18.7,2.577Z" transform="translate(-51.29 0)" fill="#f44336"/>
  <path id="Path_157" data-name="Path 157" d="M236.27,164.1a10.9,10.9,0,0,1-10.888,10.888,9.712,9.712,0,0,1-1.361-.091l4.9-8.756a4.093,4.093,0,0,0-1.5-5.58,4.045,4.045,0,0,0-2.033-.544h10.081A10.736,10.736,0,0,1,236.27,164.1Z" transform="translate(-214.493 -153.215)" fill="#ffc107"/>
  <path id="Path_158" data-name="Path 158" d="M14.429,108.136l-4.9,8.756H9.52A10.882,10.882,0,0,1,2.279,99.434l5.045,8.656.027.045a4.083,4.083,0,0,0,7.077,0Z" transform="translate(-0.001 -95.205)" fill="#4caf50"/>
  <path id="Path_159" data-name="Path 159" d="M167.536,166.145a4.083,4.083,0,0,1-7.077,0l-.027-.045A4.083,4.083,0,0,1,164,160.02h.009a4.045,4.045,0,0,1,2.033.544A4.093,4.093,0,0,1,167.536,166.145Z" transform="translate(-153.108 -153.214)" fill="#f44336"/>
  <path id="Path_160" data-name="Path 160" d="M167.536,166.145a4.083,4.083,0,0,1-7.077,0l-.027-.045A4.083,4.083,0,0,1,164,160.02h.009a4.045,4.045,0,0,1,2.033.544A4.093,4.093,0,0,1,167.536,166.145Z" transform="translate(-153.108 -153.214)" fill="#2196f3"/>
  <path id="Path_161" data-name="Path 161" d="M153.8,158.429a4.5,4.5,0,0,1-2.253-.6,4.541,4.541,0,1,1,6.2-1.664h0A4.562,4.562,0,0,1,153.8,158.429Zm.024-8.166a3.631,3.631,0,1,0,3.137,5.444h0a3.629,3.629,0,0,0-3.136-5.444h0Z" transform="translate(-142.927 -143.002)" fill="#fafafa"/>
</svg>
