<svg id="ruble" xmlns="http://www.w3.org/2000/svg" width="30" height="30" viewBox="0 0 30 30">
  <g id="Group_90" data-name="Group 90" transform="translate(0)">
    <path id="Path_223" data-name="Path 223" d="M30,15A15.027,15.027,0,1,1,25.155,3.961,15,15,0,0,1,30,15Z" transform="translate(0)" fill="#f0cd00"/>
    <path id="Path_224" data-name="Path 224" d="M47.123,15.16a15,15,0,0,1-14.442,14.99,15,15,0,0,1,0-29.979A15,15,0,0,1,47.123,15.16Z" transform="translate(-17.123 -0.16)" fill="#ffde50"/>
    <path id="Path_225" data-name="Path 225" d="M56.754,35.57,35.56,56.764a15.064,15.064,0,0,1-1.9-2.562L54.192,33.67A14.994,14.994,0,0,1,56.754,35.57Z" transform="translate(-31.599 -31.609)" fill="#ffea94"/>
    <path id="Path_226" data-name="Path 226" d="M116.638,97.188l-19.45,19.45a14.979,14.979,0,0,1-3.8-2.182L114.456,93.39A14.952,14.952,0,0,1,116.638,97.188Z" transform="translate(-87.672 -87.672)" fill="#ffea94"/>
    <path id="Path_227" data-name="Path 227" d="M77.932,66.276a11.656,11.656,0,0,1-23.311.143c0-.048,0-.1,0-.143A11.656,11.656,0,0,1,66.276,54.62h.144a11.6,11.6,0,0,1,6.571,2.126A11.734,11.734,0,0,1,76.2,60.163,11.6,11.6,0,0,1,77.932,66.276Z" transform="translate(-51.276 -51.276)" fill="#faa300"/>
    <path id="Path_228" data-name="Path 228" d="M74.517,58.034,58.034,74.517a11.614,11.614,0,0,1-3.413-8.1c0-.048,0-.1,0-.143A11.656,11.656,0,0,1,66.276,54.62h.144a11.6,11.6,0,0,1,6.571,2.126A11.763,11.763,0,0,1,74.517,58.034Z" transform="translate(-51.276 -51.276)" fill="#ffbd00"/>
    <path id="Path_229" data-name="Path 229" d="M246.559,66.276A11.656,11.656,0,0,1,234.9,77.932q-.332,0-.658-.018a11.656,11.656,0,0,0,0-23.275q.327-.018.658-.018A11.656,11.656,0,0,1,246.559,66.276Z" transform="translate(-219.903 -51.276)" fill="#f68e00"/>
  </g>
  <path id="Path_230" data-name="Path 230" d="M110.88,116.386a5.533,5.533,0,1,0,0-11.066h-6.1a1.224,1.224,0,0,0-1.224,1.224v7.392h-.834a1.224,1.224,0,1,0,0,2.449h.834v1.408h-.834a1.224,1.224,0,1,0,0,2.449h.834v1.251a1.224,1.224,0,1,0,2.449,0v-1.251h4.283a1.224,1.224,0,0,0,0-2.449H106v-1.408ZM106,107.769h4.879a3.084,3.084,0,0,1,0,6.168H106Z" transform="translate(-95.279 -98.872)" fill="#f68e00"/>
  <path id="Path_231" data-name="Path 231" d="M135.882,116.386a5.533,5.533,0,0,0,0-11.066h-6.1a1.224,1.224,0,0,0-1.224,1.224v7.392h-.834a1.224,1.224,0,0,0,0,2.449h.834v1.408h-.834a1.224,1.224,0,0,0,0,2.449h.834v1.251a1.224,1.224,0,1,0,2.449,0v-1.251h4.283a1.224,1.224,0,0,0,0-2.449H131v-1.408ZM131,107.769h4.879a3.084,3.084,0,0,1,0,6.168H131Z" transform="translate(-118.75 -98.872)" fill="#ffea94"/>
</svg>
