<svg xmlns="http://www.w3.org/2000/svg" width="30" height="30.002" viewBox="0 0 30 30.002">
  <g id="exit" transform="translate(-0.014)" opacity="0.75">
    <g id="Group_97" data-name="Group 97" transform="translate(0.014)">
      <g id="Group_96" data-name="Group 96" transform="translate(0)">
        <path id="Path_241" data-name="Path 241" d="M311.084,153.861a1.264,1.264,0,0,0-.271-.408l-3.749-3.749a1.25,1.25,0,1,0-1.768,1.768l1.616,1.616H299.93a1.25,1.25,0,1,0,0,2.5h6.983l-1.616,1.616a1.25,1.25,0,1,0,1.768,1.768l3.749-3.749a1.238,1.238,0,0,0,.271-.408A1.251,1.251,0,0,0,311.084,153.861Z" transform="translate(-281.179 -140.588)" fill="#fff"/>
        <path id="Path_242" data-name="Path 242" d="M21.265,17.5a1.25,1.25,0,0,0-1.25,1.25V25h-5V5a1.251,1.251,0,0,0-.891-1.2L9.782,2.5H20.015v6.25a1.25,1.25,0,1,0,2.5,0V1.25A1.25,1.25,0,0,0,21.265,0h-20a1.114,1.114,0,0,0-.129.024,1.235,1.235,0,0,0-.53.185C.578.226.544.227.518.247.508.255.5.269.494.276a1.238,1.238,0,0,0-.332.4A1.021,1.021,0,0,0,.127.776a1.186,1.186,0,0,0-.1.293.778.778,0,0,0,0,.109c0,.025-.018.048-.018.072v25a1.249,1.249,0,0,0,1.005,1.225l12.5,2.5a1.163,1.163,0,0,0,.245.025,1.251,1.251,0,0,0,1.25-1.25V27.5h6.25a1.25,1.25,0,0,0,1.25-1.25v-7.5A1.25,1.25,0,0,0,21.265,17.5Z" transform="translate(-0.014)" fill="#fff"/>
      </g>
    </g>
  </g>
</svg>
