<svg xmlns="http://www.w3.org/2000/svg" width="40" height="40" viewBox="0 0 40 40"><defs><style>.b,.c{fill:#fff;}.b,.d{stroke:#fff;}.b{stroke-width:0.3px;}.d,.f{fill:none;}.d{stroke-width:1.8px;}.e{stroke:none;}</style></defs><g><path class="b" d="M102.22,106H88.8a2.8,2.8,0,0,0-2.8,2.8V122.22a2.8,2.8,0,0,0,2.8,2.8H102.22a2.8,2.8,0,0,0,2.8-2.8V108.8A2.8,2.8,0,0,0,102.22,106Zm1.678,16.22a1.68,1.68,0,0,1-1.678,1.678H88.8a1.68,1.68,0,0,1-1.678-1.678V108.8a1.68,1.68,0,0,1,1.678-1.678H102.22A1.68,1.68,0,0,1,103.9,108.8Zm0,0" transform="translate(-75.281 -95.719)"/><path class="b" d="M171.034,186a5.034,5.034,0,1,0,5.034,5.034A5.04,5.04,0,0,0,171.034,186Zm0,8.949a3.915,3.915,0,1,1,3.915-3.915A3.92,3.92,0,0,1,171.034,194.949Zm0,0" transform="translate(-150.807 -171.244)"/><path class="c" d="M327.678,146a1.678,1.678,0,1,0,1.678,1.678A1.68,1.68,0,0,0,327.678,146Zm0,2.237a.559.559,0,1,1,.559-.559A.56.56,0,0,1,327.678,148.237Zm0,0" transform="translate(-301.858 -133.482)"/><g class="d"><circle class="e" cx="20" cy="20" r="20"/><circle class="f" cx="20" cy="20" r="19.1"/></g></g></svg>