<svg id="key" xmlns="http://www.w3.org/2000/svg" width="24" height="24" viewBox="0 0 24 24">
  <g id="Group_71" data-name="Group 71">
    <path id="Path_210" data-name="Path 210" d="M16,0A8.009,8.009,0,0,0,8,8a7.889,7.889,0,0,0,.17,1.606l-.894.447a.5.5,0,0,0-.13.8l.647.647-.5.5H6.5a.5.5,0,0,0-.5.5v.793L5.293,14H4.5a.5.5,0,0,0-.5.5v.793L3.293,16H2.5a.5.5,0,0,0-.5.5v.793L.146,19.146A.5.5,0,0,0,0,19.5v4a.5.5,0,0,0,.5.5h4a.5.5,0,0,0,.354-.146L12.5,16.207l.647.646a.5.5,0,0,0,.8-.13l.447-.894A8,8,0,1,0,16,0ZM10.854,13.854l-7,7a.5.5,0,1,1-.707-.707l7-7a.5.5,0,0,1,.707.707ZM18.5,8A2.5,2.5,0,1,1,21,5.5,2.5,2.5,0,0,1,18.5,8Z" fill="#fff"/>
  </g>
</svg>
