<svg id="logotype" xmlns="http://www.w3.org/2000/svg" width="200.557" height="56.964" viewBox="0 0 200.557 56.964">
  <path id="Path_1" data-name="Path 1" d="M262.937,46.894c-4.571-.212-6.771-.3-11.3-.423h-.423L250.96,44.9l-.254-33.052h-7.152l-.254-1.566L246.559,3.6h19.552l.127.3c1.143,2.962,1.693,3.555,2.878,6.6l.254,1.566h-.635c-2.624-.042-4.02-.042-6.517-.085l1.227,35Z" transform="translate(-140.334 -2.076)" fill="#fff"/>
  <path id="Path_2" data-name="Path 2" d="M92.817,3.7h20.737l.042.381c.466,3.089.719,4.613,1.227,7.7l.085.508H114.4c-4.4.085-6.687.127-10.961.212l-.8,8.8-1.651.8,1.82-.085h0c3.047-.169,5.036-1.82,8.295-1.947l.254,1.524-.635,8.506-.381.042c-3.428.212-5.205.339-8.549.592l-.846,9.268c4.274-.423,6.9-2.243,11.384-2.624l.254,1.566s-1.777,6.179-2.709,9.48l-.085.3-.3.042c-8.549.889-12.738,1.439-21.287,2.793l-.55.085L87.4,50.083Z" transform="translate(-50.412 -2.134)" fill="#fff"/>
  <path id="Path_3" data-name="Path 3" d="M157.483,44.31h0c2.835-7.575,6.433-14.855,9.438-22.642h0l.3-.762-.423.423-.212-.677c-2.285-7.364-3.513-11.342-5.713-18.536L160.446,0,171.83,1.566l.085.339c1.185,5.121,1.862,7.914,2.962,12.7,1.481-4.7,2.328-7.491,3.851-12.358l.212-.677L189.774,0l.254,1.566s-5.713,14.981-7.575,19.848c2.835,8.718,4.274,12.231,7.279,21.372l.254,1.566h-.592c-4.528.042-6.729.085-11.215.254h-.339l-.085-.339c-1.4-5.671-2.158-8.76-3.386-13.839-1.566,5.205-2.5,8.379-4.274,14.262l-.085.3h-.3c-4.486.254-6.729.423-11.257.8l-.677.042Z" transform="translate(-90.828)" fill="#fff"/>
  <path id="Path_4" data-name="Path 4" d="M348.987,51.48c-4.655-.719-6.941-1.058-11.6-1.651l-.254-.042-.085-.212c-2.708-6.56-4.02-9.607-6.475-15.362l-.677-.042,1.143,14.9-.508-.042c-4.486-.508-6.644-.719-11.13-1.1l-.381-.042-.254-1.566L316.4,3.7h19.933a8.84,8.84,0,0,1,5.713,1.608,6.31,6.31,0,0,1,2.243,4.444l2.243,21.2a3.642,3.642,0,0,1-1.058,3.089,3.963,3.963,0,0,1-3.089,1.143h-.042c2.624,5.713,4.147,8.126,7.152,14.855l.254,1.566ZM329.265,26c1.862.085,2.878.169,4.867.3h.085a.547.547,0,0,0,.339-.085.385.385,0,0,0,.042-.339L333.413,12.46c-.042-.3-.127-.508-.677-.508-1.862-.042-2.878-.042-4.613-.085l1.058,13.5-1.735.508,1.82.127Z" transform="translate(-182.498 -2.134)" fill="#ff3a3a"/>
  <path id="Path_5" data-name="Path 5" d="M414.851,54.908c-4.528-.931-6.771-1.354-11.257-2.116l-.339-.042L403,51.184,397.5,3.7h20.652a7.354,7.354,0,0,1,5.121,1.735,7.832,7.832,0,0,1,2.37,4.7l4.02,25.35a12.325,12.325,0,0,1,.127,3,3.7,3.7,0,0,1-1.016,2.37,4.574,4.574,0,0,1-2.455,1.312,8.447,8.447,0,0,1-1.566.169h0a16.354,16.354,0,0,1-2.328-.212c-3.6-.592-5.459-.889-8.887-1.4l1.9,14.262ZM412.27,31.335c1.947.212,3,.339,5.078.592h.423a3.164,3.164,0,0,0-.042-.466l-2.539-17.9a.581.581,0,0,0-.677-.592c-2.116-.085-3.174-.127-5.248-.169l-2.074-.212,2.793,1.566Z" transform="translate(-229.276 -2.134)" fill="#ff3a3a"/>
  <path id="Path_6" data-name="Path 6" d="M9.1,1.566h10.5l.042.381c.8,6.094,1.27,9.734,1.9,14.3l.042.169-.042.042.423,3.132V17.1L24.08,1.566,35.211,0l.254,1.566L29.54,50.742l-.3.042c-4.7.846-6.983,1.27-11.638,2.243l-.466.085-.042-.466c-1.016-7.533-1.566-11.723-2.412-18.325L11.807,54.255l-.3.085c-4.274.931-6.348,1.439-10.58,2.455L.3,56.964,0,55.4Z" fill="#fff"/>
  <path id="Path_7" data-name="Path 7" d="M266.326,1c1.143,2.962,1.735,4.486,2.92,7.533-2.793-.042-4.19-.042-6.983-.085q.571,16.822,1.227,34.957c-4.528-.212-6.771-.3-11.3-.423-.169-11.977-.381-23.53-.55-34.618H244.7C245.758,5.4,246.308,3.92,247.366,1Z" transform="translate(-141.141 -0.577)" fill="#fff"/>
  <path id="Path_8" data-name="Path 8" d="M101.689,27.312c3.555-.254,5.375-.381,8.93-.592.212-3.089.339-4.613.592-7.618l-8.8.423h0l-3.132.169,3.259-1.651c.3-3.3.466-5.332.8-8.93,4.528-.085,6.814-.169,11.342-.212-.508-3.089-.762-4.655-1.227-7.7H93.478Q91.066,23.482,88.4,48.176c8.549-1.354,12.823-1.9,21.33-2.793.931-3.3,1.439-5.078,2.285-8.041.085-.254.169-.55.254-.846-4.613.381-6.9.592-11.511,1.058C101.139,33.364,101.35,31.332,101.689,27.312Z" transform="translate(-50.989 -0.692)" fill="#fff"/>
  <path id="Path_9" data-name="Path 9" d="M190.079,1H179.964c-1.735,5.586-2.624,8.422-4.444,14.22-1.354-5.756-2.031-8.591-3.343-14.22h-10.2c2.243,7.448,3.47,11.342,5.713,18.536l1.439-1.354-1.058,2.539h0c-2.962,7.66-5.925,15.532-8.972,23.657,4.528-.381,6.771-.55,11.257-.8,1.947-6.475,2.878-9.607,4.74-15.786,1.481,6.094,2.243,9.184,3.767,15.4,4.486-.169,6.729-.212,11.215-.254-3.047-9.226-4.528-13.712-7.406-22.515C185.677,12.469,187.159,8.618,190.079,1Z" transform="translate(-91.768 -0.577)" fill="#fff"/>
  <path id="Path_10" data-name="Path 10" d="M341.7,31.7a3.938,3.938,0,0,0,3.513-.973,3.4,3.4,0,0,0,.931-2.751c-.931-8.676-1.354-12.908-2.243-21.2a5.927,5.927,0,0,0-2.116-4.147A8.27,8.27,0,0,0,336.367,1.1H316.9c.8,13.8,1.693,28.228,2.582,43.379,4.444.381,6.687.592,11.13,1.1-.466-6.052-.719-9.014-1.143-14.9.55.042.846.085,1.439.127,2.582,6.052,3.893,9.184,6.6,15.616,4.655.592,6.941.931,11.6,1.651C346.059,41.262,344.578,38,341.7,31.7Zm-7.575-8c-2.116-.127-3.132-.212-5.248-.3v-.042l-3.978-.212,3.851-1.1c-.423-5.205-.635-8.168-1.058-13.627,2.031.042,3.047.042,5.078.085a.985.985,0,0,1,1.1.931c.466,5.29.719,7.956,1.185,13.416C335.14,23.445,334.844,23.742,334.125,23.7Z" transform="translate(-182.786 -0.634)" fill="#ff3a3a"/>
  <path id="Path_11" data-name="Path 11" d="M429.175,32.544q-2.031-13.014-4.02-25.35a7.467,7.467,0,0,0-2.243-4.444A6.811,6.811,0,0,0,418.087,1.1H397.9c1.82,15.235,3.682,31.317,5.713,48.245,4.486.8,6.729,1.227,11.257,2.116-.762-5.756-1.143-8.633-1.9-14.262,3.767.55,5.671.846,9.48,1.481a10.022,10.022,0,0,0,3.724.042,3.832,3.832,0,0,0,2.2-1.185,3.581,3.581,0,0,0,.889-2.158A9.307,9.307,0,0,0,429.175,32.544Zm-11.13-3.386c-.085.169-.381.212-.846.169l-5.417-.635c-.973-7.152-1.481-11-2.328-17.267l-4.359-2.455,4.063.381c2.116.085,3.174.127,5.248.169a1,1,0,0,1,1.058.973c1.016,7.025,1.524,10.58,2.582,17.859C418.172,28.735,418.172,28.989,418.045,29.159Z" transform="translate(-229.506 -0.634)" fill="#ff3a3a"/>
  <path id="Path_12" data-name="Path 12" d="M24.957,1c-.846,6.094-1.354,9.776-2.074,15.108v9.057l-1.312-9.818.042-.042c-.677-4.782-1.143-8.422-1.9-14.3H9.933C7.225,18.1,4.347,36.168,1.3,55.382c4.232-1.058,6.348-1.524,10.58-2.455,1.354-9.311,2.031-13.881,3.3-22.768,1.1,8.633,1.651,12.908,2.835,21.5,4.655-.973,6.983-1.4,11.638-2.243Q32.7,23.9,35.5,1Z" transform="translate(-0.75 -0.577)" fill="#fff"/>
</svg>
