<svg xmlns="http://www.w3.org/2000/svg" width="59.667" height="35.257" viewBox="0 0 59.667 35.257">
  <g id="mail" transform="translate(0 -104.727)">
    <g id="Group_1995" data-name="Group 1995" transform="translate(8.136 127.78)">
      <g id="Group_1994" data-name="Group 1994">
        <path id="Path_2069" data-name="Path 2069" d="M82.023,302.545H71.175a1.356,1.356,0,1,0,0,2.712H82.024a1.356,1.356,0,1,0,0-2.712Z" transform="translate(-69.819 -302.545)" fill="#fff"/>
      </g>
    </g>
    <g id="Group_1997" data-name="Group 1997" transform="translate(4.068 121)">
      <g id="Group_1996" data-name="Group 1996">
        <path id="Path_2070" data-name="Path 2070" d="M47.114,244.364H36.265a1.356,1.356,0,0,0,0,2.712H47.114a1.356,1.356,0,0,0,0-2.712Z" transform="translate(-34.909 -244.364)" fill="#fff"/>
      </g>
    </g>
    <g id="Group_1999" data-name="Group 1999" transform="translate(0 114.219)">
      <g id="Group_1998" data-name="Group 1998">
        <path id="Path_2071" data-name="Path 2071" d="M12.2,186.182H1.356a1.356,1.356,0,1,0,0,2.712H12.2a1.356,1.356,0,1,0,0-2.712Z" transform="translate(0 -186.182)" fill="#fff"/>
      </g>
    </g>
    <g id="Group_2001" data-name="Group 2001" transform="translate(16.131 110.145)">
      <g id="Group_2000" data-name="Group 2000">
        <path id="Path_2072" data-name="Path 2072" d="M176.258,151.766a1.458,1.458,0,0,0-1.9-.271l-14.374,10.984a4.275,4.275,0,0,1-5.017,0L140.594,151.5a1.356,1.356,0,1,0-1.627,2.17l14.51,10.984A6.669,6.669,0,0,0,157.544,166a6.4,6.4,0,0,0,4.068-1.356l14.374-10.984A1.458,1.458,0,0,0,176.258,151.766Z" transform="translate(-138.418 -151.217)" fill="#fff"/>
      </g>
    </g>
    <g id="Group_2003" data-name="Group 2003" transform="translate(10.848 104.727)">
      <g id="Group_2002" data-name="Group 2002">
        <path id="Path_2073" data-name="Path 2073" d="M137.841,104.727H94.447a1.356,1.356,0,0,0,0,2.712h43.394A1.281,1.281,0,0,1,139.2,108.8v27.121a1.281,1.281,0,0,1-1.356,1.356H94.447a1.356,1.356,0,0,0,0,2.712h43.394a4,4,0,0,0,4.068-4.068V108.8A4,4,0,0,0,137.841,104.727Z" transform="translate(-93.091 -104.727)" fill="#fff"/>
      </g>
    </g>
    <g id="Group_2005" data-name="Group 2005" transform="translate(43.394 123.712)">
      <g id="Group_2004" data-name="Group 2004">
        <path id="Path_2074" data-name="Path 2074" d="M382.805,276.179l-8.136-8.136a1.342,1.342,0,1,0-1.9,1.9l8.136,8.136a1.311,1.311,0,0,0,1.9,0A1.311,1.311,0,0,0,382.805,276.179Z" transform="translate(-372.364 -267.636)" fill="#fff"/>
      </g>
    </g>
  </g>
</svg>
