<svg id="_x33__6_" xmlns="http://www.w3.org/2000/svg" width="23.474" height="21.127" viewBox="0 0 23.474 21.127">
  <g id="Group_2006" data-name="Group 2006" transform="translate(0 0)">
    <path id="Path_2085" data-name="Path 2085" d="M22.3,49.378H1.174a1.174,1.174,0,0,0,0,2.347H22.3a1.174,1.174,0,0,0,0-2.347ZM1.174,32.946H22.3a1.174,1.174,0,1,0,0-2.347H1.174a1.174,1.174,0,1,0,0,2.347ZM22.3,39.989H1.174a1.174,1.174,0,0,0,0,2.347H22.3a1.174,1.174,0,0,0,0-2.347Z" transform="translate(0 -30.599)" fill="#fff"/>
  </g>
</svg>
