<svg xmlns="http://www.w3.org/2000/svg" width="21.698" height="30.812" viewBox="0 0 21.698 30.812"><defs><style>.a{fill:#fff;}</style></defs><g transform="translate(-75.726)"><g transform="translate(75.726)"><g transform="translate(0)"><path class="a" d="M86.575,0A10.947,10.947,0,0,0,75.726,11.019v8.775a10.85,10.85,0,1,0,21.7.034V11.019A10.948,10.948,0,0,0,86.575,0Zm8.808,19.827a8.81,8.81,0,1,1-17.617-.034V11.019a8.81,8.81,0,1,1,17.617,0Z" transform="translate(-75.726)"/></g></g><g transform="translate(85.555 8.434)"><g transform="translate(0)"><path class="a" d="M240.066,140.15a1.02,1.02,0,0,0-1.02,1.02v3.571a1.02,1.02,0,0,0,2.041,0V141.17A1.02,1.02,0,0,0,240.066,140.15Z" transform="translate(-239.046 -140.15)"/></g></g></g></svg>