<svg id="money3" xmlns="http://www.w3.org/2000/svg" width="97.462" height="82.273" viewBox="0 0 97.462 82.273">
  <path id="Path_580" data-name="Path 580" d="M123.672,58.105a2.123,2.123,0,0,1-.422-1.266c0-2.411,4.581-4.34,10.246-4.34s10.246,1.929,10.246,4.34a2.632,2.632,0,0,1-.422,1.266h0L131.207,72.812,116.5,56.779Z" transform="translate(-46.282 -20.857)" opacity="0.35"/>
  <path id="Path_581" data-name="Path 581" d="M110.072,44.405a2.123,2.123,0,0,1-.422-1.266c0-2.411,4.581-4.34,10.246-4.34s10.246,1.929,10.246,4.34a2.632,2.632,0,0,1-.422,1.266h0L117.607,59.112,102.9,43.079Z" transform="translate(-40.879 -15.414)" opacity="0.35"/>
  <g id="Group_640" data-name="Group 640" transform="translate(48.339 60.816)" opacity="0.25">
    <path id="Path_582" data-name="Path 582" d="M90.688,121.815,108.227,100.9H80.2Z" transform="translate(-80.2 -100.9)" opacity="0.72"/>
  </g>
  <g id="Group_758" data-name="Group 758" transform="translate(58.284 0)">
    <g id="Group_649" data-name="Group 649" transform="translate(0 36.164)">
      <g id="Group_648" data-name="Group 648">
        <g id="Group_641" data-name="Group 641" transform="translate(0 2.531)">
          <ellipse id="Ellipse_145" data-name="Ellipse 145" cx="10.246" cy="4.34" rx="10.246" ry="4.34" fill="#ce7d13"/>
        </g>
        <g id="Group_642" data-name="Group 642" transform="translate(0 2.049)">
          <path id="Path_583" data-name="Path 583" d="M96.7,65.69V67.8c0,1.808,2.531,3.315,6.148,3.978a13.475,13.475,0,0,0,2.773.3c.422,0,.9.06,1.326.06a22.069,22.069,0,0,0,4.1-.362c3.616-.663,5.485-2.23,5.485-4.038l.663-2.29c-1.447-1.627-5.907-2.049-10.246-2.049C103.511,63.46,98.568,64.605,96.7,65.69Z" transform="translate(-96.7 -63.4)" fill="#ffc50d"/>
        </g>
        <g id="Group_643" data-name="Group 643" transform="translate(6.148 6.57)" opacity="0.43">
          <path id="Path_584" data-name="Path 584" d="M106.9,70.9v3.857a13.475,13.475,0,0,0,2.773.3V70.9Z" transform="translate(-106.9 -70.9)" fill="#fffc8f"/>
        </g>
        <g id="Group_644" data-name="Group 644" transform="translate(13.923 2.17)">
          <path id="Path_585" data-name="Path 585" d="M119.8,71.918V63.6c2.953.241,5.545.723,6.57,1.929v2.29C126.37,69.688,123.657,71.315,119.8,71.918Z" transform="translate(-119.8 -63.6)" fill="#f19d00"/>
        </g>
        <g id="Group_645" data-name="Group 645">
          <ellipse id="Ellipse_146" data-name="Ellipse 146" cx="10.246" cy="4.34" rx="10.246" ry="4.34" fill="#ffd400"/>
        </g>
        <g id="Group_646" data-name="Group 646" transform="translate(0.723 0.121)">
          <path id="Path_586" data-name="Path 586" d="M101.577,67.855a7.229,7.229,0,0,1-3.677-2.17l8.257-5.425c.482,0,.964-.06,1.386-.06a20.368,20.368,0,0,1,4.822.542Z" transform="translate(-97.9 -60.2)" fill="#fffc8f"/>
        </g>
        <g id="Group_647" data-name="Group 647" transform="translate(6.509 1.205)">
          <path id="Path_587" data-name="Path 587" d="M109.911,69.293a15.5,15.5,0,0,1-2.411-.3L118.229,62a10.208,10.208,0,0,1,1.627.784Z" transform="translate(-107.5 -62)" fill="#fffc8f"/>
        </g>
      </g>
    </g>
    <g id="Group_658" data-name="Group 658" transform="translate(0 33.15)">
      <g id="Group_657" data-name="Group 657">
        <g id="Group_650" data-name="Group 650" transform="translate(0 2.531)">
          <ellipse id="Ellipse_147" data-name="Ellipse 147" cx="10.246" cy="4.34" rx="10.246" ry="4.34" fill="#ce7d13"/>
        </g>
        <g id="Group_651" data-name="Group 651" transform="translate(0 2.049)">
          <path id="Path_588" data-name="Path 588" d="M96.7,60.69V62.8c0,1.808,2.531,3.315,6.148,3.978a13.474,13.474,0,0,0,2.773.3c.422,0,.9.06,1.326.06a22.068,22.068,0,0,0,4.1-.362c3.616-.663,5.485-2.23,5.485-4.038l.663-2.29c-1.447-1.627-5.907-2.049-10.246-2.049C103.511,58.46,98.568,59.605,96.7,60.69Z" transform="translate(-96.7 -58.4)" fill="#ffc50d"/>
        </g>
        <g id="Group_652" data-name="Group 652" transform="translate(6.148 6.57)" opacity="0.43">
          <path id="Path_589" data-name="Path 589" d="M106.9,65.9v3.857a13.474,13.474,0,0,0,2.773.3V65.9Z" transform="translate(-106.9 -65.9)" fill="#fffc8f"/>
        </g>
        <g id="Group_653" data-name="Group 653" transform="translate(13.923 2.17)">
          <path id="Path_590" data-name="Path 590" d="M119.8,66.918V58.6c2.953.241,5.545.723,6.57,1.929v2.29C126.37,64.688,123.657,66.315,119.8,66.918Z" transform="translate(-119.8 -58.6)" fill="#f19d00"/>
        </g>
        <g id="Group_654" data-name="Group 654">
          <ellipse id="Ellipse_148" data-name="Ellipse 148" cx="10.246" cy="4.34" rx="10.246" ry="4.34" fill="#ffd400"/>
        </g>
        <g id="Group_655" data-name="Group 655" transform="translate(0.723 0.121)">
          <path id="Path_591" data-name="Path 591" d="M101.577,62.855a7.229,7.229,0,0,1-3.677-2.17l8.257-5.425c.482,0,.964-.06,1.386-.06a20.368,20.368,0,0,1,4.822.542Z" transform="translate(-97.9 -55.2)" fill="#fffc8f"/>
        </g>
        <g id="Group_656" data-name="Group 656" transform="translate(6.509 1.205)">
          <path id="Path_592" data-name="Path 592" d="M109.911,64.293a15.5,15.5,0,0,1-2.411-.3L118.229,57a10.209,10.209,0,0,1,1.627.784Z" transform="translate(-107.5 -57)" fill="#fffc8f"/>
        </g>
      </g>
    </g>
    <g id="Group_667" data-name="Group 667" transform="translate(0 30.137)">
      <g id="Group_666" data-name="Group 666">
        <g id="Group_659" data-name="Group 659" transform="translate(0 2.531)">
          <ellipse id="Ellipse_149" data-name="Ellipse 149" cx="10.246" cy="4.34" rx="10.246" ry="4.34" fill="#ce7d13"/>
        </g>
        <g id="Group_660" data-name="Group 660" transform="translate(0 2.049)">
          <path id="Path_593" data-name="Path 593" d="M96.7,55.69V57.8c0,1.808,2.531,3.315,6.148,3.978a13.474,13.474,0,0,0,2.773.3c.422,0,.9.06,1.326.06a22.068,22.068,0,0,0,4.1-.362c3.616-.663,5.485-2.23,5.485-4.038l.663-2.29c-1.447-1.627-5.907-2.049-10.246-2.049C103.511,53.46,98.568,54.605,96.7,55.69Z" transform="translate(-96.7 -53.4)" fill="#ffc50d"/>
        </g>
        <g id="Group_661" data-name="Group 661" transform="translate(6.148 6.57)" opacity="0.43">
          <path id="Path_594" data-name="Path 594" d="M106.9,60.9v3.857a13.474,13.474,0,0,0,2.773.3V60.9Z" transform="translate(-106.9 -60.9)" fill="#fffc8f"/>
        </g>
        <g id="Group_662" data-name="Group 662" transform="translate(13.923 2.17)">
          <path id="Path_595" data-name="Path 595" d="M119.8,61.918V53.6c2.953.241,5.545.723,6.57,1.929v2.29C126.37,59.688,123.657,61.315,119.8,61.918Z" transform="translate(-119.8 -53.6)" fill="#f19d00"/>
        </g>
        <g id="Group_663" data-name="Group 663">
          <ellipse id="Ellipse_150" data-name="Ellipse 150" cx="10.246" cy="4.34" rx="10.246" ry="4.34" fill="#ffd400"/>
        </g>
        <g id="Group_664" data-name="Group 664" transform="translate(0.723 0.121)">
          <path id="Path_596" data-name="Path 596" d="M101.577,57.855a7.229,7.229,0,0,1-3.677-2.17l8.257-5.425c.482,0,.964-.06,1.386-.06a20.368,20.368,0,0,1,4.822.542Z" transform="translate(-97.9 -50.2)" fill="#fffc8f"/>
        </g>
        <g id="Group_665" data-name="Group 665" transform="translate(6.509 1.205)">
          <path id="Path_597" data-name="Path 597" d="M109.911,59.293a15.5,15.5,0,0,1-2.411-.3L118.229,52a10.208,10.208,0,0,1,1.627.784Z" transform="translate(-107.5 -52)" fill="#fffc8f"/>
        </g>
      </g>
    </g>
    <g id="Group_676" data-name="Group 676" transform="translate(0 27.123)">
      <g id="Group_675" data-name="Group 675">
        <g id="Group_668" data-name="Group 668" transform="translate(0 2.531)">
          <ellipse id="Ellipse_151" data-name="Ellipse 151" cx="10.246" cy="4.34" rx="10.246" ry="4.34" fill="#ce7d13"/>
        </g>
        <g id="Group_669" data-name="Group 669" transform="translate(0 2.049)">
          <path id="Path_598" data-name="Path 598" d="M96.7,50.69V52.8c0,1.808,2.531,3.315,6.148,3.978a13.475,13.475,0,0,0,2.773.3c.422,0,.9.06,1.326.06a22.068,22.068,0,0,0,4.1-.362c3.616-.663,5.485-2.23,5.485-4.038l.663-2.29c-1.447-1.627-5.907-2.049-10.246-2.049C103.511,48.46,98.568,49.605,96.7,50.69Z" transform="translate(-96.7 -48.4)" fill="#ffc50d"/>
        </g>
        <g id="Group_670" data-name="Group 670" transform="translate(6.148 6.57)" opacity="0.43">
          <path id="Path_599" data-name="Path 599" d="M106.9,55.9v3.857a13.474,13.474,0,0,0,2.773.3V55.9Z" transform="translate(-106.9 -55.9)" fill="#fffc8f"/>
        </g>
        <g id="Group_671" data-name="Group 671" transform="translate(13.923 2.17)">
          <path id="Path_600" data-name="Path 600" d="M119.8,56.918V48.6c2.953.241,5.545.723,6.57,1.929v2.29C126.37,54.688,123.657,56.315,119.8,56.918Z" transform="translate(-119.8 -48.6)" fill="#f19d00"/>
        </g>
        <g id="Group_672" data-name="Group 672">
          <ellipse id="Ellipse_152" data-name="Ellipse 152" cx="10.246" cy="4.34" rx="10.246" ry="4.34" fill="#ffd400"/>
        </g>
        <g id="Group_673" data-name="Group 673" transform="translate(0.723 0.121)">
          <path id="Path_601" data-name="Path 601" d="M101.577,52.855a7.229,7.229,0,0,1-3.677-2.17l8.257-5.425c.482,0,.964-.06,1.386-.06a20.368,20.368,0,0,1,4.822.542Z" transform="translate(-97.9 -45.2)" fill="#fffc8f"/>
        </g>
        <g id="Group_674" data-name="Group 674" transform="translate(6.509 1.205)">
          <path id="Path_602" data-name="Path 602" d="M109.911,54.293a15.5,15.5,0,0,1-2.411-.3L118.229,47a10.209,10.209,0,0,1,1.627.784Z" transform="translate(-107.5 -47)" fill="#fffc8f"/>
        </g>
      </g>
    </g>
    <g id="Group_685" data-name="Group 685" transform="translate(0 24.109)">
      <g id="Group_684" data-name="Group 684">
        <g id="Group_677" data-name="Group 677" transform="translate(0 2.531)">
          <ellipse id="Ellipse_153" data-name="Ellipse 153" cx="10.246" cy="4.34" rx="10.246" ry="4.34" fill="#ce7d13"/>
        </g>
        <g id="Group_678" data-name="Group 678" transform="translate(0 2.049)">
          <path id="Path_603" data-name="Path 603" d="M96.7,45.69V47.8c0,1.808,2.531,3.315,6.148,3.978a13.475,13.475,0,0,0,2.773.3c.422,0,.9.06,1.326.06a22.068,22.068,0,0,0,4.1-.362c3.616-.663,5.485-2.23,5.485-4.038l.663-2.29c-1.447-1.627-5.907-2.049-10.246-2.049C103.511,43.46,98.568,44.605,96.7,45.69Z" transform="translate(-96.7 -43.4)" fill="#ffc50d"/>
        </g>
        <g id="Group_679" data-name="Group 679" transform="translate(6.148 6.57)" opacity="0.43">
          <path id="Path_604" data-name="Path 604" d="M106.9,50.9v3.857a13.475,13.475,0,0,0,2.773.3V50.9Z" transform="translate(-106.9 -50.9)" fill="#fffc8f"/>
        </g>
        <g id="Group_680" data-name="Group 680" transform="translate(13.923 2.17)">
          <path id="Path_605" data-name="Path 605" d="M119.8,51.918V43.6c2.953.241,5.545.723,6.57,1.929v2.29C126.37,49.688,123.657,51.315,119.8,51.918Z" transform="translate(-119.8 -43.6)" fill="#f19d00"/>
        </g>
        <g id="Group_681" data-name="Group 681">
          <ellipse id="Ellipse_154" data-name="Ellipse 154" cx="10.246" cy="4.34" rx="10.246" ry="4.34" fill="#ffd400"/>
        </g>
        <g id="Group_682" data-name="Group 682" transform="translate(0.723 0.121)">
          <path id="Path_606" data-name="Path 606" d="M101.577,47.855a7.229,7.229,0,0,1-3.677-2.17l8.257-5.425c.482,0,.964-.06,1.386-.06a20.368,20.368,0,0,1,4.822.542Z" transform="translate(-97.9 -40.2)" fill="#fffc8f"/>
        </g>
        <g id="Group_683" data-name="Group 683" transform="translate(6.509 1.205)">
          <path id="Path_607" data-name="Path 607" d="M109.911,49.293a15.5,15.5,0,0,1-2.411-.3L118.229,42a10.209,10.209,0,0,1,1.627.784Z" transform="translate(-107.5 -42)" fill="#fffc8f"/>
        </g>
      </g>
    </g>
    <g id="Group_694" data-name="Group 694" transform="translate(0 21.096)">
      <g id="Group_693" data-name="Group 693">
        <g id="Group_686" data-name="Group 686" transform="translate(0 2.531)">
          <ellipse id="Ellipse_155" data-name="Ellipse 155" cx="10.246" cy="4.34" rx="10.246" ry="4.34" fill="#ce7d13"/>
        </g>
        <g id="Group_687" data-name="Group 687" transform="translate(0 2.049)">
          <path id="Path_608" data-name="Path 608" d="M96.7,40.69V42.8c0,1.808,2.531,3.315,6.148,3.978a13.475,13.475,0,0,0,2.773.3c.422,0,.9.06,1.326.06a22.068,22.068,0,0,0,4.1-.362c3.616-.663,5.485-2.23,5.485-4.038l.663-2.29c-1.447-1.627-5.907-2.049-10.246-2.049C103.511,38.46,98.568,39.605,96.7,40.69Z" transform="translate(-96.7 -38.4)" fill="#ffc50d"/>
        </g>
        <g id="Group_688" data-name="Group 688" transform="translate(6.148 6.57)" opacity="0.43">
          <path id="Path_609" data-name="Path 609" d="M106.9,45.9v3.857a13.475,13.475,0,0,0,2.773.3V45.9Z" transform="translate(-106.9 -45.9)" fill="#fffc8f"/>
        </g>
        <g id="Group_689" data-name="Group 689" transform="translate(13.923 2.17)">
          <path id="Path_610" data-name="Path 610" d="M119.8,46.918V38.6c2.953.241,5.545.723,6.57,1.929v2.29C126.37,44.688,123.657,46.315,119.8,46.918Z" transform="translate(-119.8 -38.6)" fill="#f19d00"/>
        </g>
        <g id="Group_690" data-name="Group 690">
          <ellipse id="Ellipse_156" data-name="Ellipse 156" cx="10.246" cy="4.34" rx="10.246" ry="4.34" fill="#ffd400"/>
        </g>
        <g id="Group_691" data-name="Group 691" transform="translate(0.723 0.121)">
          <path id="Path_611" data-name="Path 611" d="M101.577,42.855a7.229,7.229,0,0,1-3.677-2.17l8.257-5.425c.482,0,.964-.06,1.386-.06a20.368,20.368,0,0,1,4.822.542Z" transform="translate(-97.9 -35.2)" fill="#fffc8f"/>
        </g>
        <g id="Group_692" data-name="Group 692" transform="translate(6.509 1.205)">
          <path id="Path_612" data-name="Path 612" d="M109.911,44.293a15.5,15.5,0,0,1-2.411-.3L118.229,37a10.209,10.209,0,0,1,1.627.784Z" transform="translate(-107.5 -37)" fill="#fffc8f"/>
        </g>
      </g>
    </g>
    <g id="Group_703" data-name="Group 703" transform="translate(0 18.082)">
      <g id="Group_702" data-name="Group 702">
        <g id="Group_695" data-name="Group 695" transform="translate(0 2.531)">
          <ellipse id="Ellipse_157" data-name="Ellipse 157" cx="10.246" cy="4.34" rx="10.246" ry="4.34" fill="#ce7d13"/>
        </g>
        <g id="Group_696" data-name="Group 696" transform="translate(0 2.049)">
          <path id="Path_613" data-name="Path 613" d="M96.7,35.69V37.8c0,1.808,2.531,3.315,6.148,3.978a13.475,13.475,0,0,0,2.773.3c.422,0,.9.06,1.326.06a22.068,22.068,0,0,0,4.1-.362c3.616-.663,5.485-2.23,5.485-4.038l.663-2.29c-1.447-1.627-5.907-2.049-10.246-2.049C103.511,33.46,98.568,34.605,96.7,35.69Z" transform="translate(-96.7 -33.4)" fill="#ffc50d"/>
        </g>
        <g id="Group_697" data-name="Group 697" transform="translate(6.148 6.57)" opacity="0.43">
          <path id="Path_614" data-name="Path 614" d="M106.9,40.9v3.857a13.475,13.475,0,0,0,2.773.3V40.9Z" transform="translate(-106.9 -40.9)" fill="#fffc8f"/>
        </g>
        <g id="Group_698" data-name="Group 698" transform="translate(13.923 2.17)">
          <path id="Path_615" data-name="Path 615" d="M119.8,41.918V33.6c2.953.241,5.545.723,6.57,1.929v2.29C126.37,39.688,123.657,41.315,119.8,41.918Z" transform="translate(-119.8 -33.6)" fill="#f19d00"/>
        </g>
        <g id="Group_699" data-name="Group 699">
          <ellipse id="Ellipse_158" data-name="Ellipse 158" cx="10.246" cy="4.34" rx="10.246" ry="4.34" fill="#ffd400"/>
        </g>
        <g id="Group_700" data-name="Group 700" transform="translate(0.723 0.121)">
          <path id="Path_616" data-name="Path 616" d="M101.577,37.855a7.229,7.229,0,0,1-3.677-2.17l8.257-5.425c.482,0,.964-.06,1.386-.06a20.368,20.368,0,0,1,4.822.542Z" transform="translate(-97.9 -30.2)" fill="#fffc8f"/>
        </g>
        <g id="Group_701" data-name="Group 701" transform="translate(6.509 1.205)">
          <path id="Path_617" data-name="Path 617" d="M109.911,39.293a15.5,15.5,0,0,1-2.411-.3L118.229,32a10.209,10.209,0,0,1,1.627.784Z" transform="translate(-107.5 -32)" fill="#fffc8f"/>
        </g>
      </g>
    </g>
    <g id="Group_712" data-name="Group 712" transform="translate(0 15.068)">
      <g id="Group_711" data-name="Group 711">
        <g id="Group_704" data-name="Group 704" transform="translate(0 2.531)">
          <ellipse id="Ellipse_159" data-name="Ellipse 159" cx="10.246" cy="4.34" rx="10.246" ry="4.34" fill="#ce7d13"/>
        </g>
        <g id="Group_705" data-name="Group 705" transform="translate(0 2.049)">
          <path id="Path_618" data-name="Path 618" d="M96.7,30.69V32.8c0,1.808,2.531,3.315,6.148,3.978a13.475,13.475,0,0,0,2.773.3c.422,0,.9.06,1.326.06a22.068,22.068,0,0,0,4.1-.362c3.616-.663,5.485-2.23,5.485-4.038l.663-2.29c-1.447-1.627-5.907-2.049-10.246-2.049C103.511,28.46,98.568,29.605,96.7,30.69Z" transform="translate(-96.7 -28.4)" fill="#ffc50d"/>
        </g>
        <g id="Group_706" data-name="Group 706" transform="translate(6.148 6.57)" opacity="0.43">
          <path id="Path_619" data-name="Path 619" d="M106.9,35.9v3.857a13.475,13.475,0,0,0,2.773.3V35.9Z" transform="translate(-106.9 -35.9)" fill="#fffc8f"/>
        </g>
        <g id="Group_707" data-name="Group 707" transform="translate(13.923 2.17)">
          <path id="Path_620" data-name="Path 620" d="M119.8,36.918V28.6c2.953.241,5.545.723,6.57,1.929v2.29C126.37,34.688,123.657,36.315,119.8,36.918Z" transform="translate(-119.8 -28.6)" fill="#f19d00"/>
        </g>
        <g id="Group_708" data-name="Group 708">
          <ellipse id="Ellipse_160" data-name="Ellipse 160" cx="10.246" cy="4.34" rx="10.246" ry="4.34" fill="#ffd400"/>
        </g>
        <g id="Group_709" data-name="Group 709" transform="translate(0.723 0.121)">
          <path id="Path_621" data-name="Path 621" d="M101.577,32.855a7.229,7.229,0,0,1-3.677-2.17l8.257-5.425c.482,0,.964-.06,1.386-.06a20.368,20.368,0,0,1,4.822.542Z" transform="translate(-97.9 -25.2)" fill="#fffc8f"/>
        </g>
        <g id="Group_710" data-name="Group 710" transform="translate(6.509 1.205)">
          <path id="Path_622" data-name="Path 622" d="M109.911,34.293a15.5,15.5,0,0,1-2.411-.3L118.229,27a10.209,10.209,0,0,1,1.627.784Z" transform="translate(-107.5 -27)" fill="#fffc8f"/>
        </g>
      </g>
    </g>
    <g id="Group_721" data-name="Group 721" transform="translate(0 12.055)">
      <g id="Group_720" data-name="Group 720">
        <g id="Group_713" data-name="Group 713" transform="translate(0 2.531)">
          <ellipse id="Ellipse_161" data-name="Ellipse 161" cx="10.246" cy="4.34" rx="10.246" ry="4.34" fill="#ce7d13"/>
        </g>
        <g id="Group_714" data-name="Group 714" transform="translate(0 2.049)">
          <path id="Path_623" data-name="Path 623" d="M96.7,25.69V27.8c0,1.808,2.531,3.315,6.148,3.978a13.475,13.475,0,0,0,2.773.3c.422,0,.9.06,1.326.06a22.068,22.068,0,0,0,4.1-.362c3.616-.663,5.485-2.23,5.485-4.038l.663-2.29c-1.447-1.627-5.907-2.049-10.246-2.049C103.511,23.46,98.568,24.605,96.7,25.69Z" transform="translate(-96.7 -23.4)" fill="#ffc50d"/>
        </g>
        <g id="Group_715" data-name="Group 715" transform="translate(6.148 6.57)" opacity="0.43">
          <path id="Path_624" data-name="Path 624" d="M106.9,30.9v3.857a13.475,13.475,0,0,0,2.773.3V30.9Z" transform="translate(-106.9 -30.9)" fill="#fffc8f"/>
        </g>
        <g id="Group_716" data-name="Group 716" transform="translate(13.923 2.17)">
          <path id="Path_625" data-name="Path 625" d="M119.8,31.918V23.6c2.953.241,5.545.723,6.57,1.929v2.29C126.37,29.688,123.657,31.315,119.8,31.918Z" transform="translate(-119.8 -23.6)" fill="#f19d00"/>
        </g>
        <g id="Group_717" data-name="Group 717">
          <ellipse id="Ellipse_162" data-name="Ellipse 162" cx="10.246" cy="4.34" rx="10.246" ry="4.34" fill="#ffd400"/>
        </g>
        <g id="Group_718" data-name="Group 718" transform="translate(0.723 0.121)">
          <path id="Path_626" data-name="Path 626" d="M101.577,27.855a7.229,7.229,0,0,1-3.677-2.17l8.257-5.425c.482,0,.964-.06,1.386-.06a20.368,20.368,0,0,1,4.822.542Z" transform="translate(-97.9 -20.2)" fill="#fffc8f"/>
        </g>
        <g id="Group_719" data-name="Group 719" transform="translate(6.509 1.205)">
          <path id="Path_627" data-name="Path 627" d="M109.911,29.293a15.5,15.5,0,0,1-2.411-.3L118.229,22a10.209,10.209,0,0,1,1.627.784Z" transform="translate(-107.5 -22)" fill="#fffc8f"/>
        </g>
      </g>
    </g>
    <g id="Group_730" data-name="Group 730" transform="translate(0 9.041)">
      <g id="Group_729" data-name="Group 729">
        <g id="Group_722" data-name="Group 722" transform="translate(0 2.531)">
          <ellipse id="Ellipse_163" data-name="Ellipse 163" cx="10.246" cy="4.34" rx="10.246" ry="4.34" fill="#ce7d13"/>
        </g>
        <g id="Group_723" data-name="Group 723" transform="translate(0 2.049)">
          <path id="Path_628" data-name="Path 628" d="M96.7,20.69V22.8c0,1.808,2.531,3.315,6.148,3.978a13.475,13.475,0,0,0,2.773.3c.422,0,.9.06,1.326.06a22.068,22.068,0,0,0,4.1-.362c3.616-.663,5.485-2.23,5.485-4.038l.663-2.29c-1.447-1.627-5.907-2.049-10.246-2.049C103.511,18.46,98.568,19.605,96.7,20.69Z" transform="translate(-96.7 -18.4)" fill="#ffc50d"/>
        </g>
        <g id="Group_724" data-name="Group 724" transform="translate(6.148 6.57)" opacity="0.43">
          <path id="Path_629" data-name="Path 629" d="M106.9,25.9v3.857a13.475,13.475,0,0,0,2.773.3V25.9Z" transform="translate(-106.9 -25.9)" fill="#fffc8f"/>
        </g>
        <g id="Group_725" data-name="Group 725" transform="translate(13.923 2.17)">
          <path id="Path_630" data-name="Path 630" d="M119.8,26.918V18.6c2.953.241,5.545.723,6.57,1.929v2.29C126.37,24.688,123.657,26.315,119.8,26.918Z" transform="translate(-119.8 -18.6)" fill="#f19d00"/>
        </g>
        <g id="Group_726" data-name="Group 726">
          <ellipse id="Ellipse_164" data-name="Ellipse 164" cx="10.246" cy="4.34" rx="10.246" ry="4.34" fill="#ffd400"/>
        </g>
        <g id="Group_727" data-name="Group 727" transform="translate(0.723 0.121)">
          <path id="Path_631" data-name="Path 631" d="M101.577,22.855a7.229,7.229,0,0,1-3.677-2.17l8.257-5.425c.482,0,.964-.06,1.386-.06a20.368,20.368,0,0,1,4.822.542Z" transform="translate(-97.9 -15.2)" fill="#fffc8f"/>
        </g>
        <g id="Group_728" data-name="Group 728" transform="translate(6.509 1.205)">
          <path id="Path_632" data-name="Path 632" d="M109.911,24.293a15.5,15.5,0,0,1-2.411-.3L118.229,17a10.209,10.209,0,0,1,1.627.784Z" transform="translate(-107.5 -17)" fill="#fffc8f"/>
        </g>
      </g>
    </g>
    <g id="Group_739" data-name="Group 739" transform="translate(0 6.027)">
      <g id="Group_738" data-name="Group 738">
        <g id="Group_731" data-name="Group 731" transform="translate(0 2.531)">
          <ellipse id="Ellipse_165" data-name="Ellipse 165" cx="10.246" cy="4.34" rx="10.246" ry="4.34" fill="#ce7d13"/>
        </g>
        <g id="Group_732" data-name="Group 732" transform="translate(0 2.049)">
          <path id="Path_633" data-name="Path 633" d="M96.7,15.69V17.8c0,1.808,2.531,3.315,6.148,3.978a13.475,13.475,0,0,0,2.773.3c.422,0,.9.06,1.326.06a22.068,22.068,0,0,0,4.1-.362c3.616-.663,5.485-2.23,5.485-4.038l.663-2.29c-1.447-1.627-5.907-2.049-10.246-2.049C103.511,13.46,98.568,14.605,96.7,15.69Z" transform="translate(-96.7 -13.4)" fill="#ffc50d"/>
        </g>
        <g id="Group_733" data-name="Group 733" transform="translate(6.148 6.57)" opacity="0.43">
          <path id="Path_634" data-name="Path 634" d="M106.9,20.9v3.857a13.475,13.475,0,0,0,2.773.3V20.9Z" transform="translate(-106.9 -20.9)" fill="#fffc8f"/>
        </g>
        <g id="Group_734" data-name="Group 734" transform="translate(13.923 2.17)">
          <path id="Path_635" data-name="Path 635" d="M119.8,21.918V13.6c2.953.241,5.545.723,6.57,1.929v2.29C126.37,19.688,123.657,21.315,119.8,21.918Z" transform="translate(-119.8 -13.6)" fill="#f19d00"/>
        </g>
        <g id="Group_735" data-name="Group 735">
          <ellipse id="Ellipse_166" data-name="Ellipse 166" cx="10.246" cy="4.34" rx="10.246" ry="4.34" fill="#ffd400"/>
        </g>
        <g id="Group_736" data-name="Group 736" transform="translate(0.723 0.121)">
          <path id="Path_636" data-name="Path 636" d="M101.577,17.855a7.229,7.229,0,0,1-3.677-2.17l8.257-5.425c.482,0,.964-.06,1.386-.06a20.368,20.368,0,0,1,4.822.542Z" transform="translate(-97.9 -10.2)" fill="#fffc8f"/>
        </g>
        <g id="Group_737" data-name="Group 737" transform="translate(6.509 1.205)">
          <path id="Path_637" data-name="Path 637" d="M109.911,19.293a15.5,15.5,0,0,1-2.411-.3L118.229,12a10.209,10.209,0,0,1,1.627.784Z" transform="translate(-107.5 -12)" fill="#fffc8f"/>
        </g>
      </g>
    </g>
    <g id="Group_748" data-name="Group 748" transform="translate(0 3.014)">
      <g id="Group_747" data-name="Group 747">
        <g id="Group_740" data-name="Group 740" transform="translate(0 2.531)">
          <ellipse id="Ellipse_167" data-name="Ellipse 167" cx="10.246" cy="4.34" rx="10.246" ry="4.34" fill="#ce7d13"/>
        </g>
        <g id="Group_741" data-name="Group 741" transform="translate(0 2.049)">
          <path id="Path_638" data-name="Path 638" d="M96.7,10.69V12.8c0,1.808,2.531,3.315,6.148,3.978a13.475,13.475,0,0,0,2.773.3c.422,0,.9.06,1.326.06a22.068,22.068,0,0,0,4.1-.362c3.616-.663,5.485-2.23,5.485-4.038l.663-2.29C115.746,8.822,111.286,8.4,106.946,8.4,103.511,8.46,98.568,9.605,96.7,10.69Z" transform="translate(-96.7 -8.4)" fill="#ffc50d"/>
        </g>
        <g id="Group_742" data-name="Group 742" transform="translate(6.148 6.57)" opacity="0.43">
          <path id="Path_639" data-name="Path 639" d="M106.9,15.9v3.857a13.475,13.475,0,0,0,2.773.3V15.9Z" transform="translate(-106.9 -15.9)" fill="#fffc8f"/>
        </g>
        <g id="Group_743" data-name="Group 743" transform="translate(13.923 2.17)">
          <path id="Path_640" data-name="Path 640" d="M119.8,16.918V8.6c2.953.241,5.545.723,6.57,1.929v2.29C126.37,14.688,123.657,16.315,119.8,16.918Z" transform="translate(-119.8 -8.6)" fill="#f19d00"/>
        </g>
        <g id="Group_744" data-name="Group 744">
          <ellipse id="Ellipse_168" data-name="Ellipse 168" cx="10.246" cy="4.34" rx="10.246" ry="4.34" fill="#ffd400"/>
        </g>
        <g id="Group_745" data-name="Group 745" transform="translate(0.723 0.121)">
          <path id="Path_641" data-name="Path 641" d="M101.577,12.855a7.229,7.229,0,0,1-3.677-2.17l8.257-5.425c.482,0,.964-.06,1.386-.06a20.368,20.368,0,0,1,4.822.542Z" transform="translate(-97.9 -5.2)" fill="#fffc8f"/>
        </g>
        <g id="Group_746" data-name="Group 746" transform="translate(6.509 1.205)">
          <path id="Path_642" data-name="Path 642" d="M109.911,14.293a15.5,15.5,0,0,1-2.411-.3L118.229,7a10.209,10.209,0,0,1,1.627.784Z" transform="translate(-107.5 -7)" fill="#fffc8f"/>
        </g>
      </g>
    </g>
    <g id="Group_757" data-name="Group 757">
      <g id="Group_756" data-name="Group 756">
        <g id="Group_749" data-name="Group 749" transform="translate(0 2.531)">
          <ellipse id="Ellipse_169" data-name="Ellipse 169" cx="10.246" cy="4.34" rx="10.246" ry="4.34" fill="#ce7d13"/>
        </g>
        <g id="Group_750" data-name="Group 750" transform="translate(0 2.049)">
          <path id="Path_643" data-name="Path 643" d="M96.7,5.69V7.8c0,1.808,2.531,3.315,6.148,3.978a13.475,13.475,0,0,0,2.773.3c.422,0,.9.06,1.326.06a22.068,22.068,0,0,0,4.1-.362c3.616-.663,5.485-2.23,5.485-4.038l.663-2.29C115.746,3.822,111.286,3.4,106.946,3.4,103.511,3.46,98.568,4.605,96.7,5.69Z" transform="translate(-96.7 -3.4)" fill="#ffc50d"/>
        </g>
        <g id="Group_751" data-name="Group 751" transform="translate(6.148 6.57)" opacity="0.43">
          <path id="Path_644" data-name="Path 644" d="M106.9,10.9v3.857a13.475,13.475,0,0,0,2.773.3V10.9Z" transform="translate(-106.9 -10.9)" fill="#fffc8f"/>
        </g>
        <g id="Group_752" data-name="Group 752" transform="translate(13.923 2.17)">
          <path id="Path_645" data-name="Path 645" d="M119.8,11.918V3.6c2.953.241,5.545.723,6.57,1.929v2.29C126.37,9.688,123.657,11.315,119.8,11.918Z" transform="translate(-119.8 -3.6)" fill="#f19d00"/>
        </g>
        <g id="Group_753" data-name="Group 753">
          <ellipse id="Ellipse_170" data-name="Ellipse 170" cx="10.246" cy="4.34" rx="10.246" ry="4.34" fill="#ffd400"/>
        </g>
        <g id="Group_754" data-name="Group 754" transform="translate(0.723 0.121)">
          <path id="Path_646" data-name="Path 646" d="M101.577,7.855A7.229,7.229,0,0,1,97.9,5.685L106.157.26c.482,0,.964-.06,1.386-.06a20.368,20.368,0,0,1,4.822.542Z" transform="translate(-97.9 -0.2)" fill="#fffc8f"/>
        </g>
        <g id="Group_755" data-name="Group 755" transform="translate(6.509 1.205)">
          <path id="Path_647" data-name="Path 647" d="M109.911,9.293a15.5,15.5,0,0,1-2.411-.3L118.229,2a10.209,10.209,0,0,1,1.627.784Z" transform="translate(-107.5 -2)" fill="#fffc8f"/>
        </g>
      </g>
    </g>
  </g>
  <path id="Path_648" data-name="Path 648" d="M86.2,57.5c0,2.411,4.581,5.666,10.246,7.293.6.181,1.205.3,1.748.422V44.964c-.542-.121-1.145-.241-1.748-.422-3.375-.964-6.871,1.085-8.74-.542C86.5,44.362,86.2,56.6,86.2,57.5Z" transform="translate(-34.245 -17.48)" opacity="0.25"/>
  <g id="Group_813" data-name="Group 813" transform="translate(65.577 27.906)">
    <g id="Group_767" data-name="Group 767" transform="translate(0 15.068)">
      <g id="Group_766" data-name="Group 766">
        <g id="Group_759" data-name="Group 759" transform="translate(0 2.531)">
          <ellipse id="Ellipse_171" data-name="Ellipse 171" cx="10.246" cy="4.34" rx="10.246" ry="4.34" fill="#ce7d13"/>
        </g>
        <g id="Group_760" data-name="Group 760" transform="translate(0 1.989)">
          <path id="Path_649" data-name="Path 649" d="M108.8,76.89V79c0,1.808,2.531,3.315,6.148,3.978a13.474,13.474,0,0,0,2.773.3c.422,0,.9.06,1.326.06a22.068,22.068,0,0,0,4.1-.362c3.616-.663,5.485-2.23,5.485-4.038l.663-2.29c-1.447-1.627-5.907-2.049-10.246-2.049C115.611,74.66,110.668,75.805,108.8,76.89Z" transform="translate(-108.8 -74.6)" fill="#ffc50d"/>
        </g>
        <g id="Group_761" data-name="Group 761" transform="translate(6.148 6.57)" opacity="0.43">
          <path id="Path_650" data-name="Path 650" d="M119,82.2v3.857a13.475,13.475,0,0,0,2.773.3V82.2Z" transform="translate(-119 -82.2)" fill="#fffc8f"/>
        </g>
        <g id="Group_762" data-name="Group 762" transform="translate(13.923 2.17)">
          <path id="Path_651" data-name="Path 651" d="M131.9,83.157V74.9c2.953.241,5.545.723,6.57,1.929v2.29C138.47,80.988,135.757,82.555,131.9,83.157Z" transform="translate(-131.9 -74.9)" fill="#f19d00"/>
        </g>
        <g id="Group_763" data-name="Group 763">
          <ellipse id="Ellipse_172" data-name="Ellipse 172" cx="10.246" cy="4.34" rx="10.246" ry="4.34" fill="#ffd400"/>
        </g>
        <g id="Group_764" data-name="Group 764" transform="translate(0.723 0.06)">
          <path id="Path_652" data-name="Path 652" d="M113.677,79.055A7.229,7.229,0,0,1,110,76.885l8.257-5.425c.482,0,.964-.06,1.386-.06a20.368,20.368,0,0,1,4.822.542Z" transform="translate(-110 -71.4)" fill="#fffc8f"/>
        </g>
        <g id="Group_765" data-name="Group 765" transform="translate(6.509 1.205)">
          <path id="Path_653" data-name="Path 653" d="M122.011,80.593a15.5,15.5,0,0,1-2.411-.3L130.268,73.3a10.209,10.209,0,0,1,1.627.784Z" transform="translate(-119.6 -73.3)" fill="#fffc8f"/>
        </g>
      </g>
    </g>
    <g id="Group_776" data-name="Group 776" transform="translate(0 12.055)">
      <g id="Group_775" data-name="Group 775">
        <g id="Group_768" data-name="Group 768" transform="translate(0 2.531)">
          <ellipse id="Ellipse_173" data-name="Ellipse 173" cx="10.246" cy="4.34" rx="10.246" ry="4.34" fill="#ce7d13"/>
        </g>
        <g id="Group_769" data-name="Group 769" transform="translate(0 1.989)">
          <path id="Path_654" data-name="Path 654" d="M108.8,71.89V74c0,1.808,2.531,3.315,6.148,3.978a13.474,13.474,0,0,0,2.773.3c.422,0,.9.06,1.326.06a22.068,22.068,0,0,0,4.1-.362c3.616-.663,5.485-2.23,5.485-4.038l.663-2.29c-1.447-1.627-5.907-2.049-10.246-2.049C115.611,69.66,110.668,70.805,108.8,71.89Z" transform="translate(-108.8 -69.6)" fill="#ffc50d"/>
        </g>
        <g id="Group_770" data-name="Group 770" transform="translate(6.148 6.57)" opacity="0.43">
          <path id="Path_655" data-name="Path 655" d="M119,77.2v3.857a13.474,13.474,0,0,0,2.773.3V77.2Z" transform="translate(-119 -77.2)" fill="#fffc8f"/>
        </g>
        <g id="Group_771" data-name="Group 771" transform="translate(13.923 2.17)">
          <path id="Path_656" data-name="Path 656" d="M131.9,78.157V69.9c2.953.241,5.545.723,6.57,1.929v2.29C138.47,75.988,135.757,77.555,131.9,78.157Z" transform="translate(-131.9 -69.9)" fill="#f19d00"/>
        </g>
        <g id="Group_772" data-name="Group 772">
          <ellipse id="Ellipse_174" data-name="Ellipse 174" cx="10.246" cy="4.34" rx="10.246" ry="4.34" fill="#ffd400"/>
        </g>
        <g id="Group_773" data-name="Group 773" transform="translate(0.723 0.06)">
          <path id="Path_657" data-name="Path 657" d="M113.677,74.055A7.229,7.229,0,0,1,110,71.885l8.257-5.425c.482,0,.964-.06,1.386-.06a20.368,20.368,0,0,1,4.822.542Z" transform="translate(-110 -66.4)" fill="#fffc8f"/>
        </g>
        <g id="Group_774" data-name="Group 774" transform="translate(6.509 1.205)">
          <path id="Path_658" data-name="Path 658" d="M122.011,75.593a15.505,15.505,0,0,1-2.411-.3L130.268,68.3a10.209,10.209,0,0,1,1.627.784Z" transform="translate(-119.6 -68.3)" fill="#fffc8f"/>
        </g>
      </g>
    </g>
    <g id="Group_785" data-name="Group 785" transform="translate(0 9.041)">
      <g id="Group_784" data-name="Group 784">
        <g id="Group_777" data-name="Group 777" transform="translate(0 2.531)">
          <ellipse id="Ellipse_175" data-name="Ellipse 175" cx="10.246" cy="4.34" rx="10.246" ry="4.34" fill="#ce7d13"/>
        </g>
        <g id="Group_778" data-name="Group 778" transform="translate(0 1.989)">
          <path id="Path_659" data-name="Path 659" d="M108.8,66.89V69c0,1.808,2.531,3.315,6.148,3.978a13.474,13.474,0,0,0,2.773.3c.422,0,.9.06,1.326.06a22.068,22.068,0,0,0,4.1-.362c3.616-.663,5.485-2.23,5.485-4.038l.663-2.29c-1.447-1.627-5.907-2.049-10.246-2.049C115.611,64.66,110.668,65.805,108.8,66.89Z" transform="translate(-108.8 -64.6)" fill="#ffc50d"/>
        </g>
        <g id="Group_779" data-name="Group 779" transform="translate(6.148 6.57)" opacity="0.43">
          <path id="Path_660" data-name="Path 660" d="M119,72.2v3.857a13.475,13.475,0,0,0,2.773.3V72.2Z" transform="translate(-119 -72.2)" fill="#fffc8f"/>
        </g>
        <g id="Group_780" data-name="Group 780" transform="translate(13.923 2.17)">
          <path id="Path_661" data-name="Path 661" d="M131.9,73.157V64.9c2.953.241,5.545.723,6.57,1.929v2.29C138.47,70.988,135.757,72.555,131.9,73.157Z" transform="translate(-131.9 -64.9)" fill="#f19d00"/>
        </g>
        <g id="Group_781" data-name="Group 781">
          <ellipse id="Ellipse_176" data-name="Ellipse 176" cx="10.246" cy="4.34" rx="10.246" ry="4.34" fill="#ffd400"/>
        </g>
        <g id="Group_782" data-name="Group 782" transform="translate(0.723 0.06)">
          <path id="Path_662" data-name="Path 662" d="M113.677,69.055A7.229,7.229,0,0,1,110,66.885l8.257-5.425c.482,0,.964-.06,1.386-.06a20.368,20.368,0,0,1,4.822.542Z" transform="translate(-110 -61.4)" fill="#fffc8f"/>
        </g>
        <g id="Group_783" data-name="Group 783" transform="translate(6.509 1.205)">
          <path id="Path_663" data-name="Path 663" d="M122.011,70.593a15.5,15.5,0,0,1-2.411-.3L130.268,63.3a10.209,10.209,0,0,1,1.627.784Z" transform="translate(-119.6 -63.3)" fill="#fffc8f"/>
        </g>
      </g>
    </g>
    <g id="Group_794" data-name="Group 794" transform="translate(0 6.027)">
      <g id="Group_793" data-name="Group 793">
        <g id="Group_786" data-name="Group 786" transform="translate(0 2.531)">
          <ellipse id="Ellipse_177" data-name="Ellipse 177" cx="10.246" cy="4.34" rx="10.246" ry="4.34" fill="#ce7d13"/>
        </g>
        <g id="Group_787" data-name="Group 787" transform="translate(0 1.989)">
          <path id="Path_664" data-name="Path 664" d="M108.8,61.89V64c0,1.808,2.531,3.315,6.148,3.978a13.475,13.475,0,0,0,2.773.3c.422,0,.9.06,1.326.06a22.068,22.068,0,0,0,4.1-.362c3.616-.663,5.485-2.23,5.485-4.038l.663-2.29c-1.447-1.627-5.907-2.049-10.246-2.049C115.611,59.66,110.668,60.805,108.8,61.89Z" transform="translate(-108.8 -59.6)" fill="#ffc50d"/>
        </g>
        <g id="Group_788" data-name="Group 788" transform="translate(6.148 6.57)" opacity="0.43">
          <path id="Path_665" data-name="Path 665" d="M119,67.2v3.857a13.474,13.474,0,0,0,2.773.3V67.2Z" transform="translate(-119 -67.2)" fill="#fffc8f"/>
        </g>
        <g id="Group_789" data-name="Group 789" transform="translate(13.923 2.17)">
          <path id="Path_666" data-name="Path 666" d="M131.9,68.157V59.9c2.953.241,5.545.723,6.57,1.929v2.29C138.47,65.988,135.757,67.555,131.9,68.157Z" transform="translate(-131.9 -59.9)" fill="#f19d00"/>
        </g>
        <g id="Group_790" data-name="Group 790">
          <ellipse id="Ellipse_178" data-name="Ellipse 178" cx="10.246" cy="4.34" rx="10.246" ry="4.34" fill="#ffd400"/>
        </g>
        <g id="Group_791" data-name="Group 791" transform="translate(0.723 0.06)">
          <path id="Path_667" data-name="Path 667" d="M113.677,64.055A7.229,7.229,0,0,1,110,61.885l8.257-5.425c.482,0,.964-.06,1.386-.06a20.368,20.368,0,0,1,4.822.542Z" transform="translate(-110 -56.4)" fill="#fffc8f"/>
        </g>
        <g id="Group_792" data-name="Group 792" transform="translate(6.509 1.205)">
          <path id="Path_668" data-name="Path 668" d="M122.011,65.593a15.5,15.5,0,0,1-2.411-.3L130.268,58.3a10.21,10.21,0,0,1,1.627.784Z" transform="translate(-119.6 -58.3)" fill="#fffc8f"/>
        </g>
      </g>
    </g>
    <g id="Group_803" data-name="Group 803" transform="translate(0 3.014)">
      <g id="Group_802" data-name="Group 802">
        <g id="Group_795" data-name="Group 795" transform="translate(0 2.531)">
          <ellipse id="Ellipse_179" data-name="Ellipse 179" cx="10.246" cy="4.34" rx="10.246" ry="4.34" fill="#ce7d13"/>
        </g>
        <g id="Group_796" data-name="Group 796" transform="translate(0 1.989)">
          <path id="Path_669" data-name="Path 669" d="M108.8,56.89V59c0,1.808,2.531,3.315,6.148,3.978a13.474,13.474,0,0,0,2.773.3c.422,0,.9.06,1.326.06a22.068,22.068,0,0,0,4.1-.362c3.616-.663,5.485-2.23,5.485-4.038l.663-2.29c-1.447-1.627-5.907-2.049-10.246-2.049C115.611,54.66,110.668,55.805,108.8,56.89Z" transform="translate(-108.8 -54.6)" fill="#ffc50d"/>
        </g>
        <g id="Group_797" data-name="Group 797" transform="translate(6.148 6.57)" opacity="0.43">
          <path id="Path_670" data-name="Path 670" d="M119,62.2v3.857a13.474,13.474,0,0,0,2.773.3V62.2Z" transform="translate(-119 -62.2)" fill="#fffc8f"/>
        </g>
        <g id="Group_798" data-name="Group 798" transform="translate(13.923 2.17)">
          <path id="Path_671" data-name="Path 671" d="M131.9,63.157V54.9c2.953.241,5.545.723,6.57,1.929v2.29C138.47,60.988,135.757,62.555,131.9,63.157Z" transform="translate(-131.9 -54.9)" fill="#f19d00"/>
        </g>
        <g id="Group_799" data-name="Group 799">
          <ellipse id="Ellipse_180" data-name="Ellipse 180" cx="10.246" cy="4.34" rx="10.246" ry="4.34" fill="#ffd400"/>
        </g>
        <g id="Group_800" data-name="Group 800" transform="translate(0.723 0.06)">
          <path id="Path_672" data-name="Path 672" d="M113.677,59.055A7.229,7.229,0,0,1,110,56.885l8.257-5.425c.482,0,.964-.06,1.386-.06a20.368,20.368,0,0,1,4.822.542Z" transform="translate(-110 -51.4)" fill="#fffc8f"/>
        </g>
        <g id="Group_801" data-name="Group 801" transform="translate(6.509 1.205)">
          <path id="Path_673" data-name="Path 673" d="M122.011,60.593a15.5,15.5,0,0,1-2.411-.3L130.268,53.3a10.209,10.209,0,0,1,1.627.784Z" transform="translate(-119.6 -53.3)" fill="#fffc8f"/>
        </g>
      </g>
    </g>
    <g id="Group_812" data-name="Group 812">
      <g id="Group_811" data-name="Group 811">
        <g id="Group_804" data-name="Group 804" transform="translate(0 2.531)">
          <ellipse id="Ellipse_181" data-name="Ellipse 181" cx="10.246" cy="4.34" rx="10.246" ry="4.34" fill="#ce7d13"/>
        </g>
        <g id="Group_805" data-name="Group 805" transform="translate(0 1.989)">
          <path id="Path_674" data-name="Path 674" d="M108.8,51.89V54c0,1.808,2.531,3.315,6.148,3.978a13.475,13.475,0,0,0,2.773.3c.422,0,.9.06,1.326.06a22.068,22.068,0,0,0,4.1-.362c3.616-.663,5.485-2.23,5.485-4.038l.663-2.29c-1.447-1.627-5.907-2.049-10.246-2.049C115.611,49.66,110.668,50.805,108.8,51.89Z" transform="translate(-108.8 -49.6)" fill="#ffc50d"/>
        </g>
        <g id="Group_806" data-name="Group 806" transform="translate(6.148 6.57)" opacity="0.43">
          <path id="Path_675" data-name="Path 675" d="M119,57.2v3.857a13.475,13.475,0,0,0,2.773.3V57.2H119Z" transform="translate(-119 -57.2)" fill="#fffc8f"/>
        </g>
        <g id="Group_807" data-name="Group 807" transform="translate(13.923 2.17)">
          <path id="Path_676" data-name="Path 676" d="M131.9,58.157V49.9c2.953.241,5.545.723,6.57,1.929v2.29C138.47,55.988,135.757,57.555,131.9,58.157Z" transform="translate(-131.9 -49.9)" fill="#f19d00"/>
        </g>
        <g id="Group_808" data-name="Group 808">
          <ellipse id="Ellipse_182" data-name="Ellipse 182" cx="10.246" cy="4.34" rx="10.246" ry="4.34" fill="#ffd400"/>
        </g>
        <g id="Group_809" data-name="Group 809" transform="translate(0.723 0.06)">
          <path id="Path_677" data-name="Path 677" d="M113.677,54.055A7.229,7.229,0,0,1,110,51.885l8.257-5.425c.482,0,.964-.06,1.386-.06a20.368,20.368,0,0,1,4.822.542Z" transform="translate(-110 -46.4)" fill="#fffc8f"/>
        </g>
        <g id="Group_810" data-name="Group 810" transform="translate(6.509 1.205)">
          <path id="Path_678" data-name="Path 678" d="M122.011,55.593a15.5,15.5,0,0,1-2.411-.3L130.268,48.3a10.209,10.209,0,0,1,1.627.784Z" transform="translate(-119.6 -48.3)" fill="#fffc8f"/>
        </g>
      </g>
    </g>
  </g>
  <g id="Group_868" data-name="Group 868" transform="translate(34.838 10.488)">
    <g id="Group_822" data-name="Group 822" transform="translate(0 15.068)">
      <g id="Group_821" data-name="Group 821">
        <g id="Group_814" data-name="Group 814" transform="translate(0 2.531)">
          <ellipse id="Ellipse_183" data-name="Ellipse 183" cx="10.246" cy="4.34" rx="10.246" ry="4.34" fill="#ce7d13"/>
        </g>
        <g id="Group_815" data-name="Group 815" transform="translate(0 1.989)">
          <path id="Path_679" data-name="Path 679" d="M57.8,47.99V50.1c0,1.808,2.531,3.315,6.148,3.978a13.474,13.474,0,0,0,2.773.3c.422,0,.9.06,1.326.06a22.068,22.068,0,0,0,4.1-.362c3.616-.663,5.485-2.23,5.485-4.038l.663-2.29C76.846,46.122,72.386,45.7,68.046,45.7,64.611,45.76,59.668,46.905,57.8,47.99Z" transform="translate(-57.8 -45.7)" fill="#ffc50d"/>
        </g>
        <g id="Group_816" data-name="Group 816" transform="translate(6.208 6.57)" opacity="0.43">
          <path id="Path_680" data-name="Path 680" d="M68.1,53.3v3.857a13.475,13.475,0,0,0,2.773.3V53.3Z" transform="translate(-68.1 -53.3)" fill="#fffc8f"/>
        </g>
        <g id="Group_817" data-name="Group 817" transform="translate(13.923 2.17)">
          <path id="Path_681" data-name="Path 681" d="M80.9,54.257V46c2.953.241,5.545.723,6.57,1.929v2.29C87.47,52.088,84.757,53.655,80.9,54.257Z" transform="translate(-80.9 -46)" fill="#f19d00"/>
        </g>
        <g id="Group_818" data-name="Group 818">
          <ellipse id="Ellipse_184" data-name="Ellipse 184" cx="10.246" cy="4.34" rx="10.246" ry="4.34" fill="#ffd400"/>
        </g>
        <g id="Group_819" data-name="Group 819" transform="translate(0.784 0.06)">
          <path id="Path_682" data-name="Path 682" d="M62.777,50.155a7.229,7.229,0,0,1-3.677-2.17l8.257-5.425c.482,0,.964-.06,1.386-.06a20.368,20.368,0,0,1,4.822.542Z" transform="translate(-59.1 -42.5)" fill="#fffc8f"/>
        </g>
        <g id="Group_820" data-name="Group 820" transform="translate(6.509 1.205)">
          <path id="Path_683" data-name="Path 683" d="M71.011,51.693a15.5,15.5,0,0,1-2.411-.3L79.268,44.4a10.209,10.209,0,0,1,1.627.784Z" transform="translate(-68.6 -44.4)" fill="#fffc8f"/>
        </g>
      </g>
    </g>
    <g id="Group_831" data-name="Group 831" transform="translate(0 12.055)">
      <g id="Group_830" data-name="Group 830" transform="translate(0 0)">
        <g id="Group_823" data-name="Group 823" transform="translate(0 2.531)">
          <ellipse id="Ellipse_185" data-name="Ellipse 185" cx="10.246" cy="4.34" rx="10.246" ry="4.34" fill="#ce7d13"/>
        </g>
        <g id="Group_824" data-name="Group 824" transform="translate(0 1.989)">
          <path id="Path_684" data-name="Path 684" d="M57.8,42.99V45.1c0,1.808,2.531,3.315,6.148,3.978a13.475,13.475,0,0,0,2.773.3c.422,0,.9.06,1.326.06a22.069,22.069,0,0,0,4.1-.362c3.616-.663,5.485-2.23,5.485-4.038l.663-2.29C76.846,41.122,72.386,40.7,68.046,40.7,64.611,40.76,59.668,41.905,57.8,42.99Z" transform="translate(-57.8 -40.7)" fill="#ffc50d"/>
        </g>
        <g id="Group_825" data-name="Group 825" transform="translate(6.208 6.57)" opacity="0.43">
          <path id="Path_685" data-name="Path 685" d="M68.1,48.3v3.857a13.475,13.475,0,0,0,2.773.3V48.3Z" transform="translate(-68.1 -48.3)" fill="#fffc8f"/>
        </g>
        <g id="Group_826" data-name="Group 826" transform="translate(13.923 2.17)">
          <path id="Path_686" data-name="Path 686" d="M80.9,49.257V41c2.953.241,5.545.723,6.57,1.929v2.29C87.47,47.088,84.757,48.655,80.9,49.257Z" transform="translate(-80.9 -41)" fill="#f19d00"/>
        </g>
        <g id="Group_827" data-name="Group 827">
          <ellipse id="Ellipse_186" data-name="Ellipse 186" cx="10.246" cy="4.34" rx="10.246" ry="4.34" fill="#ffd400"/>
        </g>
        <g id="Group_828" data-name="Group 828" transform="translate(0.784 0.06)">
          <path id="Path_687" data-name="Path 687" d="M62.777,45.155a7.229,7.229,0,0,1-3.677-2.17l8.257-5.425c.482,0,.964-.06,1.386-.06a20.368,20.368,0,0,1,4.822.542Z" transform="translate(-59.1 -37.5)" fill="#fffc8f"/>
        </g>
        <g id="Group_829" data-name="Group 829" transform="translate(6.509 1.205)">
          <path id="Path_688" data-name="Path 688" d="M71.011,46.693a15.5,15.5,0,0,1-2.411-.3L79.268,39.4a10.209,10.209,0,0,1,1.627.784Z" transform="translate(-68.6 -39.4)" fill="#fffc8f"/>
        </g>
      </g>
    </g>
    <g id="Group_840" data-name="Group 840" transform="translate(0 9.041)">
      <g id="Group_839" data-name="Group 839">
        <g id="Group_832" data-name="Group 832" transform="translate(0 2.531)">
          <ellipse id="Ellipse_187" data-name="Ellipse 187" cx="10.246" cy="4.34" rx="10.246" ry="4.34" fill="#ce7d13"/>
        </g>
        <g id="Group_833" data-name="Group 833" transform="translate(0 1.989)">
          <path id="Path_689" data-name="Path 689" d="M57.8,37.99V40.1c0,1.808,2.531,3.315,6.148,3.978a13.474,13.474,0,0,0,2.773.3c.422,0,.9.06,1.326.06a22.069,22.069,0,0,0,4.1-.362c3.616-.663,5.485-2.23,5.485-4.038l.663-2.29C76.846,36.122,72.386,35.7,68.046,35.7,64.611,35.76,59.668,36.905,57.8,37.99Z" transform="translate(-57.8 -35.7)" fill="#ffc50d"/>
        </g>
        <g id="Group_834" data-name="Group 834" transform="translate(6.208 6.57)" opacity="0.43">
          <path id="Path_690" data-name="Path 690" d="M68.1,43.3v3.857a13.474,13.474,0,0,0,2.773.3V43.3Z" transform="translate(-68.1 -43.3)" fill="#fffc8f"/>
        </g>
        <g id="Group_835" data-name="Group 835" transform="translate(13.923 2.17)">
          <path id="Path_691" data-name="Path 691" d="M80.9,44.257V36c2.953.241,5.545.723,6.57,1.929v2.29C87.47,42.088,84.757,43.655,80.9,44.257Z" transform="translate(-80.9 -36)" fill="#f19d00"/>
        </g>
        <g id="Group_836" data-name="Group 836">
          <ellipse id="Ellipse_188" data-name="Ellipse 188" cx="10.246" cy="4.34" rx="10.246" ry="4.34" fill="#ffd400"/>
        </g>
        <g id="Group_837" data-name="Group 837" transform="translate(0.784 0.06)">
          <path id="Path_692" data-name="Path 692" d="M62.777,40.155a7.229,7.229,0,0,1-3.677-2.17l8.257-5.425c.482,0,.964-.06,1.386-.06a20.368,20.368,0,0,1,4.822.542Z" transform="translate(-59.1 -32.5)" fill="#fffc8f"/>
        </g>
        <g id="Group_838" data-name="Group 838" transform="translate(6.509 1.205)">
          <path id="Path_693" data-name="Path 693" d="M71.011,41.693a15.5,15.5,0,0,1-2.411-.3L79.268,34.4a10.209,10.209,0,0,1,1.627.784Z" transform="translate(-68.6 -34.4)" fill="#fffc8f"/>
        </g>
      </g>
    </g>
    <g id="Group_849" data-name="Group 849" transform="translate(0 6.027)">
      <g id="Group_848" data-name="Group 848">
        <g id="Group_841" data-name="Group 841" transform="translate(0 2.531)">
          <ellipse id="Ellipse_189" data-name="Ellipse 189" cx="10.246" cy="4.34" rx="10.246" ry="4.34" fill="#ce7d13"/>
        </g>
        <g id="Group_842" data-name="Group 842" transform="translate(0 1.989)">
          <path id="Path_694" data-name="Path 694" d="M57.8,32.99V35.1c0,1.808,2.531,3.315,6.148,3.978a13.475,13.475,0,0,0,2.773.3c.422,0,.9.06,1.326.06a22.068,22.068,0,0,0,4.1-.362c3.616-.663,5.485-2.23,5.485-4.038l.663-2.29C76.846,31.122,72.386,30.7,68.046,30.7,64.611,30.76,59.668,31.905,57.8,32.99Z" transform="translate(-57.8 -30.7)" fill="#ffc50d"/>
        </g>
        <g id="Group_843" data-name="Group 843" transform="translate(6.208 6.57)" opacity="0.43">
          <path id="Path_695" data-name="Path 695" d="M68.1,38.3v3.857a13.475,13.475,0,0,0,2.773.3V38.3Z" transform="translate(-68.1 -38.3)" fill="#fffc8f"/>
        </g>
        <g id="Group_844" data-name="Group 844" transform="translate(13.923 2.17)">
          <path id="Path_696" data-name="Path 696" d="M80.9,39.257V31c2.953.241,5.545.723,6.57,1.929v2.29C87.47,37.088,84.757,38.655,80.9,39.257Z" transform="translate(-80.9 -31)" fill="#f19d00"/>
        </g>
        <g id="Group_845" data-name="Group 845">
          <ellipse id="Ellipse_190" data-name="Ellipse 190" cx="10.246" cy="4.34" rx="10.246" ry="4.34" fill="#ffd400"/>
        </g>
        <g id="Group_846" data-name="Group 846" transform="translate(0.784 0.06)">
          <path id="Path_697" data-name="Path 697" d="M62.777,35.155a7.229,7.229,0,0,1-3.677-2.17l8.257-5.425c.482,0,.964-.06,1.386-.06a20.368,20.368,0,0,1,4.822.542Z" transform="translate(-59.1 -27.5)" fill="#fffc8f"/>
        </g>
        <g id="Group_847" data-name="Group 847" transform="translate(6.509 1.205)">
          <path id="Path_698" data-name="Path 698" d="M71.011,36.693a15.5,15.5,0,0,1-2.411-.3L79.268,29.4a10.209,10.209,0,0,1,1.627.784Z" transform="translate(-68.6 -29.4)" fill="#fffc8f"/>
        </g>
      </g>
    </g>
    <g id="Group_858" data-name="Group 858" transform="translate(0 3.014)">
      <g id="Group_857" data-name="Group 857">
        <g id="Group_850" data-name="Group 850" transform="translate(0 2.531)">
          <ellipse id="Ellipse_191" data-name="Ellipse 191" cx="10.246" cy="4.34" rx="10.246" ry="4.34" fill="#ce7d13"/>
        </g>
        <g id="Group_851" data-name="Group 851" transform="translate(0 1.989)">
          <path id="Path_699" data-name="Path 699" d="M57.8,27.99V30.1c0,1.808,2.531,3.315,6.148,3.978a13.475,13.475,0,0,0,2.773.3c.422,0,.9.06,1.326.06a22.068,22.068,0,0,0,4.1-.362c3.616-.663,5.485-2.23,5.485-4.038l.663-2.29C76.846,26.122,72.386,25.7,68.046,25.7,64.611,25.76,59.668,26.905,57.8,27.99Z" transform="translate(-57.8 -25.7)" fill="#ffc50d"/>
        </g>
        <g id="Group_852" data-name="Group 852" transform="translate(6.208 6.57)" opacity="0.43">
          <path id="Path_700" data-name="Path 700" d="M68.1,33.3v3.857a13.475,13.475,0,0,0,2.773.3V33.3Z" transform="translate(-68.1 -33.3)" fill="#fffc8f"/>
        </g>
        <g id="Group_853" data-name="Group 853" transform="translate(13.923 2.17)">
          <path id="Path_701" data-name="Path 701" d="M80.9,34.257V26c2.953.241,5.545.723,6.57,1.929v2.29C87.47,32.088,84.757,33.655,80.9,34.257Z" transform="translate(-80.9 -26)" fill="#f19d00"/>
        </g>
        <g id="Group_854" data-name="Group 854">
          <ellipse id="Ellipse_192" data-name="Ellipse 192" cx="10.246" cy="4.34" rx="10.246" ry="4.34" fill="#ffd400"/>
        </g>
        <g id="Group_855" data-name="Group 855" transform="translate(0.784 0.06)">
          <path id="Path_702" data-name="Path 702" d="M62.777,30.155a7.229,7.229,0,0,1-3.677-2.17l8.257-5.425c.482,0,.964-.06,1.386-.06a20.368,20.368,0,0,1,4.822.542Z" transform="translate(-59.1 -22.5)" fill="#fffc8f"/>
        </g>
        <g id="Group_856" data-name="Group 856" transform="translate(6.509 1.205)">
          <path id="Path_703" data-name="Path 703" d="M71.011,31.693a15.5,15.5,0,0,1-2.411-.3L79.268,24.4a10.209,10.209,0,0,1,1.627.784Z" transform="translate(-68.6 -24.4)" fill="#fffc8f"/>
        </g>
      </g>
    </g>
    <g id="Group_867" data-name="Group 867">
      <g id="Group_866" data-name="Group 866">
        <g id="Group_859" data-name="Group 859" transform="translate(0 2.531)">
          <ellipse id="Ellipse_193" data-name="Ellipse 193" cx="10.246" cy="4.34" rx="10.246" ry="4.34" fill="#ce7d13"/>
        </g>
        <g id="Group_860" data-name="Group 860" transform="translate(0 1.989)">
          <path id="Path_704" data-name="Path 704" d="M57.8,22.99V25.1c0,1.808,2.531,3.315,6.148,3.978a13.475,13.475,0,0,0,2.773.3c.422,0,.9.06,1.326.06a22.068,22.068,0,0,0,4.1-.362c3.616-.663,5.485-2.23,5.485-4.038l.663-2.29C76.846,21.122,72.386,20.7,68.046,20.7,64.611,20.76,59.668,21.905,57.8,22.99Z" transform="translate(-57.8 -20.7)" fill="#ffc50d"/>
        </g>
        <g id="Group_861" data-name="Group 861" transform="translate(6.208 6.57)" opacity="0.43">
          <path id="Path_705" data-name="Path 705" d="M68.1,28.3v3.857a13.475,13.475,0,0,0,2.773.3V28.3H68.1Z" transform="translate(-68.1 -28.3)" fill="#fffc8f"/>
        </g>
        <g id="Group_862" data-name="Group 862" transform="translate(13.923 2.17)">
          <path id="Path_706" data-name="Path 706" d="M80.9,29.257V21c2.953.241,5.545.723,6.57,1.929v2.29C87.47,27.088,84.757,28.655,80.9,29.257Z" transform="translate(-80.9 -21)" fill="#f19d00"/>
        </g>
        <g id="Group_863" data-name="Group 863">
          <ellipse id="Ellipse_194" data-name="Ellipse 194" cx="10.246" cy="4.34" rx="10.246" ry="4.34" fill="#ffd400"/>
        </g>
        <g id="Group_864" data-name="Group 864" transform="translate(0.784 0.06)">
          <path id="Path_707" data-name="Path 707" d="M62.777,25.155a7.229,7.229,0,0,1-3.677-2.17l8.257-5.425c.482,0,.964-.06,1.386-.06a20.368,20.368,0,0,1,4.822.542Z" transform="translate(-59.1 -17.5)" fill="#fffc8f"/>
        </g>
        <g id="Group_865" data-name="Group 865" transform="translate(6.509 1.205)">
          <path id="Path_708" data-name="Path 708" d="M71.011,26.693a15.5,15.5,0,0,1-2.411-.3L79.268,19.4a10.209,10.209,0,0,1,1.627.784Z" transform="translate(-68.6 -19.4)" fill="#fffc8f"/>
        </g>
      </g>
    </g>
  </g>
  <g id="Group_884" data-name="Group 884" transform="translate(0 24.109)">
    <g id="Group_873" data-name="Group 873" transform="translate(0 18.082)">
      <g id="Group_872" data-name="Group 872">
        <path id="Path_709" data-name="Path 709" d="M49.6,85.883,61.358,71.9v7.414L49.665,93.357l-.06.06H0V85.883Z" transform="translate(0 -70.755)" fill="#47752f"/>
        <path id="Path_710" data-name="Path 710" d="M94.053,77.414V70L82.3,83.983v7.474Z" transform="translate(-32.695 -70)" fill="#4e8436"/>
        <g id="Group_871" data-name="Group 871">
          <path id="Path_711" data-name="Path 711" d="M12.231,70.4.9,83.9H49.842L61.173,70.4Z" transform="translate(-0.358 -70.159)" fill="#ade069"/>
          <path id="Path_712" data-name="Path 712" d="M0,100.734H49.6V93.2H0Z" transform="translate(0 -79.217)" fill="#70a33c"/>
          <path id="Path_713" data-name="Path 713" d="M12.251,70.3,1.1,83.741h49L61.192,70.3ZM7.429,79.4l3.857-4.641a10.382,10.382,0,0,0,7.172-3.074H52.875c-1.386,1.688-.482,3.014,1.989,3.074L51.006,79.4a10.5,10.5,0,0,0-7.052,2.953H9.538C10.864,80.727,9.9,79.4,7.429,79.4Z" transform="translate(-0.437 -70.119)" fill="#70a33c"/>
          <ellipse id="Ellipse_195" data-name="Ellipse 195" cx="5.123" cy="2.351" rx="5.123" ry="2.351" transform="translate(25.114 6.397) rotate(-19.761)" fill="#607700"/>
          <path id="Path_714" data-name="Path 714" d="M63.879,80.407c-.723.844-.241,1.507,1.085,1.507a5.094,5.094,0,0,0,3.556-1.507c.723-.844.241-1.507-1.085-1.507A5.094,5.094,0,0,0,63.879,80.407Z" transform="translate(-25.244 -73.536)" fill="#fff"/>
          <path id="Path_715" data-name="Path 715" d="M30.077,80.444c-.723.844-.241,1.567,1.025,1.567A5.094,5.094,0,0,0,34.658,80.5C35.381,79.66,34.9,79,33.573,79A4.767,4.767,0,0,0,30.077,80.444Z" transform="translate(-11.815 -73.573)" fill="#fff"/>
          <path id="Path_716" data-name="Path 716" d="M11.753,70h49.6L49.6,83.983H0Zm48.52.482H11.994L1.085,83.441H49.364Z" transform="translate(0 -70)" fill="#9fd65e"/>
          <path id="Path_717" data-name="Path 717" d="M49.453,70h6.871L44.631,83.983v7.534H37.7V83.983Z" transform="translate(-14.977 -70)" fill="#48842f" opacity="0.44"/>
          <path id="Path_718" data-name="Path 718" d="M35.4,83.983v7.534h6.871V83.983h0L54.024,70H47.153Z" transform="translate(-14.063 -70)" fill="#fff"/>
          <g id="Group_869" data-name="Group 869" transform="translate(27.424)">
            <path id="Path_719" data-name="Path 719" d="M57.253,70H58.64L46.886,83.983v7.534H45.5V83.983Z" transform="translate(-45.5 -70)" fill="#ff895a"/>
          </g>
          <g id="Group_870" data-name="Group 870" transform="translate(20.674)">
            <path id="Path_720" data-name="Path 720" d="M46.053,70H47.44L35.686,83.983v7.534H34.3V83.983Z" transform="translate(-34.3 -70)" fill="#ff895a"/>
          </g>
          <path id="Path_721" data-name="Path 721" d="M34.3,93.2v7.534h8.137V93.2H34.3Z" transform="translate(-13.626 -79.217)" fill="#846e56" opacity="0.29"/>
        </g>
      </g>
    </g>
    <g id="Group_878" data-name="Group 878" transform="translate(0 9.041)">
      <g id="Group_877" data-name="Group 877">
        <path id="Path_722" data-name="Path 722" d="M49.6,70.883,61.358,56.9v7.414L49.665,78.357l-.06.06H0V70.883Z" transform="translate(0 -55.755)" fill="#47752f"/>
        <path id="Path_723" data-name="Path 723" d="M94.053,62.414V55L82.3,68.983v7.474Z" transform="translate(-32.695 -55)" fill="#4e8436"/>
        <g id="Group_876" data-name="Group 876">
          <path id="Path_724" data-name="Path 724" d="M12.231,55.4.9,68.9H49.842L61.173,55.4Z" transform="translate(-0.358 -55.159)" fill="#ade069"/>
          <path id="Path_725" data-name="Path 725" d="M0,85.734H49.6V78.2H0Z" transform="translate(0 -64.217)" fill="#70a33c"/>
          <path id="Path_726" data-name="Path 726" d="M12.251,55.3,1.1,68.741h49L61.192,55.3ZM7.429,64.4l3.857-4.641a10.382,10.382,0,0,0,7.172-3.074H52.875c-1.386,1.688-.482,3.014,1.989,3.074L51.006,64.4a10.5,10.5,0,0,0-7.052,2.953H9.538C10.864,65.727,9.9,64.4,7.429,64.4Z" transform="translate(-0.437 -55.119)" fill="#70a33c"/>
          <ellipse id="Ellipse_196" data-name="Ellipse 196" cx="5.123" cy="2.351" rx="5.123" ry="2.351" transform="translate(25.114 6.397) rotate(-19.761)" fill="#607700"/>
          <path id="Path_727" data-name="Path 727" d="M63.879,65.407c-.723.844-.241,1.507,1.085,1.507a5.094,5.094,0,0,0,3.556-1.507c.723-.844.241-1.507-1.085-1.507A5.094,5.094,0,0,0,63.879,65.407Z" transform="translate(-25.244 -58.536)" fill="#fff"/>
          <path id="Path_728" data-name="Path 728" d="M30.077,65.444c-.723.844-.241,1.567,1.025,1.567A5.094,5.094,0,0,0,34.658,65.5C35.381,64.66,34.9,64,33.573,64A4.767,4.767,0,0,0,30.077,65.444Z" transform="translate(-11.815 -58.573)" fill="#fff"/>
          <path id="Path_729" data-name="Path 729" d="M11.753,55h49.6L49.6,68.983H0Zm48.52.482H11.994L1.085,68.441H49.364Z" transform="translate(0 -55)" fill="#9fd65e"/>
          <path id="Path_730" data-name="Path 730" d="M49.453,55h6.871L44.631,68.983v7.534H37.7V68.983Z" transform="translate(-14.977 -55)" fill="#48842f" opacity="0.44"/>
          <path id="Path_731" data-name="Path 731" d="M35.4,68.983v7.534h6.871V68.983h0L54.024,55H47.153Z" transform="translate(-14.063 -55)" fill="#fff"/>
          <g id="Group_874" data-name="Group 874" transform="translate(27.424)">
            <path id="Path_732" data-name="Path 732" d="M57.253,55H58.64L46.886,68.983v7.534H45.5V68.983Z" transform="translate(-45.5 -55)" fill="#ff895a"/>
          </g>
          <g id="Group_875" data-name="Group 875" transform="translate(20.674)">
            <path id="Path_733" data-name="Path 733" d="M46.053,55H47.44L35.686,68.983v7.534H34.3V68.983Z" transform="translate(-34.3 -55)" fill="#ff895a"/>
          </g>
          <path id="Path_734" data-name="Path 734" d="M34.3,78.2v7.534h8.137V78.2H34.3Z" transform="translate(-13.626 -64.217)" fill="#846e56" opacity="0.29"/>
        </g>
      </g>
    </g>
    <g id="Group_883" data-name="Group 883">
      <g id="Group_882" data-name="Group 882">
        <path id="Path_735" data-name="Path 735" d="M49.6,55.883,61.358,41.9v7.414L49.665,63.357l-.06.06H0V55.883Z" transform="translate(0 -40.755)" fill="#47752f"/>
        <path id="Path_736" data-name="Path 736" d="M94.053,47.414V40L82.3,53.983v7.474Z" transform="translate(-32.695 -40)" fill="#4e8436"/>
        <g id="Group_881" data-name="Group 881">
          <path id="Path_737" data-name="Path 737" d="M12.231,40.4.9,53.9H49.842L61.173,40.4Z" transform="translate(-0.358 -40.159)" fill="#ade069"/>
          <path id="Path_738" data-name="Path 738" d="M0,70.734H49.6V63.2H0Z" transform="translate(0 -49.217)" fill="#70a33c"/>
          <path id="Path_739" data-name="Path 739" d="M12.251,40.3,1.1,53.741h49L61.192,40.3ZM7.429,49.4l3.857-4.641a10.382,10.382,0,0,0,7.172-3.074H52.875c-1.386,1.688-.482,3.014,1.989,3.074L51.006,49.4a10.5,10.5,0,0,0-7.052,2.953H9.538C10.864,50.727,9.9,49.4,7.429,49.4Z" transform="translate(-0.437 -40.119)" fill="#70a33c"/>
          <ellipse id="Ellipse_197" data-name="Ellipse 197" cx="5.123" cy="2.351" rx="5.123" ry="2.351" transform="translate(25.114 6.397) rotate(-19.761)" fill="#607700"/>
          <path id="Path_740" data-name="Path 740" d="M63.879,50.407c-.723.844-.241,1.507,1.085,1.507a5.094,5.094,0,0,0,3.556-1.507c.723-.844.241-1.507-1.085-1.507A5.094,5.094,0,0,0,63.879,50.407Z" transform="translate(-25.244 -43.536)" fill="#fff"/>
          <path id="Path_741" data-name="Path 741" d="M30.077,50.444c-.723.844-.241,1.567,1.025,1.567A5.094,5.094,0,0,0,34.658,50.5C35.381,49.66,34.9,49,33.573,49A4.767,4.767,0,0,0,30.077,50.444Z" transform="translate(-11.815 -43.573)" fill="#fff"/>
          <path id="Path_742" data-name="Path 742" d="M11.753,40h49.6L49.6,53.983H0Zm48.52.482H11.994L1.085,53.441H49.364Z" transform="translate(0 -40)" fill="#9fd65e"/>
          <path id="Path_743" data-name="Path 743" d="M49.453,40h6.871L44.631,53.983v7.534H37.7V53.983Z" transform="translate(-14.977 -40)" fill="#48842f" opacity="0.44"/>
          <path id="Path_744" data-name="Path 744" d="M35.4,53.983v7.534h6.871V53.983h0L54.024,40H47.153Z" transform="translate(-14.063 -40)" fill="#fff"/>
          <g id="Group_879" data-name="Group 879" transform="translate(27.424)">
            <path id="Path_745" data-name="Path 745" d="M57.253,40H58.64L46.886,53.983v7.534H45.5V53.983Z" transform="translate(-45.5 -40)" fill="#ff895a"/>
          </g>
          <g id="Group_880" data-name="Group 880" transform="translate(20.674)">
            <path id="Path_746" data-name="Path 746" d="M46.053,40H47.44L35.686,53.983v7.534H34.3V53.983Z" transform="translate(-34.3 -40)" fill="#ff895a"/>
          </g>
          <path id="Path_747" data-name="Path 747" d="M34.3,63.2v7.534h8.137V63.2H34.3Z" transform="translate(-13.626 -49.217)" fill="#846e56" opacity="0.29"/>
        </g>
      </g>
    </g>
  </g>
  <g id="Group_900" data-name="Group 900" transform="translate(8.86 41.528)">
    <g id="Group_889" data-name="Group 889" transform="translate(0 18.082)">
      <g id="Group_888" data-name="Group 888">
        <path id="Path_748" data-name="Path 748" d="M64.365,114.783,76.058,100.8v7.414L64.365,122.257v.06H14.7v-7.534Z" transform="translate(-14.7 -99.655)" fill="#47752f"/>
        <path id="Path_749" data-name="Path 749" d="M108.793,106.314V98.9L97.1,112.883v7.474Z" transform="translate(-47.435 -98.9)" fill="#4e8436"/>
        <g id="Group_887" data-name="Group 887">
          <path id="Path_750" data-name="Path 750" d="M26.931,99.3,15.6,112.8h49L75.873,99.3Z" transform="translate(-15.058 -99.059)" fill="#ade069"/>
          <path id="Path_751" data-name="Path 751" d="M14.7,129.634H64.365V122.1H14.7Z" transform="translate(-14.7 -108.117)" fill="#70a33c"/>
          <path id="Path_752" data-name="Path 752" d="M26.99,99.2,15.9,112.641h49L75.992,99.2Zm-4.822,9.1,3.857-4.641a10.382,10.382,0,0,0,7.172-3.074H67.614c-1.386,1.688-.482,3.014,1.989,3.074L65.746,108.3a10.5,10.5,0,0,0-7.052,2.953H24.338C25.6,109.627,24.64,108.3,22.168,108.3Z" transform="translate(-15.177 -99.019)" fill="#70a33c"/>
          <path id="Path_753" data-name="Path 753" d="M58.214,108.433c-1.266,1.567-.422,2.833,1.989,2.833a9.616,9.616,0,0,0,6.63-2.833c1.266-1.567.422-2.833-1.989-2.833A10.31,10.31,0,0,0,58.214,108.433Z" transform="translate(-31.754 -101.562)" fill="#607700"/>
          <path id="Path_754" data-name="Path 754" d="M78.579,109.307c-.723.844-.241,1.507,1.085,1.507a5.094,5.094,0,0,0,3.556-1.507c.723-.844.241-1.507-1.085-1.507A5.5,5.5,0,0,0,78.579,109.307Z" transform="translate(-39.944 -102.436)" fill="#fff"/>
          <path id="Path_755" data-name="Path 755" d="M44.779,109.307c-.723.844-.241,1.507,1.085,1.507a5.094,5.094,0,0,0,3.556-1.507c.723-.844.241-1.507-1.085-1.507A5.366,5.366,0,0,0,44.779,109.307Z" transform="translate(-26.516 -102.436)" fill="#fff"/>
          <path id="Path_756" data-name="Path 756" d="M26.453,98.9h49.6L64.3,112.883H14.7Zm48.52.482H26.694L15.785,112.341H64.064Z" transform="translate(-14.7 -98.9)" fill="#9fd65e"/>
          <path id="Path_757" data-name="Path 757" d="M64.193,98.9h6.871L59.371,112.883v7.534H52.5v-7.534Z" transform="translate(-29.717 -98.9)" fill="#48842f" opacity="0.44"/>
          <path id="Path_758" data-name="Path 758" d="M50.1,112.883v7.534h6.871v-7.534h0L68.724,98.9H61.853Z" transform="translate(-28.763 -98.9)" fill="#fff"/>
          <g id="Group_885" data-name="Group 885" transform="translate(27.485)">
            <path id="Path_759" data-name="Path 759" d="M71.993,98.9h1.386L61.626,112.883v7.534H60.3v-7.534Z" transform="translate(-60.3 -98.9)" fill="#ff895a"/>
          </g>
          <g id="Group_886" data-name="Group 886" transform="translate(20.674)">
            <path id="Path_760" data-name="Path 760" d="M60.753,98.9H62.14L50.386,112.883v7.534H49v-7.534Z" transform="translate(-49 -98.9)" fill="#ff895a"/>
          </g>
          <path id="Path_761" data-name="Path 761" d="M49,122.1v7.534h8.2V122.1H49Z" transform="translate(-28.326 -108.117)" fill="#846e56" opacity="0.29"/>
        </g>
      </g>
    </g>
    <g id="Group_894" data-name="Group 894" transform="translate(0 9.041)">
      <g id="Group_893" data-name="Group 893">
        <path id="Path_762" data-name="Path 762" d="M64.365,99.783,76.058,85.8v7.414L64.365,107.257v.06H14.7V99.783Z" transform="translate(-14.7 -84.655)" fill="#47752f"/>
        <path id="Path_763" data-name="Path 763" d="M108.793,91.314V83.9L97.1,97.883v7.474Z" transform="translate(-47.435 -83.9)" fill="#4e8436"/>
        <g id="Group_892" data-name="Group 892">
          <path id="Path_764" data-name="Path 764" d="M26.931,84.3,15.6,97.8h49L75.873,84.3Z" transform="translate(-15.058 -84.059)" fill="#ade069"/>
          <path id="Path_765" data-name="Path 765" d="M14.7,114.634H64.365V107.1H14.7Z" transform="translate(-14.7 -93.117)" fill="#70a33c"/>
          <path id="Path_766" data-name="Path 766" d="M26.99,84.2,15.9,97.641h49L75.992,84.2Zm-4.822,9.1,3.857-4.641A10.382,10.382,0,0,0,33.2,85.586H67.614c-1.386,1.688-.482,3.014,1.989,3.074L65.746,93.3a10.5,10.5,0,0,0-7.052,2.953H24.338C25.6,94.627,24.64,93.3,22.168,93.3Z" transform="translate(-15.177 -84.019)" fill="#70a33c"/>
          <path id="Path_767" data-name="Path 767" d="M58.214,93.433C56.949,95,57.792,96.266,60.2,96.266a9.616,9.616,0,0,0,6.63-2.833c1.266-1.567.422-2.833-1.989-2.833A10.31,10.31,0,0,0,58.214,93.433Z" transform="translate(-31.754 -86.562)" fill="#607700"/>
          <path id="Path_768" data-name="Path 768" d="M78.579,94.307c-.723.844-.241,1.507,1.085,1.507a5.094,5.094,0,0,0,3.556-1.507c.723-.844.241-1.507-1.085-1.507A5.5,5.5,0,0,0,78.579,94.307Z" transform="translate(-39.944 -87.436)" fill="#fff"/>
          <path id="Path_769" data-name="Path 769" d="M44.779,94.307c-.723.844-.241,1.507,1.085,1.507a5.094,5.094,0,0,0,3.556-1.507c.723-.844.241-1.507-1.085-1.507A5.366,5.366,0,0,0,44.779,94.307Z" transform="translate(-26.516 -87.436)" fill="#fff"/>
          <path id="Path_770" data-name="Path 770" d="M26.453,83.9h49.6L64.3,97.883H14.7Zm48.52.482H26.694L15.785,97.341H64.064Z" transform="translate(-14.7 -83.9)" fill="#9fd65e"/>
          <path id="Path_771" data-name="Path 771" d="M64.193,83.9h6.871L59.371,97.883v7.534H52.5V97.883Z" transform="translate(-29.717 -83.9)" fill="#48842f" opacity="0.44"/>
          <path id="Path_772" data-name="Path 772" d="M50.1,97.883v7.534h6.871V97.883h0L68.724,83.9H61.853Z" transform="translate(-28.763 -83.9)" fill="#fff"/>
          <g id="Group_890" data-name="Group 890" transform="translate(27.485)">
            <path id="Path_773" data-name="Path 773" d="M71.993,83.9h1.386L61.626,97.883v7.534H60.3V97.883Z" transform="translate(-60.3 -83.9)" fill="#ff895a"/>
          </g>
          <g id="Group_891" data-name="Group 891" transform="translate(20.674)">
            <path id="Path_774" data-name="Path 774" d="M60.753,83.9H62.14L50.386,97.883v7.534H49V97.883Z" transform="translate(-49 -83.9)" fill="#ff895a"/>
          </g>
          <path id="Path_775" data-name="Path 775" d="M49,107.1v7.534h8.2V107.1H49Z" transform="translate(-28.326 -93.117)" fill="#846e56" opacity="0.29"/>
        </g>
      </g>
    </g>
    <g id="Group_899" data-name="Group 899">
      <g id="Group_898" data-name="Group 898">
        <path id="Path_776" data-name="Path 776" d="M64.365,84.783,76.058,70.8v7.414L64.365,92.257v.06H14.7V84.783Z" transform="translate(-14.7 -69.655)" fill="#47752f"/>
        <path id="Path_777" data-name="Path 777" d="M108.793,76.314V68.9L97.1,82.883v7.474Z" transform="translate(-47.435 -68.9)" fill="#4e8436"/>
        <g id="Group_897" data-name="Group 897">
          <path id="Path_778" data-name="Path 778" d="M26.931,69.3,15.6,82.8h49L75.873,69.3Z" transform="translate(-15.058 -69.059)" fill="#ade069"/>
          <path id="Path_779" data-name="Path 779" d="M14.7,99.634H64.365V92.1H14.7Z" transform="translate(-14.7 -78.117)" fill="#70a33c"/>
          <path id="Path_780" data-name="Path 780" d="M26.951,69.2,15.8,82.641h49L75.892,69.2Zm-4.822,9.1,3.857-4.641a10.382,10.382,0,0,0,7.172-3.074H67.575c-1.386,1.688-.482,3.014,1.989,3.074L65.706,78.3a10.5,10.5,0,0,0-7.052,2.953H24.3C25.564,79.627,24.6,78.3,22.129,78.3Z" transform="translate(-15.137 -69.019)" fill="#70a33c"/>
          <path id="Path_781" data-name="Path 781" d="M58.214,78.433C56.949,80,57.792,81.266,60.2,81.266a9.616,9.616,0,0,0,6.63-2.833c1.266-1.567.422-2.833-1.989-2.833A10.31,10.31,0,0,0,58.214,78.433Z" transform="translate(-31.754 -71.562)" fill="#607700"/>
          <path id="Path_782" data-name="Path 782" d="M78.579,79.307c-.723.844-.241,1.507,1.085,1.507a5.094,5.094,0,0,0,3.556-1.507c.723-.844.241-1.507-1.085-1.507A5.5,5.5,0,0,0,78.579,79.307Z" transform="translate(-39.944 -72.436)" fill="#fff"/>
          <path id="Path_783" data-name="Path 783" d="M44.779,79.307c-.723.844-.241,1.507,1.085,1.507a5.094,5.094,0,0,0,3.556-1.507c.723-.844.241-1.507-1.085-1.507A5.366,5.366,0,0,0,44.779,79.307Z" transform="translate(-26.516 -72.436)" fill="#fff"/>
          <path id="Path_784" data-name="Path 784" d="M26.453,68.9h49.6L64.365,82.883H14.7Zm48.52.482H26.694L15.785,82.341H64.064Z" transform="translate(-14.7 -68.9)" fill="#9fd65e"/>
          <path id="Path_785" data-name="Path 785" d="M64.193,68.9h6.871L59.371,82.883v7.534H52.5V82.883Z" transform="translate(-29.717 -68.9)" fill="#48842f" opacity="0.44"/>
          <path id="Path_786" data-name="Path 786" d="M50.1,82.883v7.534h6.871V82.883h0L68.724,68.9H61.853Z" transform="translate(-28.763 -68.9)" fill="#fff"/>
          <g id="Group_895" data-name="Group 895" transform="translate(27.485)">
            <path id="Path_787" data-name="Path 787" d="M71.993,68.9h1.386L61.626,82.883v7.534H60.3V82.883Z" transform="translate(-60.3 -68.9)" fill="#ff895a"/>
          </g>
          <g id="Group_896" data-name="Group 896" transform="translate(20.674)">
            <path id="Path_788" data-name="Path 788" d="M60.753,68.9H62.14L50.386,82.883v7.534H49V82.883Z" transform="translate(-49 -68.9)" fill="#ff895a"/>
          </g>
          <path id="Path_789" data-name="Path 789" d="M49,92.1v7.534h8.2V92.1H49Z" transform="translate(-28.326 -78.117)" fill="#846e56" opacity="0.29"/>
        </g>
      </g>
    </g>
  </g>
</svg>
