<svg id="money4" xmlns="http://www.w3.org/2000/svg" width="93.063" height="82.273" viewBox="0 0 93.063 82.273">
  <path id="Path_790" data-name="Path 790" d="M114.195,96.344a2.1,2.1,0,0,1-.417-1.252c0-2.385,4.531-4.292,10.135-4.292s10.135,1.908,10.135,4.292a2.6,2.6,0,0,1-.417,1.252h0l-11.983,14.547L107.1,95.033Z" transform="translate(-43.249 -36.667)" opacity="0.25"/>
  <g id="Group_901" data-name="Group 901" transform="translate(65.401 38.573)" opacity="0.35">
    <path id="Path_791" data-name="Path 791" d="M120.014,85.328,137.363,64.7H109.7Z" transform="translate(-109.7 -64.7)" opacity="0.72"/>
  </g>
  <g id="Group_1019" data-name="Group 1019" transform="translate(19.734 0)">
    <g id="Group_910" data-name="Group 910" transform="translate(0 35.771)">
      <g id="Group_909" data-name="Group 909">
        <g id="Group_902" data-name="Group 902" transform="translate(0 2.504)">
          <ellipse id="Ellipse_198" data-name="Ellipse 198" cx="10.135" cy="4.292" rx="10.135" ry="4.292" fill="#ce7d13"/>
        </g>
        <g id="Group_903" data-name="Group 903" transform="translate(0 2.027)">
          <path id="Path_792" data-name="Path 792" d="M33.1,65.665v2.087c0,1.789,2.5,3.279,6.081,3.935a13.328,13.328,0,0,0,2.742.3c.417,0,.894.06,1.312.06a21.828,21.828,0,0,0,4.054-.358c3.577-.656,5.425-2.206,5.425-3.994l.656-2.265c-1.431-1.61-5.843-2.027-10.135-2.027C39.837,63.46,34.948,64.592,33.1,65.665Z" transform="translate(-33.1 -63.4)" fill="#ffc50d"/>
        </g>
        <g id="Group_904" data-name="Group 904" transform="translate(6.141 6.498)" opacity="0.43">
          <path id="Path_793" data-name="Path 793" d="M43.4,70.9v3.816a13.327,13.327,0,0,0,2.742.3V70.9Z" transform="translate(-43.4 -70.9)" fill="#fffc8f"/>
        </g>
        <g id="Group_905" data-name="Group 905" transform="translate(13.772 2.146)">
          <path id="Path_794" data-name="Path 794" d="M56.2,71.827V63.6c2.921.238,5.485.715,6.5,1.908v2.265C62.7,69.621,60.016,71.231,56.2,71.827Z" transform="translate(-56.2 -63.6)" fill="#f19d00"/>
        </g>
        <g id="Group_906" data-name="Group 906">
          <ellipse id="Ellipse_199" data-name="Ellipse 199" cx="10.135" cy="4.292" rx="10.135" ry="4.292" fill="#ffd400"/>
        </g>
        <g id="Group_907" data-name="Group 907" transform="translate(0.775 0.119)">
          <path id="Path_795" data-name="Path 795" d="M38.037,67.771A7.15,7.15,0,0,1,34.4,65.625l8.168-5.366c.477,0,.954-.06,1.371-.06a20.147,20.147,0,0,1,4.769.537Z" transform="translate(-34.4 -60.2)" fill="#fffc8f"/>
        </g>
        <g id="Group_908" data-name="Group 908" transform="translate(6.439 1.192)">
          <path id="Path_796" data-name="Path 796" d="M46.285,69.214a15.335,15.335,0,0,1-2.385-.3L54.512,62a10.1,10.1,0,0,1,1.61.775Z" transform="translate(-43.9 -62)" fill="#fffc8f"/>
        </g>
      </g>
    </g>
    <g id="Group_919" data-name="Group 919" transform="translate(0 32.79)">
      <g id="Group_918" data-name="Group 918">
        <g id="Group_911" data-name="Group 911" transform="translate(0 2.504)">
          <ellipse id="Ellipse_200" data-name="Ellipse 200" cx="10.135" cy="4.292" rx="10.135" ry="4.292" fill="#ce7d13"/>
        </g>
        <g id="Group_912" data-name="Group 912" transform="translate(0 2.027)">
          <path id="Path_797" data-name="Path 797" d="M33.1,60.665v2.087c0,1.789,2.5,3.279,6.081,3.935a13.329,13.329,0,0,0,2.742.3c.417,0,.894.06,1.312.06a21.829,21.829,0,0,0,4.054-.358c3.577-.656,5.425-2.206,5.425-3.994l.656-2.265c-1.431-1.61-5.843-2.027-10.135-2.027C39.837,58.46,34.948,59.592,33.1,60.665Z" transform="translate(-33.1 -58.4)" fill="#ffc50d"/>
        </g>
        <g id="Group_913" data-name="Group 913" transform="translate(6.141 6.498)" opacity="0.43">
          <path id="Path_798" data-name="Path 798" d="M43.4,65.9v3.816a13.328,13.328,0,0,0,2.742.3V65.9Z" transform="translate(-43.4 -65.9)" fill="#fffc8f"/>
        </g>
        <g id="Group_914" data-name="Group 914" transform="translate(13.772 2.146)">
          <path id="Path_799" data-name="Path 799" d="M56.2,66.827V58.6c2.921.238,5.485.715,6.5,1.908v2.265C62.7,64.621,60.016,66.231,56.2,66.827Z" transform="translate(-56.2 -58.6)" fill="#f19d00"/>
        </g>
        <g id="Group_915" data-name="Group 915">
          <ellipse id="Ellipse_201" data-name="Ellipse 201" cx="10.135" cy="4.292" rx="10.135" ry="4.292" fill="#ffd400"/>
        </g>
        <g id="Group_916" data-name="Group 916" transform="translate(0.775 0.119)">
          <path id="Path_800" data-name="Path 800" d="M38.037,62.771A7.15,7.15,0,0,1,34.4,60.625l8.168-5.366c.477,0,.954-.06,1.371-.06a20.147,20.147,0,0,1,4.769.537Z" transform="translate(-34.4 -55.2)" fill="#fffc8f"/>
        </g>
        <g id="Group_917" data-name="Group 917" transform="translate(6.439 1.192)">
          <path id="Path_801" data-name="Path 801" d="M46.285,64.214a15.336,15.336,0,0,1-2.385-.3L54.512,57a10.1,10.1,0,0,1,1.61.775Z" transform="translate(-43.9 -57)" fill="#fffc8f"/>
        </g>
      </g>
    </g>
    <g id="Group_928" data-name="Group 928" transform="translate(0 29.809)">
      <g id="Group_927" data-name="Group 927">
        <g id="Group_920" data-name="Group 920" transform="translate(0 2.504)">
          <ellipse id="Ellipse_202" data-name="Ellipse 202" cx="10.135" cy="4.292" rx="10.135" ry="4.292" fill="#ce7d13"/>
        </g>
        <g id="Group_921" data-name="Group 921" transform="translate(0 2.027)">
          <path id="Path_802" data-name="Path 802" d="M33.1,55.665v2.087c0,1.789,2.5,3.279,6.081,3.935a13.328,13.328,0,0,0,2.742.3c.417,0,.894.06,1.312.06a21.828,21.828,0,0,0,4.054-.358c3.577-.656,5.425-2.206,5.425-3.994l.656-2.265c-1.431-1.61-5.843-2.027-10.135-2.027C39.837,53.46,34.948,54.592,33.1,55.665Z" transform="translate(-33.1 -53.4)" fill="#ffc50d"/>
        </g>
        <g id="Group_922" data-name="Group 922" transform="translate(6.141 6.498)" opacity="0.43">
          <path id="Path_803" data-name="Path 803" d="M43.4,60.9v3.816a13.328,13.328,0,0,0,2.742.3V60.9Z" transform="translate(-43.4 -60.9)" fill="#fffc8f"/>
        </g>
        <g id="Group_923" data-name="Group 923" transform="translate(13.772 2.146)">
          <path id="Path_804" data-name="Path 804" d="M56.2,61.827V53.6c2.921.238,5.485.715,6.5,1.908v2.265C62.7,59.621,60.016,61.231,56.2,61.827Z" transform="translate(-56.2 -53.6)" fill="#f19d00"/>
        </g>
        <g id="Group_924" data-name="Group 924">
          <ellipse id="Ellipse_203" data-name="Ellipse 203" cx="10.135" cy="4.292" rx="10.135" ry="4.292" fill="#ffd400"/>
        </g>
        <g id="Group_925" data-name="Group 925" transform="translate(0.775 0.119)">
          <path id="Path_805" data-name="Path 805" d="M38.037,57.771A7.15,7.15,0,0,1,34.4,55.625l8.168-5.366c.477,0,.954-.06,1.371-.06a20.147,20.147,0,0,1,4.769.537Z" transform="translate(-34.4 -50.2)" fill="#fffc8f"/>
        </g>
        <g id="Group_926" data-name="Group 926" transform="translate(6.439 1.192)">
          <path id="Path_806" data-name="Path 806" d="M46.285,59.214a15.336,15.336,0,0,1-2.385-.3L54.512,52a10.1,10.1,0,0,1,1.61.775Z" transform="translate(-43.9 -52)" fill="#fffc8f"/>
        </g>
      </g>
    </g>
    <g id="Group_937" data-name="Group 937" transform="translate(0 26.828)">
      <g id="Group_936" data-name="Group 936">
        <g id="Group_929" data-name="Group 929" transform="translate(0 2.504)">
          <ellipse id="Ellipse_204" data-name="Ellipse 204" cx="10.135" cy="4.292" rx="10.135" ry="4.292" fill="#ce7d13"/>
        </g>
        <g id="Group_930" data-name="Group 930" transform="translate(0 2.027)">
          <path id="Path_807" data-name="Path 807" d="M33.1,50.665v2.087c0,1.789,2.5,3.279,6.081,3.935a13.329,13.329,0,0,0,2.742.3c.417,0,.894.06,1.312.06a21.829,21.829,0,0,0,4.054-.358c3.577-.656,5.425-2.206,5.425-3.994l.656-2.265c-1.431-1.61-5.843-2.027-10.135-2.027C39.837,48.46,34.948,49.592,33.1,50.665Z" transform="translate(-33.1 -48.4)" fill="#ffc50d"/>
        </g>
        <g id="Group_931" data-name="Group 931" transform="translate(6.141 6.498)" opacity="0.43">
          <path id="Path_808" data-name="Path 808" d="M43.4,55.9v3.816a13.328,13.328,0,0,0,2.742.3V55.9Z" transform="translate(-43.4 -55.9)" fill="#fffc8f"/>
        </g>
        <g id="Group_932" data-name="Group 932" transform="translate(13.772 2.146)">
          <path id="Path_809" data-name="Path 809" d="M56.2,56.827V48.6c2.921.238,5.485.715,6.5,1.908v2.265C62.7,54.621,60.016,56.231,56.2,56.827Z" transform="translate(-56.2 -48.6)" fill="#f19d00"/>
        </g>
        <g id="Group_933" data-name="Group 933">
          <ellipse id="Ellipse_205" data-name="Ellipse 205" cx="10.135" cy="4.292" rx="10.135" ry="4.292" fill="#ffd400"/>
        </g>
        <g id="Group_934" data-name="Group 934" transform="translate(0.775 0.119)">
          <path id="Path_810" data-name="Path 810" d="M38.037,52.771A7.15,7.15,0,0,1,34.4,50.625l8.168-5.366c.477,0,.954-.06,1.371-.06a20.147,20.147,0,0,1,4.769.537Z" transform="translate(-34.4 -45.2)" fill="#fffc8f"/>
        </g>
        <g id="Group_935" data-name="Group 935" transform="translate(6.439 1.192)">
          <path id="Path_811" data-name="Path 811" d="M46.285,54.214a15.335,15.335,0,0,1-2.385-.3L54.512,47a10.1,10.1,0,0,1,1.61.775Z" transform="translate(-43.9 -47)" fill="#fffc8f"/>
        </g>
      </g>
    </g>
    <g id="Group_946" data-name="Group 946" transform="translate(0 23.847)">
      <g id="Group_945" data-name="Group 945">
        <g id="Group_938" data-name="Group 938" transform="translate(0 2.504)">
          <ellipse id="Ellipse_206" data-name="Ellipse 206" cx="10.135" cy="4.292" rx="10.135" ry="4.292" fill="#ce7d13"/>
        </g>
        <g id="Group_939" data-name="Group 939" transform="translate(0 2.027)">
          <path id="Path_812" data-name="Path 812" d="M33.1,45.665v2.087c0,1.789,2.5,3.279,6.081,3.935a13.328,13.328,0,0,0,2.742.3c.417,0,.894.06,1.312.06a21.828,21.828,0,0,0,4.054-.358c3.577-.656,5.425-2.206,5.425-3.994l.656-2.265c-1.431-1.61-5.843-2.027-10.135-2.027C39.837,43.46,34.948,44.592,33.1,45.665Z" transform="translate(-33.1 -43.4)" fill="#ffc50d"/>
        </g>
        <g id="Group_940" data-name="Group 940" transform="translate(6.141 6.498)" opacity="0.43">
          <path id="Path_813" data-name="Path 813" d="M43.4,50.9v3.816a13.328,13.328,0,0,0,2.742.3V50.9Z" transform="translate(-43.4 -50.9)" fill="#fffc8f"/>
        </g>
        <g id="Group_941" data-name="Group 941" transform="translate(13.772 2.146)">
          <path id="Path_814" data-name="Path 814" d="M56.2,51.827V43.6c2.921.238,5.485.715,6.5,1.908v2.265C62.7,49.621,60.016,51.231,56.2,51.827Z" transform="translate(-56.2 -43.6)" fill="#f19d00"/>
        </g>
        <g id="Group_942" data-name="Group 942">
          <ellipse id="Ellipse_207" data-name="Ellipse 207" cx="10.135" cy="4.292" rx="10.135" ry="4.292" fill="#ffd400"/>
        </g>
        <g id="Group_943" data-name="Group 943" transform="translate(0.775 0.119)">
          <path id="Path_815" data-name="Path 815" d="M38.037,47.771A7.15,7.15,0,0,1,34.4,45.625l8.168-5.366c.477,0,.954-.06,1.371-.06a20.147,20.147,0,0,1,4.769.537Z" transform="translate(-34.4 -40.2)" fill="#fffc8f"/>
        </g>
        <g id="Group_944" data-name="Group 944" transform="translate(6.439 1.192)">
          <path id="Path_816" data-name="Path 816" d="M46.285,49.214a15.336,15.336,0,0,1-2.385-.3L54.512,42a10.1,10.1,0,0,1,1.61.775Z" transform="translate(-43.9 -42)" fill="#fffc8f"/>
        </g>
      </g>
    </g>
    <g id="Group_955" data-name="Group 955" transform="translate(0 20.866)">
      <g id="Group_954" data-name="Group 954">
        <g id="Group_947" data-name="Group 947" transform="translate(0 2.504)">
          <ellipse id="Ellipse_208" data-name="Ellipse 208" cx="10.135" cy="4.292" rx="10.135" ry="4.292" fill="#ce7d13"/>
        </g>
        <g id="Group_948" data-name="Group 948" transform="translate(0 2.027)">
          <path id="Path_817" data-name="Path 817" d="M33.1,40.665v2.087c0,1.789,2.5,3.279,6.081,3.935a13.328,13.328,0,0,0,2.742.3c.417,0,.894.06,1.312.06a21.828,21.828,0,0,0,4.054-.358c3.577-.656,5.425-2.206,5.425-3.994l.656-2.265c-1.431-1.61-5.843-2.027-10.135-2.027C39.837,38.46,34.948,39.592,33.1,40.665Z" transform="translate(-33.1 -38.4)" fill="#ffc50d"/>
        </g>
        <g id="Group_949" data-name="Group 949" transform="translate(6.141 6.498)" opacity="0.43">
          <path id="Path_818" data-name="Path 818" d="M43.4,45.9v3.816a13.328,13.328,0,0,0,2.742.3V45.9Z" transform="translate(-43.4 -45.9)" fill="#fffc8f"/>
        </g>
        <g id="Group_950" data-name="Group 950" transform="translate(13.772 2.146)">
          <path id="Path_819" data-name="Path 819" d="M56.2,46.827V38.6c2.921.238,5.485.715,6.5,1.908v2.265C62.7,44.621,60.016,46.231,56.2,46.827Z" transform="translate(-56.2 -38.6)" fill="#f19d00"/>
        </g>
        <g id="Group_951" data-name="Group 951">
          <ellipse id="Ellipse_209" data-name="Ellipse 209" cx="10.135" cy="4.292" rx="10.135" ry="4.292" fill="#ffd400"/>
        </g>
        <g id="Group_952" data-name="Group 952" transform="translate(0.775 0.119)">
          <path id="Path_820" data-name="Path 820" d="M38.037,42.771A7.15,7.15,0,0,1,34.4,40.625l8.168-5.366c.477,0,.954-.06,1.371-.06a20.147,20.147,0,0,1,4.769.537Z" transform="translate(-34.4 -35.2)" fill="#fffc8f"/>
        </g>
        <g id="Group_953" data-name="Group 953" transform="translate(6.439 1.192)">
          <path id="Path_821" data-name="Path 821" d="M46.285,44.214a15.336,15.336,0,0,1-2.385-.3L54.512,37a10.1,10.1,0,0,1,1.61.775Z" transform="translate(-43.9 -37)" fill="#fffc8f"/>
        </g>
      </g>
    </g>
    <g id="Group_964" data-name="Group 964" transform="translate(0 17.885)">
      <g id="Group_963" data-name="Group 963">
        <g id="Group_956" data-name="Group 956" transform="translate(0 2.504)">
          <ellipse id="Ellipse_210" data-name="Ellipse 210" cx="10.135" cy="4.292" rx="10.135" ry="4.292" fill="#ce7d13"/>
        </g>
        <g id="Group_957" data-name="Group 957" transform="translate(0 2.027)">
          <path id="Path_822" data-name="Path 822" d="M33.1,35.665v2.087c0,1.789,2.5,3.279,6.081,3.935a13.328,13.328,0,0,0,2.742.3c.417,0,.894.06,1.312.06a21.829,21.829,0,0,0,4.054-.358c3.577-.656,5.425-2.206,5.425-3.994l.656-2.265c-1.431-1.61-5.843-2.027-10.135-2.027C39.837,33.46,34.948,34.592,33.1,35.665Z" transform="translate(-33.1 -33.4)" fill="#ffc50d"/>
        </g>
        <g id="Group_958" data-name="Group 958" transform="translate(6.141 6.498)" opacity="0.43">
          <path id="Path_823" data-name="Path 823" d="M43.4,40.9v3.816a13.328,13.328,0,0,0,2.742.3V40.9Z" transform="translate(-43.4 -40.9)" fill="#fffc8f"/>
        </g>
        <g id="Group_959" data-name="Group 959" transform="translate(13.772 2.146)">
          <path id="Path_824" data-name="Path 824" d="M56.2,41.827V33.6c2.921.238,5.485.715,6.5,1.908v2.265C62.7,39.621,60.016,41.231,56.2,41.827Z" transform="translate(-56.2 -33.6)" fill="#f19d00"/>
        </g>
        <g id="Group_960" data-name="Group 960">
          <ellipse id="Ellipse_211" data-name="Ellipse 211" cx="10.135" cy="4.292" rx="10.135" ry="4.292" fill="#ffd400"/>
        </g>
        <g id="Group_961" data-name="Group 961" transform="translate(0.775 0.119)">
          <path id="Path_825" data-name="Path 825" d="M38.037,37.771A7.15,7.15,0,0,1,34.4,35.625l8.168-5.366c.477,0,.954-.06,1.371-.06a20.147,20.147,0,0,1,4.769.537Z" transform="translate(-34.4 -30.2)" fill="#fffc8f"/>
        </g>
        <g id="Group_962" data-name="Group 962" transform="translate(6.439 1.192)">
          <path id="Path_826" data-name="Path 826" d="M46.285,39.214a15.336,15.336,0,0,1-2.385-.3L54.512,32a10.1,10.1,0,0,1,1.61.775Z" transform="translate(-43.9 -32)" fill="#fffc8f"/>
        </g>
      </g>
    </g>
    <g id="Group_973" data-name="Group 973" transform="translate(0 14.904)">
      <g id="Group_972" data-name="Group 972">
        <g id="Group_965" data-name="Group 965" transform="translate(0 2.504)">
          <ellipse id="Ellipse_212" data-name="Ellipse 212" cx="10.135" cy="4.292" rx="10.135" ry="4.292" fill="#ce7d13"/>
        </g>
        <g id="Group_966" data-name="Group 966" transform="translate(0 2.027)">
          <path id="Path_827" data-name="Path 827" d="M33.1,30.665v2.087c0,1.789,2.5,3.279,6.081,3.935a13.329,13.329,0,0,0,2.742.3c.417,0,.894.06,1.312.06a21.829,21.829,0,0,0,4.054-.358c3.577-.656,5.425-2.206,5.425-3.994l.656-2.265c-1.431-1.61-5.843-2.027-10.135-2.027C39.837,28.46,34.948,29.592,33.1,30.665Z" transform="translate(-33.1 -28.4)" fill="#ffc50d"/>
        </g>
        <g id="Group_967" data-name="Group 967" transform="translate(6.141 6.498)" opacity="0.43">
          <path id="Path_828" data-name="Path 828" d="M43.4,35.9v3.816a13.328,13.328,0,0,0,2.742.3V35.9Z" transform="translate(-43.4 -35.9)" fill="#fffc8f"/>
        </g>
        <g id="Group_968" data-name="Group 968" transform="translate(13.772 2.146)">
          <path id="Path_829" data-name="Path 829" d="M56.2,36.827V28.6c2.921.238,5.485.715,6.5,1.908v2.265C62.7,34.621,60.016,36.231,56.2,36.827Z" transform="translate(-56.2 -28.6)" fill="#f19d00"/>
        </g>
        <g id="Group_969" data-name="Group 969">
          <ellipse id="Ellipse_213" data-name="Ellipse 213" cx="10.135" cy="4.292" rx="10.135" ry="4.292" fill="#ffd400"/>
        </g>
        <g id="Group_970" data-name="Group 970" transform="translate(0.775 0.119)">
          <path id="Path_830" data-name="Path 830" d="M38.037,32.771A7.15,7.15,0,0,1,34.4,30.625l8.168-5.366c.477,0,.954-.06,1.371-.06a20.147,20.147,0,0,1,4.769.537Z" transform="translate(-34.4 -25.2)" fill="#fffc8f"/>
        </g>
        <g id="Group_971" data-name="Group 971" transform="translate(6.439 1.192)">
          <path id="Path_831" data-name="Path 831" d="M46.285,34.214a15.336,15.336,0,0,1-2.385-.3L54.512,27a10.1,10.1,0,0,1,1.61.775Z" transform="translate(-43.9 -27)" fill="#fffc8f"/>
        </g>
      </g>
    </g>
    <g id="Group_982" data-name="Group 982" transform="translate(0 11.924)">
      <g id="Group_981" data-name="Group 981">
        <g id="Group_974" data-name="Group 974" transform="translate(0 2.504)">
          <ellipse id="Ellipse_214" data-name="Ellipse 214" cx="10.135" cy="4.292" rx="10.135" ry="4.292" fill="#ce7d13"/>
        </g>
        <g id="Group_975" data-name="Group 975" transform="translate(0 2.027)">
          <path id="Path_832" data-name="Path 832" d="M33.1,25.665v2.087c0,1.789,2.5,3.279,6.081,3.935a13.328,13.328,0,0,0,2.742.3c.417,0,.894.06,1.312.06a21.828,21.828,0,0,0,4.054-.358c3.577-.656,5.425-2.206,5.425-3.994l.656-2.265c-1.431-1.61-5.843-2.027-10.135-2.027C39.837,23.46,34.948,24.592,33.1,25.665Z" transform="translate(-33.1 -23.4)" fill="#ffc50d"/>
        </g>
        <g id="Group_976" data-name="Group 976" transform="translate(6.141 6.498)" opacity="0.43">
          <path id="Path_833" data-name="Path 833" d="M43.4,30.9v3.816a13.328,13.328,0,0,0,2.742.3V30.9Z" transform="translate(-43.4 -30.9)" fill="#fffc8f"/>
        </g>
        <g id="Group_977" data-name="Group 977" transform="translate(13.772 2.146)">
          <path id="Path_834" data-name="Path 834" d="M56.2,31.827V23.6c2.921.238,5.485.715,6.5,1.908v2.265C62.7,29.621,60.016,31.231,56.2,31.827Z" transform="translate(-56.2 -23.6)" fill="#f19d00"/>
        </g>
        <g id="Group_978" data-name="Group 978">
          <ellipse id="Ellipse_215" data-name="Ellipse 215" cx="10.135" cy="4.292" rx="10.135" ry="4.292" fill="#ffd400"/>
        </g>
        <g id="Group_979" data-name="Group 979" transform="translate(0.775 0.119)">
          <path id="Path_835" data-name="Path 835" d="M38.037,27.771A7.15,7.15,0,0,1,34.4,25.625l8.168-5.366c.477,0,.954-.06,1.371-.06a20.147,20.147,0,0,1,4.769.537Z" transform="translate(-34.4 -20.2)" fill="#fffc8f"/>
        </g>
        <g id="Group_980" data-name="Group 980" transform="translate(6.439 1.192)">
          <path id="Path_836" data-name="Path 836" d="M46.285,29.214a15.336,15.336,0,0,1-2.385-.3L54.512,22a10.1,10.1,0,0,1,1.61.775Z" transform="translate(-43.9 -22)" fill="#fffc8f"/>
        </g>
      </g>
    </g>
    <g id="Group_991" data-name="Group 991" transform="translate(0 8.943)">
      <g id="Group_990" data-name="Group 990">
        <g id="Group_983" data-name="Group 983" transform="translate(0 2.504)">
          <ellipse id="Ellipse_216" data-name="Ellipse 216" cx="10.135" cy="4.292" rx="10.135" ry="4.292" fill="#ce7d13"/>
        </g>
        <g id="Group_984" data-name="Group 984" transform="translate(0 2.027)">
          <path id="Path_837" data-name="Path 837" d="M33.1,20.665v2.087c0,1.789,2.5,3.279,6.081,3.935a13.328,13.328,0,0,0,2.742.3c.417,0,.894.06,1.312.06a21.828,21.828,0,0,0,4.054-.358c3.577-.656,5.425-2.206,5.425-3.994l.656-2.265c-1.431-1.61-5.843-2.027-10.135-2.027C39.837,18.46,34.948,19.592,33.1,20.665Z" transform="translate(-33.1 -18.4)" fill="#ffc50d"/>
        </g>
        <g id="Group_985" data-name="Group 985" transform="translate(6.141 6.498)" opacity="0.43">
          <path id="Path_838" data-name="Path 838" d="M43.4,25.9v3.816a13.328,13.328,0,0,0,2.742.3V25.9Z" transform="translate(-43.4 -25.9)" fill="#fffc8f"/>
        </g>
        <g id="Group_986" data-name="Group 986" transform="translate(13.772 2.146)">
          <path id="Path_839" data-name="Path 839" d="M56.2,26.827V18.6c2.921.238,5.485.715,6.5,1.908v2.265C62.7,24.621,60.016,26.231,56.2,26.827Z" transform="translate(-56.2 -18.6)" fill="#f19d00"/>
        </g>
        <g id="Group_987" data-name="Group 987">
          <ellipse id="Ellipse_217" data-name="Ellipse 217" cx="10.135" cy="4.292" rx="10.135" ry="4.292" fill="#ffd400"/>
        </g>
        <g id="Group_988" data-name="Group 988" transform="translate(0.775 0.119)">
          <path id="Path_840" data-name="Path 840" d="M38.037,22.771A7.15,7.15,0,0,1,34.4,20.625l8.168-5.366c.477,0,.954-.06,1.371-.06a20.147,20.147,0,0,1,4.769.537Z" transform="translate(-34.4 -15.2)" fill="#fffc8f"/>
        </g>
        <g id="Group_989" data-name="Group 989" transform="translate(6.439 1.192)">
          <path id="Path_841" data-name="Path 841" d="M46.285,24.214a15.336,15.336,0,0,1-2.385-.3L54.512,17a10.1,10.1,0,0,1,1.61.775Z" transform="translate(-43.9 -17)" fill="#fffc8f"/>
        </g>
      </g>
    </g>
    <g id="Group_1000" data-name="Group 1000" transform="translate(0 5.962)">
      <g id="Group_999" data-name="Group 999">
        <g id="Group_992" data-name="Group 992" transform="translate(0 2.504)">
          <ellipse id="Ellipse_218" data-name="Ellipse 218" cx="10.135" cy="4.292" rx="10.135" ry="4.292" fill="#ce7d13"/>
        </g>
        <g id="Group_993" data-name="Group 993" transform="translate(0 2.027)">
          <path id="Path_842" data-name="Path 842" d="M33.1,15.665v2.087c0,1.789,2.5,3.279,6.081,3.935a13.328,13.328,0,0,0,2.742.3c.417,0,.894.06,1.312.06a21.828,21.828,0,0,0,4.054-.358c3.577-.656,5.425-2.206,5.425-3.994l.656-2.265c-1.431-1.61-5.843-2.027-10.135-2.027C39.837,13.46,34.948,14.592,33.1,15.665Z" transform="translate(-33.1 -13.4)" fill="#ffc50d"/>
        </g>
        <g id="Group_994" data-name="Group 994" transform="translate(6.141 6.498)" opacity="0.43">
          <path id="Path_843" data-name="Path 843" d="M43.4,20.9v3.816a13.328,13.328,0,0,0,2.742.3V20.9Z" transform="translate(-43.4 -20.9)" fill="#fffc8f"/>
        </g>
        <g id="Group_995" data-name="Group 995" transform="translate(13.772 2.146)">
          <path id="Path_844" data-name="Path 844" d="M56.2,21.827V13.6c2.921.238,5.485.715,6.5,1.908v2.265C62.7,19.621,60.016,21.231,56.2,21.827Z" transform="translate(-56.2 -13.6)" fill="#f19d00"/>
        </g>
        <g id="Group_996" data-name="Group 996">
          <ellipse id="Ellipse_219" data-name="Ellipse 219" cx="10.135" cy="4.292" rx="10.135" ry="4.292" fill="#ffd400"/>
        </g>
        <g id="Group_997" data-name="Group 997" transform="translate(0.775 0.119)">
          <path id="Path_845" data-name="Path 845" d="M38.037,17.771A7.15,7.15,0,0,1,34.4,15.625l8.168-5.366c.477,0,.954-.06,1.371-.06a20.147,20.147,0,0,1,4.769.537Z" transform="translate(-34.4 -10.2)" fill="#fffc8f"/>
        </g>
        <g id="Group_998" data-name="Group 998" transform="translate(6.439 1.192)">
          <path id="Path_846" data-name="Path 846" d="M46.285,19.214a15.336,15.336,0,0,1-2.385-.3L54.512,12a10.1,10.1,0,0,1,1.61.775Z" transform="translate(-43.9 -12)" fill="#fffc8f"/>
        </g>
      </g>
    </g>
    <g id="Group_1009" data-name="Group 1009" transform="translate(0 2.981)">
      <g id="Group_1008" data-name="Group 1008">
        <g id="Group_1001" data-name="Group 1001" transform="translate(0 2.504)">
          <ellipse id="Ellipse_220" data-name="Ellipse 220" cx="10.135" cy="4.292" rx="10.135" ry="4.292" fill="#ce7d13"/>
        </g>
        <g id="Group_1002" data-name="Group 1002" transform="translate(0 2.027)">
          <path id="Path_847" data-name="Path 847" d="M33.1,10.665v2.087c0,1.789,2.5,3.279,6.081,3.935a13.328,13.328,0,0,0,2.742.3c.417,0,.894.06,1.312.06a21.828,21.828,0,0,0,4.054-.358c3.577-.656,5.425-2.206,5.425-3.994l.656-2.265C51.939,8.817,47.528,8.4,43.235,8.4,39.837,8.46,34.948,9.592,33.1,10.665Z" transform="translate(-33.1 -8.4)" fill="#ffc50d"/>
        </g>
        <g id="Group_1003" data-name="Group 1003" transform="translate(6.141 6.498)" opacity="0.43">
          <path id="Path_848" data-name="Path 848" d="M43.4,15.9v3.816a13.328,13.328,0,0,0,2.742.3V15.9Z" transform="translate(-43.4 -15.9)" fill="#fffc8f"/>
        </g>
        <g id="Group_1004" data-name="Group 1004" transform="translate(13.772 2.146)">
          <path id="Path_849" data-name="Path 849" d="M56.2,16.827V8.6c2.921.238,5.485.715,6.5,1.908v2.265C62.7,14.621,60.016,16.231,56.2,16.827Z" transform="translate(-56.2 -8.6)" fill="#f19d00"/>
        </g>
        <g id="Group_1005" data-name="Group 1005">
          <ellipse id="Ellipse_221" data-name="Ellipse 221" cx="10.135" cy="4.292" rx="10.135" ry="4.292" fill="#ffd400"/>
        </g>
        <g id="Group_1006" data-name="Group 1006" transform="translate(0.775 0.119)">
          <path id="Path_850" data-name="Path 850" d="M38.037,12.771A7.15,7.15,0,0,1,34.4,10.625L42.568,5.26c.477,0,.954-.06,1.371-.06a20.147,20.147,0,0,1,4.769.537Z" transform="translate(-34.4 -5.2)" fill="#fffc8f"/>
        </g>
        <g id="Group_1007" data-name="Group 1007" transform="translate(6.439 1.192)">
          <path id="Path_851" data-name="Path 851" d="M46.285,14.214a15.336,15.336,0,0,1-2.385-.3L54.512,7a10.1,10.1,0,0,1,1.61.775Z" transform="translate(-43.9 -7)" fill="#fffc8f"/>
        </g>
      </g>
    </g>
    <g id="Group_1018" data-name="Group 1018">
      <g id="Group_1017" data-name="Group 1017">
        <g id="Group_1010" data-name="Group 1010" transform="translate(0 2.504)">
          <ellipse id="Ellipse_222" data-name="Ellipse 222" cx="10.135" cy="4.292" rx="10.135" ry="4.292" fill="#ce7d13"/>
        </g>
        <g id="Group_1011" data-name="Group 1011" transform="translate(0 2.027)">
          <path id="Path_852" data-name="Path 852" d="M33.1,5.665V7.752c0,1.789,2.5,3.279,6.081,3.935a13.328,13.328,0,0,0,2.742.3c.417,0,.894.06,1.312.06a21.828,21.828,0,0,0,4.054-.358c3.577-.656,5.425-2.206,5.425-3.994l.656-2.265C51.939,3.817,47.528,3.4,43.235,3.4,39.837,3.46,34.948,4.592,33.1,5.665Z" transform="translate(-33.1 -3.4)" fill="#ffc50d"/>
        </g>
        <g id="Group_1012" data-name="Group 1012" transform="translate(6.141 6.498)" opacity="0.43">
          <path id="Path_853" data-name="Path 853" d="M43.4,10.9v3.816a13.328,13.328,0,0,0,2.742.3V10.9Z" transform="translate(-43.4 -10.9)" fill="#fffc8f"/>
        </g>
        <g id="Group_1013" data-name="Group 1013" transform="translate(13.772 2.146)">
          <path id="Path_854" data-name="Path 854" d="M56.2,11.827V3.6c2.921.238,5.485.715,6.5,1.908V7.773C62.7,9.621,60.016,11.231,56.2,11.827Z" transform="translate(-56.2 -3.6)" fill="#f19d00"/>
        </g>
        <g id="Group_1014" data-name="Group 1014">
          <ellipse id="Ellipse_223" data-name="Ellipse 223" cx="10.135" cy="4.292" rx="10.135" ry="4.292" fill="#ffd400"/>
        </g>
        <g id="Group_1015" data-name="Group 1015" transform="translate(0.775 0.119)">
          <path id="Path_855" data-name="Path 855" d="M38.037,7.771A7.15,7.15,0,0,1,34.4,5.625L42.568.26c.477,0,.954-.06,1.371-.06a20.147,20.147,0,0,1,4.769.537Z" transform="translate(-34.4 -0.2)" fill="#fffc8f"/>
        </g>
        <g id="Group_1016" data-name="Group 1016" transform="translate(6.439 1.192)">
          <path id="Path_856" data-name="Path 856" d="M46.285,9.214a15.336,15.336,0,0,1-2.385-.3L54.512,2a10.1,10.1,0,0,1,1.61.775Z" transform="translate(-43.9 -2)" fill="#fffc8f"/>
        </g>
      </g>
    </g>
  </g>
  <path id="Path_857" data-name="Path 857" d="M30.7,55.8c0,2.385,4.531,5.6,10.135,7.214.6.179,1.192.3,1.729.417V43.4c-.537-.119-1.133,3.16-1.729,3.16A11.682,11.682,0,0,1,32.19,43.4C31,43.756,30.7,54.844,30.7,55.8Z" transform="translate(-12.397 -17.524)" opacity="0.25"/>
  <g id="Group_1137" data-name="Group 1137" transform="translate(1.908 22.893)">
    <g id="Group_1028" data-name="Group 1028" transform="translate(0 35.771)">
      <g id="Group_1027" data-name="Group 1027">
        <g id="Group_1020" data-name="Group 1020" transform="translate(0 2.504)">
          <path id="Path_858" data-name="Path 858" d="M3.2,106.892c0,2.385,4.531,4.292,10.135,4.292s10.135-1.908,10.135-4.292S18.939,102.6,13.335,102.6,3.2,104.508,3.2,106.892Z" transform="translate(-3.2 -102.6)" fill="#ce7d13"/>
        </g>
        <g id="Group_1021" data-name="Group 1021" transform="translate(0 2.027)">
          <path id="Path_859" data-name="Path 859" d="M3.2,104.065v2.087c0,1.789,2.5,3.279,6.081,3.935a13.327,13.327,0,0,0,2.742.3c.417,0,.894.06,1.312.06a21.828,21.828,0,0,0,4.054-.358c3.577-.656,5.425-2.206,5.425-3.994l.656-2.265c-1.431-1.61-5.843-2.027-10.135-2.027C9.877,101.8,5.048,102.933,3.2,104.065Z" transform="translate(-3.2 -101.8)" fill="#ffc50d"/>
        </g>
        <g id="Group_1022" data-name="Group 1022" transform="translate(6.081 6.498)" opacity="0.43">
          <path id="Path_860" data-name="Path 860" d="M13.4,109.3v3.816a13.328,13.328,0,0,0,2.742.3V109.3Z" transform="translate(-13.4 -109.3)" fill="#fffc8f"/>
        </g>
        <g id="Group_1023" data-name="Group 1023" transform="translate(13.772 2.146)">
          <path id="Path_861" data-name="Path 861" d="M26.3,110.227V102c2.921.238,5.485.715,6.5,1.908v2.265C32.8,108.021,30.056,109.571,26.3,110.227Z" transform="translate(-26.3 -102)" fill="#f19d00"/>
        </g>
        <g id="Group_1024" data-name="Group 1024">
          <ellipse id="Ellipse_224" data-name="Ellipse 224" cx="10.135" cy="4.292" rx="10.135" ry="4.292" fill="#ffd400"/>
        </g>
        <g id="Group_1025" data-name="Group 1025" transform="translate(0.715 0.06)">
          <path id="Path_862" data-name="Path 862" d="M8.037,106.071A7.15,7.15,0,0,1,4.4,103.925l8.168-5.366c.477,0,.954-.06,1.371-.06a20.147,20.147,0,0,1,4.769.537Z" transform="translate(-4.4 -98.5)" fill="#fffc8f"/>
        </g>
        <g id="Group_1026" data-name="Group 1026" transform="translate(6.439 1.192)">
          <path id="Path_863" data-name="Path 863" d="M16.385,107.614a15.334,15.334,0,0,1-2.385-.3L24.552,100.4a10.1,10.1,0,0,1,1.61.775Z" transform="translate(-14 -100.4)" fill="#fffc8f"/>
        </g>
      </g>
    </g>
    <g id="Group_1037" data-name="Group 1037" transform="translate(0 32.79)">
      <g id="Group_1036" data-name="Group 1036">
        <g id="Group_1029" data-name="Group 1029" transform="translate(0 2.504)">
          <path id="Path_864" data-name="Path 864" d="M3.2,101.892c0,2.385,4.531,4.292,10.135,4.292s10.135-1.908,10.135-4.292S18.939,97.6,13.335,97.6,3.2,99.508,3.2,101.892Z" transform="translate(-3.2 -97.6)" fill="#ce7d13"/>
        </g>
        <g id="Group_1030" data-name="Group 1030" transform="translate(0 2.027)">
          <path id="Path_865" data-name="Path 865" d="M3.2,99.065v2.087c0,1.789,2.5,3.279,6.081,3.935a13.327,13.327,0,0,0,2.742.3c.417,0,.894.06,1.312.06a21.828,21.828,0,0,0,4.054-.358c3.577-.656,5.425-2.206,5.425-3.994l.656-2.265c-1.431-1.61-5.843-2.027-10.135-2.027C9.877,96.8,5.048,97.933,3.2,99.065Z" transform="translate(-3.2 -96.8)" fill="#ffc50d"/>
        </g>
        <g id="Group_1031" data-name="Group 1031" transform="translate(6.081 6.498)" opacity="0.43">
          <path id="Path_866" data-name="Path 866" d="M13.4,104.3v3.816a13.328,13.328,0,0,0,2.742.3V104.3Z" transform="translate(-13.4 -104.3)" fill="#fffc8f"/>
        </g>
        <g id="Group_1032" data-name="Group 1032" transform="translate(13.772 2.146)">
          <path id="Path_867" data-name="Path 867" d="M26.3,105.227V97c2.921.238,5.485.715,6.5,1.908v2.265C32.8,103.021,30.056,104.571,26.3,105.227Z" transform="translate(-26.3 -97)" fill="#f19d00"/>
        </g>
        <g id="Group_1033" data-name="Group 1033">
          <ellipse id="Ellipse_225" data-name="Ellipse 225" cx="10.135" cy="4.292" rx="10.135" ry="4.292" fill="#ffd400"/>
        </g>
        <g id="Group_1034" data-name="Group 1034" transform="translate(0.715 0.06)">
          <path id="Path_868" data-name="Path 868" d="M8.037,101.071A7.15,7.15,0,0,1,4.4,98.925l8.168-5.366c.477,0,.954-.06,1.371-.06a20.147,20.147,0,0,1,4.769.537Z" transform="translate(-4.4 -93.5)" fill="#fffc8f"/>
        </g>
        <g id="Group_1035" data-name="Group 1035" transform="translate(6.439 1.192)">
          <path id="Path_869" data-name="Path 869" d="M16.385,102.614a15.335,15.335,0,0,1-2.385-.3L24.552,95.4a10.1,10.1,0,0,1,1.61.775Z" transform="translate(-14 -95.4)" fill="#fffc8f"/>
        </g>
      </g>
    </g>
    <g id="Group_1046" data-name="Group 1046" transform="translate(0 29.809)">
      <g id="Group_1045" data-name="Group 1045">
        <g id="Group_1038" data-name="Group 1038" transform="translate(0 2.504)">
          <path id="Path_870" data-name="Path 870" d="M3.2,96.892c0,2.385,4.531,4.292,10.135,4.292S23.47,99.277,23.47,96.892,18.939,92.6,13.335,92.6,3.2,94.508,3.2,96.892Z" transform="translate(-3.2 -92.6)" fill="#ce7d13"/>
        </g>
        <g id="Group_1039" data-name="Group 1039" transform="translate(0 1.967)">
          <path id="Path_871" data-name="Path 871" d="M3.2,94.025v2.027c0,1.789,2.5,3.279,6.081,3.935a13.328,13.328,0,0,0,2.742.3c.417,0,.894.06,1.312.06a21.828,21.828,0,0,0,4.054-.358c3.577-.656,5.425-2.206,5.425-3.994l.656-2.265c-1.431-1.61-5.843-2.027-10.135-2.027C9.877,91.76,5.048,92.892,3.2,94.025Z" transform="translate(-3.2 -91.7)" fill="#ffc50d"/>
        </g>
        <g id="Group_1040" data-name="Group 1040" transform="translate(6.081 6.498)" opacity="0.43">
          <path id="Path_872" data-name="Path 872" d="M13.4,99.3v3.816a13.329,13.329,0,0,0,2.742.3V99.3Z" transform="translate(-13.4 -99.3)" fill="#fffc8f"/>
        </g>
        <g id="Group_1041" data-name="Group 1041" transform="translate(13.772 2.146)">
          <path id="Path_873" data-name="Path 873" d="M26.3,100.227V92c2.921.238,5.485.715,6.5,1.908v2.265C32.8,98.021,30.056,99.571,26.3,100.227Z" transform="translate(-26.3 -92)" fill="#f19d00"/>
        </g>
        <g id="Group_1042" data-name="Group 1042">
          <ellipse id="Ellipse_226" data-name="Ellipse 226" cx="10.135" cy="4.292" rx="10.135" ry="4.292" fill="#ffd400"/>
        </g>
        <g id="Group_1043" data-name="Group 1043" transform="translate(0.715 0.06)">
          <path id="Path_874" data-name="Path 874" d="M8.037,96.071A7.15,7.15,0,0,1,4.4,93.925l8.168-5.366c.477,0,.954-.06,1.371-.06a20.147,20.147,0,0,1,4.769.537Z" transform="translate(-4.4 -88.5)" fill="#fffc8f"/>
        </g>
        <g id="Group_1044" data-name="Group 1044" transform="translate(6.439 1.192)">
          <path id="Path_875" data-name="Path 875" d="M16.385,97.614a15.335,15.335,0,0,1-2.385-.3L24.552,90.4a10.1,10.1,0,0,1,1.61.775Z" transform="translate(-14 -90.4)" fill="#fffc8f"/>
        </g>
      </g>
    </g>
    <g id="Group_1055" data-name="Group 1055" transform="translate(0 26.828)">
      <g id="Group_1054" data-name="Group 1054">
        <g id="Group_1047" data-name="Group 1047" transform="translate(0 2.504)">
          <path id="Path_876" data-name="Path 876" d="M3.2,91.892c0,2.385,4.531,4.292,10.135,4.292S23.47,94.277,23.47,91.892,18.939,87.6,13.335,87.6,3.2,89.508,3.2,91.892Z" transform="translate(-3.2 -87.6)" fill="#ce7d13"/>
        </g>
        <g id="Group_1048" data-name="Group 1048" transform="translate(0 1.967)">
          <path id="Path_877" data-name="Path 877" d="M3.2,89.025v2.027c0,1.789,2.5,3.279,6.081,3.935a13.328,13.328,0,0,0,2.742.3c.417,0,.894.06,1.312.06a21.828,21.828,0,0,0,4.054-.358c3.577-.656,5.425-2.206,5.425-3.994l.656-2.265c-1.431-1.61-5.843-2.027-10.135-2.027C9.877,86.76,5.048,87.892,3.2,89.025Z" transform="translate(-3.2 -86.7)" fill="#ffc50d"/>
        </g>
        <g id="Group_1049" data-name="Group 1049" transform="translate(6.081 6.498)" opacity="0.43">
          <path id="Path_878" data-name="Path 878" d="M13.4,94.3v3.816a13.328,13.328,0,0,0,2.742.3V94.3Z" transform="translate(-13.4 -94.3)" fill="#fffc8f"/>
        </g>
        <g id="Group_1050" data-name="Group 1050" transform="translate(13.772 2.146)">
          <path id="Path_879" data-name="Path 879" d="M26.3,95.227V87c2.921.238,5.485.715,6.5,1.908v2.265C32.8,93.021,30.056,94.571,26.3,95.227Z" transform="translate(-26.3 -87)" fill="#f19d00"/>
        </g>
        <g id="Group_1051" data-name="Group 1051">
          <ellipse id="Ellipse_227" data-name="Ellipse 227" cx="10.135" cy="4.292" rx="10.135" ry="4.292" fill="#ffd400"/>
        </g>
        <g id="Group_1052" data-name="Group 1052" transform="translate(0.715 0.06)">
          <path id="Path_880" data-name="Path 880" d="M8.037,91.071A7.15,7.15,0,0,1,4.4,88.925l8.168-5.366c.477,0,.954-.06,1.371-.06a20.147,20.147,0,0,1,4.769.537Z" transform="translate(-4.4 -83.5)" fill="#fffc8f"/>
        </g>
        <g id="Group_1053" data-name="Group 1053" transform="translate(6.439 1.192)">
          <path id="Path_881" data-name="Path 881" d="M16.385,92.614a15.334,15.334,0,0,1-2.385-.3L24.552,85.4a10.1,10.1,0,0,1,1.61.775Z" transform="translate(-14 -85.4)" fill="#fffc8f"/>
        </g>
      </g>
    </g>
    <g id="Group_1064" data-name="Group 1064" transform="translate(0 23.847)">
      <g id="Group_1063" data-name="Group 1063">
        <g id="Group_1056" data-name="Group 1056" transform="translate(0 2.504)">
          <path id="Path_882" data-name="Path 882" d="M3.2,86.892c0,2.385,4.531,4.292,10.135,4.292S23.47,89.277,23.47,86.892,18.939,82.6,13.335,82.6,3.2,84.508,3.2,86.892Z" transform="translate(-3.2 -82.6)" fill="#ce7d13"/>
        </g>
        <g id="Group_1057" data-name="Group 1057" transform="translate(0 1.967)">
          <path id="Path_883" data-name="Path 883" d="M3.2,84.025v2.027c0,1.789,2.5,3.279,6.081,3.935a13.328,13.328,0,0,0,2.742.3c.417,0,.894.06,1.312.06a21.828,21.828,0,0,0,4.054-.358c3.577-.656,5.425-2.206,5.425-3.994l.656-2.265c-1.431-1.61-5.843-2.027-10.135-2.027C9.877,81.76,5.048,82.892,3.2,84.025Z" transform="translate(-3.2 -81.7)" fill="#ffc50d"/>
        </g>
        <g id="Group_1058" data-name="Group 1058" transform="translate(6.081 6.498)" opacity="0.43">
          <path id="Path_884" data-name="Path 884" d="M13.4,89.3v3.816a13.328,13.328,0,0,0,2.742.3V89.3Z" transform="translate(-13.4 -89.3)" fill="#fffc8f"/>
        </g>
        <g id="Group_1059" data-name="Group 1059" transform="translate(13.772 2.146)">
          <path id="Path_885" data-name="Path 885" d="M26.3,90.227V82c2.921.238,5.485.715,6.5,1.908v2.265C32.8,88.021,30.056,89.571,26.3,90.227Z" transform="translate(-26.3 -82)" fill="#f19d00"/>
        </g>
        <g id="Group_1060" data-name="Group 1060">
          <ellipse id="Ellipse_228" data-name="Ellipse 228" cx="10.135" cy="4.292" rx="10.135" ry="4.292" fill="#ffd400"/>
        </g>
        <g id="Group_1061" data-name="Group 1061" transform="translate(0.715 0.06)">
          <path id="Path_886" data-name="Path 886" d="M8.037,86.071A7.15,7.15,0,0,1,4.4,83.925l8.168-5.366c.477,0,.954-.06,1.371-.06a20.147,20.147,0,0,1,4.769.537Z" transform="translate(-4.4 -78.5)" fill="#fffc8f"/>
        </g>
        <g id="Group_1062" data-name="Group 1062" transform="translate(6.439 1.192)">
          <path id="Path_887" data-name="Path 887" d="M16.385,87.614a15.334,15.334,0,0,1-2.385-.3L24.552,80.4a10.1,10.1,0,0,1,1.61.775Z" transform="translate(-14 -80.4)" fill="#fffc8f"/>
        </g>
      </g>
    </g>
    <g id="Group_1073" data-name="Group 1073" transform="translate(0 20.866)">
      <g id="Group_1072" data-name="Group 1072">
        <g id="Group_1065" data-name="Group 1065" transform="translate(0 2.504)">
          <path id="Path_888" data-name="Path 888" d="M3.2,81.892c0,2.385,4.531,4.292,10.135,4.292S23.47,84.277,23.47,81.892,18.939,77.6,13.335,77.6,3.2,79.508,3.2,81.892Z" transform="translate(-3.2 -77.6)" fill="#ce7d13"/>
        </g>
        <g id="Group_1066" data-name="Group 1066" transform="translate(0 1.967)">
          <path id="Path_889" data-name="Path 889" d="M3.2,79.025v2.027c0,1.789,2.5,3.279,6.081,3.935a13.328,13.328,0,0,0,2.742.3c.417,0,.894.06,1.312.06a21.828,21.828,0,0,0,4.054-.358c3.577-.656,5.425-2.206,5.425-3.994l.656-2.265c-1.431-1.61-5.843-2.027-10.135-2.027C9.877,76.76,5.048,77.892,3.2,79.025Z" transform="translate(-3.2 -76.7)" fill="#ffc50d"/>
        </g>
        <g id="Group_1067" data-name="Group 1067" transform="translate(6.081 6.498)" opacity="0.43">
          <path id="Path_890" data-name="Path 890" d="M13.4,84.3v3.816a13.329,13.329,0,0,0,2.742.3V84.3Z" transform="translate(-13.4 -84.3)" fill="#fffc8f"/>
        </g>
        <g id="Group_1068" data-name="Group 1068" transform="translate(13.772 2.146)">
          <path id="Path_891" data-name="Path 891" d="M26.3,85.227V77c2.921.238,5.485.715,6.5,1.908v2.265C32.8,83.021,30.056,84.571,26.3,85.227Z" transform="translate(-26.3 -77)" fill="#f19d00"/>
        </g>
        <g id="Group_1069" data-name="Group 1069">
          <ellipse id="Ellipse_229" data-name="Ellipse 229" cx="10.135" cy="4.292" rx="10.135" ry="4.292" fill="#ffd400"/>
        </g>
        <g id="Group_1070" data-name="Group 1070" transform="translate(0.715 0.06)">
          <path id="Path_892" data-name="Path 892" d="M8.037,81.071A7.15,7.15,0,0,1,4.4,78.925l8.168-5.366c.477,0,.954-.06,1.371-.06a20.147,20.147,0,0,1,4.769.537Z" transform="translate(-4.4 -73.5)" fill="#fffc8f"/>
        </g>
        <g id="Group_1071" data-name="Group 1071" transform="translate(6.439 1.192)">
          <path id="Path_893" data-name="Path 893" d="M16.385,82.614a15.336,15.336,0,0,1-2.385-.3L24.552,75.4a10.1,10.1,0,0,1,1.61.775Z" transform="translate(-14 -75.4)" fill="#fffc8f"/>
        </g>
      </g>
    </g>
    <g id="Group_1082" data-name="Group 1082" transform="translate(0 17.885)">
      <g id="Group_1081" data-name="Group 1081">
        <g id="Group_1074" data-name="Group 1074" transform="translate(0 2.504)">
          <path id="Path_894" data-name="Path 894" d="M3.2,76.892c0,2.385,4.531,4.292,10.135,4.292S23.47,79.277,23.47,76.892,18.939,72.6,13.335,72.6,3.2,74.508,3.2,76.892Z" transform="translate(-3.2 -72.6)" fill="#ce7d13"/>
        </g>
        <g id="Group_1075" data-name="Group 1075" transform="translate(0 1.967)">
          <path id="Path_895" data-name="Path 895" d="M3.2,74.025v2.027c0,1.789,2.5,3.279,6.081,3.935a13.328,13.328,0,0,0,2.742.3c.417,0,.894.06,1.312.06a21.828,21.828,0,0,0,4.054-.358c3.577-.656,5.425-2.206,5.425-3.994l.656-2.265c-1.431-1.61-5.843-2.027-10.135-2.027C9.877,71.76,5.048,72.892,3.2,74.025Z" transform="translate(-3.2 -71.7)" fill="#ffc50d"/>
        </g>
        <g id="Group_1076" data-name="Group 1076" transform="translate(6.081 6.498)" opacity="0.43">
          <path id="Path_896" data-name="Path 896" d="M13.4,79.3v3.816a13.329,13.329,0,0,0,2.742.3V79.3Z" transform="translate(-13.4 -79.3)" fill="#fffc8f"/>
        </g>
        <g id="Group_1077" data-name="Group 1077" transform="translate(13.772 2.146)">
          <path id="Path_897" data-name="Path 897" d="M26.3,80.227V72c2.921.238,5.485.715,6.5,1.908v2.265C32.8,78.021,30.056,79.571,26.3,80.227Z" transform="translate(-26.3 -72)" fill="#f19d00"/>
        </g>
        <g id="Group_1078" data-name="Group 1078">
          <ellipse id="Ellipse_230" data-name="Ellipse 230" cx="10.135" cy="4.292" rx="10.135" ry="4.292" fill="#ffd400"/>
        </g>
        <g id="Group_1079" data-name="Group 1079" transform="translate(0.715 0.06)">
          <path id="Path_898" data-name="Path 898" d="M8.037,76.071A7.15,7.15,0,0,1,4.4,73.925l8.168-5.366c.477,0,.954-.06,1.371-.06a20.147,20.147,0,0,1,4.769.537Z" transform="translate(-4.4 -68.5)" fill="#fffc8f"/>
        </g>
        <g id="Group_1080" data-name="Group 1080" transform="translate(6.439 1.192)">
          <path id="Path_899" data-name="Path 899" d="M16.385,77.614a15.335,15.335,0,0,1-2.385-.3L24.552,70.4a10.1,10.1,0,0,1,1.61.775Z" transform="translate(-14 -70.4)" fill="#fffc8f"/>
        </g>
      </g>
    </g>
    <g id="Group_1091" data-name="Group 1091" transform="translate(0 14.904)">
      <g id="Group_1090" data-name="Group 1090">
        <g id="Group_1083" data-name="Group 1083" transform="translate(0 2.504)">
          <path id="Path_900" data-name="Path 900" d="M3.2,71.892c0,2.385,4.531,4.292,10.135,4.292S23.47,74.277,23.47,71.892,18.939,67.6,13.335,67.6,3.2,69.508,3.2,71.892Z" transform="translate(-3.2 -67.6)" fill="#ce7d13"/>
        </g>
        <g id="Group_1084" data-name="Group 1084" transform="translate(0 1.967)">
          <path id="Path_901" data-name="Path 901" d="M3.2,69.025v2.027c0,1.789,2.5,3.279,6.081,3.935a13.328,13.328,0,0,0,2.742.3c.417,0,.894.06,1.312.06a21.828,21.828,0,0,0,4.054-.358c3.577-.656,5.425-2.206,5.425-3.994l.656-2.265c-1.431-1.61-5.843-2.027-10.135-2.027C9.877,66.76,5.048,67.892,3.2,69.025Z" transform="translate(-3.2 -66.7)" fill="#ffc50d"/>
        </g>
        <g id="Group_1085" data-name="Group 1085" transform="translate(6.081 6.498)" opacity="0.43">
          <path id="Path_902" data-name="Path 902" d="M13.4,74.3v3.816a13.328,13.328,0,0,0,2.742.3V74.3Z" transform="translate(-13.4 -74.3)" fill="#fffc8f"/>
        </g>
        <g id="Group_1086" data-name="Group 1086" transform="translate(13.772 2.146)">
          <path id="Path_903" data-name="Path 903" d="M26.3,75.227V67c2.921.238,5.485.715,6.5,1.908v2.265C32.8,73.021,30.056,74.571,26.3,75.227Z" transform="translate(-26.3 -67)" fill="#f19d00"/>
        </g>
        <g id="Group_1087" data-name="Group 1087">
          <ellipse id="Ellipse_231" data-name="Ellipse 231" cx="10.135" cy="4.292" rx="10.135" ry="4.292" fill="#ffd400"/>
        </g>
        <g id="Group_1088" data-name="Group 1088" transform="translate(0.715 0.06)">
          <path id="Path_904" data-name="Path 904" d="M8.037,71.071A7.15,7.15,0,0,1,4.4,68.925l8.168-5.366c.477,0,.954-.06,1.371-.06a20.147,20.147,0,0,1,4.769.537Z" transform="translate(-4.4 -63.5)" fill="#fffc8f"/>
        </g>
        <g id="Group_1089" data-name="Group 1089" transform="translate(6.439 1.192)">
          <path id="Path_905" data-name="Path 905" d="M16.385,72.614a15.334,15.334,0,0,1-2.385-.3L24.552,65.4a10.1,10.1,0,0,1,1.61.775Z" transform="translate(-14 -65.4)" fill="#fffc8f"/>
        </g>
      </g>
    </g>
    <g id="Group_1100" data-name="Group 1100" transform="translate(0 11.924)">
      <g id="Group_1099" data-name="Group 1099">
        <g id="Group_1092" data-name="Group 1092" transform="translate(0 2.504)">
          <path id="Path_906" data-name="Path 906" d="M3.2,66.892c0,2.385,4.531,4.292,10.135,4.292S23.47,69.277,23.47,66.892,18.939,62.6,13.335,62.6,3.2,64.508,3.2,66.892Z" transform="translate(-3.2 -62.6)" fill="#ce7d13"/>
        </g>
        <g id="Group_1093" data-name="Group 1093" transform="translate(0 1.967)">
          <path id="Path_907" data-name="Path 907" d="M3.2,64.025v2.027c0,1.789,2.5,3.279,6.081,3.935a13.328,13.328,0,0,0,2.742.3c.417,0,.894.06,1.312.06a21.828,21.828,0,0,0,4.054-.358c3.577-.656,5.425-2.206,5.425-3.994l.656-2.265c-1.431-1.61-5.843-2.027-10.135-2.027C9.877,61.76,5.048,62.892,3.2,64.025Z" transform="translate(-3.2 -61.7)" fill="#ffc50d"/>
        </g>
        <g id="Group_1094" data-name="Group 1094" transform="translate(6.081 6.498)" opacity="0.43">
          <path id="Path_908" data-name="Path 908" d="M13.4,69.3v3.816a13.328,13.328,0,0,0,2.742.3V69.3Z" transform="translate(-13.4 -69.3)" fill="#fffc8f"/>
        </g>
        <g id="Group_1095" data-name="Group 1095" transform="translate(13.772 2.146)">
          <path id="Path_909" data-name="Path 909" d="M26.3,70.227V62c2.921.238,5.485.715,6.5,1.908v2.265C32.8,68.021,30.056,69.571,26.3,70.227Z" transform="translate(-26.3 -62)" fill="#f19d00"/>
        </g>
        <g id="Group_1096" data-name="Group 1096">
          <ellipse id="Ellipse_232" data-name="Ellipse 232" cx="10.135" cy="4.292" rx="10.135" ry="4.292" fill="#ffd400"/>
        </g>
        <g id="Group_1097" data-name="Group 1097" transform="translate(0.715 0.06)">
          <path id="Path_910" data-name="Path 910" d="M8.037,66.071A7.15,7.15,0,0,1,4.4,63.925l8.168-5.366c.477,0,.954-.06,1.371-.06a20.147,20.147,0,0,1,4.769.537Z" transform="translate(-4.4 -58.5)" fill="#fffc8f"/>
        </g>
        <g id="Group_1098" data-name="Group 1098" transform="translate(6.439 1.192)">
          <path id="Path_911" data-name="Path 911" d="M16.385,67.614a15.335,15.335,0,0,1-2.385-.3L24.552,60.4a10.1,10.1,0,0,1,1.61.775Z" transform="translate(-14 -60.4)" fill="#fffc8f"/>
        </g>
      </g>
    </g>
    <g id="Group_1109" data-name="Group 1109" transform="translate(0 8.943)">
      <g id="Group_1108" data-name="Group 1108">
        <g id="Group_1101" data-name="Group 1101" transform="translate(0 2.504)">
          <path id="Path_912" data-name="Path 912" d="M3.2,61.892c0,2.385,4.531,4.292,10.135,4.292S23.47,64.277,23.47,61.892,18.939,57.6,13.335,57.6,3.2,59.508,3.2,61.892Z" transform="translate(-3.2 -57.6)" fill="#ce7d13"/>
        </g>
        <g id="Group_1102" data-name="Group 1102" transform="translate(0 1.967)">
          <path id="Path_913" data-name="Path 913" d="M3.2,59.025v2.027c0,1.789,2.5,3.279,6.081,3.935a13.328,13.328,0,0,0,2.742.3c.417,0,.894.06,1.312.06a21.828,21.828,0,0,0,4.054-.358c3.577-.656,5.425-2.206,5.425-3.994l.656-2.265c-1.431-1.61-5.843-2.027-10.135-2.027C9.877,56.76,5.048,57.892,3.2,59.025Z" transform="translate(-3.2 -56.7)" fill="#ffc50d"/>
        </g>
        <g id="Group_1103" data-name="Group 1103" transform="translate(6.081 6.498)" opacity="0.43">
          <path id="Path_914" data-name="Path 914" d="M13.4,64.3v3.816a13.329,13.329,0,0,0,2.742.3V64.3Z" transform="translate(-13.4 -64.3)" fill="#fffc8f"/>
        </g>
        <g id="Group_1104" data-name="Group 1104" transform="translate(13.772 2.146)">
          <path id="Path_915" data-name="Path 915" d="M26.3,65.227V57c2.921.238,5.485.715,6.5,1.908v2.265C32.8,63.021,30.056,64.571,26.3,65.227Z" transform="translate(-26.3 -57)" fill="#f19d00"/>
        </g>
        <g id="Group_1105" data-name="Group 1105">
          <ellipse id="Ellipse_233" data-name="Ellipse 233" cx="10.135" cy="4.292" rx="10.135" ry="4.292" fill="#ffd400"/>
        </g>
        <g id="Group_1106" data-name="Group 1106" transform="translate(0.715 0.06)">
          <path id="Path_916" data-name="Path 916" d="M8.037,61.071A7.15,7.15,0,0,1,4.4,58.925l8.168-5.366c.477,0,.954-.06,1.371-.06a20.147,20.147,0,0,1,4.769.537Z" transform="translate(-4.4 -53.5)" fill="#fffc8f"/>
        </g>
        <g id="Group_1107" data-name="Group 1107" transform="translate(6.439 1.192)">
          <path id="Path_917" data-name="Path 917" d="M16.385,62.614a15.336,15.336,0,0,1-2.385-.3L24.552,55.4a10.1,10.1,0,0,1,1.61.775Z" transform="translate(-14 -55.4)" fill="#fffc8f"/>
        </g>
      </g>
    </g>
    <g id="Group_1118" data-name="Group 1118" transform="translate(0 5.962)">
      <g id="Group_1117" data-name="Group 1117">
        <g id="Group_1110" data-name="Group 1110" transform="translate(0 2.504)">
          <path id="Path_918" data-name="Path 918" d="M3.2,56.892c0,2.385,4.531,4.292,10.135,4.292S23.47,59.277,23.47,56.892,18.939,52.6,13.335,52.6,3.2,54.508,3.2,56.892Z" transform="translate(-3.2 -52.6)" fill="#ce7d13"/>
        </g>
        <g id="Group_1111" data-name="Group 1111" transform="translate(0 1.967)">
          <path id="Path_919" data-name="Path 919" d="M3.2,54.025v2.027c0,1.789,2.5,3.279,6.081,3.935a13.328,13.328,0,0,0,2.742.3c.417,0,.894.06,1.312.06a21.828,21.828,0,0,0,4.054-.358c3.577-.656,5.425-2.206,5.425-3.994l.656-2.265c-1.431-1.61-5.843-2.027-10.135-2.027C9.877,51.76,5.048,52.892,3.2,54.025Z" transform="translate(-3.2 -51.7)" fill="#ffc50d"/>
        </g>
        <g id="Group_1112" data-name="Group 1112" transform="translate(6.081 6.498)" opacity="0.43">
          <path id="Path_920" data-name="Path 920" d="M13.4,59.3v3.816a13.328,13.328,0,0,0,2.742.3V59.3H13.4Z" transform="translate(-13.4 -59.3)" fill="#fffc8f"/>
        </g>
        <g id="Group_1113" data-name="Group 1113" transform="translate(13.772 2.146)">
          <path id="Path_921" data-name="Path 921" d="M26.3,60.227V52c2.921.238,5.485.715,6.5,1.908v2.265C32.8,58.021,30.056,59.571,26.3,60.227Z" transform="translate(-26.3 -52)" fill="#f19d00"/>
        </g>
        <g id="Group_1114" data-name="Group 1114">
          <ellipse id="Ellipse_234" data-name="Ellipse 234" cx="10.135" cy="4.292" rx="10.135" ry="4.292" fill="#ffd400"/>
        </g>
        <g id="Group_1115" data-name="Group 1115" transform="translate(0.715 0.06)">
          <path id="Path_922" data-name="Path 922" d="M8.037,56.071A7.15,7.15,0,0,1,4.4,53.925l8.168-5.366c.477,0,.954-.06,1.371-.06a20.147,20.147,0,0,1,4.769.537Z" transform="translate(-4.4 -48.5)" fill="#fffc8f"/>
        </g>
        <g id="Group_1116" data-name="Group 1116" transform="translate(6.439 1.192)">
          <path id="Path_923" data-name="Path 923" d="M16.385,57.614a15.335,15.335,0,0,1-2.385-.3L24.552,50.4a10.1,10.1,0,0,1,1.61.775Z" transform="translate(-14 -50.4)" fill="#fffc8f"/>
        </g>
      </g>
    </g>
    <g id="Group_1127" data-name="Group 1127" transform="translate(0 2.981)">
      <g id="Group_1126" data-name="Group 1126">
        <g id="Group_1119" data-name="Group 1119" transform="translate(0 2.504)">
          <path id="Path_924" data-name="Path 924" d="M3.2,51.892c0,2.385,4.531,4.292,10.135,4.292S23.47,54.277,23.47,51.892,18.939,47.6,13.335,47.6,3.2,49.508,3.2,51.892Z" transform="translate(-3.2 -47.6)" fill="#ce7d13"/>
        </g>
        <g id="Group_1120" data-name="Group 1120" transform="translate(0 1.967)">
          <path id="Path_925" data-name="Path 925" d="M3.2,49.025v2.027c0,1.789,2.5,3.279,6.081,3.935a13.328,13.328,0,0,0,2.742.3c.417,0,.894.06,1.312.06a21.828,21.828,0,0,0,4.054-.358c3.577-.656,5.425-2.206,5.425-3.994l.656-2.265c-1.431-1.61-5.843-2.027-10.135-2.027C9.877,46.76,5.048,47.892,3.2,49.025Z" transform="translate(-3.2 -46.7)" fill="#ffc50d"/>
        </g>
        <g id="Group_1121" data-name="Group 1121" transform="translate(6.081 6.498)" opacity="0.43">
          <path id="Path_926" data-name="Path 926" d="M13.4,54.3v3.816a13.328,13.328,0,0,0,2.742.3V54.3Z" transform="translate(-13.4 -54.3)" fill="#fffc8f"/>
        </g>
        <g id="Group_1122" data-name="Group 1122" transform="translate(13.772 2.146)">
          <path id="Path_927" data-name="Path 927" d="M26.3,55.227V47c2.921.238,5.485.715,6.5,1.908v2.265C32.8,53.021,30.056,54.571,26.3,55.227Z" transform="translate(-26.3 -47)" fill="#f19d00"/>
        </g>
        <g id="Group_1123" data-name="Group 1123">
          <ellipse id="Ellipse_235" data-name="Ellipse 235" cx="10.135" cy="4.292" rx="10.135" ry="4.292" fill="#ffd400"/>
        </g>
        <g id="Group_1124" data-name="Group 1124" transform="translate(0.715 0.06)">
          <path id="Path_928" data-name="Path 928" d="M8.037,51.071A7.15,7.15,0,0,1,4.4,48.925l8.168-5.366c.477,0,.954-.06,1.371-.06a20.147,20.147,0,0,1,4.769.537Z" transform="translate(-4.4 -43.5)" fill="#fffc8f"/>
        </g>
        <g id="Group_1125" data-name="Group 1125" transform="translate(6.439 1.192)">
          <path id="Path_929" data-name="Path 929" d="M16.385,52.614a15.336,15.336,0,0,1-2.385-.3L24.552,45.4a10.1,10.1,0,0,1,1.61.775Z" transform="translate(-14 -45.4)" fill="#fffc8f"/>
        </g>
      </g>
    </g>
    <g id="Group_1136" data-name="Group 1136">
      <g id="Group_1135" data-name="Group 1135">
        <g id="Group_1128" data-name="Group 1128" transform="translate(0 2.504)">
          <path id="Path_930" data-name="Path 930" d="M3.2,46.892c0,2.385,4.531,4.292,10.135,4.292S23.47,49.277,23.47,46.892,18.939,42.6,13.335,42.6,3.2,44.508,3.2,46.892Z" transform="translate(-3.2 -42.6)" fill="#ce7d13"/>
        </g>
        <g id="Group_1129" data-name="Group 1129" transform="translate(0 1.967)">
          <path id="Path_931" data-name="Path 931" d="M3.2,44.025v2.027c0,1.789,2.5,3.279,6.081,3.935a13.328,13.328,0,0,0,2.742.3c.417,0,.894.06,1.312.06a21.828,21.828,0,0,0,4.054-.358c3.577-.656,5.425-2.206,5.425-3.994l.656-2.265c-1.431-1.61-5.843-2.027-10.135-2.027C9.877,41.76,5.048,42.892,3.2,44.025Z" transform="translate(-3.2 -41.7)" fill="#ffc50d"/>
        </g>
        <g id="Group_1130" data-name="Group 1130" transform="translate(6.081 6.498)" opacity="0.43">
          <path id="Path_932" data-name="Path 932" d="M13.4,49.3v3.816a13.328,13.328,0,0,0,2.742.3V49.3Z" transform="translate(-13.4 -49.3)" fill="#fffc8f"/>
        </g>
        <g id="Group_1131" data-name="Group 1131" transform="translate(13.772 2.146)">
          <path id="Path_933" data-name="Path 933" d="M26.3,50.227V42c2.921.238,5.485.715,6.5,1.908v2.265C32.8,48.021,30.056,49.571,26.3,50.227Z" transform="translate(-26.3 -42)" fill="#f19d00"/>
        </g>
        <g id="Group_1132" data-name="Group 1132">
          <ellipse id="Ellipse_236" data-name="Ellipse 236" cx="10.135" cy="4.292" rx="10.135" ry="4.292" fill="#ffd400"/>
        </g>
        <g id="Group_1133" data-name="Group 1133" transform="translate(0.715 0.06)">
          <path id="Path_934" data-name="Path 934" d="M8.037,46.071A7.15,7.15,0,0,1,4.4,43.925l8.168-5.366c.477,0,.954-.06,1.371-.06a20.147,20.147,0,0,1,4.769.537Z" transform="translate(-4.4 -38.5)" fill="#fffc8f"/>
        </g>
        <g id="Group_1134" data-name="Group 1134" transform="translate(6.439 1.192)">
          <path id="Path_935" data-name="Path 935" d="M16.385,47.614a15.336,15.336,0,0,1-2.385-.3L24.552,40.4a10.1,10.1,0,0,1,1.61.775Z" transform="translate(-14 -40.4)" fill="#fffc8f"/>
        </g>
      </g>
    </g>
  </g>
  <g id="Group_1158" data-name="Group 1158" transform="translate(23.788 13.176)">
    <g id="Group_1142" data-name="Group 1142" transform="translate(0 26.828)">
      <g id="Group_1141" data-name="Group 1141">
        <path id="Path_936" data-name="Path 936" d="M89.025,82.831,100.651,69v7.393L89.025,90.224v.06H39.9V82.831Z" transform="translate(-39.9 -67.867)" fill="#47752f"/>
        <path id="Path_937" data-name="Path 937" d="M133.925,74.493V67.1L122.3,80.931v7.393Z" transform="translate(-73.175 -67.1)" fill="#4e8436"/>
        <g id="Group_1140" data-name="Group 1140">
          <path id="Path_938" data-name="Path 938" d="M52.008,67.5,40.8,80.854H89.269L100.418,67.5Z" transform="translate(-40.263 -67.262)" fill="#ade069"/>
          <path id="Path_939" data-name="Path 939" d="M39.9,97.752H89.025V90.3H39.9Z" transform="translate(-39.9 -76.469)" fill="#70a33c"/>
          <path id="Path_940" data-name="Path 940" d="M52.07,67.4,41.1,80.695H89.569L100.539,67.4Zm-4.71,9,3.816-4.591a10.269,10.269,0,0,0,7.095-3.041H92.312c-1.371,1.669-.477,2.981,1.967,3.041L90.464,76.4a10.381,10.381,0,0,0-6.975,2.921H49.447C50.7,77.714,49.8,76.4,47.36,76.4Z" transform="translate(-40.385 -67.221)" fill="#70a33c"/>
          <path id="Path_941" data-name="Path 941" d="M83.408,76.7c-1.252,1.55-.417,2.8,1.967,2.8a9.628,9.628,0,0,0,6.558-2.8c1.252-1.55.417-2.8-1.967-2.8A9.628,9.628,0,0,0,83.408,76.7Z" transform="translate(-57.236 -69.846)" fill="#607700"/>
          <path id="Path_942" data-name="Path 942" d="M103.775,77.588c-.715.835-.238,1.49,1.073,1.49a5.038,5.038,0,0,0,3.517-1.49c.715-.835.238-1.49-1.073-1.49A4.9,4.9,0,0,0,103.775,77.588Z" transform="translate(-65.56 -70.732)" fill="#fff"/>
          <path id="Path_943" data-name="Path 943" d="M69.975,77.588c-.715.835-.238,1.49,1.073,1.49a5.038,5.038,0,0,0,3.517-1.49c.715-.835.238-1.49-1.073-1.49A4.8,4.8,0,0,0,69.975,77.588Z" transform="translate(-51.911 -70.732)" fill="#fff"/>
          <path id="Path_944" data-name="Path 944" d="M51.525,67.1h49.066L88.966,80.931H39.9Zm47.992.477H51.764L41.033,80.454H88.787Z" transform="translate(-39.9 -67.1)" fill="#9fd65e"/>
          <path id="Path_945" data-name="Path 945" d="M89.325,67.1h6.8L84.5,80.931v7.452H77.7V80.931Z" transform="translate(-55.164 -67.1)" fill="#48842f" opacity="0.44"/>
          <path id="Path_946" data-name="Path 946" d="M75.3,80.931v7.452h6.8V80.931h0L93.722,67.1h-6.8Z" transform="translate(-54.195 -67.1)" fill="#fff"/>
          <g id="Group_1138" data-name="Group 1138" transform="translate(27.186)">
            <path id="Path_947" data-name="Path 947" d="M97.125,67.1H98.5L86.871,80.931v7.452H85.5V80.931Z" transform="translate(-85.5 -67.1)" fill="#ff895a"/>
          </g>
          <g id="Group_1139" data-name="Group 1139" transform="translate(20.449)">
            <path id="Path_948" data-name="Path 948" d="M85.825,67.1H87.2L75.571,80.931v7.452H74.2V80.931Z" transform="translate(-74.2 -67.1)" fill="#ff895a"/>
          </g>
          <path id="Path_949" data-name="Path 949" d="M74.3,90.3v7.452h8.048V90.3H74.3Z" transform="translate(-53.791 -76.469)" fill="#846e56" opacity="0.29"/>
        </g>
      </g>
    </g>
    <g id="Group_1147" data-name="Group 1147" transform="translate(0 17.885)">
      <g id="Group_1146" data-name="Group 1146">
        <path id="Path_950" data-name="Path 950" d="M89.025,67.831,100.651,54v7.393L89.025,75.224v.06H39.9V67.831Z" transform="translate(-39.9 -52.867)" fill="#47752f"/>
        <path id="Path_951" data-name="Path 951" d="M133.925,59.493V52.1L122.3,65.931v7.393Z" transform="translate(-73.175 -52.1)" fill="#4e8436"/>
        <g id="Group_1145" data-name="Group 1145">
          <path id="Path_952" data-name="Path 952" d="M52.008,52.5,40.8,65.854H89.269L100.418,52.5Z" transform="translate(-40.263 -52.262)" fill="#ade069"/>
          <path id="Path_953" data-name="Path 953" d="M39.9,82.752H89.025V75.3H39.9Z" transform="translate(-39.9 -61.469)" fill="#70a33c"/>
          <path id="Path_954" data-name="Path 954" d="M52.07,52.4,41.1,65.695H89.569L100.539,52.4H52.07Zm-4.71,9,3.816-4.591a10.269,10.269,0,0,0,7.095-3.041H92.312c-1.371,1.669-.477,2.981,1.967,3.041L90.464,61.4a10.381,10.381,0,0,0-6.975,2.921H49.447C50.7,62.714,49.8,61.4,47.36,61.4Z" transform="translate(-40.385 -52.221)" fill="#70a33c"/>
          <path id="Path_955" data-name="Path 955" d="M83.408,61.7c-1.252,1.55-.417,2.8,1.967,2.8a9.628,9.628,0,0,0,6.558-2.8c1.252-1.55.417-2.8-1.967-2.8A9.628,9.628,0,0,0,83.408,61.7Z" transform="translate(-57.236 -54.846)" fill="#607700"/>
          <path id="Path_956" data-name="Path 956" d="M103.775,62.588c-.715.835-.238,1.49,1.073,1.49a5.038,5.038,0,0,0,3.517-1.49c.715-.835.238-1.49-1.073-1.49A4.9,4.9,0,0,0,103.775,62.588Z" transform="translate(-65.56 -55.732)" fill="#fff"/>
          <path id="Path_957" data-name="Path 957" d="M69.975,62.588c-.715.835-.238,1.49,1.073,1.49a5.038,5.038,0,0,0,3.517-1.49c.715-.835.238-1.49-1.073-1.49A4.8,4.8,0,0,0,69.975,62.588Z" transform="translate(-51.911 -55.732)" fill="#fff"/>
          <path id="Path_958" data-name="Path 958" d="M51.525,52.1h49.066L88.966,65.931H39.9Zm47.992.477H51.764L41.033,65.454H88.787Z" transform="translate(-39.9 -52.1)" fill="#9fd65e"/>
          <path id="Path_959" data-name="Path 959" d="M89.325,52.1h6.8L84.5,65.931v7.452H77.7V65.931Z" transform="translate(-55.164 -52.1)" fill="#48842f" opacity="0.44"/>
          <path id="Path_960" data-name="Path 960" d="M75.3,65.931v7.452h6.8V65.931h0L93.722,52.1h-6.8Z" transform="translate(-54.195 -52.1)" fill="#fff"/>
          <g id="Group_1143" data-name="Group 1143" transform="translate(27.186)">
            <path id="Path_961" data-name="Path 961" d="M97.125,52.1H98.5L86.871,65.931v7.452H85.5V65.931Z" transform="translate(-85.5 -52.1)" fill="#ff895a"/>
          </g>
          <g id="Group_1144" data-name="Group 1144" transform="translate(20.449)">
            <path id="Path_962" data-name="Path 962" d="M85.825,52.1H87.2L75.571,65.931v7.452H74.2V65.931Z" transform="translate(-74.2 -52.1)" fill="#ff895a"/>
          </g>
          <path id="Path_963" data-name="Path 963" d="M74.3,75.3v7.452h8.048V75.3H74.3Z" transform="translate(-53.791 -61.469)" fill="#846e56" opacity="0.29"/>
        </g>
      </g>
    </g>
    <g id="Group_1152" data-name="Group 1152" transform="translate(0 8.943)">
      <g id="Group_1151" data-name="Group 1151">
        <path id="Path_964" data-name="Path 964" d="M89.025,52.831,100.651,39v7.393L89.025,60.224v.06H39.9V52.831Z" transform="translate(-39.9 -37.867)" fill="#47752f"/>
        <path id="Path_965" data-name="Path 965" d="M133.925,44.493V37.1L122.3,50.931v7.393Z" transform="translate(-73.175 -37.1)" fill="#4e8436"/>
        <g id="Group_1150" data-name="Group 1150">
          <path id="Path_966" data-name="Path 966" d="M52.008,37.5,40.8,50.854H89.269L100.418,37.5Z" transform="translate(-40.263 -37.262)" fill="#ade069"/>
          <path id="Path_967" data-name="Path 967" d="M39.9,67.752H89.025V60.3H39.9Z" transform="translate(-39.9 -46.469)" fill="#70a33c"/>
          <path id="Path_968" data-name="Path 968" d="M52.07,37.4,41.1,50.695H89.569L100.539,37.4Zm-4.71,9,3.816-4.591a10.269,10.269,0,0,0,7.095-3.041H92.312c-1.371,1.669-.477,2.981,1.967,3.041L90.464,46.4a10.381,10.381,0,0,0-6.975,2.921H49.447C50.7,47.714,49.8,46.4,47.36,46.4Z" transform="translate(-40.385 -37.221)" fill="#70a33c"/>
          <path id="Path_969" data-name="Path 969" d="M83.408,46.7c-1.252,1.55-.417,2.8,1.967,2.8a9.628,9.628,0,0,0,6.558-2.8c1.252-1.55.417-2.8-1.967-2.8A9.628,9.628,0,0,0,83.408,46.7Z" transform="translate(-57.236 -39.846)" fill="#607700"/>
          <path id="Path_970" data-name="Path 970" d="M103.775,47.588c-.715.835-.238,1.49,1.073,1.49a5.038,5.038,0,0,0,3.517-1.49c.715-.835.238-1.49-1.073-1.49A4.9,4.9,0,0,0,103.775,47.588Z" transform="translate(-65.56 -40.732)" fill="#fff"/>
          <path id="Path_971" data-name="Path 971" d="M69.975,47.588c-.715.835-.238,1.49,1.073,1.49a5.038,5.038,0,0,0,3.517-1.49c.715-.835.238-1.49-1.073-1.49A4.8,4.8,0,0,0,69.975,47.588Z" transform="translate(-51.911 -40.732)" fill="#fff"/>
          <path id="Path_972" data-name="Path 972" d="M51.525,37.1h49.066L88.966,50.931H39.9Zm47.992.477H51.764L41.033,50.454H88.787Z" transform="translate(-39.9 -37.1)" fill="#9fd65e"/>
          <path id="Path_973" data-name="Path 973" d="M89.325,37.1h6.8L84.5,50.931v7.452H77.7V50.931Z" transform="translate(-55.164 -37.1)" fill="#48842f" opacity="0.44"/>
          <path id="Path_974" data-name="Path 974" d="M75.3,50.931v7.452h6.8V50.931h0L93.722,37.1h-6.8Z" transform="translate(-54.195 -37.1)" fill="#fff"/>
          <g id="Group_1148" data-name="Group 1148" transform="translate(27.186)">
            <path id="Path_975" data-name="Path 975" d="M97.125,37.1H98.5L86.871,50.931v7.452H85.5V50.931Z" transform="translate(-85.5 -37.1)" fill="#ff895a"/>
          </g>
          <g id="Group_1149" data-name="Group 1149" transform="translate(20.449)">
            <path id="Path_976" data-name="Path 976" d="M85.825,37.1H87.2L75.571,50.931v7.452H74.2V50.931Z" transform="translate(-74.2 -37.1)" fill="#ff895a"/>
          </g>
          <path id="Path_977" data-name="Path 977" d="M74.3,60.3v7.452h8.048V60.3H74.3Z" transform="translate(-53.791 -46.469)" fill="#846e56" opacity="0.29"/>
        </g>
      </g>
    </g>
    <g id="Group_1157" data-name="Group 1157">
      <g id="Group_1156" data-name="Group 1156">
        <path id="Path_978" data-name="Path 978" d="M89.025,37.831,100.651,24v7.393L89.025,45.224v.06H39.9V37.831Z" transform="translate(-39.9 -22.867)" fill="#47752f"/>
        <path id="Path_979" data-name="Path 979" d="M133.925,29.493V22.1L122.3,35.931v7.393Z" transform="translate(-73.175 -22.1)" fill="#4e8436"/>
        <g id="Group_1155" data-name="Group 1155">
          <path id="Path_980" data-name="Path 980" d="M52.008,22.5,40.8,35.854H89.269L100.418,22.5Z" transform="translate(-40.263 -22.262)" fill="#ade069"/>
          <path id="Path_981" data-name="Path 981" d="M39.9,52.752H89.025V45.3H39.9Z" transform="translate(-39.9 -31.469)" fill="#70a33c"/>
          <path id="Path_982" data-name="Path 982" d="M52.07,22.4,41.1,35.695H89.569L100.539,22.4H52.07Zm-4.71,9,3.816-4.591a10.269,10.269,0,0,0,7.095-3.041H92.312c-1.371,1.669-.477,2.981,1.967,3.041L90.464,31.4a10.381,10.381,0,0,0-6.975,2.921H49.447C50.7,32.714,49.8,31.4,47.36,31.4Z" transform="translate(-40.385 -22.221)" fill="#70a33c"/>
          <path id="Path_983" data-name="Path 983" d="M83.408,31.7c-1.252,1.55-.417,2.8,1.967,2.8a9.628,9.628,0,0,0,6.558-2.8c1.252-1.55.417-2.8-1.967-2.8A9.628,9.628,0,0,0,83.408,31.7Z" transform="translate(-57.236 -24.846)" fill="#607700"/>
          <path id="Path_984" data-name="Path 984" d="M103.775,32.588c-.715.835-.238,1.49,1.073,1.49a5.038,5.038,0,0,0,3.517-1.49c.715-.835.238-1.49-1.073-1.49A4.9,4.9,0,0,0,103.775,32.588Z" transform="translate(-65.56 -25.732)" fill="#fff"/>
          <path id="Path_985" data-name="Path 985" d="M69.975,32.588c-.715.835-.238,1.49,1.073,1.49a5.038,5.038,0,0,0,3.517-1.49c.715-.835.238-1.49-1.073-1.49A4.8,4.8,0,0,0,69.975,32.588Z" transform="translate(-51.911 -25.732)" fill="#fff"/>
          <path id="Path_986" data-name="Path 986" d="M51.525,22.1h49.066L88.966,35.931H39.9Zm47.992.477H51.764L41.033,35.454H88.787Z" transform="translate(-39.9 -22.1)" fill="#9fd65e"/>
          <path id="Path_987" data-name="Path 987" d="M89.325,22.1h6.8L84.5,35.931v7.452H77.7V35.931Z" transform="translate(-55.164 -22.1)" fill="#48842f" opacity="0.44"/>
          <path id="Path_988" data-name="Path 988" d="M75.3,35.931v7.452h6.8V35.931h0L93.722,22.1h-6.8Z" transform="translate(-54.195 -22.1)" fill="#fff"/>
          <g id="Group_1153" data-name="Group 1153" transform="translate(27.186)">
            <path id="Path_989" data-name="Path 989" d="M97.125,22.1H98.5L86.871,35.931v7.452H85.5V35.931Z" transform="translate(-85.5 -22.1)" fill="#ff895a"/>
          </g>
          <g id="Group_1154" data-name="Group 1154" transform="translate(20.449)">
            <path id="Path_990" data-name="Path 990" d="M85.825,22.1H87.2L75.571,35.931v7.452H74.2V35.931Z" transform="translate(-74.2 -22.1)" fill="#ff895a"/>
          </g>
          <path id="Path_991" data-name="Path 991" d="M74.3,45.3v7.452h8.048V45.3H74.3Z" transform="translate(-53.791 -31.469)" fill="#846e56" opacity="0.29"/>
        </g>
      </g>
    </g>
  </g>
  <path id="Path_992" data-name="Path 992" d="M74.305,88.5,84.44,86.589V66.2H40.8V91Z" transform="translate(-16.476 -26.733)" opacity="0.25"/>
  <g id="Group_1174" data-name="Group 1174" transform="translate(0 41.971)">
    <g id="Group_1163" data-name="Group 1163" transform="translate(0 17.885)">
      <g id="Group_1162" data-name="Group 1162">
        <path id="Path_993" data-name="Path 993" d="M49.066,116.191,60.691,102.3v7.393L49.125,123.524l-.06.06H0v-7.393Z" transform="translate(0 -101.167)" fill="#47752f"/>
        <path id="Path_994" data-name="Path 994" d="M93.925,107.793V100.4L82.3,114.291v7.333Z" transform="translate(-33.234 -100.4)" fill="#4e8436"/>
        <g id="Group_1161" data-name="Group 1161">
          <path id="Path_995" data-name="Path 995" d="M12.108,100.9.9,114.195H49.31L60.518,100.9Z" transform="translate(-0.363 -100.602)" fill="#ade069"/>
          <path id="Path_996" data-name="Path 996" d="M0,131.093H49.066V123.7H0Z" transform="translate(0 -109.809)" fill="#70a33c"/>
          <path id="Path_997" data-name="Path 997" d="M12.129,100.8,1.1,114.095H49.569L60.539,100.8ZM7.36,109.743l3.816-4.591a10.269,10.269,0,0,0,7.095-3.041H52.312c-1.371,1.669-.477,2.981,1.967,3.041l-3.816,4.591a10.381,10.381,0,0,0-6.975,2.921H9.447C10.758,111.114,9.8,109.8,7.36,109.743Z" transform="translate(-0.444 -100.562)" fill="#70a33c"/>
          <path id="Path_998" data-name="Path 998" d="M43.508,110c-1.252,1.55-.417,2.8,1.967,2.8a9.511,9.511,0,0,0,6.558-2.8c1.252-1.55.417-2.8-1.967-2.8A9.4,9.4,0,0,0,43.508,110Z" transform="translate(-17.336 -103.146)" fill="#607700"/>
          <path id="Path_999" data-name="Path 999" d="M63.875,110.89c-.715.835-.238,1.49,1.073,1.49a5.038,5.038,0,0,0,3.517-1.49c.715-.835.238-1.49-1.073-1.49A5.038,5.038,0,0,0,63.875,110.89Z" transform="translate(-25.66 -104.034)" fill="#fff"/>
          <path id="Path_1000" data-name="Path 1000" d="M30.075,110.89c-.715.835-.238,1.49,1.073,1.49a5.038,5.038,0,0,0,3.517-1.49c.715-.835.238-1.49-1.073-1.49A5.038,5.038,0,0,0,30.075,110.89Z" transform="translate(-12.011 -104.034)" fill="#fff"/>
          <path id="Path_1001" data-name="Path 1001" d="M11.625,100.4H60.691L49.066,114.231H0Zm47.992.537H11.864L1.073,113.754H48.827Z" transform="translate(0 -100.4)" fill="#9fd65e"/>
          <path id="Path_1002" data-name="Path 1002" d="M49.325,100.4h6.8L44.556,114.291v7.393H37.7v-7.393Z" transform="translate(-15.224 -100.4)" fill="#48842f" opacity="0.44"/>
          <path id="Path_1003" data-name="Path 1003" d="M35.4,114.291v7.393h6.8v-7.393h0L53.822,100.4h-6.8Z" transform="translate(-14.295 -100.4)" fill="#fff"/>
          <g id="Group_1159" data-name="Group 1159" transform="translate(27.126)">
            <path id="Path_1004" data-name="Path 1004" d="M57.125,100.4H58.5L46.871,114.291v7.393H45.5v-7.393Z" transform="translate(-45.5 -100.4)" fill="#ff895a"/>
          </g>
          <g id="Group_1160" data-name="Group 1160" transform="translate(20.449)">
            <path id="Path_1005" data-name="Path 1005" d="M45.925,100.4H47.3L35.671,114.291v7.393H34.3v-7.393Z" transform="translate(-34.3 -100.4)" fill="#ff895a"/>
          </g>
          <path id="Path_1006" data-name="Path 1006" d="M34.3,123.7v7.393h8.048V123.7H34.3Z" transform="translate(-13.851 -109.809)" fill="#846e56" opacity="0.29"/>
        </g>
      </g>
    </g>
    <g id="Group_1168" data-name="Group 1168" transform="translate(0 8.943)">
      <g id="Group_1167" data-name="Group 1167">
        <path id="Path_1007" data-name="Path 1007" d="M49.066,101.191,60.691,87.3v7.393L49.125,108.524l-.06.06H0v-7.393Z" transform="translate(0 -86.167)" fill="#47752f"/>
        <path id="Path_1008" data-name="Path 1008" d="M93.925,92.793V85.4L82.3,99.291v7.333Z" transform="translate(-33.234 -85.4)" fill="#4e8436"/>
        <g id="Group_1166" data-name="Group 1166">
          <path id="Path_1009" data-name="Path 1009" d="M12.108,85.9.9,99.195H49.31L60.518,85.9Z" transform="translate(-0.363 -85.602)" fill="#ade069"/>
          <path id="Path_1010" data-name="Path 1010" d="M0,116.093H49.066V108.7H0Z" transform="translate(0 -94.809)" fill="#70a33c"/>
          <path id="Path_1011" data-name="Path 1011" d="M12.129,85.8,1.1,99.095H49.569L60.539,85.8ZM7.36,94.743l3.816-4.591a10.269,10.269,0,0,0,7.095-3.041H52.312c-1.371,1.669-.477,2.981,1.967,3.041l-3.816,4.591a10.381,10.381,0,0,0-6.975,2.921H9.447C10.758,96.114,9.8,94.8,7.36,94.743Z" transform="translate(-0.444 -85.562)" fill="#70a33c"/>
          <path id="Path_1012" data-name="Path 1012" d="M43.508,95c-1.252,1.55-.417,2.8,1.967,2.8A9.511,9.511,0,0,0,52.033,95c1.252-1.55.417-2.8-1.967-2.8A9.4,9.4,0,0,0,43.508,95Z" transform="translate(-17.336 -88.146)" fill="#607700"/>
          <path id="Path_1013" data-name="Path 1013" d="M63.875,95.89c-.715.835-.238,1.49,1.073,1.49a5.038,5.038,0,0,0,3.517-1.49c.715-.835.238-1.49-1.073-1.49A5.038,5.038,0,0,0,63.875,95.89Z" transform="translate(-25.66 -89.034)" fill="#fff"/>
          <path id="Path_1014" data-name="Path 1014" d="M30.075,95.89c-.715.835-.238,1.49,1.073,1.49a5.038,5.038,0,0,0,3.517-1.49c.715-.835.238-1.49-1.073-1.49A5.038,5.038,0,0,0,30.075,95.89Z" transform="translate(-12.011 -89.034)" fill="#fff"/>
          <path id="Path_1015" data-name="Path 1015" d="M11.625,85.4H60.691L49.066,99.231H0Zm47.992.537H11.864L1.073,98.754H48.827Z" transform="translate(0 -85.4)" fill="#9fd65e"/>
          <path id="Path_1016" data-name="Path 1016" d="M49.325,85.4h6.8L44.556,99.291v7.393H37.7V99.291Z" transform="translate(-15.224 -85.4)" fill="#48842f" opacity="0.44"/>
          <path id="Path_1017" data-name="Path 1017" d="M35.4,99.291v7.393h6.8V99.291h0L53.822,85.4h-6.8Z" transform="translate(-14.295 -85.4)" fill="#fff"/>
          <g id="Group_1164" data-name="Group 1164" transform="translate(27.126)">
            <path id="Path_1018" data-name="Path 1018" d="M57.125,85.4H58.5L46.871,99.291v7.393H45.5V99.291Z" transform="translate(-45.5 -85.4)" fill="#ff895a"/>
          </g>
          <g id="Group_1165" data-name="Group 1165" transform="translate(20.449)">
            <path id="Path_1019" data-name="Path 1019" d="M45.925,85.4H47.3L35.671,99.291v7.393H34.3V99.291Z" transform="translate(-34.3 -85.4)" fill="#ff895a"/>
          </g>
          <path id="Path_1020" data-name="Path 1020" d="M34.3,108.7v7.393h8.048V108.7H34.3Z" transform="translate(-13.851 -94.809)" fill="#846e56" opacity="0.29"/>
        </g>
      </g>
    </g>
    <g id="Group_1173" data-name="Group 1173">
      <g id="Group_1172" data-name="Group 1172">
        <path id="Path_1021" data-name="Path 1021" d="M49.066,86.191,60.691,72.3v7.393L49.125,93.524l-.06.06H0V86.191Z" transform="translate(0 -71.167)" fill="#47752f"/>
        <path id="Path_1022" data-name="Path 1022" d="M93.925,77.793V70.4L82.3,84.291v7.333Z" transform="translate(-33.234 -70.4)" fill="#4e8436"/>
        <g id="Group_1171" data-name="Group 1171">
          <path id="Path_1023" data-name="Path 1023" d="M12.108,70.9.9,84.195H49.31L60.518,70.9Z" transform="translate(-0.363 -70.602)" fill="#ade069"/>
          <path id="Path_1024" data-name="Path 1024" d="M0,101.093H49.066V93.7H0Z" transform="translate(0 -79.809)" fill="#70a33c"/>
          <path id="Path_1025" data-name="Path 1025" d="M12.129,70.8,1.1,84.095H49.569L60.539,70.8ZM7.36,79.743l3.816-4.591a10.269,10.269,0,0,0,7.095-3.041H52.312c-1.371,1.669-.477,2.981,1.967,3.041l-3.816,4.591a10.381,10.381,0,0,0-6.975,2.921H9.447C10.758,81.114,9.8,79.8,7.36,79.743Z" transform="translate(-0.444 -70.562)" fill="#70a33c"/>
          <path id="Path_1026" data-name="Path 1026" d="M43.508,80c-1.252,1.55-.417,2.8,1.967,2.8A9.511,9.511,0,0,0,52.033,80c1.252-1.55.417-2.8-1.967-2.8A9.4,9.4,0,0,0,43.508,80Z" transform="translate(-17.336 -73.146)" fill="#607700"/>
          <path id="Path_1027" data-name="Path 1027" d="M63.875,80.89c-.715.835-.238,1.49,1.073,1.49a5.038,5.038,0,0,0,3.517-1.49c.715-.835.238-1.49-1.073-1.49A5.038,5.038,0,0,0,63.875,80.89Z" transform="translate(-25.66 -74.034)" fill="#fff"/>
          <path id="Path_1028" data-name="Path 1028" d="M30.075,80.89c-.715.835-.238,1.49,1.073,1.49a5.038,5.038,0,0,0,3.517-1.49c.715-.835.238-1.49-1.073-1.49A5.038,5.038,0,0,0,30.075,80.89Z" transform="translate(-12.011 -74.034)" fill="#fff"/>
          <path id="Path_1029" data-name="Path 1029" d="M11.625,70.4H60.691L49.066,84.291H0Zm47.992.537H11.864L1.073,83.754H48.827Z" transform="translate(0 -70.4)" fill="#9fd65e"/>
          <path id="Path_1030" data-name="Path 1030" d="M49.325,70.4h6.8L44.556,84.291v7.393H37.7V84.291Z" transform="translate(-15.224 -70.4)" fill="#48842f" opacity="0.44"/>
          <path id="Path_1031" data-name="Path 1031" d="M35.4,84.291v7.393h6.8V84.291h0L53.822,70.4h-6.8Z" transform="translate(-14.295 -70.4)" fill="#fff"/>
          <g id="Group_1169" data-name="Group 1169" transform="translate(27.126)">
            <path id="Path_1032" data-name="Path 1032" d="M57.125,70.4H58.5L46.871,84.291v7.393H45.5V84.291Z" transform="translate(-45.5 -70.4)" fill="#ff895a"/>
          </g>
          <g id="Group_1170" data-name="Group 1170" transform="translate(20.449)">
            <path id="Path_1033" data-name="Path 1033" d="M45.925,70.4H47.3L35.671,84.291v7.393H34.3V84.291Z" transform="translate(-34.3 -70.4)" fill="#ff895a"/>
          </g>
          <path id="Path_1034" data-name="Path 1034" d="M34.3,93.7v7.393h8.048V93.7H34.3Z" transform="translate(-13.851 -79.809)" fill="#846e56" opacity="0.29"/>
        </g>
      </g>
    </g>
  </g>
  <g id="Group_1229" data-name="Group 1229" transform="translate(59.558 50.139)">
    <g id="Group_1183" data-name="Group 1183" transform="translate(0 14.904)">
      <g id="Group_1182" data-name="Group 1182">
        <g id="Group_1175" data-name="Group 1175" transform="translate(0 2.504)">
          <ellipse id="Ellipse_237" data-name="Ellipse 237" cx="10.135" cy="4.292" rx="10.135" ry="4.292" fill="#ce7d13"/>
        </g>
        <g id="Group_1176" data-name="Group 1176" transform="translate(0 2.027)">
          <path id="Path_1035" data-name="Path 1035" d="M99.9,114.765v2.087c0,1.789,2.5,3.279,6.081,3.935a13.328,13.328,0,0,0,2.742.3c.417,0,.894.06,1.312.06a21.828,21.828,0,0,0,4.054-.358c3.577-.656,5.425-2.206,5.425-3.994l.656-2.265c-1.431-1.61-5.843-2.027-10.135-2.027C106.577,112.5,101.748,113.633,99.9,114.765Z" transform="translate(-99.9 -112.5)" fill="#ffc50d"/>
        </g>
        <g id="Group_1177" data-name="Group 1177" transform="translate(6.081 6.498)" opacity="0.43">
          <path id="Path_1036" data-name="Path 1036" d="M110.1,120v3.816a13.328,13.328,0,0,0,2.742.3V120Z" transform="translate(-110.1 -120)" fill="#fffc8f"/>
        </g>
        <g id="Group_1178" data-name="Group 1178" transform="translate(13.772 2.206)">
          <path id="Path_1037" data-name="Path 1037" d="M123,120.968V112.8c2.921.238,5.485.715,6.5,1.908v2.265C129.5,118.762,126.756,120.312,123,120.968Z" transform="translate(-123 -112.8)" fill="#f19d00"/>
        </g>
        <g id="Group_1179" data-name="Group 1179">
          <ellipse id="Ellipse_238" data-name="Ellipse 238" cx="10.135" cy="4.292" rx="10.135" ry="4.292" fill="#ffd400"/>
        </g>
        <g id="Group_1180" data-name="Group 1180" transform="translate(0.715 0.06)">
          <path id="Path_1038" data-name="Path 1038" d="M104.737,116.771a7.15,7.15,0,0,1-3.637-2.146l8.168-5.366c.477,0,.954-.06,1.371-.06a20.147,20.147,0,0,1,4.769.537Z" transform="translate(-101.1 -109.2)" fill="#fffc8f"/>
        </g>
        <g id="Group_1181" data-name="Group 1181" transform="translate(6.439 1.192)">
          <path id="Path_1039" data-name="Path 1039" d="M113.085,118.314a15.335,15.335,0,0,1-2.385-.3l10.552-6.916a10.1,10.1,0,0,1,1.61.775Z" transform="translate(-110.7 -111.1)" fill="#fffc8f"/>
        </g>
      </g>
    </g>
    <g id="Group_1192" data-name="Group 1192" transform="translate(0 11.924)">
      <g id="Group_1191" data-name="Group 1191">
        <g id="Group_1184" data-name="Group 1184" transform="translate(0 2.504)">
          <ellipse id="Ellipse_239" data-name="Ellipse 239" cx="10.135" cy="4.292" rx="10.135" ry="4.292" fill="#ce7d13"/>
        </g>
        <g id="Group_1185" data-name="Group 1185" transform="translate(0 2.027)">
          <path id="Path_1040" data-name="Path 1040" d="M99.9,109.765v2.087c0,1.789,2.5,3.279,6.081,3.935a13.328,13.328,0,0,0,2.742.3c.417,0,.894.06,1.312.06a21.828,21.828,0,0,0,4.054-.358c3.577-.656,5.425-2.206,5.425-3.994l.656-2.265c-1.431-1.61-5.843-2.027-10.135-2.027C106.577,107.5,101.748,108.633,99.9,109.765Z" transform="translate(-99.9 -107.5)" fill="#ffc50d"/>
        </g>
        <g id="Group_1186" data-name="Group 1186" transform="translate(6.081 6.498)" opacity="0.43">
          <path id="Path_1041" data-name="Path 1041" d="M110.1,115v3.816a13.328,13.328,0,0,0,2.742.3V115Z" transform="translate(-110.1 -115)" fill="#fffc8f"/>
        </g>
        <g id="Group_1187" data-name="Group 1187" transform="translate(13.772 2.206)">
          <path id="Path_1042" data-name="Path 1042" d="M123,115.968V107.8c2.921.238,5.485.715,6.5,1.908v2.265C129.5,113.762,126.756,115.312,123,115.968Z" transform="translate(-123 -107.8)" fill="#f19d00"/>
        </g>
        <g id="Group_1188" data-name="Group 1188">
          <ellipse id="Ellipse_240" data-name="Ellipse 240" cx="10.135" cy="4.292" rx="10.135" ry="4.292" fill="#ffd400"/>
        </g>
        <g id="Group_1189" data-name="Group 1189" transform="translate(0.715 0.06)">
          <path id="Path_1043" data-name="Path 1043" d="M104.737,111.771a7.15,7.15,0,0,1-3.637-2.146l8.168-5.366c.477,0,.954-.06,1.371-.06a20.147,20.147,0,0,1,4.769.537Z" transform="translate(-101.1 -104.2)" fill="#fffc8f"/>
        </g>
        <g id="Group_1190" data-name="Group 1190" transform="translate(6.439 1.192)">
          <path id="Path_1044" data-name="Path 1044" d="M113.085,113.314a15.335,15.335,0,0,1-2.385-.3l10.552-6.916a10.1,10.1,0,0,1,1.61.775Z" transform="translate(-110.7 -106.1)" fill="#fffc8f"/>
        </g>
      </g>
    </g>
    <g id="Group_1201" data-name="Group 1201" transform="translate(0 8.943)">
      <g id="Group_1200" data-name="Group 1200">
        <g id="Group_1193" data-name="Group 1193" transform="translate(0 2.504)">
          <ellipse id="Ellipse_241" data-name="Ellipse 241" cx="10.135" cy="4.292" rx="10.135" ry="4.292" fill="#ce7d13"/>
        </g>
        <g id="Group_1194" data-name="Group 1194" transform="translate(0 2.027)">
          <path id="Path_1045" data-name="Path 1045" d="M99.9,104.765v2.087c0,1.789,2.5,3.279,6.081,3.935a13.329,13.329,0,0,0,2.742.3c.417,0,.894.06,1.312.06a21.829,21.829,0,0,0,4.054-.358c3.577-.656,5.425-2.206,5.425-3.994l.656-2.265c-1.431-1.61-5.843-2.027-10.135-2.027C106.577,102.5,101.748,103.633,99.9,104.765Z" transform="translate(-99.9 -102.5)" fill="#ffc50d"/>
        </g>
        <g id="Group_1195" data-name="Group 1195" transform="translate(6.081 6.498)" opacity="0.43">
          <path id="Path_1046" data-name="Path 1046" d="M110.1,110v3.816a13.329,13.329,0,0,0,2.742.3V110Z" transform="translate(-110.1 -110)" fill="#fffc8f"/>
        </g>
        <g id="Group_1196" data-name="Group 1196" transform="translate(13.772 2.206)">
          <path id="Path_1047" data-name="Path 1047" d="M123,110.968V102.8c2.921.238,5.485.715,6.5,1.908v2.265C129.5,108.762,126.756,110.312,123,110.968Z" transform="translate(-123 -102.8)" fill="#f19d00"/>
        </g>
        <g id="Group_1197" data-name="Group 1197">
          <ellipse id="Ellipse_242" data-name="Ellipse 242" cx="10.135" cy="4.292" rx="10.135" ry="4.292" fill="#ffd400"/>
        </g>
        <g id="Group_1198" data-name="Group 1198" transform="translate(0.715 0.06)">
          <path id="Path_1048" data-name="Path 1048" d="M104.737,106.771a7.15,7.15,0,0,1-3.637-2.146l8.168-5.366c.477,0,.954-.06,1.371-.06a20.147,20.147,0,0,1,4.769.537Z" transform="translate(-101.1 -99.2)" fill="#fffc8f"/>
        </g>
        <g id="Group_1199" data-name="Group 1199" transform="translate(6.439 1.192)">
          <path id="Path_1049" data-name="Path 1049" d="M113.085,108.314a15.336,15.336,0,0,1-2.385-.3l10.552-6.916a10.1,10.1,0,0,1,1.61.775Z" transform="translate(-110.7 -101.1)" fill="#fffc8f"/>
        </g>
      </g>
    </g>
    <g id="Group_1210" data-name="Group 1210" transform="translate(0 5.962)">
      <g id="Group_1209" data-name="Group 1209">
        <g id="Group_1202" data-name="Group 1202" transform="translate(0 2.504)">
          <ellipse id="Ellipse_243" data-name="Ellipse 243" cx="10.135" cy="4.292" rx="10.135" ry="4.292" fill="#ce7d13"/>
        </g>
        <g id="Group_1203" data-name="Group 1203" transform="translate(0 2.027)">
          <path id="Path_1050" data-name="Path 1050" d="M99.9,99.765v2.087c0,1.789,2.5,3.279,6.081,3.935a13.329,13.329,0,0,0,2.742.3c.417,0,.894.06,1.312.06a21.829,21.829,0,0,0,4.054-.358c3.577-.656,5.425-2.206,5.425-3.994l.656-2.265c-1.431-1.61-5.843-2.027-10.135-2.027C106.577,97.5,101.748,98.633,99.9,99.765Z" transform="translate(-99.9 -97.5)" fill="#ffc50d"/>
        </g>
        <g id="Group_1204" data-name="Group 1204" transform="translate(6.081 6.498)" opacity="0.43">
          <path id="Path_1051" data-name="Path 1051" d="M110.1,105v3.816a13.329,13.329,0,0,0,2.742.3V105Z" transform="translate(-110.1 -105)" fill="#fffc8f"/>
        </g>
        <g id="Group_1205" data-name="Group 1205" transform="translate(13.772 2.146)">
          <path id="Path_1052" data-name="Path 1052" d="M123,105.927V97.7c2.921.238,5.485.715,6.5,1.908v2.265C129.5,103.721,126.756,105.271,123,105.927Z" transform="translate(-123 -97.7)" fill="#f19d00"/>
        </g>
        <g id="Group_1206" data-name="Group 1206">
          <ellipse id="Ellipse_244" data-name="Ellipse 244" cx="10.135" cy="4.292" rx="10.135" ry="4.292" fill="#ffd400"/>
        </g>
        <g id="Group_1207" data-name="Group 1207" transform="translate(0.715 0.06)">
          <path id="Path_1053" data-name="Path 1053" d="M104.737,101.771a7.15,7.15,0,0,1-3.637-2.146l8.168-5.366c.477,0,.954-.06,1.371-.06a20.147,20.147,0,0,1,4.769.537Z" transform="translate(-101.1 -94.2)" fill="#fffc8f"/>
        </g>
        <g id="Group_1208" data-name="Group 1208" transform="translate(6.439 1.192)">
          <path id="Path_1054" data-name="Path 1054" d="M113.085,103.314a15.336,15.336,0,0,1-2.385-.3L121.252,96.1a10.1,10.1,0,0,1,1.61.775Z" transform="translate(-110.7 -96.1)" fill="#fffc8f"/>
        </g>
      </g>
    </g>
    <g id="Group_1219" data-name="Group 1219" transform="translate(0 2.981)">
      <g id="Group_1218" data-name="Group 1218">
        <g id="Group_1211" data-name="Group 1211" transform="translate(0 2.504)">
          <ellipse id="Ellipse_245" data-name="Ellipse 245" cx="10.135" cy="4.292" rx="10.135" ry="4.292" fill="#ce7d13"/>
        </g>
        <g id="Group_1212" data-name="Group 1212" transform="translate(0 2.027)">
          <path id="Path_1055" data-name="Path 1055" d="M99.9,94.765v2.087c0,1.789,2.5,3.279,6.081,3.935a13.328,13.328,0,0,0,2.742.3c.417,0,.894.06,1.312.06a21.828,21.828,0,0,0,4.054-.358c3.577-.656,5.425-2.206,5.425-3.994l.656-2.265c-1.431-1.61-5.843-2.027-10.135-2.027C106.577,92.5,101.748,93.633,99.9,94.765Z" transform="translate(-99.9 -92.5)" fill="#ffc50d"/>
        </g>
        <g id="Group_1213" data-name="Group 1213" transform="translate(6.081 6.498)" opacity="0.43">
          <path id="Path_1056" data-name="Path 1056" d="M110.1,100v3.816a13.329,13.329,0,0,0,2.742.3V100Z" transform="translate(-110.1 -100)" fill="#fffc8f"/>
        </g>
        <g id="Group_1214" data-name="Group 1214" transform="translate(13.772 2.146)">
          <path id="Path_1057" data-name="Path 1057" d="M123,100.927V92.7c2.921.238,5.485.715,6.5,1.908v2.265C129.5,98.721,126.756,100.271,123,100.927Z" transform="translate(-123 -92.7)" fill="#f19d00"/>
        </g>
        <g id="Group_1215" data-name="Group 1215">
          <ellipse id="Ellipse_246" data-name="Ellipse 246" cx="10.135" cy="4.292" rx="10.135" ry="4.292" fill="#ffd400"/>
        </g>
        <g id="Group_1216" data-name="Group 1216" transform="translate(0.715 0.06)">
          <path id="Path_1058" data-name="Path 1058" d="M104.737,96.771a7.15,7.15,0,0,1-3.637-2.146l8.168-5.366c.477,0,.954-.06,1.371-.06a20.147,20.147,0,0,1,4.769.537Z" transform="translate(-101.1 -89.2)" fill="#fffc8f"/>
        </g>
        <g id="Group_1217" data-name="Group 1217" transform="translate(6.439 1.192)">
          <path id="Path_1059" data-name="Path 1059" d="M113.085,98.314a15.336,15.336,0,0,1-2.385-.3L121.252,91.1a10.1,10.1,0,0,1,1.61.775Z" transform="translate(-110.7 -91.1)" fill="#fffc8f"/>
        </g>
      </g>
    </g>
    <g id="Group_1228" data-name="Group 1228">
      <g id="Group_1227" data-name="Group 1227">
        <g id="Group_1220" data-name="Group 1220" transform="translate(0 2.504)">
          <ellipse id="Ellipse_247" data-name="Ellipse 247" cx="10.135" cy="4.292" rx="10.135" ry="4.292" fill="#ce7d13"/>
        </g>
        <g id="Group_1221" data-name="Group 1221" transform="translate(0 2.027)">
          <path id="Path_1060" data-name="Path 1060" d="M99.9,89.765v2.087c0,1.789,2.5,3.279,6.081,3.935a13.328,13.328,0,0,0,2.742.3c.417,0,.894.06,1.312.06a21.828,21.828,0,0,0,4.054-.358c3.577-.656,5.425-2.206,5.425-3.994l.656-2.265c-1.431-1.61-5.843-2.027-10.135-2.027C106.577,87.5,101.748,88.633,99.9,89.765Z" transform="translate(-99.9 -87.5)" fill="#ffc50d"/>
        </g>
        <g id="Group_1222" data-name="Group 1222" transform="translate(6.081 6.498)" opacity="0.43">
          <path id="Path_1061" data-name="Path 1061" d="M110.1,95v3.816a13.328,13.328,0,0,0,2.742.3V95Z" transform="translate(-110.1 -95)" fill="#fffc8f"/>
        </g>
        <g id="Group_1223" data-name="Group 1223" transform="translate(13.772 2.146)">
          <path id="Path_1062" data-name="Path 1062" d="M123,95.927V87.7c2.921.238,5.485.715,6.5,1.908v2.265C129.5,93.721,126.756,95.271,123,95.927Z" transform="translate(-123 -87.7)" fill="#f19d00"/>
        </g>
        <g id="Group_1224" data-name="Group 1224">
          <ellipse id="Ellipse_248" data-name="Ellipse 248" cx="10.135" cy="4.292" rx="10.135" ry="4.292" fill="#ffd400"/>
        </g>
        <g id="Group_1225" data-name="Group 1225" transform="translate(0.715 0.06)">
          <path id="Path_1063" data-name="Path 1063" d="M104.737,91.771a7.15,7.15,0,0,1-3.637-2.146l8.168-5.366c.477,0,.954-.06,1.371-.06a20.147,20.147,0,0,1,4.769.537Z" transform="translate(-101.1 -84.2)" fill="#fffc8f"/>
        </g>
        <g id="Group_1226" data-name="Group 1226" transform="translate(6.439 1.192)">
          <path id="Path_1064" data-name="Path 1064" d="M113.085,93.314a15.334,15.334,0,0,1-2.385-.3L121.252,86.1a10.1,10.1,0,0,1,1.61.775Z" transform="translate(-110.7 -86.1)" fill="#fffc8f"/>
        </g>
      </g>
    </g>
  </g>
</svg>
