<svg id="money2" xmlns="http://www.w3.org/2000/svg" width="83.092" height="81.925" viewBox="0 0 83.092 81.925">
  <path id="Path_370" data-name="Path 370" d="M104.1,73.227A2.056,2.056,0,0,1,103.694,72c0-2.334,4.435-4.2,9.92-4.2s9.92,1.867,9.92,4.2a2.549,2.549,0,0,1-.408,1.225h0L111.4,87.464,97.1,71.943Z" transform="translate(-40.441 -28.238)" opacity="0.35"/>
  <g id="Group_301" data-name="Group 301" transform="translate(42.246 56.134)" opacity="0.25">
    <path id="Path_371" data-name="Path 371" d="M82.495,116.448,99.475,96.2H72.4Z" transform="translate(-72.4 -96.2)" opacity="0.72"/>
  </g>
  <g id="Group_446" data-name="Group 446" transform="translate(36.819 0)">
    <g id="Group_310" data-name="Group 310" transform="translate(0 43.763)">
      <g id="Group_309" data-name="Group 309">
        <g id="Group_302" data-name="Group 302" transform="translate(0 2.451)">
          <ellipse id="Ellipse_71" data-name="Ellipse 71" cx="9.92" cy="4.201" rx="9.92" ry="4.201" fill="#ce7d13"/>
        </g>
        <g id="Group_303" data-name="Group 303" transform="translate(0 1.984)">
          <path id="Path_372" data-name="Path 372" d="M63.1,80.617V82.66c0,1.751,2.451,3.209,5.952,3.851a13.044,13.044,0,0,0,2.684.292c.408,0,.875.058,1.284.058a21.363,21.363,0,0,0,3.968-.35c3.5-.642,5.31-2.159,5.31-3.91l.642-2.217c-1.4-1.575-5.718-1.984-9.92-1.984C69.635,78.458,64.909,79.567,63.1,80.617Z" transform="translate(-63.1 -78.4)" fill="#ffc50d"/>
        </g>
        <g id="Group_304" data-name="Group 304" transform="translate(5.952 6.36)" opacity="0.43">
          <path id="Path_373" data-name="Path 373" d="M73.3,85.9v3.734a13.045,13.045,0,0,0,2.684.292V85.9Z" transform="translate(-73.3 -85.9)" fill="#fffc8f"/>
        </g>
        <g id="Group_305" data-name="Group 305" transform="translate(13.479 2.101)">
          <path id="Path_374" data-name="Path 374" d="M86.2,86.652V78.6c2.859.233,5.368.7,6.36,1.867v2.217C92.56,84.493,89.934,86.069,86.2,86.652Z" transform="translate(-86.2 -78.6)" fill="#f19d00"/>
        </g>
        <g id="Group_306" data-name="Group 306">
          <ellipse id="Ellipse_72" data-name="Ellipse 72" cx="9.92" cy="4.201" rx="9.92" ry="4.201" fill="#ffd400"/>
        </g>
        <g id="Group_307" data-name="Group 307" transform="translate(0.7 0.117)">
          <path id="Path_375" data-name="Path 375" d="M67.859,82.611a7,7,0,0,1-3.559-2.1l7.994-5.252c.467,0,.934-.058,1.342-.058a19.719,19.719,0,0,1,4.668.525Z" transform="translate(-64.3 -75.2)" fill="#fffc8f"/>
        </g>
        <g id="Group_308" data-name="Group 308" transform="translate(6.302 1.167)">
          <path id="Path_376" data-name="Path 376" d="M76.234,84.06a15.008,15.008,0,0,1-2.334-.292L84.228,77a9.883,9.883,0,0,1,1.575.759Z" transform="translate(-73.9 -77)" fill="#fffc8f"/>
        </g>
      </g>
    </g>
    <g id="Group_319" data-name="Group 319" transform="translate(0 40.846)">
      <g id="Group_318" data-name="Group 318">
        <g id="Group_311" data-name="Group 311" transform="translate(0 2.451)">
          <ellipse id="Ellipse_73" data-name="Ellipse 73" cx="9.92" cy="4.201" rx="9.92" ry="4.201" fill="#ce7d13"/>
        </g>
        <g id="Group_312" data-name="Group 312" transform="translate(0 1.984)">
          <path id="Path_377" data-name="Path 377" d="M63.1,75.617V77.66c0,1.751,2.451,3.209,5.952,3.851a13.045,13.045,0,0,0,2.684.292c.408,0,.875.058,1.284.058a21.365,21.365,0,0,0,3.968-.35c3.5-.642,5.31-2.159,5.31-3.91l.642-2.217c-1.4-1.575-5.718-1.984-9.92-1.984C69.635,73.458,64.909,74.567,63.1,75.617Z" transform="translate(-63.1 -73.4)" fill="#ffc50d"/>
        </g>
        <g id="Group_313" data-name="Group 313" transform="translate(5.952 6.36)" opacity="0.43">
          <path id="Path_378" data-name="Path 378" d="M73.3,80.9v3.734a13.045,13.045,0,0,0,2.684.292V80.9Z" transform="translate(-73.3 -80.9)" fill="#fffc8f"/>
        </g>
        <g id="Group_314" data-name="Group 314" transform="translate(13.479 2.101)">
          <path id="Path_379" data-name="Path 379" d="M86.2,81.652V73.6c2.859.233,5.368.7,6.36,1.867v2.217C92.56,79.493,89.934,81.069,86.2,81.652Z" transform="translate(-86.2 -73.6)" fill="#f19d00"/>
        </g>
        <g id="Group_315" data-name="Group 315">
          <ellipse id="Ellipse_74" data-name="Ellipse 74" cx="9.92" cy="4.201" rx="9.92" ry="4.201" fill="#ffd400"/>
        </g>
        <g id="Group_316" data-name="Group 316" transform="translate(0.7 0.117)">
          <path id="Path_380" data-name="Path 380" d="M67.859,77.611a7,7,0,0,1-3.559-2.1l7.994-5.252c.467,0,.934-.058,1.342-.058a19.719,19.719,0,0,1,4.668.525Z" transform="translate(-64.3 -70.2)" fill="#fffc8f"/>
        </g>
        <g id="Group_317" data-name="Group 317" transform="translate(6.302 1.167)">
          <path id="Path_381" data-name="Path 381" d="M76.234,79.06a15.008,15.008,0,0,1-2.334-.292L84.228,72a9.883,9.883,0,0,1,1.575.759Z" transform="translate(-73.9 -72)" fill="#fffc8f"/>
        </g>
      </g>
    </g>
    <g id="Group_328" data-name="Group 328" transform="translate(0 37.928)">
      <g id="Group_327" data-name="Group 327">
        <g id="Group_320" data-name="Group 320" transform="translate(0 2.451)">
          <ellipse id="Ellipse_75" data-name="Ellipse 75" cx="9.92" cy="4.201" rx="9.92" ry="4.201" fill="#ce7d13"/>
        </g>
        <g id="Group_321" data-name="Group 321" transform="translate(0 1.984)">
          <path id="Path_382" data-name="Path 382" d="M63.1,70.617V72.66c0,1.751,2.451,3.209,5.952,3.851a13.045,13.045,0,0,0,2.684.292c.408,0,.875.058,1.284.058a21.364,21.364,0,0,0,3.968-.35c3.5-.642,5.31-2.159,5.31-3.91l.642-2.217c-1.4-1.575-5.718-1.984-9.92-1.984C69.635,68.458,64.909,69.567,63.1,70.617Z" transform="translate(-63.1 -68.4)" fill="#ffc50d"/>
        </g>
        <g id="Group_322" data-name="Group 322" transform="translate(5.952 6.36)" opacity="0.43">
          <path id="Path_383" data-name="Path 383" d="M73.3,75.9v3.734a13.045,13.045,0,0,0,2.684.292V75.9Z" transform="translate(-73.3 -75.9)" fill="#fffc8f"/>
        </g>
        <g id="Group_323" data-name="Group 323" transform="translate(13.479 2.101)">
          <path id="Path_384" data-name="Path 384" d="M86.2,76.652V68.6c2.859.233,5.368.7,6.36,1.867v2.217C92.56,74.493,89.934,76.069,86.2,76.652Z" transform="translate(-86.2 -68.6)" fill="#f19d00"/>
        </g>
        <g id="Group_324" data-name="Group 324">
          <ellipse id="Ellipse_76" data-name="Ellipse 76" cx="9.92" cy="4.201" rx="9.92" ry="4.201" fill="#ffd400"/>
        </g>
        <g id="Group_325" data-name="Group 325" transform="translate(0.7 0.117)">
          <path id="Path_385" data-name="Path 385" d="M67.859,72.611a7,7,0,0,1-3.559-2.1l7.994-5.252c.467,0,.934-.058,1.342-.058a19.719,19.719,0,0,1,4.668.525Z" transform="translate(-64.3 -65.2)" fill="#fffc8f"/>
        </g>
        <g id="Group_326" data-name="Group 326" transform="translate(6.302 1.167)">
          <path id="Path_386" data-name="Path 386" d="M76.234,74.06a15.008,15.008,0,0,1-2.334-.292L84.228,67a9.884,9.884,0,0,1,1.575.759Z" transform="translate(-73.9 -67)" fill="#fffc8f"/>
        </g>
      </g>
    </g>
    <g id="Group_337" data-name="Group 337" transform="translate(0 35.011)">
      <g id="Group_336" data-name="Group 336">
        <g id="Group_329" data-name="Group 329" transform="translate(0 2.451)">
          <ellipse id="Ellipse_77" data-name="Ellipse 77" cx="9.92" cy="4.201" rx="9.92" ry="4.201" fill="#ce7d13"/>
        </g>
        <g id="Group_330" data-name="Group 330" transform="translate(0 1.984)">
          <path id="Path_387" data-name="Path 387" d="M63.1,65.617V67.66c0,1.751,2.451,3.209,5.952,3.851a13.045,13.045,0,0,0,2.684.292c.408,0,.875.058,1.284.058a21.364,21.364,0,0,0,3.968-.35c3.5-.642,5.31-2.159,5.31-3.91l.642-2.217c-1.4-1.575-5.718-1.984-9.92-1.984C69.635,63.458,64.909,64.567,63.1,65.617Z" transform="translate(-63.1 -63.4)" fill="#ffc50d"/>
        </g>
        <g id="Group_331" data-name="Group 331" transform="translate(5.952 6.36)" opacity="0.43">
          <path id="Path_388" data-name="Path 388" d="M73.3,70.9v3.734a13.045,13.045,0,0,0,2.684.292V70.9Z" transform="translate(-73.3 -70.9)" fill="#fffc8f"/>
        </g>
        <g id="Group_332" data-name="Group 332" transform="translate(13.479 2.101)">
          <path id="Path_389" data-name="Path 389" d="M86.2,71.652V63.6c2.859.233,5.368.7,6.36,1.867v2.217C92.56,69.493,89.934,71.069,86.2,71.652Z" transform="translate(-86.2 -63.6)" fill="#f19d00"/>
        </g>
        <g id="Group_333" data-name="Group 333">
          <ellipse id="Ellipse_78" data-name="Ellipse 78" cx="9.92" cy="4.201" rx="9.92" ry="4.201" fill="#ffd400"/>
        </g>
        <g id="Group_334" data-name="Group 334" transform="translate(0.7 0.117)">
          <path id="Path_390" data-name="Path 390" d="M67.859,67.611a7,7,0,0,1-3.559-2.1l7.994-5.252c.467,0,.934-.058,1.342-.058a19.719,19.719,0,0,1,4.668.525Z" transform="translate(-64.3 -60.2)" fill="#fffc8f"/>
        </g>
        <g id="Group_335" data-name="Group 335" transform="translate(6.302 1.167)">
          <path id="Path_391" data-name="Path 391" d="M76.234,69.06a15.008,15.008,0,0,1-2.334-.292L84.228,62a9.883,9.883,0,0,1,1.575.759Z" transform="translate(-73.9 -62)" fill="#fffc8f"/>
        </g>
      </g>
    </g>
    <g id="Group_346" data-name="Group 346" transform="translate(0 32.093)">
      <g id="Group_345" data-name="Group 345">
        <g id="Group_338" data-name="Group 338" transform="translate(0 2.451)">
          <ellipse id="Ellipse_79" data-name="Ellipse 79" cx="9.92" cy="4.201" rx="9.92" ry="4.201" fill="#ce7d13"/>
        </g>
        <g id="Group_339" data-name="Group 339" transform="translate(0 1.984)">
          <path id="Path_392" data-name="Path 392" d="M63.1,60.617V62.66c0,1.751,2.451,3.209,5.952,3.851a13.045,13.045,0,0,0,2.684.292c.408,0,.875.058,1.284.058a21.364,21.364,0,0,0,3.968-.35c3.5-.642,5.31-2.159,5.31-3.91l.642-2.217c-1.4-1.575-5.718-1.984-9.92-1.984C69.635,58.458,64.909,59.567,63.1,60.617Z" transform="translate(-63.1 -58.4)" fill="#ffc50d"/>
        </g>
        <g id="Group_340" data-name="Group 340" transform="translate(5.952 6.36)" opacity="0.43">
          <path id="Path_393" data-name="Path 393" d="M73.3,65.9v3.734a13.045,13.045,0,0,0,2.684.292V65.9Z" transform="translate(-73.3 -65.9)" fill="#fffc8f"/>
        </g>
        <g id="Group_341" data-name="Group 341" transform="translate(13.479 2.101)">
          <path id="Path_394" data-name="Path 394" d="M86.2,66.652V58.6c2.859.233,5.368.7,6.36,1.867v2.217C92.56,64.493,89.934,66.069,86.2,66.652Z" transform="translate(-86.2 -58.6)" fill="#f19d00"/>
        </g>
        <g id="Group_342" data-name="Group 342">
          <ellipse id="Ellipse_80" data-name="Ellipse 80" cx="9.92" cy="4.201" rx="9.92" ry="4.201" fill="#ffd400"/>
        </g>
        <g id="Group_343" data-name="Group 343" transform="translate(0.7 0.117)">
          <path id="Path_395" data-name="Path 395" d="M67.859,62.611a7,7,0,0,1-3.559-2.1l7.994-5.252c.467,0,.934-.058,1.342-.058a19.719,19.719,0,0,1,4.668.525Z" transform="translate(-64.3 -55.2)" fill="#fffc8f"/>
        </g>
        <g id="Group_344" data-name="Group 344" transform="translate(6.302 1.167)">
          <path id="Path_396" data-name="Path 396" d="M76.234,64.06a15.009,15.009,0,0,1-2.334-.292L84.228,57a9.884,9.884,0,0,1,1.575.759Z" transform="translate(-73.9 -57)" fill="#fffc8f"/>
        </g>
      </g>
    </g>
    <g id="Group_355" data-name="Group 355" transform="translate(0 29.175)">
      <g id="Group_354" data-name="Group 354">
        <g id="Group_347" data-name="Group 347" transform="translate(0 2.451)">
          <ellipse id="Ellipse_81" data-name="Ellipse 81" cx="9.92" cy="4.201" rx="9.92" ry="4.201" fill="#ce7d13"/>
        </g>
        <g id="Group_348" data-name="Group 348" transform="translate(0 1.984)">
          <path id="Path_397" data-name="Path 397" d="M63.1,55.617V57.66c0,1.751,2.451,3.209,5.952,3.851a13.045,13.045,0,0,0,2.684.292c.408,0,.875.058,1.284.058a21.364,21.364,0,0,0,3.968-.35c3.5-.642,5.31-2.159,5.31-3.91l.642-2.217c-1.4-1.575-5.718-1.984-9.92-1.984C69.635,53.458,64.909,54.567,63.1,55.617Z" transform="translate(-63.1 -53.4)" fill="#ffc50d"/>
        </g>
        <g id="Group_349" data-name="Group 349" transform="translate(5.952 6.36)" opacity="0.43">
          <path id="Path_398" data-name="Path 398" d="M73.3,60.9v3.734a13.045,13.045,0,0,0,2.684.292V60.9Z" transform="translate(-73.3 -60.9)" fill="#fffc8f"/>
        </g>
        <g id="Group_350" data-name="Group 350" transform="translate(13.479 2.101)">
          <path id="Path_399" data-name="Path 399" d="M86.2,61.652V53.6c2.859.233,5.368.7,6.36,1.867v2.217C92.56,59.493,89.934,61.069,86.2,61.652Z" transform="translate(-86.2 -53.6)" fill="#f19d00"/>
        </g>
        <g id="Group_351" data-name="Group 351">
          <ellipse id="Ellipse_82" data-name="Ellipse 82" cx="9.92" cy="4.201" rx="9.92" ry="4.201" fill="#ffd400"/>
        </g>
        <g id="Group_352" data-name="Group 352" transform="translate(0.7 0.117)">
          <path id="Path_400" data-name="Path 400" d="M67.859,57.611a7,7,0,0,1-3.559-2.1l7.994-5.252c.467,0,.934-.058,1.342-.058a19.719,19.719,0,0,1,4.668.525Z" transform="translate(-64.3 -50.2)" fill="#fffc8f"/>
        </g>
        <g id="Group_353" data-name="Group 353" transform="translate(6.302 1.167)">
          <path id="Path_401" data-name="Path 401" d="M76.234,59.06a15.009,15.009,0,0,1-2.334-.292L84.228,52a9.883,9.883,0,0,1,1.575.759Z" transform="translate(-73.9 -52)" fill="#fffc8f"/>
        </g>
      </g>
    </g>
    <g id="Group_364" data-name="Group 364" transform="translate(0 26.258)">
      <g id="Group_363" data-name="Group 363">
        <g id="Group_356" data-name="Group 356" transform="translate(0 2.451)">
          <ellipse id="Ellipse_83" data-name="Ellipse 83" cx="9.92" cy="4.201" rx="9.92" ry="4.201" fill="#ce7d13"/>
        </g>
        <g id="Group_357" data-name="Group 357" transform="translate(0 1.984)">
          <path id="Path_402" data-name="Path 402" d="M63.1,50.617V52.66c0,1.751,2.451,3.209,5.952,3.851a13.045,13.045,0,0,0,2.684.292c.408,0,.875.058,1.284.058a21.364,21.364,0,0,0,3.968-.35c3.5-.642,5.31-2.159,5.31-3.91l.642-2.217c-1.4-1.575-5.718-1.984-9.92-1.984C69.635,48.458,64.909,49.567,63.1,50.617Z" transform="translate(-63.1 -48.4)" fill="#ffc50d"/>
        </g>
        <g id="Group_358" data-name="Group 358" transform="translate(5.952 6.36)" opacity="0.43">
          <path id="Path_403" data-name="Path 403" d="M73.3,55.9v3.734a13.045,13.045,0,0,0,2.684.292V55.9Z" transform="translate(-73.3 -55.9)" fill="#fffc8f"/>
        </g>
        <g id="Group_359" data-name="Group 359" transform="translate(13.479 2.101)">
          <path id="Path_404" data-name="Path 404" d="M86.2,56.652V48.6c2.859.233,5.368.7,6.36,1.867v2.217C92.56,54.493,89.934,56.069,86.2,56.652Z" transform="translate(-86.2 -48.6)" fill="#f19d00"/>
        </g>
        <g id="Group_360" data-name="Group 360">
          <ellipse id="Ellipse_84" data-name="Ellipse 84" cx="9.92" cy="4.201" rx="9.92" ry="4.201" fill="#ffd400"/>
        </g>
        <g id="Group_361" data-name="Group 361" transform="translate(0.7 0.117)">
          <path id="Path_405" data-name="Path 405" d="M67.859,52.611a7,7,0,0,1-3.559-2.1l7.994-5.252c.467,0,.934-.058,1.342-.058a19.719,19.719,0,0,1,4.668.525Z" transform="translate(-64.3 -45.2)" fill="#fffc8f"/>
        </g>
        <g id="Group_362" data-name="Group 362" transform="translate(6.302 1.167)">
          <path id="Path_406" data-name="Path 406" d="M76.234,54.06a15.009,15.009,0,0,1-2.334-.292L84.228,47a9.883,9.883,0,0,1,1.575.759Z" transform="translate(-73.9 -47)" fill="#fffc8f"/>
        </g>
      </g>
    </g>
    <g id="Group_373" data-name="Group 373" transform="translate(0 23.34)">
      <g id="Group_372" data-name="Group 372">
        <g id="Group_365" data-name="Group 365" transform="translate(0 2.451)">
          <ellipse id="Ellipse_85" data-name="Ellipse 85" cx="9.92" cy="4.201" rx="9.92" ry="4.201" fill="#ce7d13"/>
        </g>
        <g id="Group_366" data-name="Group 366" transform="translate(0 1.984)">
          <path id="Path_407" data-name="Path 407" d="M63.1,45.617V47.66c0,1.751,2.451,3.209,5.952,3.851a13.045,13.045,0,0,0,2.684.292c.408,0,.875.058,1.284.058a21.364,21.364,0,0,0,3.968-.35c3.5-.642,5.31-2.159,5.31-3.91l.642-2.217c-1.4-1.575-5.718-1.984-9.92-1.984C69.635,43.458,64.909,44.567,63.1,45.617Z" transform="translate(-63.1 -43.4)" fill="#ffc50d"/>
        </g>
        <g id="Group_367" data-name="Group 367" transform="translate(5.952 6.36)" opacity="0.43">
          <path id="Path_408" data-name="Path 408" d="M73.3,50.9v3.734a13.045,13.045,0,0,0,2.684.292V50.9Z" transform="translate(-73.3 -50.9)" fill="#fffc8f"/>
        </g>
        <g id="Group_368" data-name="Group 368" transform="translate(13.479 2.101)">
          <path id="Path_409" data-name="Path 409" d="M86.2,51.652V43.6c2.859.233,5.368.7,6.36,1.867v2.217C92.56,49.493,89.934,51.069,86.2,51.652Z" transform="translate(-86.2 -43.6)" fill="#f19d00"/>
        </g>
        <g id="Group_369" data-name="Group 369">
          <ellipse id="Ellipse_86" data-name="Ellipse 86" cx="9.92" cy="4.201" rx="9.92" ry="4.201" fill="#ffd400"/>
        </g>
        <g id="Group_370" data-name="Group 370" transform="translate(0.7 0.117)">
          <path id="Path_410" data-name="Path 410" d="M67.859,47.611a7,7,0,0,1-3.559-2.1l7.994-5.252c.467,0,.934-.058,1.342-.058a19.719,19.719,0,0,1,4.668.525Z" transform="translate(-64.3 -40.2)" fill="#fffc8f"/>
        </g>
        <g id="Group_371" data-name="Group 371" transform="translate(6.302 1.167)">
          <path id="Path_411" data-name="Path 411" d="M76.234,49.06a15.01,15.01,0,0,1-2.334-.292L84.228,42a9.884,9.884,0,0,1,1.575.759Z" transform="translate(-73.9 -42)" fill="#fffc8f"/>
        </g>
      </g>
    </g>
    <g id="Group_382" data-name="Group 382" transform="translate(0 20.423)">
      <g id="Group_381" data-name="Group 381">
        <g id="Group_374" data-name="Group 374" transform="translate(0 2.451)">
          <ellipse id="Ellipse_87" data-name="Ellipse 87" cx="9.92" cy="4.201" rx="9.92" ry="4.201" fill="#ce7d13"/>
        </g>
        <g id="Group_375" data-name="Group 375" transform="translate(0 1.984)">
          <path id="Path_412" data-name="Path 412" d="M63.1,40.617V42.66c0,1.751,2.451,3.209,5.952,3.851a13.045,13.045,0,0,0,2.684.292c.408,0,.875.058,1.284.058a21.365,21.365,0,0,0,3.968-.35c3.5-.642,5.31-2.159,5.31-3.91l.642-2.217c-1.4-1.575-5.718-1.984-9.92-1.984C69.635,38.458,64.909,39.567,63.1,40.617Z" transform="translate(-63.1 -38.4)" fill="#ffc50d"/>
        </g>
        <g id="Group_376" data-name="Group 376" transform="translate(5.952 6.36)" opacity="0.43">
          <path id="Path_413" data-name="Path 413" d="M73.3,45.9v3.734a13.045,13.045,0,0,0,2.684.292V45.9Z" transform="translate(-73.3 -45.9)" fill="#fffc8f"/>
        </g>
        <g id="Group_377" data-name="Group 377" transform="translate(13.479 2.101)">
          <path id="Path_414" data-name="Path 414" d="M86.2,46.652V38.6c2.859.233,5.368.7,6.36,1.867v2.217C92.56,44.493,89.934,46.069,86.2,46.652Z" transform="translate(-86.2 -38.6)" fill="#f19d00"/>
        </g>
        <g id="Group_378" data-name="Group 378">
          <ellipse id="Ellipse_88" data-name="Ellipse 88" cx="9.92" cy="4.201" rx="9.92" ry="4.201" fill="#ffd400"/>
        </g>
        <g id="Group_379" data-name="Group 379" transform="translate(0.7 0.117)">
          <path id="Path_415" data-name="Path 415" d="M67.859,42.611a7,7,0,0,1-3.559-2.1l7.994-5.252c.467,0,.934-.058,1.342-.058a19.719,19.719,0,0,1,4.668.525Z" transform="translate(-64.3 -35.2)" fill="#fffc8f"/>
        </g>
        <g id="Group_380" data-name="Group 380" transform="translate(6.302 1.167)">
          <path id="Path_416" data-name="Path 416" d="M76.234,44.06a15.01,15.01,0,0,1-2.334-.292L84.228,37a9.884,9.884,0,0,1,1.575.759Z" transform="translate(-73.9 -37)" fill="#fffc8f"/>
        </g>
      </g>
    </g>
    <g id="Group_391" data-name="Group 391" transform="translate(0 17.505)">
      <g id="Group_390" data-name="Group 390">
        <g id="Group_383" data-name="Group 383" transform="translate(0 2.451)">
          <ellipse id="Ellipse_89" data-name="Ellipse 89" cx="9.92" cy="4.201" rx="9.92" ry="4.201" fill="#ce7d13"/>
        </g>
        <g id="Group_384" data-name="Group 384" transform="translate(0 1.984)">
          <path id="Path_417" data-name="Path 417" d="M63.1,35.617V37.66c0,1.751,2.451,3.209,5.952,3.851a13.045,13.045,0,0,0,2.684.292c.408,0,.875.058,1.284.058a21.364,21.364,0,0,0,3.968-.35c3.5-.642,5.31-2.159,5.31-3.91l.642-2.217c-1.4-1.575-5.718-1.984-9.92-1.984C69.635,33.458,64.909,34.567,63.1,35.617Z" transform="translate(-63.1 -33.4)" fill="#ffc50d"/>
        </g>
        <g id="Group_385" data-name="Group 385" transform="translate(5.952 6.36)" opacity="0.43">
          <path id="Path_418" data-name="Path 418" d="M73.3,40.9v3.734a13.045,13.045,0,0,0,2.684.292V40.9Z" transform="translate(-73.3 -40.9)" fill="#fffc8f"/>
        </g>
        <g id="Group_386" data-name="Group 386" transform="translate(13.479 2.101)">
          <path id="Path_419" data-name="Path 419" d="M86.2,41.652V33.6c2.859.233,5.368.7,6.36,1.867v2.217C92.56,39.493,89.934,41.069,86.2,41.652Z" transform="translate(-86.2 -33.6)" fill="#f19d00"/>
        </g>
        <g id="Group_387" data-name="Group 387">
          <ellipse id="Ellipse_90" data-name="Ellipse 90" cx="9.92" cy="4.201" rx="9.92" ry="4.201" fill="#ffd400"/>
        </g>
        <g id="Group_388" data-name="Group 388" transform="translate(0.7 0.117)">
          <path id="Path_420" data-name="Path 420" d="M67.859,37.611a7,7,0,0,1-3.559-2.1l7.994-5.252c.467,0,.934-.058,1.342-.058a19.719,19.719,0,0,1,4.668.525Z" transform="translate(-64.3 -30.2)" fill="#fffc8f"/>
        </g>
        <g id="Group_389" data-name="Group 389" transform="translate(6.302 1.167)">
          <path id="Path_421" data-name="Path 421" d="M76.234,39.06a15.01,15.01,0,0,1-2.334-.292L84.228,32a9.883,9.883,0,0,1,1.575.759Z" transform="translate(-73.9 -32)" fill="#fffc8f"/>
        </g>
      </g>
    </g>
    <g id="Group_400" data-name="Group 400" transform="translate(0 14.588)">
      <g id="Group_399" data-name="Group 399">
        <g id="Group_392" data-name="Group 392" transform="translate(0 2.451)">
          <ellipse id="Ellipse_91" data-name="Ellipse 91" cx="9.92" cy="4.201" rx="9.92" ry="4.201" fill="#ce7d13"/>
        </g>
        <g id="Group_393" data-name="Group 393" transform="translate(0 1.984)">
          <path id="Path_422" data-name="Path 422" d="M63.1,30.617V32.66c0,1.751,2.451,3.209,5.952,3.851a13.045,13.045,0,0,0,2.684.292c.408,0,.875.058,1.284.058a21.364,21.364,0,0,0,3.968-.35c3.5-.642,5.31-2.159,5.31-3.91l.642-2.217c-1.4-1.575-5.718-1.984-9.92-1.984C69.635,28.458,64.909,29.567,63.1,30.617Z" transform="translate(-63.1 -28.4)" fill="#ffc50d"/>
        </g>
        <g id="Group_394" data-name="Group 394" transform="translate(5.952 6.36)" opacity="0.43">
          <path id="Path_423" data-name="Path 423" d="M73.3,35.9v3.734a13.045,13.045,0,0,0,2.684.292V35.9Z" transform="translate(-73.3 -35.9)" fill="#fffc8f"/>
        </g>
        <g id="Group_395" data-name="Group 395" transform="translate(13.479 2.101)">
          <path id="Path_424" data-name="Path 424" d="M86.2,36.652V28.6c2.859.233,5.368.7,6.36,1.867v2.217C92.56,34.493,89.934,36.069,86.2,36.652Z" transform="translate(-86.2 -28.6)" fill="#f19d00"/>
        </g>
        <g id="Group_396" data-name="Group 396">
          <ellipse id="Ellipse_92" data-name="Ellipse 92" cx="9.92" cy="4.201" rx="9.92" ry="4.201" fill="#ffd400"/>
        </g>
        <g id="Group_397" data-name="Group 397" transform="translate(0.7 0.117)">
          <path id="Path_425" data-name="Path 425" d="M67.859,32.611a7,7,0,0,1-3.559-2.1l7.994-5.252c.467,0,.934-.058,1.342-.058a19.719,19.719,0,0,1,4.668.525Z" transform="translate(-64.3 -25.2)" fill="#fffc8f"/>
        </g>
        <g id="Group_398" data-name="Group 398" transform="translate(6.302 1.167)">
          <path id="Path_426" data-name="Path 426" d="M76.234,34.06a15.01,15.01,0,0,1-2.334-.292L84.228,27a9.883,9.883,0,0,1,1.575.759Z" transform="translate(-73.9 -27)" fill="#fffc8f"/>
        </g>
      </g>
    </g>
    <g id="Group_409" data-name="Group 409" transform="translate(0 11.67)">
      <g id="Group_408" data-name="Group 408">
        <g id="Group_401" data-name="Group 401" transform="translate(0 2.451)">
          <ellipse id="Ellipse_93" data-name="Ellipse 93" cx="9.92" cy="4.201" rx="9.92" ry="4.201" fill="#ce7d13"/>
        </g>
        <g id="Group_402" data-name="Group 402" transform="translate(0 1.984)">
          <path id="Path_427" data-name="Path 427" d="M63.1,25.617V27.66c0,1.751,2.451,3.209,5.952,3.851a13.045,13.045,0,0,0,2.684.292c.408,0,.875.058,1.284.058a21.365,21.365,0,0,0,3.968-.35c3.5-.642,5.31-2.159,5.31-3.91l.642-2.217c-1.4-1.575-5.718-1.984-9.92-1.984C69.635,23.458,64.909,24.567,63.1,25.617Z" transform="translate(-63.1 -23.4)" fill="#ffc50d"/>
        </g>
        <g id="Group_403" data-name="Group 403" transform="translate(5.952 6.36)" opacity="0.43">
          <path id="Path_428" data-name="Path 428" d="M73.3,30.9v3.734a13.045,13.045,0,0,0,2.684.292V30.9Z" transform="translate(-73.3 -30.9)" fill="#fffc8f"/>
        </g>
        <g id="Group_404" data-name="Group 404" transform="translate(13.479 2.101)">
          <path id="Path_429" data-name="Path 429" d="M86.2,31.652V23.6c2.859.233,5.368.7,6.36,1.867v2.217C92.56,29.493,89.934,31.069,86.2,31.652Z" transform="translate(-86.2 -23.6)" fill="#f19d00"/>
        </g>
        <g id="Group_405" data-name="Group 405">
          <ellipse id="Ellipse_94" data-name="Ellipse 94" cx="9.92" cy="4.201" rx="9.92" ry="4.201" fill="#ffd400"/>
        </g>
        <g id="Group_406" data-name="Group 406" transform="translate(0.7 0.117)">
          <path id="Path_430" data-name="Path 430" d="M67.859,27.611a7,7,0,0,1-3.559-2.1l7.994-5.252c.467,0,.934-.058,1.342-.058a19.719,19.719,0,0,1,4.668.525Z" transform="translate(-64.3 -20.2)" fill="#fffc8f"/>
        </g>
        <g id="Group_407" data-name="Group 407" transform="translate(6.302 1.167)">
          <path id="Path_431" data-name="Path 431" d="M76.234,29.06a15.01,15.01,0,0,1-2.334-.292L84.228,22a9.883,9.883,0,0,1,1.575.759Z" transform="translate(-73.9 -22)" fill="#fffc8f"/>
        </g>
      </g>
    </g>
    <g id="Group_418" data-name="Group 418" transform="translate(0 8.753)">
      <g id="Group_417" data-name="Group 417">
        <g id="Group_410" data-name="Group 410" transform="translate(0 2.451)">
          <ellipse id="Ellipse_95" data-name="Ellipse 95" cx="9.92" cy="4.201" rx="9.92" ry="4.201" fill="#ce7d13"/>
        </g>
        <g id="Group_411" data-name="Group 411" transform="translate(0 1.984)">
          <path id="Path_432" data-name="Path 432" d="M63.1,20.617V22.66c0,1.751,2.451,3.209,5.952,3.851a13.045,13.045,0,0,0,2.684.292c.408,0,.875.058,1.284.058a21.364,21.364,0,0,0,3.968-.35c3.5-.642,5.31-2.159,5.31-3.91l.642-2.217c-1.4-1.575-5.718-1.984-9.92-1.984C69.635,18.458,64.909,19.567,63.1,20.617Z" transform="translate(-63.1 -18.4)" fill="#ffc50d"/>
        </g>
        <g id="Group_412" data-name="Group 412" transform="translate(5.952 6.36)" opacity="0.43">
          <path id="Path_433" data-name="Path 433" d="M73.3,25.9v3.734a13.045,13.045,0,0,0,2.684.292V25.9Z" transform="translate(-73.3 -25.9)" fill="#fffc8f"/>
        </g>
        <g id="Group_413" data-name="Group 413" transform="translate(13.479 2.101)">
          <path id="Path_434" data-name="Path 434" d="M86.2,26.652V18.6c2.859.233,5.368.7,6.36,1.867v2.217C92.56,24.493,89.934,26.069,86.2,26.652Z" transform="translate(-86.2 -18.6)" fill="#f19d00"/>
        </g>
        <g id="Group_414" data-name="Group 414">
          <ellipse id="Ellipse_96" data-name="Ellipse 96" cx="9.92" cy="4.201" rx="9.92" ry="4.201" fill="#ffd400"/>
        </g>
        <g id="Group_415" data-name="Group 415" transform="translate(0.7 0.117)">
          <path id="Path_435" data-name="Path 435" d="M67.859,22.611a7,7,0,0,1-3.559-2.1l7.994-5.252c.467,0,.934-.058,1.342-.058a19.719,19.719,0,0,1,4.668.525Z" transform="translate(-64.3 -15.2)" fill="#fffc8f"/>
        </g>
        <g id="Group_416" data-name="Group 416" transform="translate(6.302 1.167)">
          <path id="Path_436" data-name="Path 436" d="M76.234,24.06a15.01,15.01,0,0,1-2.334-.292L84.228,17a9.883,9.883,0,0,1,1.575.759Z" transform="translate(-73.9 -17)" fill="#fffc8f"/>
        </g>
      </g>
    </g>
    <g id="Group_427" data-name="Group 427" transform="translate(0 5.835)">
      <g id="Group_426" data-name="Group 426">
        <g id="Group_419" data-name="Group 419" transform="translate(0 2.451)">
          <ellipse id="Ellipse_97" data-name="Ellipse 97" cx="9.92" cy="4.201" rx="9.92" ry="4.201" fill="#ce7d13"/>
        </g>
        <g id="Group_420" data-name="Group 420" transform="translate(0 1.984)">
          <path id="Path_437" data-name="Path 437" d="M63.1,15.617V17.66c0,1.751,2.451,3.209,5.952,3.851a13.045,13.045,0,0,0,2.684.292c.408,0,.875.058,1.284.058a21.364,21.364,0,0,0,3.968-.35c3.5-.642,5.31-2.159,5.31-3.91l.642-2.217c-1.4-1.575-5.718-1.984-9.92-1.984C69.635,13.458,64.909,14.567,63.1,15.617Z" transform="translate(-63.1 -13.4)" fill="#ffc50d"/>
        </g>
        <g id="Group_421" data-name="Group 421" transform="translate(5.952 6.36)" opacity="0.43">
          <path id="Path_438" data-name="Path 438" d="M73.3,20.9v3.734a13.045,13.045,0,0,0,2.684.292V20.9Z" transform="translate(-73.3 -20.9)" fill="#fffc8f"/>
        </g>
        <g id="Group_422" data-name="Group 422" transform="translate(13.479 2.101)">
          <path id="Path_439" data-name="Path 439" d="M86.2,21.652V13.6c2.859.233,5.368.7,6.36,1.867v2.217C92.56,19.493,89.934,21.069,86.2,21.652Z" transform="translate(-86.2 -13.6)" fill="#f19d00"/>
        </g>
        <g id="Group_423" data-name="Group 423">
          <ellipse id="Ellipse_98" data-name="Ellipse 98" cx="9.92" cy="4.201" rx="9.92" ry="4.201" fill="#ffd400"/>
        </g>
        <g id="Group_424" data-name="Group 424" transform="translate(0.7 0.117)">
          <path id="Path_440" data-name="Path 440" d="M67.859,17.611a7,7,0,0,1-3.559-2.1l7.994-5.252c.467,0,.934-.058,1.342-.058a19.719,19.719,0,0,1,4.668.525Z" transform="translate(-64.3 -10.2)" fill="#fffc8f"/>
        </g>
        <g id="Group_425" data-name="Group 425" transform="translate(6.302 1.167)">
          <path id="Path_441" data-name="Path 441" d="M76.234,19.06a15.01,15.01,0,0,1-2.334-.292L84.228,12a9.883,9.883,0,0,1,1.575.759Z" transform="translate(-73.9 -12)" fill="#fffc8f"/>
        </g>
      </g>
    </g>
    <g id="Group_436" data-name="Group 436" transform="translate(0 2.918)">
      <g id="Group_435" data-name="Group 435">
        <g id="Group_428" data-name="Group 428" transform="translate(0 2.451)">
          <ellipse id="Ellipse_99" data-name="Ellipse 99" cx="9.92" cy="4.201" rx="9.92" ry="4.201" fill="#ce7d13"/>
        </g>
        <g id="Group_429" data-name="Group 429" transform="translate(0 1.984)">
          <path id="Path_442" data-name="Path 442" d="M63.1,10.617V12.66c0,1.751,2.451,3.209,5.952,3.851a13.045,13.045,0,0,0,2.684.292c.408,0,.875.058,1.284.058a21.364,21.364,0,0,0,3.968-.35c3.5-.642,5.31-2.159,5.31-3.91l.642-2.217C81.539,8.808,77.221,8.4,73.02,8.4,69.635,8.458,64.909,9.567,63.1,10.617Z" transform="translate(-63.1 -8.4)" fill="#ffc50d"/>
        </g>
        <g id="Group_430" data-name="Group 430" transform="translate(5.952 6.36)" opacity="0.43">
          <path id="Path_443" data-name="Path 443" d="M73.3,15.9v3.734a13.045,13.045,0,0,0,2.684.292V15.9Z" transform="translate(-73.3 -15.9)" fill="#fffc8f"/>
        </g>
        <g id="Group_431" data-name="Group 431" transform="translate(13.479 2.101)">
          <path id="Path_444" data-name="Path 444" d="M86.2,16.652V8.6c2.859.233,5.368.7,6.36,1.867v2.217C92.56,14.493,89.934,16.069,86.2,16.652Z" transform="translate(-86.2 -8.6)" fill="#f19d00"/>
        </g>
        <g id="Group_432" data-name="Group 432">
          <ellipse id="Ellipse_100" data-name="Ellipse 100" cx="9.92" cy="4.201" rx="9.92" ry="4.201" fill="#ffd400"/>
        </g>
        <g id="Group_433" data-name="Group 433" transform="translate(0.7 0.117)">
          <path id="Path_445" data-name="Path 445" d="M67.859,12.611a7,7,0,0,1-3.559-2.1l7.994-5.252c.467,0,.934-.058,1.342-.058a19.719,19.719,0,0,1,4.668.525Z" transform="translate(-64.3 -5.2)" fill="#fffc8f"/>
        </g>
        <g id="Group_434" data-name="Group 434" transform="translate(6.302 1.167)">
          <path id="Path_446" data-name="Path 446" d="M76.234,14.06a15.01,15.01,0,0,1-2.334-.292L84.228,7a9.884,9.884,0,0,1,1.575.759Z" transform="translate(-73.9 -7)" fill="#fffc8f"/>
        </g>
      </g>
    </g>
    <g id="Group_445" data-name="Group 445">
      <g id="Group_444" data-name="Group 444">
        <g id="Group_437" data-name="Group 437" transform="translate(0 2.451)">
          <ellipse id="Ellipse_101" data-name="Ellipse 101" cx="9.92" cy="4.201" rx="9.92" ry="4.201" fill="#ce7d13"/>
        </g>
        <g id="Group_438" data-name="Group 438" transform="translate(0 1.984)">
          <path id="Path_447" data-name="Path 447" d="M63.1,5.617V7.66c0,1.751,2.451,3.209,5.952,3.851a13.045,13.045,0,0,0,2.684.292c.408,0,.875.058,1.284.058a21.364,21.364,0,0,0,3.968-.35c3.5-.642,5.31-2.159,5.31-3.91l.642-2.217C81.539,3.808,77.221,3.4,73.02,3.4,69.635,3.458,64.909,4.567,63.1,5.617Z" transform="translate(-63.1 -3.4)" fill="#ffc50d"/>
        </g>
        <g id="Group_439" data-name="Group 439" transform="translate(5.952 6.36)" opacity="0.43">
          <path id="Path_448" data-name="Path 448" d="M73.3,10.9v3.734a13.045,13.045,0,0,0,2.684.292V10.9Z" transform="translate(-73.3 -10.9)" fill="#fffc8f"/>
        </g>
        <g id="Group_440" data-name="Group 440" transform="translate(13.479 2.101)">
          <path id="Path_449" data-name="Path 449" d="M86.2,11.652V3.6c2.859.233,5.368.7,6.36,1.867V7.685C92.56,9.493,89.934,11.069,86.2,11.652Z" transform="translate(-86.2 -3.6)" fill="#f19d00"/>
        </g>
        <g id="Group_441" data-name="Group 441">
          <ellipse id="Ellipse_102" data-name="Ellipse 102" cx="9.92" cy="4.201" rx="9.92" ry="4.201" fill="#ffd400"/>
        </g>
        <g id="Group_442" data-name="Group 442" transform="translate(0.7 0.117)">
          <path id="Path_450" data-name="Path 450" d="M67.859,7.611A7,7,0,0,1,64.3,5.51L72.294.258c.467,0,.934-.058,1.342-.058A19.719,19.719,0,0,1,78.3.725Z" transform="translate(-64.3 -0.2)" fill="#fffc8f"/>
        </g>
        <g id="Group_443" data-name="Group 443" transform="translate(6.302 1.167)">
          <path id="Path_451" data-name="Path 451" d="M76.234,9.06A15.01,15.01,0,0,1,73.9,8.769L84.228,2a9.883,9.883,0,0,1,1.575.759Z" transform="translate(-73.9 -2)" fill="#fffc8f"/>
        </g>
      </g>
    </g>
  </g>
  <g id="Group_555" data-name="Group 555" transform="translate(52.749 18.089)">
    <g id="Group_455" data-name="Group 455" transform="translate(0 32.093)">
      <g id="Group_454" data-name="Group 454">
        <g id="Group_447" data-name="Group 447" transform="translate(0 2.451)">
          <ellipse id="Ellipse_103" data-name="Ellipse 103" cx="9.92" cy="4.201" rx="9.92" ry="4.201" fill="#ce7d13"/>
        </g>
        <g id="Group_448" data-name="Group 448" transform="translate(0 1.984)">
          <path id="Path_452" data-name="Path 452" d="M90.4,91.617V93.66c0,1.751,2.451,3.209,5.952,3.851a13.045,13.045,0,0,0,2.684.292c.408,0,.875.058,1.284.058a21.365,21.365,0,0,0,3.968-.35c3.5-.642,5.31-2.159,5.31-3.91l.642-2.217c-1.4-1.575-5.718-1.984-9.92-1.984C96.994,89.458,92.209,90.567,90.4,91.617Z" transform="translate(-90.4 -89.4)" fill="#ffc50d"/>
        </g>
        <g id="Group_449" data-name="Group 449" transform="translate(5.952 6.36)" opacity="0.43">
          <path id="Path_453" data-name="Path 453" d="M100.6,96.9v3.734a13.045,13.045,0,0,0,2.684.292V96.9Z" transform="translate(-100.6 -96.9)" fill="#fffc8f"/>
        </g>
        <g id="Group_450" data-name="Group 450" transform="translate(13.479 2.159)">
          <path id="Path_454" data-name="Path 454" d="M113.5,97.694V89.7c2.859.233,5.368.7,6.36,1.867v2.217C119.86,95.535,117.234,97.111,113.5,97.694Z" transform="translate(-113.5 -89.7)" fill="#f19d00"/>
        </g>
        <g id="Group_451" data-name="Group 451">
          <ellipse id="Ellipse_104" data-name="Ellipse 104" cx="9.92" cy="4.201" rx="9.92" ry="4.201" fill="#ffd400"/>
        </g>
        <g id="Group_452" data-name="Group 452" transform="translate(0.7 0.117)">
          <path id="Path_455" data-name="Path 455" d="M95.159,93.611a7,7,0,0,1-3.559-2.1l7.994-5.252c.467,0,.934-.058,1.342-.058a19.719,19.719,0,0,1,4.668.525Z" transform="translate(-91.6 -86.2)" fill="#fffc8f"/>
        </g>
        <g id="Group_453" data-name="Group 453" transform="translate(6.302 1.167)">
          <path id="Path_456" data-name="Path 456" d="M103.534,95.06a15.008,15.008,0,0,1-2.334-.292L111.528,88a9.882,9.882,0,0,1,1.575.759Z" transform="translate(-101.2 -88)" fill="#fffc8f"/>
        </g>
      </g>
    </g>
    <g id="Group_464" data-name="Group 464" transform="translate(0 29.175)">
      <g id="Group_463" data-name="Group 463">
        <g id="Group_456" data-name="Group 456" transform="translate(0 2.451)">
          <ellipse id="Ellipse_105" data-name="Ellipse 105" cx="9.92" cy="4.201" rx="9.92" ry="4.201" fill="#ce7d13"/>
        </g>
        <g id="Group_457" data-name="Group 457" transform="translate(0 1.984)">
          <path id="Path_457" data-name="Path 457" d="M90.4,86.617V88.66c0,1.751,2.451,3.209,5.952,3.851a13.045,13.045,0,0,0,2.684.292c.408,0,.875.058,1.284.058a21.364,21.364,0,0,0,3.968-.35c3.5-.642,5.31-2.159,5.31-3.91l.642-2.217c-1.4-1.575-5.718-1.984-9.92-1.984C96.994,84.458,92.209,85.567,90.4,86.617Z" transform="translate(-90.4 -84.4)" fill="#ffc50d"/>
        </g>
        <g id="Group_458" data-name="Group 458" transform="translate(5.952 6.36)" opacity="0.43">
          <path id="Path_458" data-name="Path 458" d="M100.6,91.9v3.734a13.045,13.045,0,0,0,2.684.292V91.9Z" transform="translate(-100.6 -91.9)" fill="#fffc8f"/>
        </g>
        <g id="Group_459" data-name="Group 459" transform="translate(13.479 2.159)">
          <path id="Path_459" data-name="Path 459" d="M113.5,92.694V84.7c2.859.233,5.368.7,6.36,1.867v2.217C119.86,90.535,117.234,92.111,113.5,92.694Z" transform="translate(-113.5 -84.7)" fill="#f19d00"/>
        </g>
        <g id="Group_460" data-name="Group 460">
          <ellipse id="Ellipse_106" data-name="Ellipse 106" cx="9.92" cy="4.201" rx="9.92" ry="4.201" fill="#ffd400"/>
        </g>
        <g id="Group_461" data-name="Group 461" transform="translate(0.7 0.117)">
          <path id="Path_460" data-name="Path 460" d="M95.159,88.611a7,7,0,0,1-3.559-2.1l7.994-5.252c.467,0,.934-.058,1.342-.058a19.719,19.719,0,0,1,4.668.525Z" transform="translate(-91.6 -81.2)" fill="#fffc8f"/>
        </g>
        <g id="Group_462" data-name="Group 462" transform="translate(6.302 1.167)">
          <path id="Path_461" data-name="Path 461" d="M103.534,90.06a15.009,15.009,0,0,1-2.334-.292L111.528,83a9.883,9.883,0,0,1,1.575.759Z" transform="translate(-101.2 -83)" fill="#fffc8f"/>
        </g>
      </g>
    </g>
    <g id="Group_473" data-name="Group 473" transform="translate(0 26.258)">
      <g id="Group_472" data-name="Group 472" transform="translate(0 0)">
        <g id="Group_465" data-name="Group 465" transform="translate(0 2.451)">
          <ellipse id="Ellipse_107" data-name="Ellipse 107" cx="9.92" cy="4.201" rx="9.92" ry="4.201" fill="#ce7d13"/>
        </g>
        <g id="Group_466" data-name="Group 466" transform="translate(0 1.984)">
          <path id="Path_462" data-name="Path 462" d="M90.4,81.617V83.66c0,1.751,2.451,3.209,5.952,3.851a13.045,13.045,0,0,0,2.684.292c.408,0,.875.058,1.284.058a21.365,21.365,0,0,0,3.968-.35c3.5-.642,5.31-2.159,5.31-3.91l.642-2.217c-1.4-1.575-5.718-1.984-9.92-1.984C96.994,79.458,92.209,80.567,90.4,81.617Z" transform="translate(-90.4 -79.4)" fill="#ffc50d"/>
        </g>
        <g id="Group_467" data-name="Group 467" transform="translate(5.952 6.36)" opacity="0.43">
          <path id="Path_463" data-name="Path 463" d="M100.6,86.9v3.734a13.045,13.045,0,0,0,2.684.292V86.9Z" transform="translate(-100.6 -86.9)" fill="#fffc8f"/>
        </g>
        <g id="Group_468" data-name="Group 468" transform="translate(13.479 2.159)">
          <path id="Path_464" data-name="Path 464" d="M113.5,87.694V79.7c2.859.233,5.368.7,6.36,1.867v2.217C119.86,85.535,117.234,87.111,113.5,87.694Z" transform="translate(-113.5 -79.7)" fill="#f19d00"/>
        </g>
        <g id="Group_469" data-name="Group 469">
          <ellipse id="Ellipse_108" data-name="Ellipse 108" cx="9.92" cy="4.201" rx="9.92" ry="4.201" fill="#ffd400"/>
        </g>
        <g id="Group_470" data-name="Group 470" transform="translate(0.7 0.117)">
          <path id="Path_465" data-name="Path 465" d="M95.159,83.611a7,7,0,0,1-3.559-2.1l7.994-5.252c.467,0,.934-.058,1.342-.058a19.719,19.719,0,0,1,4.668.525Z" transform="translate(-91.6 -76.2)" fill="#fffc8f"/>
        </g>
        <g id="Group_471" data-name="Group 471" transform="translate(6.302 1.167)">
          <path id="Path_466" data-name="Path 466" d="M103.534,85.06a15.008,15.008,0,0,1-2.334-.292L111.528,78a9.883,9.883,0,0,1,1.575.759Z" transform="translate(-101.2 -78)" fill="#fffc8f"/>
        </g>
      </g>
    </g>
    <g id="Group_482" data-name="Group 482" transform="translate(0 23.34)">
      <g id="Group_481" data-name="Group 481">
        <g id="Group_474" data-name="Group 474" transform="translate(0 2.451)">
          <ellipse id="Ellipse_109" data-name="Ellipse 109" cx="9.92" cy="4.201" rx="9.92" ry="4.201" fill="#ce7d13"/>
        </g>
        <g id="Group_475" data-name="Group 475" transform="translate(0 1.984)">
          <path id="Path_467" data-name="Path 467" d="M90.4,76.617V78.66c0,1.751,2.451,3.209,5.952,3.851a13.045,13.045,0,0,0,2.684.292c.408,0,.875.058,1.284.058a21.364,21.364,0,0,0,3.968-.35c3.5-.642,5.31-2.159,5.31-3.91l.642-2.217c-1.4-1.575-5.718-1.984-9.92-1.984C96.994,74.458,92.209,75.567,90.4,76.617Z" transform="translate(-90.4 -74.4)" fill="#ffc50d"/>
        </g>
        <g id="Group_476" data-name="Group 476" transform="translate(5.952 6.36)" opacity="0.43">
          <path id="Path_468" data-name="Path 468" d="M100.6,81.9v3.734a13.045,13.045,0,0,0,2.684.292V81.9Z" transform="translate(-100.6 -81.9)" fill="#fffc8f"/>
        </g>
        <g id="Group_477" data-name="Group 477" transform="translate(13.479 2.159)">
          <path id="Path_469" data-name="Path 469" d="M113.5,82.694V74.7c2.859.233,5.368.7,6.36,1.867v2.217C119.86,80.535,117.234,82.111,113.5,82.694Z" transform="translate(-113.5 -74.7)" fill="#f19d00"/>
        </g>
        <g id="Group_478" data-name="Group 478">
          <ellipse id="Ellipse_110" data-name="Ellipse 110" cx="9.92" cy="4.201" rx="9.92" ry="4.201" fill="#ffd400"/>
        </g>
        <g id="Group_479" data-name="Group 479" transform="translate(0.7 0.117)">
          <path id="Path_470" data-name="Path 470" d="M95.159,78.611a7,7,0,0,1-3.559-2.1l7.994-5.252c.467,0,.934-.058,1.342-.058a19.719,19.719,0,0,1,4.668.525Z" transform="translate(-91.6 -71.2)" fill="#fffc8f"/>
        </g>
        <g id="Group_480" data-name="Group 480" transform="translate(6.302 1.167)">
          <path id="Path_471" data-name="Path 471" d="M103.534,80.06a15.01,15.01,0,0,1-2.334-.292L111.528,73a9.883,9.883,0,0,1,1.575.759Z" transform="translate(-101.2 -73)" fill="#fffc8f"/>
        </g>
      </g>
    </g>
    <g id="Group_491" data-name="Group 491" transform="translate(0 20.423)">
      <g id="Group_490" data-name="Group 490">
        <g id="Group_483" data-name="Group 483" transform="translate(0 2.451)">
          <ellipse id="Ellipse_111" data-name="Ellipse 111" cx="9.92" cy="4.201" rx="9.92" ry="4.201" fill="#ce7d13"/>
        </g>
        <g id="Group_484" data-name="Group 484" transform="translate(0 1.984)">
          <path id="Path_472" data-name="Path 472" d="M90.4,71.617V73.66c0,1.751,2.451,3.209,5.952,3.851a13.044,13.044,0,0,0,2.684.292c.408,0,.875.058,1.284.058a21.364,21.364,0,0,0,3.968-.35c3.5-.642,5.31-2.159,5.31-3.91l.642-2.217c-1.4-1.575-5.718-1.984-9.92-1.984C96.994,69.458,92.209,70.567,90.4,71.617Z" transform="translate(-90.4 -69.4)" fill="#ffc50d"/>
        </g>
        <g id="Group_485" data-name="Group 485" transform="translate(5.952 6.36)" opacity="0.43">
          <path id="Path_473" data-name="Path 473" d="M100.6,76.9v3.734a13.045,13.045,0,0,0,2.684.292V76.9Z" transform="translate(-100.6 -76.9)" fill="#fffc8f"/>
        </g>
        <g id="Group_486" data-name="Group 486" transform="translate(13.479 2.159)">
          <path id="Path_474" data-name="Path 474" d="M113.5,77.694V69.7c2.859.233,5.368.7,6.36,1.867v2.217C119.86,75.535,117.234,77.111,113.5,77.694Z" transform="translate(-113.5 -69.7)" fill="#f19d00"/>
        </g>
        <g id="Group_487" data-name="Group 487">
          <ellipse id="Ellipse_112" data-name="Ellipse 112" cx="9.92" cy="4.201" rx="9.92" ry="4.201" fill="#ffd400"/>
        </g>
        <g id="Group_488" data-name="Group 488" transform="translate(0.7 0.117)">
          <path id="Path_475" data-name="Path 475" d="M95.159,73.611a7,7,0,0,1-3.559-2.1l7.994-5.252c.467,0,.934-.058,1.342-.058a19.719,19.719,0,0,1,4.668.525Z" transform="translate(-91.6 -66.2)" fill="#fffc8f"/>
        </g>
        <g id="Group_489" data-name="Group 489" transform="translate(6.302 1.167)">
          <path id="Path_476" data-name="Path 476" d="M103.534,75.06a15.009,15.009,0,0,1-2.334-.292L111.528,68a9.883,9.883,0,0,1,1.575.759Z" transform="translate(-101.2 -68)" fill="#fffc8f"/>
        </g>
      </g>
    </g>
    <g id="Group_500" data-name="Group 500" transform="translate(0 17.505)">
      <g id="Group_499" data-name="Group 499">
        <g id="Group_492" data-name="Group 492" transform="translate(0 2.451)">
          <ellipse id="Ellipse_113" data-name="Ellipse 113" cx="9.92" cy="4.201" rx="9.92" ry="4.201" fill="#ce7d13"/>
        </g>
        <g id="Group_493" data-name="Group 493" transform="translate(0 1.984)">
          <path id="Path_477" data-name="Path 477" d="M90.4,66.617V68.66c0,1.751,2.451,3.209,5.952,3.851a13.045,13.045,0,0,0,2.684.292c.408,0,.875.058,1.284.058a21.364,21.364,0,0,0,3.968-.35c3.5-.642,5.31-2.159,5.31-3.91l.642-2.217c-1.4-1.575-5.718-1.984-9.92-1.984C96.994,64.458,92.209,65.567,90.4,66.617Z" transform="translate(-90.4 -64.4)" fill="#ffc50d"/>
        </g>
        <g id="Group_494" data-name="Group 494" transform="translate(5.952 6.36)" opacity="0.43">
          <path id="Path_478" data-name="Path 478" d="M100.6,71.9v3.734a13.045,13.045,0,0,0,2.684.292V71.9Z" transform="translate(-100.6 -71.9)" fill="#fffc8f"/>
        </g>
        <g id="Group_495" data-name="Group 495" transform="translate(13.479 2.159)">
          <path id="Path_479" data-name="Path 479" d="M113.5,72.694V64.7c2.859.233,5.368.7,6.36,1.867v2.217C119.86,70.535,117.234,72.111,113.5,72.694Z" transform="translate(-113.5 -64.7)" fill="#f19d00"/>
        </g>
        <g id="Group_496" data-name="Group 496">
          <ellipse id="Ellipse_114" data-name="Ellipse 114" cx="9.92" cy="4.201" rx="9.92" ry="4.201" fill="#ffd400"/>
        </g>
        <g id="Group_497" data-name="Group 497" transform="translate(0.7 0.117)">
          <path id="Path_480" data-name="Path 480" d="M95.159,68.611a7,7,0,0,1-3.559-2.1l7.994-5.252c.467,0,.934-.058,1.342-.058a19.719,19.719,0,0,1,4.668.525Z" transform="translate(-91.6 -61.2)" fill="#fffc8f"/>
        </g>
        <g id="Group_498" data-name="Group 498" transform="translate(6.302 1.167)">
          <path id="Path_481" data-name="Path 481" d="M103.534,70.06a15.007,15.007,0,0,1-2.334-.292L111.528,63a9.883,9.883,0,0,1,1.575.759Z" transform="translate(-101.2 -63)" fill="#fffc8f"/>
        </g>
      </g>
    </g>
    <g id="Group_509" data-name="Group 509" transform="translate(0 14.588)">
      <g id="Group_508" data-name="Group 508">
        <g id="Group_501" data-name="Group 501" transform="translate(0 2.451)">
          <ellipse id="Ellipse_115" data-name="Ellipse 115" cx="9.92" cy="4.201" rx="9.92" ry="4.201" fill="#ce7d13"/>
        </g>
        <g id="Group_502" data-name="Group 502" transform="translate(0 1.984)">
          <path id="Path_482" data-name="Path 482" d="M90.4,61.617V63.66c0,1.751,2.451,3.209,5.952,3.851a13.045,13.045,0,0,0,2.684.292c.408,0,.875.058,1.284.058a21.364,21.364,0,0,0,3.968-.35c3.5-.642,5.31-2.159,5.31-3.91l.642-2.217c-1.4-1.575-5.718-1.984-9.92-1.984C96.994,59.458,92.209,60.567,90.4,61.617Z" transform="translate(-90.4 -59.4)" fill="#ffc50d"/>
        </g>
        <g id="Group_503" data-name="Group 503" transform="translate(5.952 6.36)" opacity="0.43">
          <path id="Path_483" data-name="Path 483" d="M100.6,66.9v3.734a13.045,13.045,0,0,0,2.684.292V66.9Z" transform="translate(-100.6 -66.9)" fill="#fffc8f"/>
        </g>
        <g id="Group_504" data-name="Group 504" transform="translate(13.479 2.159)">
          <path id="Path_484" data-name="Path 484" d="M113.5,67.694V59.7c2.859.233,5.368.7,6.36,1.867v2.217C119.86,65.535,117.234,67.111,113.5,67.694Z" transform="translate(-113.5 -59.7)" fill="#f19d00"/>
        </g>
        <g id="Group_505" data-name="Group 505">
          <ellipse id="Ellipse_116" data-name="Ellipse 116" cx="9.92" cy="4.201" rx="9.92" ry="4.201" fill="#ffd400"/>
        </g>
        <g id="Group_506" data-name="Group 506" transform="translate(0.7 0.117)">
          <path id="Path_485" data-name="Path 485" d="M95.159,63.611a7,7,0,0,1-3.559-2.1l7.994-5.252c.467,0,.934-.058,1.342-.058a19.719,19.719,0,0,1,4.668.525Z" transform="translate(-91.6 -56.2)" fill="#fffc8f"/>
        </g>
        <g id="Group_507" data-name="Group 507" transform="translate(6.302 1.167)">
          <path id="Path_486" data-name="Path 486" d="M103.534,65.06a15.007,15.007,0,0,1-2.334-.292L111.528,58a9.883,9.883,0,0,1,1.575.759Z" transform="translate(-101.2 -58)" fill="#fffc8f"/>
        </g>
      </g>
    </g>
    <g id="Group_518" data-name="Group 518" transform="translate(0 11.67)">
      <g id="Group_517" data-name="Group 517">
        <g id="Group_510" data-name="Group 510" transform="translate(0 2.451)">
          <ellipse id="Ellipse_117" data-name="Ellipse 117" cx="9.92" cy="4.201" rx="9.92" ry="4.201" fill="#ce7d13"/>
        </g>
        <g id="Group_511" data-name="Group 511" transform="translate(0 1.984)">
          <path id="Path_487" data-name="Path 487" d="M90.4,56.617V58.66c0,1.751,2.451,3.209,5.952,3.851a13.045,13.045,0,0,0,2.684.292c.408,0,.875.058,1.284.058a21.364,21.364,0,0,0,3.968-.35c3.5-.642,5.31-2.159,5.31-3.91l.642-2.217c-1.4-1.575-5.718-1.984-9.92-1.984C96.994,54.458,92.209,55.567,90.4,56.617Z" transform="translate(-90.4 -54.4)" fill="#ffc50d"/>
        </g>
        <g id="Group_512" data-name="Group 512" transform="translate(5.952 6.36)" opacity="0.43">
          <path id="Path_488" data-name="Path 488" d="M100.6,61.9v3.734a13.045,13.045,0,0,0,2.684.292V61.9Z" transform="translate(-100.6 -61.9)" fill="#fffc8f"/>
        </g>
        <g id="Group_513" data-name="Group 513" transform="translate(13.479 2.159)">
          <path id="Path_489" data-name="Path 489" d="M113.5,62.694V54.7c2.859.233,5.368.7,6.36,1.867v2.217C119.86,60.535,117.234,62.111,113.5,62.694Z" transform="translate(-113.5 -54.7)" fill="#f19d00"/>
        </g>
        <g id="Group_514" data-name="Group 514">
          <ellipse id="Ellipse_118" data-name="Ellipse 118" cx="9.92" cy="4.201" rx="9.92" ry="4.201" fill="#ffd400"/>
        </g>
        <g id="Group_515" data-name="Group 515" transform="translate(0.7 0.117)">
          <path id="Path_490" data-name="Path 490" d="M95.159,58.611a7,7,0,0,1-3.559-2.1l7.994-5.252c.467,0,.934-.058,1.342-.058a19.719,19.719,0,0,1,4.668.525Z" transform="translate(-91.6 -51.2)" fill="#fffc8f"/>
        </g>
        <g id="Group_516" data-name="Group 516" transform="translate(6.302 1.167)">
          <path id="Path_491" data-name="Path 491" d="M103.534,60.06a15.009,15.009,0,0,1-2.334-.292L111.528,53a9.883,9.883,0,0,1,1.575.759Z" transform="translate(-101.2 -53)" fill="#fffc8f"/>
        </g>
      </g>
    </g>
    <g id="Group_527" data-name="Group 527" transform="translate(0 8.753)">
      <g id="Group_526" data-name="Group 526">
        <g id="Group_519" data-name="Group 519" transform="translate(0 2.451)">
          <ellipse id="Ellipse_119" data-name="Ellipse 119" cx="9.92" cy="4.201" rx="9.92" ry="4.201" fill="#ce7d13"/>
        </g>
        <g id="Group_520" data-name="Group 520" transform="translate(0 1.984)">
          <path id="Path_492" data-name="Path 492" d="M90.4,51.617V53.66c0,1.751,2.451,3.209,5.952,3.851a13.045,13.045,0,0,0,2.684.292c.408,0,.875.058,1.284.058a21.365,21.365,0,0,0,3.968-.35c3.5-.642,5.31-2.159,5.31-3.91l.642-2.217c-1.4-1.575-5.718-1.984-9.92-1.984C96.994,49.458,92.209,50.567,90.4,51.617Z" transform="translate(-90.4 -49.4)" fill="#ffc50d"/>
        </g>
        <g id="Group_521" data-name="Group 521" transform="translate(5.952 6.36)" opacity="0.43">
          <path id="Path_493" data-name="Path 493" d="M100.6,56.9v3.734a13.045,13.045,0,0,0,2.684.292V56.9Z" transform="translate(-100.6 -56.9)" fill="#fffc8f"/>
        </g>
        <g id="Group_522" data-name="Group 522" transform="translate(13.479 2.159)">
          <path id="Path_494" data-name="Path 494" d="M113.5,57.694V49.7c2.859.233,5.368.7,6.36,1.867v2.217C119.86,55.535,117.234,57.111,113.5,57.694Z" transform="translate(-113.5 -49.7)" fill="#f19d00"/>
        </g>
        <g id="Group_523" data-name="Group 523">
          <ellipse id="Ellipse_120" data-name="Ellipse 120" cx="9.92" cy="4.201" rx="9.92" ry="4.201" fill="#ffd400"/>
        </g>
        <g id="Group_524" data-name="Group 524" transform="translate(0.7 0.117)">
          <path id="Path_495" data-name="Path 495" d="M95.159,53.611a7,7,0,0,1-3.559-2.1l7.994-5.252c.467,0,.934-.058,1.342-.058a19.719,19.719,0,0,1,4.668.525Z" transform="translate(-91.6 -46.2)" fill="#fffc8f"/>
        </g>
        <g id="Group_525" data-name="Group 525" transform="translate(6.302 1.167)">
          <path id="Path_496" data-name="Path 496" d="M103.534,55.06a15.009,15.009,0,0,1-2.334-.292L111.528,48a9.883,9.883,0,0,1,1.575.759Z" transform="translate(-101.2 -48)" fill="#fffc8f"/>
        </g>
      </g>
    </g>
    <g id="Group_536" data-name="Group 536" transform="translate(0 5.835)">
      <g id="Group_535" data-name="Group 535">
        <g id="Group_528" data-name="Group 528" transform="translate(0 2.451)">
          <ellipse id="Ellipse_121" data-name="Ellipse 121" cx="9.92" cy="4.201" rx="9.92" ry="4.201" fill="#ce7d13"/>
        </g>
        <g id="Group_529" data-name="Group 529" transform="translate(0 1.984)">
          <path id="Path_497" data-name="Path 497" d="M90.4,46.617V48.66c0,1.751,2.451,3.209,5.952,3.851a13.045,13.045,0,0,0,2.684.292c.408,0,.875.058,1.284.058a21.364,21.364,0,0,0,3.968-.35c3.5-.642,5.31-2.159,5.31-3.91l.642-2.217c-1.4-1.575-5.718-1.984-9.92-1.984C96.994,44.458,92.209,45.567,90.4,46.617Z" transform="translate(-90.4 -44.4)" fill="#ffc50d"/>
        </g>
        <g id="Group_530" data-name="Group 530" transform="translate(5.952 6.36)" opacity="0.43">
          <path id="Path_498" data-name="Path 498" d="M100.6,51.9v3.734a13.045,13.045,0,0,0,2.684.292V51.9Z" transform="translate(-100.6 -51.9)" fill="#fffc8f"/>
        </g>
        <g id="Group_531" data-name="Group 531" transform="translate(13.479 2.159)">
          <path id="Path_499" data-name="Path 499" d="M113.5,52.694V44.7c2.859.233,5.368.7,6.36,1.867v2.217C119.86,50.535,117.234,52.111,113.5,52.694Z" transform="translate(-113.5 -44.7)" fill="#f19d00"/>
        </g>
        <g id="Group_532" data-name="Group 532">
          <ellipse id="Ellipse_122" data-name="Ellipse 122" cx="9.92" cy="4.201" rx="9.92" ry="4.201" fill="#ffd400"/>
        </g>
        <g id="Group_533" data-name="Group 533" transform="translate(0.7 0.117)">
          <path id="Path_500" data-name="Path 500" d="M95.159,48.611a7,7,0,0,1-3.559-2.1l7.994-5.252c.467,0,.934-.058,1.342-.058a19.719,19.719,0,0,1,4.668.525Z" transform="translate(-91.6 -41.2)" fill="#fffc8f"/>
        </g>
        <g id="Group_534" data-name="Group 534" transform="translate(6.302 1.167)">
          <path id="Path_501" data-name="Path 501" d="M103.534,50.06a15.01,15.01,0,0,1-2.334-.292L111.528,43a9.883,9.883,0,0,1,1.575.759Z" transform="translate(-101.2 -43)" fill="#fffc8f"/>
        </g>
      </g>
    </g>
    <g id="Group_545" data-name="Group 545" transform="translate(0 2.918)">
      <g id="Group_544" data-name="Group 544">
        <g id="Group_537" data-name="Group 537" transform="translate(0 2.451)">
          <ellipse id="Ellipse_123" data-name="Ellipse 123" cx="9.92" cy="4.201" rx="9.92" ry="4.201" fill="#ce7d13"/>
        </g>
        <g id="Group_538" data-name="Group 538" transform="translate(0 1.984)">
          <path id="Path_502" data-name="Path 502" d="M90.4,41.617V43.66c0,1.751,2.451,3.209,5.952,3.851a13.045,13.045,0,0,0,2.684.292c.408,0,.875.058,1.284.058a21.364,21.364,0,0,0,3.968-.35c3.5-.642,5.31-2.159,5.31-3.91l.642-2.217c-1.4-1.575-5.718-1.984-9.92-1.984C96.994,39.458,92.209,40.567,90.4,41.617Z" transform="translate(-90.4 -39.4)" fill="#ffc50d"/>
        </g>
        <g id="Group_539" data-name="Group 539" transform="translate(5.952 6.36)" opacity="0.43">
          <path id="Path_503" data-name="Path 503" d="M100.6,46.9v3.734a13.045,13.045,0,0,0,2.684.292V46.9Z" transform="translate(-100.6 -46.9)" fill="#fffc8f"/>
        </g>
        <g id="Group_540" data-name="Group 540" transform="translate(13.479 2.159)">
          <path id="Path_504" data-name="Path 504" d="M113.5,47.694V39.7c2.859.233,5.368.7,6.36,1.867v2.217C119.86,45.535,117.234,47.111,113.5,47.694Z" transform="translate(-113.5 -39.7)" fill="#f19d00"/>
        </g>
        <g id="Group_541" data-name="Group 541">
          <ellipse id="Ellipse_124" data-name="Ellipse 124" cx="9.92" cy="4.201" rx="9.92" ry="4.201" fill="#ffd400"/>
        </g>
        <g id="Group_542" data-name="Group 542" transform="translate(0.7 0.117)">
          <path id="Path_505" data-name="Path 505" d="M95.159,43.611a7,7,0,0,1-3.559-2.1l7.994-5.252c.467,0,.934-.058,1.342-.058a19.719,19.719,0,0,1,4.668.525Z" transform="translate(-91.6 -36.2)" fill="#fffc8f"/>
        </g>
        <g id="Group_543" data-name="Group 543" transform="translate(6.302 1.167)">
          <path id="Path_506" data-name="Path 506" d="M103.534,45.06a15.011,15.011,0,0,1-2.334-.292L111.528,38a9.883,9.883,0,0,1,1.575.759Z" transform="translate(-101.2 -38)" fill="#fffc8f"/>
        </g>
      </g>
    </g>
    <g id="Group_554" data-name="Group 554">
      <g id="Group_553" data-name="Group 553">
        <g id="Group_546" data-name="Group 546" transform="translate(0 2.451)">
          <ellipse id="Ellipse_125" data-name="Ellipse 125" cx="9.92" cy="4.201" rx="9.92" ry="4.201" fill="#ce7d13"/>
        </g>
        <g id="Group_547" data-name="Group 547" transform="translate(0 1.984)">
          <path id="Path_507" data-name="Path 507" d="M90.4,36.617V38.66c0,1.751,2.451,3.209,5.952,3.851a13.045,13.045,0,0,0,2.684.292c.408,0,.875.058,1.284.058a21.364,21.364,0,0,0,3.968-.35c3.5-.642,5.31-2.159,5.31-3.91l.642-2.217c-1.4-1.575-5.718-1.984-9.92-1.984C96.994,34.458,92.209,35.567,90.4,36.617Z" transform="translate(-90.4 -34.4)" fill="#ffc50d"/>
        </g>
        <g id="Group_548" data-name="Group 548" transform="translate(5.952 6.36)" opacity="0.43">
          <path id="Path_508" data-name="Path 508" d="M100.6,41.9v3.734a13.045,13.045,0,0,0,2.684.292V41.9Z" transform="translate(-100.6 -41.9)" fill="#fffc8f"/>
        </g>
        <g id="Group_549" data-name="Group 549" transform="translate(13.479 2.159)">
          <path id="Path_509" data-name="Path 509" d="M113.5,42.694V34.7c2.859.233,5.368.7,6.36,1.867v2.217C119.86,40.535,117.234,42.111,113.5,42.694Z" transform="translate(-113.5 -34.7)" fill="#f19d00"/>
        </g>
        <g id="Group_550" data-name="Group 550">
          <ellipse id="Ellipse_126" data-name="Ellipse 126" cx="9.92" cy="4.201" rx="9.92" ry="4.201" fill="#ffd400"/>
        </g>
        <g id="Group_551" data-name="Group 551" transform="translate(0.7 0.117)">
          <path id="Path_510" data-name="Path 510" d="M95.159,38.611a7,7,0,0,1-3.559-2.1l7.994-5.252c.467,0,.934-.058,1.342-.058a19.719,19.719,0,0,1,4.668.525Z" transform="translate(-91.6 -31.2)" fill="#fffc8f"/>
        </g>
        <g id="Group_552" data-name="Group 552" transform="translate(6.302 1.167)">
          <path id="Path_511" data-name="Path 511" d="M103.534,40.06a15.01,15.01,0,0,1-2.334-.292L111.528,33a9.883,9.883,0,0,1,1.575.759Z" transform="translate(-101.2 -33)" fill="#fffc8f"/>
        </g>
      </g>
    </g>
  </g>
  <path id="Path_512" data-name="Path 512" d="M91.9,96.009c0,2.334,4.435,4.2,9.92,4.2a15.843,15.843,0,0,0,1.692-.058v-4.96a15.845,15.845,0,0,1-1.692.058A16.738,16.738,0,0,1,93.826,93.5,3.156,3.156,0,0,0,91.9,96.009Z" transform="translate(-38.276 -38.942)" opacity="0.35"/>
  <path id="Path_513" data-name="Path 513" d="M55.193,74.466c-.233,2.334,3.91,5.018,9.336,6.01a16.842,16.842,0,0,0,1.692.233l.525-28.767c-.525-.058-1.109-.117-1.692-.233a16.86,16.86,0,0,1-7.7-3.209C56.069,48.967,55.252,73.591,55.193,74.466Z" transform="translate(-22.984 -20.2)" opacity="0.25"/>
  <g id="Group_628" data-name="Group 628" transform="translate(21.181 25.791)">
    <g id="Group_564" data-name="Group 564" transform="translate(0 20.423)">
      <g id="Group_563" data-name="Group 563">
        <g id="Group_556" data-name="Group 556" transform="translate(0 2.451)">
          <ellipse id="Ellipse_127" data-name="Ellipse 127" cx="9.92" cy="4.201" rx="9.92" ry="4.201" fill="#ce7d13"/>
        </g>
        <g id="Group_557" data-name="Group 557" transform="translate(0 1.926)">
          <path id="Path_514" data-name="Path 514" d="M36.3,84.717V86.76c0,1.751,2.451,3.209,5.952,3.851a13.045,13.045,0,0,0,2.684.292c.408,0,.875.058,1.284.058a21.365,21.365,0,0,0,3.968-.35c3.5-.642,5.31-2.159,5.31-3.91l.642-2.217c-1.4-1.575-5.718-1.984-9.92-1.984C42.835,82.558,38.109,83.667,36.3,84.717Z" transform="translate(-36.3 -82.5)" fill="#ffc50d"/>
        </g>
        <g id="Group_558" data-name="Group 558" transform="translate(5.952 6.36)" opacity="0.43">
          <path id="Path_515" data-name="Path 515" d="M46.5,90.1v3.734a13.044,13.044,0,0,0,2.684.292V90.1Z" transform="translate(-46.5 -90.1)" fill="#fffc8f"/>
        </g>
        <g id="Group_559" data-name="Group 559" transform="translate(13.479 2.101)">
          <path id="Path_516" data-name="Path 516" d="M59.4,90.794V82.8c2.859.233,5.368.7,6.36,1.867v2.217C65.76,88.693,63.134,90.211,59.4,90.794Z" transform="translate(-59.4 -82.8)" fill="#f19d00"/>
        </g>
        <g id="Group_560" data-name="Group 560">
          <ellipse id="Ellipse_128" data-name="Ellipse 128" cx="9.92" cy="4.201" rx="9.92" ry="4.201" fill="#ffd400"/>
        </g>
        <g id="Group_561" data-name="Group 561" transform="translate(0.7 0.058)">
          <path id="Path_517" data-name="Path 517" d="M41.059,86.711a7,7,0,0,1-3.559-2.1l7.994-5.252c.467,0,.934-.058,1.342-.058a19.719,19.719,0,0,1,4.668.525Z" transform="translate(-37.5 -79.3)" fill="#fffc8f"/>
        </g>
        <g id="Group_562" data-name="Group 562" transform="translate(6.302 1.167)">
          <path id="Path_518" data-name="Path 518" d="M49.434,88.26a15.009,15.009,0,0,1-2.334-.292L57.428,81.2A9.884,9.884,0,0,1,59,81.959Z" transform="translate(-47.1 -81.2)" fill="#fffc8f"/>
        </g>
      </g>
    </g>
    <g id="Group_573" data-name="Group 573" transform="translate(0 17.505)">
      <g id="Group_572" data-name="Group 572">
        <g id="Group_565" data-name="Group 565" transform="translate(0 2.451)">
          <ellipse id="Ellipse_129" data-name="Ellipse 129" cx="9.92" cy="4.201" rx="9.92" ry="4.201" fill="#ce7d13"/>
        </g>
        <g id="Group_566" data-name="Group 566" transform="translate(0 1.926)">
          <path id="Path_519" data-name="Path 519" d="M36.3,79.717V81.76c0,1.751,2.451,3.209,5.952,3.851a13.045,13.045,0,0,0,2.684.292c.408,0,.875.058,1.284.058a21.364,21.364,0,0,0,3.968-.35c3.5-.642,5.31-2.159,5.31-3.91l.642-2.217c-1.4-1.575-5.718-1.984-9.92-1.984C42.835,77.558,38.109,78.667,36.3,79.717Z" transform="translate(-36.3 -77.5)" fill="#ffc50d"/>
        </g>
        <g id="Group_567" data-name="Group 567" transform="translate(5.952 6.36)" opacity="0.43">
          <path id="Path_520" data-name="Path 520" d="M46.5,85.1v3.734a13.045,13.045,0,0,0,2.684.292V85.1Z" transform="translate(-46.5 -85.1)" fill="#fffc8f"/>
        </g>
        <g id="Group_568" data-name="Group 568" transform="translate(13.479 2.101)">
          <path id="Path_521" data-name="Path 521" d="M59.4,85.794V77.8c2.859.233,5.368.7,6.36,1.867v2.217C65.76,83.693,63.134,85.211,59.4,85.794Z" transform="translate(-59.4 -77.8)" fill="#f19d00"/>
        </g>
        <g id="Group_569" data-name="Group 569">
          <ellipse id="Ellipse_130" data-name="Ellipse 130" cx="9.92" cy="4.201" rx="9.92" ry="4.201" fill="#ffd400"/>
        </g>
        <g id="Group_570" data-name="Group 570" transform="translate(0.7 0.058)">
          <path id="Path_522" data-name="Path 522" d="M41.059,81.711a7,7,0,0,1-3.559-2.1l7.994-5.252c.467,0,.934-.058,1.342-.058a19.718,19.718,0,0,1,4.668.525Z" transform="translate(-37.5 -74.3)" fill="#fffc8f"/>
        </g>
        <g id="Group_571" data-name="Group 571" transform="translate(6.302 1.167)">
          <path id="Path_523" data-name="Path 523" d="M49.434,83.26a15.01,15.01,0,0,1-2.334-.292L57.428,76.2A9.883,9.883,0,0,1,59,76.959Z" transform="translate(-47.1 -76.2)" fill="#fffc8f"/>
        </g>
      </g>
    </g>
    <g id="Group_582" data-name="Group 582" transform="translate(0 14.588)">
      <g id="Group_581" data-name="Group 581">
        <g id="Group_574" data-name="Group 574" transform="translate(0 2.451)">
          <ellipse id="Ellipse_131" data-name="Ellipse 131" cx="9.92" cy="4.201" rx="9.92" ry="4.201" fill="#ce7d13"/>
        </g>
        <g id="Group_575" data-name="Group 575" transform="translate(0 1.926)">
          <path id="Path_524" data-name="Path 524" d="M36.3,74.717V76.76c0,1.751,2.451,3.209,5.952,3.851a13.045,13.045,0,0,0,2.684.292c.408,0,.875.058,1.284.058a21.365,21.365,0,0,0,3.968-.35c3.5-.642,5.31-2.159,5.31-3.91l.642-2.217c-1.4-1.575-5.718-1.984-9.92-1.984C42.835,72.558,38.109,73.667,36.3,74.717Z" transform="translate(-36.3 -72.5)" fill="#ffc50d"/>
        </g>
        <g id="Group_576" data-name="Group 576" transform="translate(5.952 6.36)" opacity="0.43">
          <path id="Path_525" data-name="Path 525" d="M46.5,80.1v3.734a13.045,13.045,0,0,0,2.684.292V80.1Z" transform="translate(-46.5 -80.1)" fill="#fffc8f"/>
        </g>
        <g id="Group_577" data-name="Group 577" transform="translate(13.479 2.101)">
          <path id="Path_526" data-name="Path 526" d="M59.4,80.794V72.8c2.859.233,5.368.7,6.36,1.867v2.217C65.76,78.693,63.134,80.211,59.4,80.794Z" transform="translate(-59.4 -72.8)" fill="#f19d00"/>
        </g>
        <g id="Group_578" data-name="Group 578">
          <ellipse id="Ellipse_132" data-name="Ellipse 132" cx="9.92" cy="4.201" rx="9.92" ry="4.201" fill="#ffd400"/>
        </g>
        <g id="Group_579" data-name="Group 579" transform="translate(0.7 0.058)">
          <path id="Path_527" data-name="Path 527" d="M41.059,76.711a7,7,0,0,1-3.559-2.1l7.994-5.252c.467,0,.934-.058,1.342-.058a19.718,19.718,0,0,1,4.668.525Z" transform="translate(-37.5 -69.3)" fill="#fffc8f"/>
        </g>
        <g id="Group_580" data-name="Group 580" transform="translate(6.302 1.167)">
          <path id="Path_528" data-name="Path 528" d="M49.434,78.26a15.01,15.01,0,0,1-2.334-.292L57.428,71.2A9.883,9.883,0,0,1,59,71.959Z" transform="translate(-47.1 -71.2)" fill="#fffc8f"/>
        </g>
      </g>
    </g>
    <g id="Group_591" data-name="Group 591" transform="translate(0 11.67)">
      <g id="Group_590" data-name="Group 590">
        <g id="Group_583" data-name="Group 583" transform="translate(0 2.451)">
          <ellipse id="Ellipse_133" data-name="Ellipse 133" cx="9.92" cy="4.201" rx="9.92" ry="4.201" fill="#ce7d13"/>
        </g>
        <g id="Group_584" data-name="Group 584" transform="translate(0 1.926)">
          <path id="Path_529" data-name="Path 529" d="M36.3,69.717V71.76c0,1.751,2.451,3.209,5.952,3.851a13.044,13.044,0,0,0,2.684.292c.408,0,.875.058,1.284.058a21.363,21.363,0,0,0,3.968-.35c3.5-.642,5.31-2.159,5.31-3.91l.642-2.217c-1.4-1.575-5.718-1.984-9.92-1.984C42.835,67.558,38.109,68.667,36.3,69.717Z" transform="translate(-36.3 -67.5)" fill="#ffc50d"/>
        </g>
        <g id="Group_585" data-name="Group 585" transform="translate(5.952 6.36)" opacity="0.43">
          <path id="Path_530" data-name="Path 530" d="M46.5,75.1v3.734a13.045,13.045,0,0,0,2.684.292V75.1Z" transform="translate(-46.5 -75.1)" fill="#fffc8f"/>
        </g>
        <g id="Group_586" data-name="Group 586" transform="translate(13.479 2.101)">
          <path id="Path_531" data-name="Path 531" d="M59.4,75.794V67.8c2.859.233,5.368.7,6.36,1.867v2.217C65.76,73.693,63.134,75.211,59.4,75.794Z" transform="translate(-59.4 -67.8)" fill="#f19d00"/>
        </g>
        <g id="Group_587" data-name="Group 587">
          <ellipse id="Ellipse_134" data-name="Ellipse 134" cx="9.92" cy="4.201" rx="9.92" ry="4.201" fill="#ffd400"/>
        </g>
        <g id="Group_588" data-name="Group 588" transform="translate(0.7 0.058)">
          <path id="Path_532" data-name="Path 532" d="M41.059,71.711a7,7,0,0,1-3.559-2.1l7.994-5.252c.467,0,.934-.058,1.342-.058a19.718,19.718,0,0,1,4.668.525Z" transform="translate(-37.5 -64.3)" fill="#fffc8f"/>
        </g>
        <g id="Group_589" data-name="Group 589" transform="translate(6.302 1.167)">
          <path id="Path_533" data-name="Path 533" d="M49.434,73.26a15.009,15.009,0,0,1-2.334-.292L57.428,66.2A9.883,9.883,0,0,1,59,66.959Z" transform="translate(-47.1 -66.2)" fill="#fffc8f"/>
        </g>
      </g>
    </g>
    <g id="Group_600" data-name="Group 600" transform="translate(0 8.753)">
      <g id="Group_599" data-name="Group 599">
        <g id="Group_592" data-name="Group 592" transform="translate(0 2.451)">
          <ellipse id="Ellipse_135" data-name="Ellipse 135" cx="9.92" cy="4.201" rx="9.92" ry="4.201" fill="#ce7d13"/>
        </g>
        <g id="Group_593" data-name="Group 593" transform="translate(0 1.926)">
          <path id="Path_534" data-name="Path 534" d="M36.3,64.717V66.76c0,1.751,2.451,3.209,5.952,3.851a13.045,13.045,0,0,0,2.684.292c.408,0,.875.058,1.284.058a21.364,21.364,0,0,0,3.968-.35c3.5-.642,5.31-2.159,5.31-3.91l.642-2.217c-1.4-1.575-5.718-1.984-9.92-1.984C42.835,62.558,38.109,63.667,36.3,64.717Z" transform="translate(-36.3 -62.5)" fill="#ffc50d"/>
        </g>
        <g id="Group_594" data-name="Group 594" transform="translate(5.952 6.36)" opacity="0.43">
          <path id="Path_535" data-name="Path 535" d="M46.5,70.1v3.734a13.045,13.045,0,0,0,2.684.292V70.1Z" transform="translate(-46.5 -70.1)" fill="#fffc8f"/>
        </g>
        <g id="Group_595" data-name="Group 595" transform="translate(13.479 2.101)">
          <path id="Path_536" data-name="Path 536" d="M59.4,70.794V62.8c2.859.233,5.368.7,6.36,1.867v2.217C65.76,68.693,63.134,70.211,59.4,70.794Z" transform="translate(-59.4 -62.8)" fill="#f19d00"/>
        </g>
        <g id="Group_596" data-name="Group 596">
          <ellipse id="Ellipse_136" data-name="Ellipse 136" cx="9.92" cy="4.201" rx="9.92" ry="4.201" fill="#ffd400"/>
        </g>
        <g id="Group_597" data-name="Group 597" transform="translate(0.7 0.058)">
          <path id="Path_537" data-name="Path 537" d="M41.059,66.711a7,7,0,0,1-3.559-2.1l7.994-5.252c.467,0,.934-.058,1.342-.058a19.719,19.719,0,0,1,4.668.525Z" transform="translate(-37.5 -59.3)" fill="#fffc8f"/>
        </g>
        <g id="Group_598" data-name="Group 598" transform="translate(6.302 1.167)">
          <path id="Path_538" data-name="Path 538" d="M49.434,68.26a15.01,15.01,0,0,1-2.334-.292L57.428,61.2A9.884,9.884,0,0,1,59,61.959Z" transform="translate(-47.1 -61.2)" fill="#fffc8f"/>
        </g>
      </g>
    </g>
    <g id="Group_609" data-name="Group 609" transform="translate(0 5.835)">
      <g id="Group_608" data-name="Group 608">
        <g id="Group_601" data-name="Group 601" transform="translate(0 2.451)">
          <ellipse id="Ellipse_137" data-name="Ellipse 137" cx="9.92" cy="4.201" rx="9.92" ry="4.201" fill="#ce7d13"/>
        </g>
        <g id="Group_602" data-name="Group 602" transform="translate(0 1.926)">
          <path id="Path_539" data-name="Path 539" d="M36.3,59.717V61.76c0,1.751,2.451,3.209,5.952,3.851a13.045,13.045,0,0,0,2.684.292c.408,0,.875.058,1.284.058a21.364,21.364,0,0,0,3.968-.35c3.5-.642,5.31-2.159,5.31-3.91l.642-2.217c-1.4-1.575-5.718-1.984-9.92-1.984C42.835,57.558,38.109,58.667,36.3,59.717Z" transform="translate(-36.3 -57.5)" fill="#ffc50d"/>
        </g>
        <g id="Group_603" data-name="Group 603" transform="translate(5.952 6.36)" opacity="0.43">
          <path id="Path_540" data-name="Path 540" d="M46.5,65.1v3.734a13.045,13.045,0,0,0,2.684.292V65.1Z" transform="translate(-46.5 -65.1)" fill="#fffc8f"/>
        </g>
        <g id="Group_604" data-name="Group 604" transform="translate(13.479 2.101)">
          <path id="Path_541" data-name="Path 541" d="M59.4,65.794V57.8c2.859.233,5.368.7,6.36,1.867v2.217C65.76,63.693,63.134,65.211,59.4,65.794Z" transform="translate(-59.4 -57.8)" fill="#f19d00"/>
        </g>
        <g id="Group_605" data-name="Group 605">
          <ellipse id="Ellipse_138" data-name="Ellipse 138" cx="9.92" cy="4.201" rx="9.92" ry="4.201" fill="#ffd400"/>
        </g>
        <g id="Group_606" data-name="Group 606" transform="translate(0.7 0.058)">
          <path id="Path_542" data-name="Path 542" d="M41.059,61.711a7,7,0,0,1-3.559-2.1l7.994-5.252c.467,0,.934-.058,1.342-.058a19.719,19.719,0,0,1,4.668.525Z" transform="translate(-37.5 -54.3)" fill="#fffc8f"/>
        </g>
        <g id="Group_607" data-name="Group 607" transform="translate(6.302 1.167)">
          <path id="Path_543" data-name="Path 543" d="M49.434,63.26a15.009,15.009,0,0,1-2.334-.292L57.428,56.2A9.884,9.884,0,0,1,59,56.959Z" transform="translate(-47.1 -56.2)" fill="#fffc8f"/>
        </g>
      </g>
    </g>
    <g id="Group_618" data-name="Group 618" transform="translate(0 2.918)">
      <g id="Group_617" data-name="Group 617">
        <g id="Group_610" data-name="Group 610" transform="translate(0 2.451)">
          <ellipse id="Ellipse_139" data-name="Ellipse 139" cx="9.92" cy="4.201" rx="9.92" ry="4.201" fill="#ce7d13"/>
        </g>
        <g id="Group_611" data-name="Group 611" transform="translate(0 1.926)">
          <path id="Path_544" data-name="Path 544" d="M36.3,54.717V56.76c0,1.751,2.451,3.209,5.952,3.851a13.045,13.045,0,0,0,2.684.292c.408,0,.875.058,1.284.058a21.364,21.364,0,0,0,3.968-.35c3.5-.642,5.31-2.159,5.31-3.91l.642-2.217c-1.4-1.575-5.718-1.984-9.92-1.984C42.835,52.558,38.109,53.667,36.3,54.717Z" transform="translate(-36.3 -52.5)" fill="#ffc50d"/>
        </g>
        <g id="Group_612" data-name="Group 612" transform="translate(5.952 6.36)" opacity="0.43">
          <path id="Path_545" data-name="Path 545" d="M46.5,60.1v3.734a13.045,13.045,0,0,0,2.684.292V60.1Z" transform="translate(-46.5 -60.1)" fill="#fffc8f"/>
        </g>
        <g id="Group_613" data-name="Group 613" transform="translate(13.479 2.101)">
          <path id="Path_546" data-name="Path 546" d="M59.4,60.794V52.8c2.859.233,5.368.7,6.36,1.867v2.217C65.76,58.693,63.134,60.211,59.4,60.794Z" transform="translate(-59.4 -52.8)" fill="#f19d00"/>
        </g>
        <g id="Group_614" data-name="Group 614">
          <ellipse id="Ellipse_140" data-name="Ellipse 140" cx="9.92" cy="4.201" rx="9.92" ry="4.201" fill="#ffd400"/>
        </g>
        <g id="Group_615" data-name="Group 615" transform="translate(0.7 0.058)">
          <path id="Path_547" data-name="Path 547" d="M41.059,56.711a7,7,0,0,1-3.559-2.1l7.994-5.252c.467,0,.934-.058,1.342-.058a19.719,19.719,0,0,1,4.668.525Z" transform="translate(-37.5 -49.3)" fill="#fffc8f"/>
        </g>
        <g id="Group_616" data-name="Group 616" transform="translate(6.302 1.167)">
          <path id="Path_548" data-name="Path 548" d="M49.434,58.26a15.009,15.009,0,0,1-2.334-.292L57.428,51.2A9.883,9.883,0,0,1,59,51.959Z" transform="translate(-47.1 -51.2)" fill="#fffc8f"/>
        </g>
      </g>
    </g>
    <g id="Group_627" data-name="Group 627">
      <g id="Group_626" data-name="Group 626">
        <g id="Group_619" data-name="Group 619" transform="translate(0 2.451)">
          <ellipse id="Ellipse_141" data-name="Ellipse 141" cx="9.92" cy="4.201" rx="9.92" ry="4.201" fill="#ce7d13"/>
        </g>
        <g id="Group_620" data-name="Group 620" transform="translate(0 1.926)">
          <path id="Path_549" data-name="Path 549" d="M36.3,49.717V51.76c0,1.751,2.451,3.209,5.952,3.851a13.045,13.045,0,0,0,2.684.292c.408,0,.875.058,1.284.058a21.364,21.364,0,0,0,3.968-.35c3.5-.642,5.31-2.159,5.31-3.91l.642-2.217c-1.4-1.575-5.718-1.984-9.92-1.984C42.835,47.558,38.109,48.667,36.3,49.717Z" transform="translate(-36.3 -47.5)" fill="#ffc50d"/>
        </g>
        <g id="Group_621" data-name="Group 621" transform="translate(5.952 6.36)" opacity="0.43">
          <path id="Path_550" data-name="Path 550" d="M46.5,55.1v3.734a13.045,13.045,0,0,0,2.684.292V55.1Z" transform="translate(-46.5 -55.1)" fill="#fffc8f"/>
        </g>
        <g id="Group_622" data-name="Group 622" transform="translate(13.479 2.101)">
          <path id="Path_551" data-name="Path 551" d="M59.4,55.794V47.8c2.859.233,5.368.7,6.36,1.867v2.217C65.76,53.693,63.134,55.211,59.4,55.794Z" transform="translate(-59.4 -47.8)" fill="#f19d00"/>
        </g>
        <g id="Group_623" data-name="Group 623">
          <ellipse id="Ellipse_142" data-name="Ellipse 142" cx="9.92" cy="4.201" rx="9.92" ry="4.201" fill="#ffd400"/>
        </g>
        <g id="Group_624" data-name="Group 624" transform="translate(0.7 0.058)">
          <path id="Path_552" data-name="Path 552" d="M41.059,51.711a7,7,0,0,1-3.559-2.1l7.994-5.252c.467,0,.934-.058,1.342-.058a19.718,19.718,0,0,1,4.668.525Z" transform="translate(-37.5 -44.3)" fill="#fffc8f"/>
        </g>
        <g id="Group_625" data-name="Group 625" transform="translate(6.302 1.167)">
          <path id="Path_553" data-name="Path 553" d="M49.434,53.26a15.01,15.01,0,0,1-2.334-.292L57.428,46.2A9.883,9.883,0,0,1,59,46.959Z" transform="translate(-47.1 -46.2)" fill="#fffc8f"/>
        </g>
      </g>
    </g>
  </g>
  <g id="Group_639" data-name="Group 639" transform="translate(0 51.232)">
    <g id="Group_633" data-name="Group 633" transform="translate(0 8.753)">
      <g id="Group_632" data-name="Group 632">
        <path id="Path_554" data-name="Path 554" d="M48.023,118.237,59.4,104.7v7.236l-11.32,13.537-.058.058H0v-7.294Z" transform="translate(0 -103.591)" fill="#47752f"/>
        <path id="Path_555" data-name="Path 555" d="M93.678,110.035V102.8L82.3,116.337v7.236Z" transform="translate(-34.277 -102.8)" fill="#4e8436"/>
        <g id="Group_631" data-name="Group 631">
          <path id="Path_556" data-name="Path 556" d="M11.87,103.2.9,116.271H48.281L59.251,103.2Z" transform="translate(-0.375 -102.967)" fill="#ade069"/>
          <path id="Path_557" data-name="Path 557" d="M0,133.294H48.023V126H0Z" transform="translate(0 -112.463)" fill="#70a33c"/>
          <path id="Path_558" data-name="Path 558" d="M11.895,103.1,1.1,116.112H48.539L59.276,103.1H11.895Zm-4.668,8.811,3.734-4.493a10.05,10.05,0,0,0,6.944-2.976H51.223c-1.342,1.634-.467,2.918,1.926,2.976l-3.734,4.493a10.16,10.16,0,0,0-6.827,2.859H9.269C10.553,113.195,9.619,111.911,7.227,111.911Z" transform="translate(-0.458 -102.925)" fill="#70a33c"/>
          <ellipse id="Ellipse_143" data-name="Ellipse 143" cx="4.96" cy="2.276" rx="4.96" ry="2.276" transform="translate(24.327 6.248) rotate(-19.761)" fill="#607700"/>
          <path id="Path_559" data-name="Path 559" d="M63.868,113.256c-.7.817-.233,1.459,1.05,1.459a4.931,4.931,0,0,0,3.443-1.459c.7-.817.233-1.459-1.05-1.459A4.7,4.7,0,0,0,63.868,113.256Z" transform="translate(-26.465 -106.546)" fill="#fff"/>
          <path id="Path_560" data-name="Path 560" d="M30.068,113.256c-.7.817-.233,1.459,1.05,1.459a4.931,4.931,0,0,0,3.443-1.459c.7-.817.233-1.459-1.05-1.459A4.7,4.7,0,0,0,30.068,113.256Z" transform="translate(-12.388 -106.546)" fill="#fff"/>
          <path id="Path_561" data-name="Path 561" d="M11.378,102.8H59.4L48.023,116.337H0Zm46.972.467H11.612L1.05,115.871H47.789Z" transform="translate(0 -102.8)" fill="#9fd65e"/>
          <path id="Path_562" data-name="Path 562" d="M49.078,102.8H55.73L44.41,116.337v7.294H37.7v-7.294Z" transform="translate(-15.702 -102.8)" fill="#48842f" opacity="0.44"/>
          <path id="Path_563" data-name="Path 563" d="M35.4,116.337v7.294h6.652v-7.294h0L53.43,102.8H46.778Z" transform="translate(-14.744 -102.8)" fill="#fff"/>
          <g id="Group_629" data-name="Group 629" transform="translate(26.55)">
            <path id="Path_564" data-name="Path 564" d="M56.878,102.8H58.22L46.842,116.337v7.294H45.5v-7.294Z" transform="translate(-45.5 -102.8)" fill="#ff895a"/>
          </g>
          <g id="Group_630" data-name="Group 630" transform="translate(20.014)">
            <path id="Path_565" data-name="Path 565" d="M45.678,102.8H47.02L35.642,116.337v7.294H34.3v-7.294Z" transform="translate(-34.3 -102.8)" fill="#ff895a"/>
          </g>
          <path id="Path_566" data-name="Path 566" d="M34.3,126v7.294h7.877V126H34.3Z" transform="translate(-14.286 -112.463)" fill="#846e56" opacity="0.29"/>
        </g>
      </g>
    </g>
    <g id="Group_638" data-name="Group 638">
      <g id="Group_637" data-name="Group 637">
        <path id="Path_567" data-name="Path 567" d="M48.023,103.237,59.4,89.7v7.236l-11.32,13.537-.058.058H0v-7.294Z" transform="translate(0 -88.591)" fill="#47752f"/>
        <path id="Path_568" data-name="Path 568" d="M93.678,95.036V87.8L82.3,101.337v7.236Z" transform="translate(-34.277 -87.8)" fill="#4e8436"/>
        <g id="Group_636" data-name="Group 636">
          <path id="Path_569" data-name="Path 569" d="M11.87,88.2.9,101.271H48.281L59.251,88.2Z" transform="translate(-0.375 -87.967)" fill="#ade069"/>
          <path id="Path_570" data-name="Path 570" d="M0,118.294H48.023V111H0Z" transform="translate(0 -97.463)" fill="#70a33c"/>
          <path id="Path_571" data-name="Path 571" d="M11.895,88.1,1.1,101.112H48.539L59.276,88.1ZM7.227,96.911l3.734-4.493a10.05,10.05,0,0,0,6.944-2.976H51.223c-1.342,1.634-.467,2.918,1.926,2.976l-3.734,4.493a10.16,10.16,0,0,0-6.827,2.859H9.269C10.553,98.195,9.619,96.911,7.227,96.911Z" transform="translate(-0.458 -87.925)" fill="#70a33c"/>
          <ellipse id="Ellipse_144" data-name="Ellipse 144" cx="4.96" cy="2.276" rx="4.96" ry="2.276" transform="translate(24.328 6.248) rotate(-19.761)" fill="#607700"/>
          <path id="Path_572" data-name="Path 572" d="M63.868,98.256c-.7.817-.233,1.459,1.05,1.459a4.931,4.931,0,0,0,3.443-1.459c.7-.817.233-1.459-1.05-1.459A4.7,4.7,0,0,0,63.868,98.256Z" transform="translate(-26.465 -91.546)" fill="#fff"/>
          <path id="Path_573" data-name="Path 573" d="M30.068,98.256c-.7.817-.233,1.459,1.05,1.459a4.931,4.931,0,0,0,3.443-1.459c.7-.817.233-1.459-1.05-1.459A4.7,4.7,0,0,0,30.068,98.256Z" transform="translate(-12.388 -91.546)" fill="#fff"/>
          <path id="Path_574" data-name="Path 574" d="M11.378,87.8H59.4L48.023,101.337H0Zm46.972.467H11.612L1.05,100.871H47.789Z" transform="translate(0 -87.8)" fill="#9fd65e"/>
          <path id="Path_575" data-name="Path 575" d="M49.078,87.8H55.73L44.41,101.337v7.294H37.7v-7.294Z" transform="translate(-15.702 -87.8)" fill="#48842f" opacity="0.44"/>
          <path id="Path_576" data-name="Path 576" d="M35.4,101.337v7.294h6.652v-7.294h0L53.43,87.8H46.778Z" transform="translate(-14.744 -87.8)" fill="#fff"/>
          <g id="Group_634" data-name="Group 634" transform="translate(26.55)">
            <path id="Path_577" data-name="Path 577" d="M56.878,87.8H58.22L46.842,101.337v7.294H45.5v-7.294Z" transform="translate(-45.5 -87.8)" fill="#ff895a"/>
          </g>
          <g id="Group_635" data-name="Group 635" transform="translate(20.014)">
            <path id="Path_578" data-name="Path 578" d="M45.678,87.8H47.02L35.642,101.337v7.294H34.3v-7.294Z" transform="translate(-34.3 -87.8)" fill="#ff895a"/>
          </g>
          <path id="Path_579" data-name="Path 579" d="M34.3,111v7.294h7.877V111H34.3Z" transform="translate(-14.286 -97.463)" fill="#846e56" opacity="0.29"/>
        </g>
      </g>
    </g>
  </g>
</svg>
