<svg xmlns="http://www.w3.org/2000/svg" width="30" height="30" viewBox="0 0 30 30">
  <g id="question" transform="translate(0 0)" opacity="0.75">
    <path id="Path_239" data-name="Path 239" d="M145.884,128.531h-.658v5.115a6.881,6.881,0,0,1-6.873,6.873h-9.822v.658a5.121,5.121,0,0,0,5.115,5.115h10.508l5.4,4.5a.879.879,0,0,0,1.441-.675V133.646a5.112,5.112,0,0,0-5.115-5.115Zm0,0" transform="translate(-120.999 -121)" fill="#fff"/>
    <path id="Path_240" data-name="Path 240" d="M22.469,12.647V5.115A5.112,5.112,0,0,0,17.354,0H5.116A5.112,5.112,0,0,0,0,5.115V21.59a.879.879,0,0,0,1.441.675l5.4-4.5H17.354a5.121,5.121,0,0,0,5.115-5.115ZM11.235,14a.879.879,0,1,1,.879-.879A.879.879,0,0,1,11.235,14Zm.879-3.887v.184a.879.879,0,1,1-1.758,0V9.352a.879.879,0,0,1,.879-.879A1.475,1.475,0,1,0,9.76,7,.879.879,0,1,1,8,7H8a3.232,3.232,0,1,1,4.111,3.112Zm0,0" fill="#fff"/>
  </g>
</svg>
