<svg xmlns="http://www.w3.org/2000/svg" width="30" height="30" viewBox="0 0 30 30">
  <g id="ruble" transform="translate(0 -0.001)">
    <path id="Path_243" data-name="Path 243" d="M25.6,4.4a15,15,0,1,0,0,21.208A14.988,14.988,0,0,0,25.6,4.4ZM15,27.534A12.533,12.533,0,1,1,27.534,15,12.547,12.547,0,0,1,15,27.534Z" transform="translate(0)" fill="#fff"/>
    <path id="Path_244" data-name="Path 244" d="M157.505,128.058h-4.38a1.232,1.232,0,0,0-1.232,1.232v5.025h-1.271a1.232,1.232,0,0,0,0,2.464h1.271v1.29h-1.271a1.232,1.232,0,0,0,0,2.464h1.271V141.8a1.232,1.232,0,0,0,2.464,0v-1.271h2.522a1.232,1.232,0,0,0,0-2.464h-2.522v-1.29h3.148a4.36,4.36,0,0,0,0-8.72Zm0,6.257h-3.148v-3.793h3.148a1.9,1.9,0,0,1,0,3.793Z" transform="translate(-140.628 -120.546)" fill="#fff"/>
  </g>
</svg>
