<svg xmlns="http://www.w3.org/2000/svg" width="30.039" height="16.962" viewBox="0 0 30.039 16.962"><defs><style>.a{fill:#fff;}</style></defs><g transform="translate(0 -111.445)"><g transform="translate(8.656 121.454)"><path class="a" d="M157.583,282.692a5.286,5.286,0,0,0-2.542-.647h-2.188a5.313,5.313,0,0,0-5.314,5.314V289h12.815v-1.639A5.312,5.312,0,0,0,157.583,282.692Z" transform="translate(-147.54 -282.045)"/></g><g transform="translate(20.041 119.998)"><path class="a" d="M346.281,257.225h-1.819a5.261,5.261,0,0,0-2.882.855,7.087,7.087,0,0,1,3.191,5.915v.771h6.807v-2.243A5.3,5.3,0,0,0,346.281,257.225Z" transform="translate(-341.58 -257.225)"/></g><g transform="translate(0 119.998)"><path class="a" d="M7.117,257.225H5.3a5.3,5.3,0,0,0-5.3,5.3v2.243H6.9v-.771a7.091,7.091,0,0,1,3.147-5.886A5.263,5.263,0,0,0,7.117,257.225Z" transform="translate(0 -257.225)"/></g><g transform="translate(20.261 112.03)"><path class="a" d="M348.9,121.416h-.028a3.77,3.77,0,0,0,.034,7.528h.028a3.457,3.457,0,0,0,2.537-1.145,3.85,3.85,0,0,0,1-2.648A3.677,3.677,0,0,0,348.9,121.416Z" transform="translate(-345.337 -121.416)"/></g><g transform="translate(2.636 112.03)"><path class="a" d="M48.506,121.416h-.028a3.77,3.77,0,0,0,.034,7.528h.028a3.457,3.457,0,0,0,2.537-1.145,3.85,3.85,0,0,0,1-2.648A3.677,3.677,0,0,0,48.506,121.416Z" transform="translate(-44.938 -121.416)"/></g><g transform="translate(10.948 111.445)"><path class="a" d="M190.716,111.445a4.242,4.242,0,0,0-4.116,4.349,4.377,4.377,0,0,0,2.357,3.931,3.914,3.914,0,0,0,3.519,0,4.377,4.377,0,0,0,2.357-3.931A4.242,4.242,0,0,0,190.716,111.445Z" transform="translate(-186.6 -111.445)"/></g></g></svg>