<svg xmlns="http://www.w3.org/2000/svg" width="24" height="28.843" viewBox="0 0 24 28.843">
  <path id="server" d="M22.34,8A2.163,2.163,0,0,0,24.5,5.844V2.161A2.163,2.163,0,0,0,22.34,0H2.661A2.163,2.163,0,0,0,.5,2.161V5.844A2.163,2.163,0,0,0,2.661,8h8.988v2.414H2.661A2.163,2.163,0,0,0,.5,12.58v3.684a2.163,2.163,0,0,0,2.16,2.16h8.988v2.414H2.661A2.163,2.163,0,0,0,.5,23v3.683a2.163,2.163,0,0,0,2.16,2.161H22.34A2.163,2.163,0,0,0,24.5,26.682V23a2.163,2.163,0,0,0-2.161-2.16H13.352V18.424H22.34a2.163,2.163,0,0,0,2.16-2.16V12.58a2.163,2.163,0,0,0-2.16-2.16H13.352V8ZM20.425,23.989a.852.852,0,1,1-.852.852A.867.867,0,0,1,20.425,23.989Zm-2.326,0a.852.852,0,1,1-.852.852A.867.867,0,0,1,18.1,23.989Zm-1.766.852a.852.852,0,0,1-.852.852H4.576a.852.852,0,1,1,0-1.7H15.481A.852.852,0,0,1,16.333,24.841ZM20.425,13.57a.852.852,0,1,1-.852.852A.867.867,0,0,1,20.425,13.57Zm-2.326,0a.852.852,0,1,1-.852.852A.867.867,0,0,1,18.1,13.57Zm-1.766.852a.852.852,0,0,1-.852.852H4.576a.852.852,0,0,1,0-1.7H15.481A.852.852,0,0,1,16.333,14.422ZM20.425,3.151A.852.852,0,1,1,19.573,4,.867.867,0,0,1,20.425,3.151Zm-2.326,0A.852.852,0,1,1,17.247,4,.867.867,0,0,1,18.1,3.151ZM3.724,4a.852.852,0,0,1,.852-.852H15.481a.852.852,0,0,1,0,1.7H4.575A.852.852,0,0,1,3.724,4Zm0,0" transform="translate(-0.5 0)" fill="#fff" opacity="0.9"/>
</svg>
