<svg xmlns="http://www.w3.org/2000/svg" width="31.887" height="39.998" viewBox="0 0 31.887 39.998">
  <path id="hdd" d="M49.077,15.794a4.087,4.087,0,1,1-4.087-4.087A4.092,4.092,0,0,1,49.077,15.794ZM60.887,37.9a2.1,2.1,0,0,1-2.1,2.1H31.1A2.1,2.1,0,0,1,29,37.9V2.1A2.1,2.1,0,0,1,31.1,0H58.789a2.1,2.1,0,0,1,2.1,2.1ZM33.124,6.028a1.989,1.989,0,1,0,1.989-1.989A1.989,1.989,0,0,0,33.124,6.028ZM37.1,34a1.989,1.989,0,1,0-1.989,1.989A1.989,1.989,0,0,0,37.1,34ZM54.9,16.1A9.839,9.839,0,1,0,37.523,22.41l1.658-1.664a2.1,2.1,0,0,1,3.477,2.141l-.829,2.5A9.834,9.834,0,0,0,54.9,16.1ZM57,34a1.989,1.989,0,1,0-1.989,1.989A1.989,1.989,0,0,0,57,34ZM57,6.028a1.989,1.989,0,1,0-1.989,1.989A1.989,1.989,0,0,0,57,6.028Z" transform="translate(-29)" fill="#fff"/>
</svg>
