<svg xmlns="http://www.w3.org/2000/svg" width="40" height="29.333" viewBox="0 0 40 29.333">
  <g id="video-card" transform="translate(0 -8)">
    <path id="Path_171" data-name="Path 171" d="M19.4,33c-.235-.264-.461-.542-.678-.831a10.622,10.622,0,0,1-2.326-5.92c-.047-.5-.065-.883-.065-1.249s.019-.745.06-1.2a10.724,10.724,0,0,1,2.362-6.011c.2-.271.419-.537.647-.793H14.333C11.393,17,9,20.589,9,25s2.393,8,5.333,8Z" transform="translate(-3 -3)" fill="#fff"/>
    <path id="Path_172" data-name="Path 172" d="M40.49,27.683a1.327,1.327,0,0,0-.2-.272l-.173-.137a1.287,1.287,0,0,0-.337-.19l-.062-.019a1.366,1.366,0,0,0-.219-.047A1.229,1.229,0,0,0,39.333,27a1.333,1.333,0,0,0-.282,2.635l.025.005a1.3,1.3,0,0,0,.257.026,1.324,1.324,0,0,0,.39-.065l.053-.019a1.336,1.336,0,0,0,.812-.819l.013-.042.031-.241a1.348,1.348,0,0,0-.139-.791Z" transform="translate(-12.667 -6.333)" fill="#fff"/>
    <path id="Path_173" data-name="Path 173" d="M38.973,17H32.36a8.65,8.65,0,0,0,0,16h6.613a8.65,8.65,0,0,0,0-16Zm2.532,12.435-.231.269-.352-.042a8.878,8.878,0,0,1-2.771-.919,4.034,4.034,0,0,0,.857,1.061,1.115,1.115,0,0,1,.379,1.061,1.074,1.074,0,0,1-.723.827,11.276,11.276,0,0,1-3.185.667,3.25,3.25,0,0,1-.492-.035l-.35-.054-.151-.32a9.073,9.073,0,0,1-.7-2.972,4.079,4.079,0,0,0-.526,1.384,1.1,1.1,0,0,1-1.089.939h0a1.086,1.086,0,0,1-.7-.263,9.251,9.251,0,0,1-2.437-2.825l-.134-.328.2-.295a9.74,9.74,0,0,1,2.555-2.394,4.357,4.357,0,0,0-.686-.058,3.892,3.892,0,0,0-1.177.174,1.122,1.122,0,0,1-.347.055,1.1,1.1,0,0,1-.869-.419,1.081,1.081,0,0,1-.2-.927,9.252,9.252,0,0,1,1.412-3.455l.231-.269.352.042a8.878,8.878,0,0,1,2.771.919,4.034,4.034,0,0,0-.857-1.061,1.118,1.118,0,0,1-.38-1.061,1.075,1.075,0,0,1,.725-.826,9.374,9.374,0,0,1,3.677-.633l.35.054.151.32a9.08,9.08,0,0,1,.7,2.973,4.07,4.07,0,0,0,.526-1.384,1.1,1.1,0,0,1,1.09-.939,1.086,1.086,0,0,1,.7.263,9.239,9.239,0,0,1,2.437,2.825l.134.328-.2.295A9.73,9.73,0,0,1,39.637,24.8a4.363,4.363,0,0,0,.686.058,3.888,3.888,0,0,0,1.176-.173,1.125,1.125,0,0,1,1.217.365,1.081,1.081,0,0,1,.2.927A9.253,9.253,0,0,1,41.505,29.435Z" transform="translate(-9 -3)" fill="#fff"/>
    <path id="Path_174" data-name="Path 174" d="M3.333,10.667v-2A.666.666,0,0,0,2.667,8h-2a.667.667,0,0,0,0,1.333H2v3.333H0v4H2v2H1.333a.667.667,0,0,0,0,1.333H2v.667H0v10H2v.667H1.333a.667.667,0,0,0,0,1.333H2v4a.667.667,0,1,0,1.333,0V33.333h4V36H24.667V33.333H40V10.667ZM2,29.333H1.333V22H2Zm0-14H1.333V14H2Zm2.667-2.667A.667.667,0,1,1,4,13.333.667.667,0,0,1,4.667,12.667Zm0,18.667a.667.667,0,1,1,.667-.667A.667.667,0,0,1,4.667,31.333Zm0-9.333c0-5.147,2.991-9.333,6.667-9.333h8.531l-1.4,1.177a10.772,10.772,0,0,0-1.675,1.787,9.369,9.369,0,0,0-2.067,5.248c-.041.457-.059.8-.059,1.122s.017.665.055,1.075a9.381,9.381,0,0,0,2.042,5.258,10.929,10.929,0,0,0,1.7,1.824l1.4,1.177H11.333C7.657,31.333,4.667,27.147,4.667,22ZM23.333,34.667h-.667V34H21.333v.667h-.667V34H19.333v.667h-.667V34H17.333v.667h-.667V34H15.333v.667h-.667V34H13.333v.667h-.667V34H11.333v.667h-.667V34H9.333v.667H8.667V33.333H23.333Zm7.015-3.38-.118.047H23.1l-.119-.047a9.984,9.984,0,0,1,0-18.573l.118-.047H30.23l.119.047a9.984,9.984,0,0,1,0,18.573Zm6.985.047A.667.667,0,1,1,38,30.667.667.667,0,0,1,37.333,31.333Zm0-17.333A.667.667,0,1,1,38,13.333.667.667,0,0,1,37.333,14Z" fill="#fff"/>
  </g>
</svg>
