<svg id="sound-card" xmlns="http://www.w3.org/2000/svg" width="39.998" height="39.998" viewBox="0 0 39.998 39.998">
  <path id="Path_180" data-name="Path 180" d="M0,2.344H4.687V40H7.031V0H0Zm0,0" fill="#fff"/>
  <path id="Path_181" data-name="Path 181" d="M180,452h16.562v4.687H180Zm0,0" transform="translate(-165.938 -416.689)" fill="#fff"/>
  <path id="Path_182" data-name="Path 182" d="M422,452h4.687v4.687H422Zm0,0" transform="translate(-389.033 -416.689)" fill="#fff"/>
  <path id="Path_183" data-name="Path 183" d="M15,332h2.344v2.344H15Zm0,0" transform="translate(-13.828 -306.064)" fill="#fff"/>
  <path id="Path_184" data-name="Path 184" d="M15,272h2.344v2.344H15Zm0,0" transform="translate(-13.828 -250.751)" fill="#fff"/>
  <path id="Path_185" data-name="Path 185" d="M15,212h2.344v2.344H15Zm0,0" transform="translate(-13.828 -195.438)" fill="#fff"/>
  <path id="Path_186" data-name="Path 186" d="M15,152h2.344v2.344H15Zm0,0" transform="translate(-13.828 -140.126)" fill="#fff"/>
  <path id="Path_187" data-name="Path 187" d="M120,272h4.687v2.344H120Zm0,0" transform="translate(-110.625 -250.751)" fill="#fff"/>
  <path id="Path_188" data-name="Path 188" d="M120,332h4.687v2.344H120Zm0,0" transform="translate(-110.625 -306.064)" fill="#fff"/>
  <path id="Path_189" data-name="Path 189" d="M270,272h14.218v7.031H270Zm0,0" transform="translate(-248.907 -250.751)" fill="#fff"/>
  <path id="Path_190" data-name="Path 190" d="M150.624,92H120v2.344h7.031v21.093H120v2.344h30.624Zm-2.344,23.436H129.375V103.718H148.28Zm0,0" transform="translate(-110.625 -84.813)" fill="#fff"/>
  <path id="Path_191" data-name="Path 191" d="M120,212h4.687v2.344H120Zm0,0" transform="translate(-110.625 -195.438)" fill="#fff"/>
  <path id="Path_192" data-name="Path 192" d="M120,152h4.687v2.344H120Zm0,0" transform="translate(-110.625 -140.126)" fill="#fff"/>
</svg>
