<svg xmlns="http://www.w3.org/2000/svg" width="39.998" height="30.101" viewBox="0 0 39.998 30.101">
  <g id="wifi" transform="translate(0 -2.569)">
    <g id="Group_52" data-name="Group 52" transform="translate(0 2.569)">
      <circle id="Ellipse_20" data-name="Ellipse 20" cx="4.673" cy="4.673" r="4.673" transform="translate(15.421 20.755)" fill="#fff"/>
      <path id="Path_193" data-name="Path 193" d="M27.8,12.078c-.069-.071-.143-.135-.214-.2l-.21-.2a1.021,1.021,0,0,0-.117-.1,15.244,15.244,0,0,0-21.056.5l-.676.678-.936.936a2.934,2.934,0,0,0,4.149,4.149l1.614-1.614a9.417,9.417,0,0,1,13.3,0l1.165,1.129a2.91,2.91,0,0,0,4.958-2.063,2.857,2.857,0,0,0-.846-2.047Z" transform="translate(3.462 2.092)" fill="#fff"/>
      <path id="Path_194" data-name="Path 194" d="M39.222,10.963l-.971-.971s-.006-.01-.013-.012l-.767-.77a2.764,2.764,0,0,0-.435-.349,25.438,25.438,0,0,0-34.362.792c-.046.042-.1.071-.144.117L.776,11.525a2.676,2.676,0,0,0,3.785,3.783l1.753-1.751a.227.227,0,0,1,.033-.039,20.082,20.082,0,0,1,27.713-.152l1.379,1.381a2.676,2.676,0,0,0,3.783-3.785Z" transform="translate(0 -2.569)" fill="#fff"/>
    </g>
  </g>
</svg>
