<svg xmlns="http://www.w3.org/2000/svg" width="40" height="32.5" viewBox="0 0 40 32.5">
  <g id="computer-screen" transform="translate(0 -47.999)">
    <path id="Path_178" data-name="Path 178" d="M38.585,48.01a140.634,140.634,0,0,1-37.17,0A1.25,1.25,0,0,0,0,49.249v20a1.25,1.25,0,0,0,1.415,1.239,140.446,140.446,0,0,1,37.17,0A1.25,1.25,0,0,0,40,69.249v-20a1.25,1.25,0,0,0-1.415-1.239Z" fill="#fff"/>
    <path id="Path_179" data-name="Path 179" d="M131.636,356.183a1.25,1.25,0,0,0-.884-.366H127v-3.694c-2.489-.068-5.01-.068-7.5,0v3.694h-3.75a1.25,1.25,0,0,0-.884.366l-2.5,2.5a1.25,1.25,0,0,0,1.767,1.767l2.134-2.134h13.964l2.134,2.134a1.25,1.25,0,1,0,1.767-1.767Z" transform="translate(-103.252 -280.318)" fill="#fff"/>
  </g>
</svg>
