<svg id="cpu" xmlns="http://www.w3.org/2000/svg" width="40" height="40" viewBox="0 0 40 40">
  <g id="Group_49" data-name="Group 49">
    <g id="Group_48" data-name="Group 48">
      <path id="Path_170" data-name="Path 170" d="M39.091,15.454a.909.909,0,1,0,0-1.818H36.364V10h2.727a.909.909,0,1,0,0-1.818H36.364V7.273a3.64,3.64,0,0,0-3.636-3.636h-.909V.909A.909.909,0,0,0,30,.909V3.636H26.364V.909a.909.909,0,1,0-1.818,0V3.636H20.909V.909a.909.909,0,1,0-1.818,0V3.636H15.454V.909a.909.909,0,1,0-1.818,0V3.636H10V.909a.909.909,0,1,0-1.818,0V3.636H7.273A3.64,3.64,0,0,0,3.636,7.273v.909H.909A.909.909,0,0,0,.909,10H3.636v3.636H.909a.909.909,0,0,0,0,1.818H3.636v3.636H.909a.909.909,0,0,0,0,1.818H3.636v3.636H.909a.909.909,0,1,0,0,1.818H3.636V30H.909a.909.909,0,1,0,0,1.818H3.636v.909a3.64,3.64,0,0,0,3.636,3.636h.909v2.727a.909.909,0,1,0,1.818,0V36.364h3.636v2.727a.909.909,0,1,0,1.818,0V36.364h3.636v2.727a.909.909,0,1,0,1.818,0V36.364h3.636v2.727a.909.909,0,1,0,1.818,0V36.364H30v2.727a.909.909,0,1,0,1.818,0V36.364h.909a3.64,3.64,0,0,0,3.636-3.636v-.909h2.727a.909.909,0,1,0,0-1.818H36.364V26.363h2.727a.909.909,0,1,0,0-1.818H36.364V20.909h2.727a.909.909,0,1,0,0-1.818H36.364V15.454h2.727ZM32.727,31.818a.909.909,0,0,1-.909.909H8.182a.909.909,0,0,1-.909-.909V8.182a.909.909,0,0,1,.909-.909H31.818a.909.909,0,0,1,.909.909Z" fill="#fff"/>
      <rect id="Rectangle_81" data-name="Rectangle 81" width="21.818" height="21.818" transform="translate(9.091 9.091)" fill="#fff"/>
    </g>
  </g>
</svg>
