<svg xmlns="http://www.w3.org/2000/svg" width="40.002" height="40" viewBox="0 0 40.002 40">
  <g id="ram-memory" transform="translate(0 -0.015)">
    <g id="Group_51" data-name="Group 51" transform="translate(0 0.015)">
      <g id="Group_50" data-name="Group 50" transform="translate(0 0)">
        <path id="Path_175" data-name="Path 175" d="M258.6,91.755l4.1,4.1,1.539-1.539-.513-.513a.725.725,0,0,1,1.026-1.026l.513.513,1.026-1.026-.513-.513a.725.725,0,1,1,1.026-1.026l.513.513,1.026-1.026-.513-.513a.725.725,0,0,1,1.026-1.026l.513.513,1.026-1.026h0l-4.1-4.1Zm6.154-2.051L262.7,91.755a.725.725,0,0,1-1.026-1.026l2.052-2.051a.725.725,0,1,1,1.026,1.026Zm2.051-3.078a.733.733,0,0,1,.159.232.775.775,0,0,1,.051.283.73.73,0,0,1-.21.515.763.763,0,0,1-.515.21.725.725,0,1,1,.283-1.393h0A.72.72,0,0,1,266.8,86.626Z" transform="translate(-238.083 -77.395)" fill="#fff"/>
        <rect id="Rectangle_84" data-name="Rectangle 84" width="5.802" height="2.176" transform="translate(20.001 23.079) rotate(-135)" fill="#fff"/>
        <rect id="Rectangle_85" data-name="Rectangle 85" width="5.802" height="2.176" transform="translate(15.386 27.697) rotate(-135)" fill="#fff"/>
        <rect id="Rectangle_86" data-name="Rectangle 86" width="1.451" height="1.451" transform="translate(12.311 40) rotate(-135)" fill="#fff"/>
        <rect id="Rectangle_87" data-name="Rectangle 87" width="1.451" height="33.364" transform="matrix(-0.707, -0.707, 0.707, -0.707, 14.36, 37.951)" fill="#fff"/>
        <rect id="Rectangle_88" data-name="Rectangle 88" width="1.451" height="1.451" transform="translate(37.95 12.308) rotate(-45)" fill="#fff"/>
        <path id="Path_176" data-name="Path 176" d="M37.351,9.672a2.176,2.176,0,0,1-2.9-2.9l-1.2-1.2a2.176,2.176,0,0,1-2.9-2.9L27.695.015,0,27.71l2.652,2.652a2.176,2.176,0,0,1,2.9,2.9l1.2,1.2a2.176,2.176,0,0,1,2.9,2.9l.6.6L37.952,10.272ZM3.748,27.988a.635.635,0,0,1-.16.232.708.708,0,0,1-.507.217.725.725,0,0,1-.515-.217.7.7,0,0,1-.21-.508A.718.718,0,0,1,3.588,27.2a.63.63,0,0,1,.16.232.791.791,0,0,1,.058.283A.725.725,0,0,1,3.748,27.988ZM27.182,2.58a.743.743,0,0,1,1.023,0,.725.725,0,0,1,.217.515.744.744,0,0,1-.725.725.723.723,0,0,1-.515-.218.7.7,0,0,1-.21-.507A.718.718,0,0,1,27.182,2.58ZM13.334,31.812h0L11.8,33.351a1.45,1.45,0,0,1-2.051,0l-4.1-4.1a1.453,1.453,0,0,1,0-2.052L7.18,25.658a1.451,1.451,0,0,1,2.052,0l4.1,4.1a1.45,1.45,0,0,1,0,2.051ZM17.95,27.2l-1.538,1.538a1.452,1.452,0,0,1-2.052,0l-4.1-4.1a1.452,1.452,0,0,1,0-2.051L11.8,21.042a1.452,1.452,0,0,1,2.051,0l4.1,4.1a1.45,1.45,0,0,1,0,2.051Zm4.616-4.616h0L21.027,24.12a1.452,1.452,0,0,1-2.051,0l-4.1-4.1a1.45,1.45,0,0,1,0-2.052l1.538-1.538a1.484,1.484,0,0,1,2.052,0l4.1,4.1A1.453,1.453,0,0,1,22.567,22.581Zm10.77-10.77h0L25.643,19.5a1.453,1.453,0,0,1-2.051,0l-4.1-4.1a1.45,1.45,0,0,1,0-2.051l7.693-7.693a1.452,1.452,0,0,1,2.052,0l4.1,4.1a1.45,1.45,0,0,1,0,2.051Z" transform="translate(0 -0.015)" fill="#fff"/>
        <path id="Path_177" data-name="Path 177" d="M84.043,337.728l4.1,4.1,1.539-1.539h0l-4.1-4.1Z" transform="translate(-77.376 -309.521)" fill="#fff"/>
      </g>
    </g>
  </g>
</svg>
