<svg xmlns="http://www.w3.org/2000/svg" width="30.395" height="32.974" viewBox="0 0 30.395 32.974">
  <g id="normal" transform="translate(-1315.705 -837)">
    <path id="paperclip" d="M8.75,28A8.759,8.759,0,0,1,0,19.25V7A1.167,1.167,0,0,1,2.333,7V19.25a6.417,6.417,0,1,0,12.833,0V6.417A4.083,4.083,0,0,0,7,6.417V18.083a1.75,1.75,0,0,0,3.5,0V7a1.167,1.167,0,0,1,2.333,0V18.083a4.083,4.083,0,0,1-8.167,0V6.417a6.417,6.417,0,0,1,12.833,0V19.25A8.759,8.759,0,0,1,8.75,28Zm0,0" transform="matrix(0.819, 0.574, -0.574, 0.819, 1331.766, 837)" fill="#fff"/>
  </g>
</svg>
