<svg xmlns="http://www.w3.org/2000/svg" width="21.333" height="24.272" viewBox="0 0 21.333 24.272">
  <g id="user" transform="translate(-31)">
    <g id="Group_68" data-name="Group 68" transform="translate(35.267)">
      <g id="Group_67" data-name="Group 67" transform="translate(0)">
        <path id="Path_208" data-name="Path 208" d="M127.4,0a6.4,6.4,0,1,0,6.4,6.4A6.407,6.407,0,0,0,127.4,0Z" transform="translate(-121 0)" fill="#fff"/>
      </g>
    </g>
    <g id="Group_70" data-name="Group 70" transform="translate(31 14.222)">
      <g id="Group_69" data-name="Group 69" transform="translate(0)">
        <path id="Path_209" data-name="Path 209" d="M49.629,302.759A9.123,9.123,0,0,0,43.089,300H40.244a9.123,9.123,0,0,0-6.541,2.759,9.327,9.327,0,0,0-2.7,6.58.711.711,0,0,0,.711.711H51.622a.711.711,0,0,0,.711-.711A9.327,9.327,0,0,0,49.629,302.759Z" transform="translate(-31 -300)" fill="#fff"/>
      </g>
    </g>
  </g>
</svg>
