<svg xmlns="http://www.w3.org/2000/svg" width="40" height="40" viewBox="0 0 40 40"><defs><style>.b{fill:#fff;stroke-width:0.3px;}.b,.c{stroke:#fff;}.c,.e{fill:none;}.c{stroke-width:1.8px;}.d{stroke:none;}</style></defs><g><path class="b" d="M104.2,189.985a.565.565,0,0,1,0-.738c.2-.347.59-.876,1.006-1.436,1.334-1.8,2.2-3.041,2.017-3.929a.591.591,0,0,0-.579-.474s-2.906,0-3.977.006a.585.585,0,0,0-.563.417,16.789,16.789,0,0,1-1.243,2.688c-.791,1.4-1.31,1.834-1.492,1.911l-.029-.009a1.5,1.5,0,0,1-.206-.789,13.667,13.667,0,0,1,.033-1.824,7.973,7.973,0,0,0-.009-1.83c-.064-.166-.015-.713-.524-.827a12.349,12.349,0,0,0-2.33-.218c-1.606-.016-2.078.216-2.31.42a.59.59,0,0,0,.2,1c.36.121.488.275.591,1a8.894,8.894,0,0,1,.029,1.934c-.1.978-.337,1.174-.36,1.19-.051-.017-.445-.188-1.157-1.633-.613-1.243-1.127-2.737-1.367-3.356a.59.59,0,0,0-.551-.377H87.85a.59.59,0,0,0-.551.8,27.113,27.113,0,0,0,4.155,7.849,8.722,8.722,0,0,0,6.949,3.156.59.59,0,0,0,.59-.59,3.023,3.023,0,0,1,.367-1.745c.124-.234.245-.335.311-.35a.429.429,0,0,1,.282.118,5.149,5.149,0,0,1,.884.927,4.667,4.667,0,0,0,1.495,1.361,3.574,3.574,0,0,0,1.388.273h2.948a.586.586,0,0,0,.59-.609C107.187,192.562,104.741,190.664,104.2,189.985Zm-.484,3.756h-.009a2.511,2.511,0,0,1-.84-.151,3.66,3.66,0,0,1-1.113-1.052,6.128,6.128,0,0,0-1.1-1.131,1.473,1.473,0,0,0-2.343.628,3.684,3.684,0,0,0-.484,1.69,7.436,7.436,0,0,1-5.486-2.733,23.93,23.93,0,0,1-3.631-6.7h2.257c.882,2.377,2.027,5.367,3.482,5.367a1.2,1.2,0,0,0,.927-.438c.957-1.1.579-4,.575-4.033a3.261,3.261,0,0,0-.3-1.067A14.759,14.759,0,0,1,98,184.23a8.285,8.285,0,0,1-.016,1.507c-.087,1.436-.177,2.919.594,3.6a1.9,1.9,0,0,0,.715.289c.48.019,1.265-.215,2.535-2.421a20.421,20.421,0,0,0,1.258-2.613c.853,0,2.048,0,2.833,0a16.62,16.62,0,0,1-1.666,2.523,17.976,17.976,0,0,0-1.084,1.556,1.72,1.72,0,0,0,.091,2.037l.007.01c.56.712,2.014,1.815,2.62,3.03Zm0,0" transform="translate(-77.26 -168.932)"/><g class="c"><circle class="d" cx="20" cy="20" r="20"/><circle class="e" cx="20" cy="20" r="19.1"/></g></g></svg>