<svg xmlns="http://www.w3.org/2000/svg" width="24" height="13.582" viewBox="0 0 24 13.582">
  <g id="vk_icon_active_" data-name="vk icon (active)" transform="translate(-0.002 -20.944)">
    <path id="Path_197" data-name="Path 197" d="M23.008,31.946a32.5,32.5,0,0,0-2.351-2.365c-.718-.7-.763-1.106-.186-1.914.63-.882,1.307-1.73,1.943-2.608a9.471,9.471,0,0,0,1.512-2.621c.2-.625.023-.9-.618-1.011a1.979,1.979,0,0,0-.337-.02l-3.8,0a.85.85,0,0,0-.893.612c-.224.561-.454,1.122-.721,1.663A13.669,13.669,0,0,1,15.328,27.1c-.209.222-.439.5-.788.386-.436-.159-.565-.878-.558-1.121l0-4.389c-.085-.627-.224-.907-.846-1.028H9.182a1.257,1.257,0,0,0-1.073.534c-.162.191-.211.314.122.377a1.318,1.318,0,0,1,1.123,1.206,13.481,13.481,0,0,1,.056,3.159,2.938,2.938,0,0,1-.2.9.532.532,0,0,1-.9.266,3.668,3.668,0,0,1-.877-.964,21.224,21.224,0,0,1-2.32-4.3,1,1,0,0,0-.95-.711c-1.141-.018-2.282-.021-3.423,0-.686.013-.891.346-.612.969a42.478,42.478,0,0,0,4.431,7.9,11.034,11.034,0,0,0,3.366,3.151,8.953,8.953,0,0,0,5,1.076c.827-.039,1.076-.254,1.114-1.078A3.652,3.652,0,0,1,14.4,31.8a.73.73,0,0,1,1.164-.283,3.3,3.3,0,0,1,.629.56c.466.509.915,1.034,1.4,1.526a2.7,2.7,0,0,0,2.227.907h3.5c.563-.037.855-.727.532-1.356A6.729,6.729,0,0,0,23.008,31.946Z" transform="translate(0)" fill="#fff"/>
  </g>
</svg>
